M48
;DRILL file {KiCad (5.0.0-3-g5ebb6b6)} date 
;FORMAT={-:-/ absolute / metric / decimal}
FMAT,2
METRIC,TZ
T1C0.400
T2C0.700
T3C0.800
T4C0.900
T5C1.000
T6C2.210
T7C1.700
T8C3.200
%
G90
G05
M71
T1
X118.41Y-83.77
X125.67Y-61.215
X135.83Y-76.455
X137.735Y-84.075
X141.46Y-71.04
X146.833Y-85.513
X148.136Y-69.433
X149.243Y-88.026
X149.648Y-95.596
X149.774Y-72.942
X150.419Y-97.939
X151.104Y-74.23
X151.27Y-81.89
X151.368Y-98.784
X151.466Y-83.134
X151.59Y-77.98
X151.701Y-76.515
X156.86Y-93.07
X157.01Y-95.45
T2
X128.21Y-102.49
X135.83Y-102.49
X128.21Y-110.11
X135.83Y-110.11
X128.21Y-99.95
X135.83Y-99.95
X128.21Y-105.03
X135.83Y-105.03
X128.21Y-107.57
X135.83Y-107.57
T3
X116.19Y-91.73
X121.19Y-91.73
X113.19Y-68.73
X113.19Y-71.27
X113.19Y-73.81
X113.19Y-76.35
X113.19Y-78.89
X113.19Y-81.43
X113.19Y-83.97
X113.19Y-86.51
X120.81Y-68.73
X120.81Y-71.27
X120.81Y-73.81
X120.81Y-76.35
X120.81Y-78.89
X120.81Y-81.43
X120.81Y-83.97
X120.81Y-86.51
X114.Y-54.5
X114.Y-57.
X116.19Y-65.73
X121.19Y-65.73
X113.19Y-94.73
X113.19Y-97.27
X113.19Y-99.81
X113.19Y-102.35
X113.19Y-104.89
X113.19Y-107.43
X113.19Y-109.97
X120.81Y-94.73
X120.81Y-97.27
X120.81Y-99.81
X120.81Y-102.35
X120.81Y-104.89
X120.81Y-107.43
X120.81Y-109.97
T4
X143.45Y-110.11
X145.99Y-110.11
T5
X128.19Y-68.73
X128.19Y-71.27
X128.19Y-73.81
X128.19Y-76.35
X128.19Y-78.89
X128.19Y-81.43
X128.19Y-83.97
X128.19Y-86.51
X130.73Y-68.73
X130.73Y-71.27
X130.73Y-73.81
X130.73Y-76.35
X130.73Y-78.89
X130.73Y-81.43
X130.73Y-83.97
X130.73Y-86.51
X124.019Y-54.357
X124.019Y-56.897
X126.559Y-54.357
X126.559Y-56.897
X129.099Y-54.357
X129.099Y-56.897
X131.639Y-54.357
X131.639Y-56.897
X134.179Y-54.357
X134.179Y-56.897
X136.719Y-54.357
X136.719Y-56.897
X139.259Y-54.357
X139.259Y-56.897
X141.799Y-54.357
X141.799Y-56.897
X144.339Y-54.357
X144.339Y-56.897
X146.879Y-54.357
X146.879Y-56.897
X149.419Y-54.357
X149.419Y-56.897
X151.959Y-54.357
X151.959Y-56.897
X154.499Y-54.357
X154.499Y-56.897
X157.039Y-54.357
X157.039Y-56.897
X159.579Y-54.357
X159.579Y-56.897
X162.119Y-54.357
X162.119Y-56.897
X164.659Y-54.357
X164.659Y-56.897
X167.199Y-54.357
X167.199Y-56.897
X169.739Y-54.357
X169.739Y-56.897
X172.279Y-54.357
X172.279Y-56.897
T6
X157.33Y-107.26
X157.34Y-67.26
T7
X160.32Y-107.26
X160.33Y-67.26
T8
X193.19Y-48.58
X104.5Y-114.52
X193.46Y-114.52
X104.51Y-48.61
T0
M30
