G04 #@! TF.GenerationSoftware,KiCad,Pcbnew,(5.0.0-3-g5ebb6b6)*
G04 #@! TF.CreationDate,2018-12-13T20:58:23+09:00*
G04 #@! TF.ProjectId,SBC80-CF,53424338302D43462E6B696361645F70,rev?*
G04 #@! TF.SameCoordinates,Original*
G04 #@! TF.FileFunction,Soldermask,Bot*
G04 #@! TF.FilePolarity,Negative*
%FSLAX46Y46*%
G04 Gerber Fmt 4.6, Leading zero omitted, Abs format (unit mm)*
G04 Created by KiCad (PCBNEW (5.0.0-3-g5ebb6b6)) date *
%MOMM*%
%LPD*%
G01*
G04 APERTURE LIST*
%ADD10C,4.390000*%
%ADD11C,2.100000*%
%ADD12R,2.100000X2.100000*%
%ADD13O,2.100000X2.100000*%
%ADD14R,2.200000X2.200000*%
%ADD15C,2.200000*%
%ADD16C,3.600000*%
%ADD17C,2.000000*%
%ADD18R,2.000000X2.000000*%
%ADD19C,1.800000*%
%ADD20O,1.800000X1.800000*%
%ADD21O,2.000000X2.000000*%
G04 APERTURE END LIST*
D10*
G04 #@! TO.C,J3*
X157330000Y-107260000D03*
X157340000Y-67260000D03*
D11*
X160320000Y-107260000D03*
X160330000Y-67260000D03*
G04 #@! TD*
D12*
G04 #@! TO.C,J2*
X128190000Y-68730000D03*
D13*
X130730000Y-68730000D03*
X128190000Y-71270000D03*
X130730000Y-71270000D03*
X128190000Y-73810000D03*
X130730000Y-73810000D03*
X128190000Y-76350000D03*
X130730000Y-76350000D03*
X128190000Y-78890000D03*
X130730000Y-78890000D03*
X128190000Y-81430000D03*
X130730000Y-81430000D03*
X128190000Y-83970000D03*
X130730000Y-83970000D03*
X128190000Y-86510000D03*
X130730000Y-86510000D03*
G04 #@! TD*
D14*
G04 #@! TO.C,D1*
X145990000Y-110110000D03*
D15*
X143450000Y-110110000D03*
G04 #@! TD*
D16*
G04 #@! TO.C,MH4*
X193460000Y-114520000D03*
G04 #@! TD*
G04 #@! TO.C,MH3*
X104500000Y-114520000D03*
G04 #@! TD*
G04 #@! TO.C,MH2*
X193190000Y-48580000D03*
G04 #@! TD*
G04 #@! TO.C,MH1*
X104510000Y-48610000D03*
G04 #@! TD*
D17*
G04 #@! TO.C,C1*
X121190000Y-65730000D03*
X116190000Y-65730000D03*
G04 #@! TD*
G04 #@! TO.C,C2*
X116190000Y-91730000D03*
X121190000Y-91730000D03*
G04 #@! TD*
D18*
G04 #@! TO.C,C3*
X114000000Y-57000000D03*
D17*
X114000000Y-54500000D03*
G04 #@! TD*
D19*
G04 #@! TO.C,R1*
X128210000Y-99950000D03*
D20*
X135830000Y-99950000D03*
G04 #@! TD*
G04 #@! TO.C,R2*
X135830000Y-102490000D03*
D19*
X128210000Y-102490000D03*
G04 #@! TD*
G04 #@! TO.C,R3*
X128210000Y-105030000D03*
D20*
X135830000Y-105030000D03*
G04 #@! TD*
G04 #@! TO.C,R4*
X135830000Y-107570000D03*
D19*
X128210000Y-107570000D03*
G04 #@! TD*
G04 #@! TO.C,R5*
X128210000Y-110110000D03*
D20*
X135830000Y-110110000D03*
G04 #@! TD*
D18*
G04 #@! TO.C,U1*
X113190000Y-68730000D03*
D21*
X120810000Y-86510000D03*
X113190000Y-71270000D03*
X120810000Y-83970000D03*
X113190000Y-73810000D03*
X120810000Y-81430000D03*
X113190000Y-76350000D03*
X120810000Y-78890000D03*
X113190000Y-78890000D03*
X120810000Y-76350000D03*
X113190000Y-81430000D03*
X120810000Y-73810000D03*
X113190000Y-83970000D03*
X120810000Y-71270000D03*
X113190000Y-86510000D03*
X120810000Y-68730000D03*
G04 #@! TD*
D18*
G04 #@! TO.C,U2*
X113190000Y-94730000D03*
D21*
X120810000Y-109970000D03*
X113190000Y-97270000D03*
X120810000Y-107430000D03*
X113190000Y-99810000D03*
X120810000Y-104890000D03*
X113190000Y-102350000D03*
X120810000Y-102350000D03*
X113190000Y-104890000D03*
X120810000Y-99810000D03*
X113190000Y-107430000D03*
X120810000Y-97270000D03*
X113190000Y-109970000D03*
X120810000Y-94730000D03*
G04 #@! TD*
D12*
G04 #@! TO.C,J1*
X124019000Y-56897000D03*
D13*
X124019000Y-54357000D03*
X126559000Y-56897000D03*
X126559000Y-54357000D03*
X129099000Y-56897000D03*
X129099000Y-54357000D03*
X131639000Y-56897000D03*
X131639000Y-54357000D03*
X134179000Y-56897000D03*
X134179000Y-54357000D03*
X136719000Y-56897000D03*
X136719000Y-54357000D03*
X139259000Y-56897000D03*
X139259000Y-54357000D03*
X141799000Y-56897000D03*
X141799000Y-54357000D03*
X144339000Y-56897000D03*
X144339000Y-54357000D03*
X146879000Y-56897000D03*
X146879000Y-54357000D03*
X149419000Y-56897000D03*
X149419000Y-54357000D03*
X151959000Y-56897000D03*
X151959000Y-54357000D03*
X154499000Y-56897000D03*
X154499000Y-54357000D03*
X157039000Y-56897000D03*
X157039000Y-54357000D03*
X159579000Y-56897000D03*
X159579000Y-54357000D03*
X162119000Y-56897000D03*
X162119000Y-54357000D03*
X164659000Y-56897000D03*
X164659000Y-54357000D03*
X167199000Y-56897000D03*
X167199000Y-54357000D03*
X169739000Y-56897000D03*
X169739000Y-54357000D03*
X172279000Y-56897000D03*
X172279000Y-54357000D03*
G04 #@! TD*
M02*
