G04 #@! TF.GenerationSoftware,KiCad,Pcbnew,(5.0.0-3-g5ebb6b6)*
G04 #@! TF.CreationDate,2019-01-10T21:14:54+09:00*
G04 #@! TF.ProjectId,SBC80-CF,53424338302D43462E6B696361645F70,rev?*
G04 #@! TF.SameCoordinates,Original*
G04 #@! TF.FileFunction,Copper,L2,Bot,Signal*
G04 #@! TF.FilePolarity,Positive*
%FSLAX46Y46*%
G04 Gerber Fmt 4.6, Leading zero omitted, Abs format (unit mm)*
G04 Created by KiCad (PCBNEW (5.0.0-3-g5ebb6b6)) date *
%MOMM*%
%LPD*%
G01*
G04 APERTURE LIST*
G04 #@! TA.AperFunction,ComponentPad*
%ADD10R,1.700000X1.700000*%
G04 #@! TD*
G04 #@! TA.AperFunction,ComponentPad*
%ADD11O,1.700000X1.700000*%
G04 #@! TD*
G04 #@! TA.AperFunction,ComponentPad*
%ADD12R,1.800000X1.800000*%
G04 #@! TD*
G04 #@! TA.AperFunction,ComponentPad*
%ADD13C,1.800000*%
G04 #@! TD*
G04 #@! TA.AperFunction,ComponentPad*
%ADD14C,1.600000*%
G04 #@! TD*
G04 #@! TA.AperFunction,ComponentPad*
%ADD15R,1.600000X1.600000*%
G04 #@! TD*
G04 #@! TA.AperFunction,ComponentPad*
%ADD16C,1.400000*%
G04 #@! TD*
G04 #@! TA.AperFunction,ComponentPad*
%ADD17O,1.400000X1.400000*%
G04 #@! TD*
G04 #@! TA.AperFunction,ComponentPad*
%ADD18O,1.600000X1.600000*%
G04 #@! TD*
G04 #@! TA.AperFunction,ComponentPad*
%ADD19C,0.700000*%
G04 #@! TD*
G04 #@! TA.AperFunction,ComponentPad*
%ADD20C,3.990000*%
G04 #@! TD*
G04 #@! TA.AperFunction,ComponentPad*
%ADD21C,1.700000*%
G04 #@! TD*
G04 #@! TA.AperFunction,ViaPad*
%ADD22C,0.800000*%
G04 #@! TD*
G04 #@! TA.AperFunction,Conductor*
%ADD23C,0.600000*%
G04 #@! TD*
G04 #@! TA.AperFunction,Conductor*
%ADD24C,0.250000*%
G04 #@! TD*
G04 #@! TA.AperFunction,Conductor*
%ADD25C,0.254000*%
G04 #@! TD*
G04 APERTURE END LIST*
D10*
G04 #@! TO.P,J2,1*
G04 #@! TO.N,Net-(J2-Pad1)*
X128190000Y-68730000D03*
D11*
G04 #@! TO.P,J2,2*
G04 #@! TO.N,/~CS0*
X130730000Y-68730000D03*
G04 #@! TO.P,J2,3*
G04 #@! TO.N,Net-(J2-Pad3)*
X128190000Y-71270000D03*
G04 #@! TO.P,J2,4*
G04 #@! TO.N,/~CS0*
X130730000Y-71270000D03*
G04 #@! TO.P,J2,5*
G04 #@! TO.N,Net-(J2-Pad5)*
X128190000Y-73810000D03*
G04 #@! TO.P,J2,6*
G04 #@! TO.N,/~CS0*
X130730000Y-73810000D03*
G04 #@! TO.P,J2,7*
G04 #@! TO.N,Net-(J2-Pad7)*
X128190000Y-76350000D03*
G04 #@! TO.P,J2,8*
G04 #@! TO.N,/~CS0*
X130730000Y-76350000D03*
G04 #@! TO.P,J2,9*
G04 #@! TO.N,Net-(J2-Pad9)*
X128190000Y-78890000D03*
G04 #@! TO.P,J2,10*
G04 #@! TO.N,/~CS0*
X130730000Y-78890000D03*
G04 #@! TO.P,J2,11*
G04 #@! TO.N,Net-(J2-Pad11)*
X128190000Y-81430000D03*
G04 #@! TO.P,J2,12*
G04 #@! TO.N,/~CS0*
X130730000Y-81430000D03*
G04 #@! TO.P,J2,13*
G04 #@! TO.N,Net-(J2-Pad13)*
X128190000Y-83970000D03*
G04 #@! TO.P,J2,14*
G04 #@! TO.N,/~CS0*
X130730000Y-83970000D03*
G04 #@! TO.P,J2,15*
G04 #@! TO.N,Net-(J2-Pad15)*
X128190000Y-86510000D03*
G04 #@! TO.P,J2,16*
G04 #@! TO.N,/~CS0*
X130730000Y-86510000D03*
G04 #@! TD*
D12*
G04 #@! TO.P,D1,1*
G04 #@! TO.N,/~DASP*
X145990000Y-110110000D03*
D13*
G04 #@! TO.P,D1,2*
G04 #@! TO.N,Net-(D1-Pad2)*
X143450000Y-110110000D03*
G04 #@! TD*
D14*
G04 #@! TO.P,C1,1*
G04 #@! TO.N,VCC*
X121190000Y-65730000D03*
G04 #@! TO.P,C1,2*
G04 #@! TO.N,GND*
X116190000Y-65730000D03*
G04 #@! TD*
G04 #@! TO.P,C2,2*
G04 #@! TO.N,GND*
X116190000Y-91730000D03*
G04 #@! TO.P,C2,1*
G04 #@! TO.N,VCC*
X121190000Y-91730000D03*
G04 #@! TD*
D15*
G04 #@! TO.P,C3,1*
G04 #@! TO.N,VCC*
X114000000Y-57000000D03*
D14*
G04 #@! TO.P,C3,2*
G04 #@! TO.N,GND*
X114000000Y-54500000D03*
G04 #@! TD*
D16*
G04 #@! TO.P,R1,1*
G04 #@! TO.N,VCC*
X128210000Y-99950000D03*
D17*
G04 #@! TO.P,R1,2*
G04 #@! TO.N,/~CS1*
X135830000Y-99950000D03*
G04 #@! TD*
G04 #@! TO.P,R2,2*
G04 #@! TO.N,/~WE*
X135830000Y-102490000D03*
D16*
G04 #@! TO.P,R2,1*
G04 #@! TO.N,VCC*
X128210000Y-102490000D03*
G04 #@! TD*
G04 #@! TO.P,R3,1*
G04 #@! TO.N,VCC*
X128210000Y-105030000D03*
D17*
G04 #@! TO.P,R3,2*
G04 #@! TO.N,/~DMACK*
X135830000Y-105030000D03*
G04 #@! TD*
G04 #@! TO.P,R4,2*
G04 #@! TO.N,/~PDIAG*
X135830000Y-107570000D03*
D16*
G04 #@! TO.P,R4,1*
G04 #@! TO.N,VCC*
X128210000Y-107570000D03*
G04 #@! TD*
G04 #@! TO.P,R5,1*
G04 #@! TO.N,VCC*
X128210000Y-110110000D03*
D17*
G04 #@! TO.P,R5,2*
G04 #@! TO.N,Net-(D1-Pad2)*
X135830000Y-110110000D03*
G04 #@! TD*
D15*
G04 #@! TO.P,U1,1*
G04 #@! TO.N,/A5*
X113190000Y-68730000D03*
D18*
G04 #@! TO.P,U1,9*
G04 #@! TO.N,Net-(J2-Pad13)*
X120810000Y-86510000D03*
G04 #@! TO.P,U1,2*
G04 #@! TO.N,/A6*
X113190000Y-71270000D03*
G04 #@! TO.P,U1,10*
G04 #@! TO.N,Net-(J2-Pad11)*
X120810000Y-83970000D03*
G04 #@! TO.P,U1,3*
G04 #@! TO.N,/A7*
X113190000Y-73810000D03*
G04 #@! TO.P,U1,11*
G04 #@! TO.N,Net-(J2-Pad9)*
X120810000Y-81430000D03*
G04 #@! TO.P,U1,4*
G04 #@! TO.N,GND*
X113190000Y-76350000D03*
G04 #@! TO.P,U1,12*
G04 #@! TO.N,Net-(J2-Pad7)*
X120810000Y-78890000D03*
G04 #@! TO.P,U1,5*
G04 #@! TO.N,GND*
X113190000Y-78890000D03*
G04 #@! TO.P,U1,13*
G04 #@! TO.N,Net-(J2-Pad5)*
X120810000Y-76350000D03*
G04 #@! TO.P,U1,6*
G04 #@! TO.N,VCC*
X113190000Y-81430000D03*
G04 #@! TO.P,U1,14*
G04 #@! TO.N,Net-(J2-Pad3)*
X120810000Y-73810000D03*
G04 #@! TO.P,U1,7*
G04 #@! TO.N,Net-(J2-Pad15)*
X113190000Y-83970000D03*
G04 #@! TO.P,U1,15*
G04 #@! TO.N,Net-(J2-Pad1)*
X120810000Y-71270000D03*
G04 #@! TO.P,U1,8*
G04 #@! TO.N,GND*
X113190000Y-86510000D03*
G04 #@! TO.P,U1,16*
G04 #@! TO.N,VCC*
X120810000Y-68730000D03*
G04 #@! TD*
D15*
G04 #@! TO.P,U2,1*
G04 #@! TO.N,/RES*
X113190000Y-94730000D03*
D18*
G04 #@! TO.P,U2,8*
G04 #@! TO.N,N/C*
X120810000Y-109970000D03*
G04 #@! TO.P,U2,2*
G04 #@! TO.N,~RESET*
X113190000Y-97270000D03*
G04 #@! TO.P,U2,9*
G04 #@! TO.N,GND*
X120810000Y-107430000D03*
G04 #@! TO.P,U2,3*
X113190000Y-99810000D03*
G04 #@! TO.P,U2,10*
G04 #@! TO.N,N/C*
X120810000Y-104890000D03*
G04 #@! TO.P,U2,4*
X113190000Y-102350000D03*
G04 #@! TO.P,U2,11*
G04 #@! TO.N,GND*
X120810000Y-102350000D03*
G04 #@! TO.P,U2,5*
X113190000Y-104890000D03*
G04 #@! TO.P,U2,12*
G04 #@! TO.N,N/C*
X120810000Y-99810000D03*
G04 #@! TO.P,U2,6*
X113190000Y-107430000D03*
G04 #@! TO.P,U2,13*
G04 #@! TO.N,GND*
X120810000Y-97270000D03*
G04 #@! TO.P,U2,7*
X113190000Y-109970000D03*
G04 #@! TO.P,U2,14*
G04 #@! TO.N,VCC*
X120810000Y-94730000D03*
G04 #@! TD*
D10*
G04 #@! TO.P,J1,1*
G04 #@! TO.N,VCC*
X124019000Y-56897000D03*
D11*
G04 #@! TO.P,J1,2*
G04 #@! TO.N,GND*
X124019000Y-54357000D03*
G04 #@! TO.P,J1,3*
G04 #@! TO.N,VCC*
X126559000Y-56897000D03*
G04 #@! TO.P,J1,4*
G04 #@! TO.N,GND*
X126559000Y-54357000D03*
G04 #@! TO.P,J1,5*
G04 #@! TO.N,N/C*
X129099000Y-56897000D03*
G04 #@! TO.P,J1,6*
X129099000Y-54357000D03*
G04 #@! TO.P,J1,7*
X131639000Y-56897000D03*
G04 #@! TO.P,J1,8*
X131639000Y-54357000D03*
G04 #@! TO.P,J1,9*
G04 #@! TO.N,/D0*
X134179000Y-56897000D03*
G04 #@! TO.P,J1,10*
G04 #@! TO.N,/D1*
X134179000Y-54357000D03*
G04 #@! TO.P,J1,11*
G04 #@! TO.N,/D2*
X136719000Y-56897000D03*
G04 #@! TO.P,J1,12*
G04 #@! TO.N,/D3*
X136719000Y-54357000D03*
G04 #@! TO.P,J1,13*
G04 #@! TO.N,/D4*
X139259000Y-56897000D03*
G04 #@! TO.P,J1,14*
G04 #@! TO.N,/D5*
X139259000Y-54357000D03*
G04 #@! TO.P,J1,15*
G04 #@! TO.N,/D6*
X141799000Y-56897000D03*
G04 #@! TO.P,J1,16*
G04 #@! TO.N,/D7*
X141799000Y-54357000D03*
G04 #@! TO.P,J1,17*
G04 #@! TO.N,~IORD*
X144339000Y-56897000D03*
G04 #@! TO.P,J1,18*
G04 #@! TO.N,N/C*
X144339000Y-54357000D03*
G04 #@! TO.P,J1,19*
G04 #@! TO.N,~IOWR*
X146879000Y-56897000D03*
G04 #@! TO.P,J1,20*
G04 #@! TO.N,N/C*
X146879000Y-54357000D03*
G04 #@! TO.P,J1,21*
G04 #@! TO.N,/RES*
X149419000Y-56897000D03*
G04 #@! TO.P,J1,22*
G04 #@! TO.N,N/C*
X149419000Y-54357000D03*
G04 #@! TO.P,J1,23*
X151959000Y-56897000D03*
G04 #@! TO.P,J1,24*
X151959000Y-54357000D03*
G04 #@! TO.P,J1,25*
G04 #@! TO.N,/A0*
X154499000Y-56897000D03*
G04 #@! TO.P,J1,26*
G04 #@! TO.N,/A1*
X154499000Y-54357000D03*
G04 #@! TO.P,J1,27*
G04 #@! TO.N,/A2*
X157039000Y-56897000D03*
G04 #@! TO.P,J1,28*
G04 #@! TO.N,N/C*
X157039000Y-54357000D03*
G04 #@! TO.P,J1,29*
X159579000Y-56897000D03*
G04 #@! TO.P,J1,30*
G04 #@! TO.N,/A5*
X159579000Y-54357000D03*
G04 #@! TO.P,J1,31*
G04 #@! TO.N,/A6*
X162119000Y-56897000D03*
G04 #@! TO.P,J1,32*
G04 #@! TO.N,/A7*
X162119000Y-54357000D03*
G04 #@! TO.P,J1,33*
G04 #@! TO.N,N/C*
X164659000Y-56897000D03*
G04 #@! TO.P,J1,34*
X164659000Y-54357000D03*
G04 #@! TO.P,J1,35*
X167199000Y-56897000D03*
G04 #@! TO.P,J1,36*
X167199000Y-54357000D03*
G04 #@! TO.P,J1,37*
X169739000Y-56897000D03*
G04 #@! TO.P,J1,38*
X169739000Y-54357000D03*
G04 #@! TO.P,J1,39*
X172279000Y-56897000D03*
G04 #@! TO.P,J1,40*
X172279000Y-54357000D03*
G04 #@! TD*
D19*
G04 #@! TO.P,J3,*
G04 #@! TO.N,*
X184762000Y-109488000D03*
X184762000Y-63488000D03*
D20*
X163262000Y-105858000D03*
X163262000Y-67118000D03*
D21*
X166262000Y-105858000D03*
D13*
X166262000Y-67118000D03*
G04 #@! TD*
D22*
G04 #@! TO.N,GND*
X135664000Y-55685700D03*
X135195000Y-75185000D03*
X135195000Y-87885000D03*
X136465000Y-95505000D03*
X159325000Y-63120000D03*
X163135000Y-59945000D03*
X165040000Y-73280000D03*
G04 #@! TO.N,/~DASP*
X157888800Y-77666300D03*
G04 #@! TO.N,/D3*
X142913600Y-97937000D03*
G04 #@! TO.N,/D4*
X143689300Y-97138700D03*
G04 #@! TO.N,/D5*
X144464700Y-96340300D03*
G04 #@! TO.N,/D6*
X145734800Y-95119800D03*
G04 #@! TO.N,/D7*
X146796100Y-94045700D03*
G04 #@! TO.N,~IOWR*
X148569400Y-89978000D03*
G04 #@! TO.N,/~DMACK*
X156802800Y-79218400D03*
G04 #@! TO.N,/~PDIAG*
X157531200Y-76059200D03*
G04 #@! TD*
D23*
G04 #@! TO.N,VCC*
X121112600Y-94427400D02*
X122687400Y-94427400D01*
X122687400Y-94427400D02*
X128210000Y-99950000D01*
D24*
X121112600Y-94427400D02*
X120810000Y-94730000D01*
X121190000Y-94350000D02*
X121112600Y-94427400D01*
D23*
X128210000Y-99950000D02*
X128210000Y-102490000D01*
X128210000Y-107570000D02*
X128210000Y-105030000D01*
X128210000Y-110110000D02*
X128210000Y-107570000D01*
X121190000Y-91730000D02*
X121190000Y-94350000D01*
X121190000Y-68350000D02*
X121190000Y-68362000D01*
X121190000Y-68362000D02*
X120844000Y-68708000D01*
X121190000Y-65730000D02*
X121190000Y-68350000D01*
X124019000Y-56897000D02*
X126559000Y-56897000D01*
X124019000Y-56897000D02*
X114103000Y-56897000D01*
D24*
X114103000Y-56897000D02*
X114000000Y-57000000D01*
D23*
X119066000Y-89606000D02*
X118628000Y-89606000D01*
X118628000Y-89606000D02*
X117288000Y-88266000D01*
X117288000Y-88266000D02*
X117288000Y-83948000D01*
X117288000Y-83948000D02*
X114770000Y-81430000D01*
X114770000Y-81430000D02*
X113190000Y-81430000D01*
D24*
X119679000Y-68730000D02*
X119657000Y-68708000D01*
X119657000Y-68708000D02*
X119574000Y-68708000D01*
D23*
X119574000Y-68708000D02*
X119066000Y-69216000D01*
X119066000Y-69216000D02*
X119066000Y-89606000D01*
X120810000Y-68730000D02*
X119679000Y-68730000D01*
X119066000Y-89606000D02*
X121190000Y-91730000D01*
D24*
X121190000Y-68350000D02*
X120810000Y-68730000D01*
D23*
X124019000Y-56897000D02*
X124019000Y-58675000D01*
X124019000Y-58675000D02*
X121190000Y-61504000D01*
X121190000Y-61504000D02*
X121190000Y-65730000D01*
D24*
G04 #@! TO.N,GND*
X113190000Y-76350000D02*
X113190000Y-75224700D01*
X113190000Y-75224700D02*
X113471300Y-75224700D01*
X113471300Y-75224700D02*
X116190000Y-72506000D01*
X116190000Y-72506000D02*
X116190000Y-65730000D01*
X113190000Y-78890000D02*
X113190000Y-76350000D01*
X127734300Y-54357000D02*
X127734300Y-54724300D01*
X127734300Y-54724300D02*
X128695700Y-55685700D01*
X128695700Y-55685700D02*
X135664000Y-55685700D01*
X113190000Y-78890000D02*
X113190000Y-80015300D01*
X113190000Y-86510000D02*
X113190000Y-85384700D01*
X113190000Y-85384700D02*
X112908700Y-85384700D01*
X112908700Y-85384700D02*
X112064700Y-84540700D01*
X112064700Y-84540700D02*
X112064700Y-80859200D01*
X112064700Y-80859200D02*
X112908600Y-80015300D01*
X112908600Y-80015300D02*
X113190000Y-80015300D01*
X120810000Y-97270000D02*
X120810000Y-96144700D01*
X120810000Y-96144700D02*
X120604700Y-96144700D01*
X120604700Y-96144700D02*
X116190000Y-91730000D01*
X126559000Y-54357000D02*
X127734300Y-54357000D01*
X113190000Y-104890000D02*
X113190000Y-106015300D01*
X113190000Y-109970000D02*
X113190000Y-108844700D01*
X113190000Y-108844700D02*
X112908700Y-108844700D01*
X112908700Y-108844700D02*
X112064700Y-108000700D01*
X112064700Y-108000700D02*
X112064700Y-106859200D01*
X112064700Y-106859200D02*
X112908600Y-106015300D01*
X112908600Y-106015300D02*
X113190000Y-106015300D01*
X114000000Y-54500000D02*
X112874600Y-55625400D01*
X112874600Y-55625400D02*
X112874600Y-62414600D01*
X112874600Y-62414600D02*
X116190000Y-65730000D01*
G04 #@! TO.N,/~DASP*
X145990000Y-110110000D02*
X145990000Y-108884700D01*
X157888800Y-77666300D02*
X158069800Y-77847300D01*
X158069800Y-77847300D02*
X158069800Y-96804900D01*
X158069800Y-96804900D02*
X145990000Y-108884700D01*
G04 #@! TO.N,/D3*
X136719000Y-55532300D02*
X137086400Y-55532300D01*
X137086400Y-55532300D02*
X137894300Y-56340200D01*
X137894300Y-56340200D02*
X137894300Y-92917700D01*
X137894300Y-92917700D02*
X142913600Y-97937000D01*
X136719000Y-54357000D02*
X136719000Y-55532300D01*
G04 #@! TO.N,/D4*
X143689300Y-97138700D02*
X139259000Y-92708400D01*
X139259000Y-92708400D02*
X139259000Y-56897000D01*
G04 #@! TO.N,/D5*
X139259000Y-55532300D02*
X139626400Y-55532300D01*
X139626400Y-55532300D02*
X140434300Y-56340200D01*
X140434300Y-56340200D02*
X140434300Y-92309900D01*
X140434300Y-92309900D02*
X144464700Y-96340300D01*
X139259000Y-54357000D02*
X139259000Y-55532300D01*
G04 #@! TO.N,/D6*
X141799000Y-56897000D02*
X141799000Y-91184000D01*
X141799000Y-91184000D02*
X145734800Y-95119800D01*
G04 #@! TO.N,/D7*
X141799000Y-55532300D02*
X142166400Y-55532300D01*
X142166400Y-55532300D02*
X142974300Y-56340200D01*
X142974300Y-56340200D02*
X142974300Y-90223900D01*
X142974300Y-90223900D02*
X146796100Y-94045700D01*
X141799000Y-54357000D02*
X141799000Y-55532300D01*
G04 #@! TO.N,~IOWR*
X146879000Y-58072300D02*
X148569400Y-59762700D01*
X148569400Y-59762700D02*
X148569400Y-89978000D01*
X146879000Y-56897000D02*
X146879000Y-58072300D01*
G04 #@! TO.N,/~CS0*
X130730000Y-86510000D02*
X130730000Y-83970000D01*
X130730000Y-71270000D02*
X130730000Y-68730000D01*
X130730000Y-73810000D02*
X130730000Y-71270000D01*
X130730000Y-76350000D02*
X130730000Y-73810000D01*
X130730000Y-78890000D02*
X130730000Y-76350000D01*
X130730000Y-81430000D02*
X130730000Y-78890000D01*
X130730000Y-83970000D02*
X130730000Y-81430000D01*
G04 #@! TO.N,Net-(J2-Pad13)*
X120810000Y-86510000D02*
X121935300Y-86510000D01*
X121935300Y-86510000D02*
X124475300Y-83970000D01*
X124475300Y-83970000D02*
X128190000Y-83970000D01*
G04 #@! TO.N,/~DMACK*
X156802800Y-79218400D02*
X156802800Y-85082500D01*
X156802800Y-85082500D02*
X136855300Y-105030000D01*
X135830000Y-105030000D02*
X136855300Y-105030000D01*
G04 #@! TO.N,/~PDIAG*
X157531200Y-76059200D02*
X157163500Y-76426900D01*
X157163500Y-76426900D02*
X157163500Y-78553100D01*
X157163500Y-78553100D02*
X157575300Y-78964900D01*
X157575300Y-78964900D02*
X157575300Y-84953800D01*
X157575300Y-84953800D02*
X135984400Y-106544700D01*
X135984400Y-106544700D02*
X135830000Y-106544700D01*
X135830000Y-107570000D02*
X135830000Y-106544700D01*
G04 #@! TO.N,/A6*
X113190000Y-71270000D02*
X113190000Y-70144700D01*
X162119000Y-56897000D02*
X160943700Y-56897000D01*
X160943700Y-56897000D02*
X160943700Y-56529600D01*
X160943700Y-56529600D02*
X160135800Y-55721700D01*
X160135800Y-55721700D02*
X159242700Y-55721700D01*
X159242700Y-55721700D02*
X158309000Y-54788000D01*
X158309000Y-54788000D02*
X158309000Y-53884300D01*
X158309000Y-53884300D02*
X157583500Y-53158800D01*
X157583500Y-53158800D02*
X113739500Y-53158800D01*
X113739500Y-53158800D02*
X112064700Y-54833600D01*
X112064700Y-54833600D02*
X112064700Y-69722800D01*
X112064700Y-69722800D02*
X112486600Y-70144700D01*
X112486600Y-70144700D02*
X113190000Y-70144700D01*
G04 #@! TD*
D25*
G04 #@! TO.N,GND*
G36*
X197933000Y-118238000D02*
X99762000Y-118238000D01*
X99762000Y-114075431D01*
X102265000Y-114075431D01*
X102265000Y-114964569D01*
X102605259Y-115786026D01*
X103233974Y-116414741D01*
X104055431Y-116755000D01*
X104944569Y-116755000D01*
X105766026Y-116414741D01*
X106394741Y-115786026D01*
X106735000Y-114964569D01*
X106735000Y-114075431D01*
X191225000Y-114075431D01*
X191225000Y-114964569D01*
X191565259Y-115786026D01*
X192193974Y-116414741D01*
X193015431Y-116755000D01*
X193904569Y-116755000D01*
X194726026Y-116414741D01*
X195354741Y-115786026D01*
X195695000Y-114964569D01*
X195695000Y-114075431D01*
X195354741Y-113253974D01*
X194726026Y-112625259D01*
X193904569Y-112285000D01*
X193015431Y-112285000D01*
X192193974Y-112625259D01*
X191565259Y-113253974D01*
X191225000Y-114075431D01*
X106735000Y-114075431D01*
X106394741Y-113253974D01*
X105766026Y-112625259D01*
X104944569Y-112285000D01*
X104055431Y-112285000D01*
X103233974Y-112625259D01*
X102605259Y-113253974D01*
X102265000Y-114075431D01*
X99762000Y-114075431D01*
X99762000Y-110319039D01*
X111798096Y-110319039D01*
X111958959Y-110707423D01*
X112334866Y-111122389D01*
X112840959Y-111361914D01*
X113063000Y-111240629D01*
X113063000Y-110097000D01*
X113317000Y-110097000D01*
X113317000Y-111240629D01*
X113539041Y-111361914D01*
X114045134Y-111122389D01*
X114421041Y-110707423D01*
X114581904Y-110319039D01*
X114459915Y-110097000D01*
X113317000Y-110097000D01*
X113063000Y-110097000D01*
X111920085Y-110097000D01*
X111798096Y-110319039D01*
X99762000Y-110319039D01*
X99762000Y-109970000D01*
X119346887Y-109970000D01*
X119458260Y-110529909D01*
X119775423Y-111004577D01*
X120250091Y-111321740D01*
X120668667Y-111405000D01*
X120951333Y-111405000D01*
X121369909Y-111321740D01*
X121844577Y-111004577D01*
X122161740Y-110529909D01*
X122273113Y-109970000D01*
X122161740Y-109410091D01*
X121844577Y-108935423D01*
X121460892Y-108679053D01*
X121665134Y-108582389D01*
X122041041Y-108167423D01*
X122201904Y-107779039D01*
X122079915Y-107557000D01*
X120937000Y-107557000D01*
X120937000Y-107577000D01*
X120683000Y-107577000D01*
X120683000Y-107557000D01*
X119540085Y-107557000D01*
X119418096Y-107779039D01*
X119578959Y-108167423D01*
X119954866Y-108582389D01*
X120159108Y-108679053D01*
X119775423Y-108935423D01*
X119458260Y-109410091D01*
X119346887Y-109970000D01*
X99762000Y-109970000D01*
X99762000Y-107430000D01*
X111726887Y-107430000D01*
X111838260Y-107989909D01*
X112155423Y-108464577D01*
X112539108Y-108720947D01*
X112334866Y-108817611D01*
X111958959Y-109232577D01*
X111798096Y-109620961D01*
X111920085Y-109843000D01*
X113063000Y-109843000D01*
X113063000Y-109823000D01*
X113317000Y-109823000D01*
X113317000Y-109843000D01*
X114459915Y-109843000D01*
X114581904Y-109620961D01*
X114421041Y-109232577D01*
X114045134Y-108817611D01*
X113840892Y-108720947D01*
X114224577Y-108464577D01*
X114541740Y-107989909D01*
X114653113Y-107430000D01*
X114541740Y-106870091D01*
X114224577Y-106395423D01*
X113840892Y-106139053D01*
X114045134Y-106042389D01*
X114421041Y-105627423D01*
X114581904Y-105239039D01*
X114459915Y-105017000D01*
X113317000Y-105017000D01*
X113317000Y-105037000D01*
X113063000Y-105037000D01*
X113063000Y-105017000D01*
X111920085Y-105017000D01*
X111798096Y-105239039D01*
X111958959Y-105627423D01*
X112334866Y-106042389D01*
X112539108Y-106139053D01*
X112155423Y-106395423D01*
X111838260Y-106870091D01*
X111726887Y-107430000D01*
X99762000Y-107430000D01*
X99762000Y-104890000D01*
X119346887Y-104890000D01*
X119458260Y-105449909D01*
X119775423Y-105924577D01*
X120159108Y-106180947D01*
X119954866Y-106277611D01*
X119578959Y-106692577D01*
X119418096Y-107080961D01*
X119540085Y-107303000D01*
X120683000Y-107303000D01*
X120683000Y-107283000D01*
X120937000Y-107283000D01*
X120937000Y-107303000D01*
X122079915Y-107303000D01*
X122201904Y-107080961D01*
X122041041Y-106692577D01*
X121665134Y-106277611D01*
X121460892Y-106180947D01*
X121844577Y-105924577D01*
X122161740Y-105449909D01*
X122273113Y-104890000D01*
X122161740Y-104330091D01*
X121844577Y-103855423D01*
X121460892Y-103599053D01*
X121665134Y-103502389D01*
X122041041Y-103087423D01*
X122201904Y-102699039D01*
X122079915Y-102477000D01*
X120937000Y-102477000D01*
X120937000Y-102497000D01*
X120683000Y-102497000D01*
X120683000Y-102477000D01*
X119540085Y-102477000D01*
X119418096Y-102699039D01*
X119578959Y-103087423D01*
X119954866Y-103502389D01*
X120159108Y-103599053D01*
X119775423Y-103855423D01*
X119458260Y-104330091D01*
X119346887Y-104890000D01*
X99762000Y-104890000D01*
X99762000Y-102350000D01*
X111726887Y-102350000D01*
X111838260Y-102909909D01*
X112155423Y-103384577D01*
X112539108Y-103640947D01*
X112334866Y-103737611D01*
X111958959Y-104152577D01*
X111798096Y-104540961D01*
X111920085Y-104763000D01*
X113063000Y-104763000D01*
X113063000Y-104743000D01*
X113317000Y-104743000D01*
X113317000Y-104763000D01*
X114459915Y-104763000D01*
X114581904Y-104540961D01*
X114421041Y-104152577D01*
X114045134Y-103737611D01*
X113840892Y-103640947D01*
X114224577Y-103384577D01*
X114541740Y-102909909D01*
X114653113Y-102350000D01*
X114541740Y-101790091D01*
X114224577Y-101315423D01*
X113840892Y-101059053D01*
X114045134Y-100962389D01*
X114421041Y-100547423D01*
X114581904Y-100159039D01*
X114459915Y-99937000D01*
X113317000Y-99937000D01*
X113317000Y-99957000D01*
X113063000Y-99957000D01*
X113063000Y-99937000D01*
X111920085Y-99937000D01*
X111798096Y-100159039D01*
X111958959Y-100547423D01*
X112334866Y-100962389D01*
X112539108Y-101059053D01*
X112155423Y-101315423D01*
X111838260Y-101790091D01*
X111726887Y-102350000D01*
X99762000Y-102350000D01*
X99762000Y-99810000D01*
X119346887Y-99810000D01*
X119458260Y-100369909D01*
X119775423Y-100844577D01*
X120159108Y-101100947D01*
X119954866Y-101197611D01*
X119578959Y-101612577D01*
X119418096Y-102000961D01*
X119540085Y-102223000D01*
X120683000Y-102223000D01*
X120683000Y-102203000D01*
X120937000Y-102203000D01*
X120937000Y-102223000D01*
X122079915Y-102223000D01*
X122201904Y-102000961D01*
X122041041Y-101612577D01*
X121665134Y-101197611D01*
X121460892Y-101100947D01*
X121844577Y-100844577D01*
X122161740Y-100369909D01*
X122273113Y-99810000D01*
X122161740Y-99250091D01*
X121844577Y-98775423D01*
X121460892Y-98519053D01*
X121665134Y-98422389D01*
X122041041Y-98007423D01*
X122201904Y-97619039D01*
X122079915Y-97397000D01*
X120937000Y-97397000D01*
X120937000Y-97417000D01*
X120683000Y-97417000D01*
X120683000Y-97397000D01*
X119540085Y-97397000D01*
X119418096Y-97619039D01*
X119578959Y-98007423D01*
X119954866Y-98422389D01*
X120159108Y-98519053D01*
X119775423Y-98775423D01*
X119458260Y-99250091D01*
X119346887Y-99810000D01*
X99762000Y-99810000D01*
X99762000Y-97270000D01*
X111726887Y-97270000D01*
X111838260Y-97829909D01*
X112155423Y-98304577D01*
X112539108Y-98560947D01*
X112334866Y-98657611D01*
X111958959Y-99072577D01*
X111798096Y-99460961D01*
X111920085Y-99683000D01*
X113063000Y-99683000D01*
X113063000Y-99663000D01*
X113317000Y-99663000D01*
X113317000Y-99683000D01*
X114459915Y-99683000D01*
X114581904Y-99460961D01*
X114421041Y-99072577D01*
X114045134Y-98657611D01*
X113840892Y-98560947D01*
X114224577Y-98304577D01*
X114541740Y-97829909D01*
X114653113Y-97270000D01*
X114541740Y-96710091D01*
X114224577Y-96235423D01*
X114103894Y-96154785D01*
X114237765Y-96128157D01*
X114447809Y-95987809D01*
X114588157Y-95777765D01*
X114637440Y-95530000D01*
X114637440Y-93930000D01*
X114588157Y-93682235D01*
X114447809Y-93472191D01*
X114237765Y-93331843D01*
X113990000Y-93282560D01*
X112390000Y-93282560D01*
X112142235Y-93331843D01*
X111932191Y-93472191D01*
X111791843Y-93682235D01*
X111742560Y-93930000D01*
X111742560Y-95530000D01*
X111791843Y-95777765D01*
X111932191Y-95987809D01*
X112142235Y-96128157D01*
X112276106Y-96154785D01*
X112155423Y-96235423D01*
X111838260Y-96710091D01*
X111726887Y-97270000D01*
X99762000Y-97270000D01*
X99762000Y-92737745D01*
X115361861Y-92737745D01*
X115435995Y-92983864D01*
X115973223Y-93176965D01*
X116543454Y-93149778D01*
X116944005Y-92983864D01*
X117018139Y-92737745D01*
X116190000Y-91909605D01*
X115361861Y-92737745D01*
X99762000Y-92737745D01*
X99762000Y-91513223D01*
X114743035Y-91513223D01*
X114770222Y-92083454D01*
X114936136Y-92484005D01*
X115182255Y-92558139D01*
X116010395Y-91730000D01*
X116369605Y-91730000D01*
X117197745Y-92558139D01*
X117443864Y-92484005D01*
X117636965Y-91946777D01*
X117609778Y-91376546D01*
X117443864Y-90975995D01*
X117197745Y-90901861D01*
X116369605Y-91730000D01*
X116010395Y-91730000D01*
X115182255Y-90901861D01*
X114936136Y-90975995D01*
X114743035Y-91513223D01*
X99762000Y-91513223D01*
X99762000Y-90722255D01*
X115361861Y-90722255D01*
X116190000Y-91550395D01*
X117018139Y-90722255D01*
X116944005Y-90476136D01*
X116406777Y-90283035D01*
X115836546Y-90310222D01*
X115435995Y-90476136D01*
X115361861Y-90722255D01*
X99762000Y-90722255D01*
X99762000Y-86859039D01*
X111798096Y-86859039D01*
X111958959Y-87247423D01*
X112334866Y-87662389D01*
X112840959Y-87901914D01*
X113063000Y-87780629D01*
X113063000Y-86637000D01*
X113317000Y-86637000D01*
X113317000Y-87780629D01*
X113539041Y-87901914D01*
X114045134Y-87662389D01*
X114421041Y-87247423D01*
X114581904Y-86859039D01*
X114459915Y-86637000D01*
X113317000Y-86637000D01*
X113063000Y-86637000D01*
X111920085Y-86637000D01*
X111798096Y-86859039D01*
X99762000Y-86859039D01*
X99762000Y-76699039D01*
X111798096Y-76699039D01*
X111958959Y-77087423D01*
X112334866Y-77502389D01*
X112583367Y-77620000D01*
X112334866Y-77737611D01*
X111958959Y-78152577D01*
X111798096Y-78540961D01*
X111920085Y-78763000D01*
X113063000Y-78763000D01*
X113063000Y-76477000D01*
X113317000Y-76477000D01*
X113317000Y-78763000D01*
X114459915Y-78763000D01*
X114581904Y-78540961D01*
X114421041Y-78152577D01*
X114045134Y-77737611D01*
X113796633Y-77620000D01*
X114045134Y-77502389D01*
X114421041Y-77087423D01*
X114581904Y-76699039D01*
X114459915Y-76477000D01*
X113317000Y-76477000D01*
X113063000Y-76477000D01*
X111920085Y-76477000D01*
X111798096Y-76699039D01*
X99762000Y-76699039D01*
X99762000Y-54833600D01*
X111289812Y-54833600D01*
X111304700Y-54908447D01*
X111304701Y-69647948D01*
X111289812Y-69722800D01*
X111348797Y-70019337D01*
X111469095Y-70199375D01*
X111516772Y-70270729D01*
X111580228Y-70313129D01*
X111893908Y-70626809D01*
X111838260Y-70710091D01*
X111726887Y-71270000D01*
X111838260Y-71829909D01*
X112155423Y-72304577D01*
X112507758Y-72540000D01*
X112155423Y-72775423D01*
X111838260Y-73250091D01*
X111726887Y-73810000D01*
X111838260Y-74369909D01*
X112155423Y-74844577D01*
X112539108Y-75100947D01*
X112334866Y-75197611D01*
X111958959Y-75612577D01*
X111798096Y-76000961D01*
X111920085Y-76223000D01*
X113063000Y-76223000D01*
X113063000Y-76203000D01*
X113317000Y-76203000D01*
X113317000Y-76223000D01*
X114459915Y-76223000D01*
X114581904Y-76000961D01*
X114421041Y-75612577D01*
X114045134Y-75197611D01*
X113840892Y-75100947D01*
X114224577Y-74844577D01*
X114541740Y-74369909D01*
X114653113Y-73810000D01*
X114541740Y-73250091D01*
X114224577Y-72775423D01*
X113872242Y-72540000D01*
X114224577Y-72304577D01*
X114541740Y-71829909D01*
X114653113Y-71270000D01*
X114541740Y-70710091D01*
X114224577Y-70235423D01*
X114103894Y-70154785D01*
X114237765Y-70128157D01*
X114447809Y-69987809D01*
X114588157Y-69777765D01*
X114637440Y-69530000D01*
X114637440Y-67930000D01*
X114588157Y-67682235D01*
X114447809Y-67472191D01*
X114237765Y-67331843D01*
X113990000Y-67282560D01*
X112824700Y-67282560D01*
X112824700Y-66737745D01*
X115361861Y-66737745D01*
X115435995Y-66983864D01*
X115973223Y-67176965D01*
X116543454Y-67149778D01*
X116944005Y-66983864D01*
X117018139Y-66737745D01*
X116190000Y-65909605D01*
X115361861Y-66737745D01*
X112824700Y-66737745D01*
X112824700Y-65513223D01*
X114743035Y-65513223D01*
X114770222Y-66083454D01*
X114936136Y-66484005D01*
X115182255Y-66558139D01*
X116010395Y-65730000D01*
X116369605Y-65730000D01*
X117197745Y-66558139D01*
X117443864Y-66484005D01*
X117636965Y-65946777D01*
X117609778Y-65376546D01*
X117443864Y-64975995D01*
X117197745Y-64901861D01*
X116369605Y-65730000D01*
X116010395Y-65730000D01*
X115182255Y-64901861D01*
X114936136Y-64975995D01*
X114743035Y-65513223D01*
X112824700Y-65513223D01*
X112824700Y-64722255D01*
X115361861Y-64722255D01*
X116190000Y-65550395D01*
X117018139Y-64722255D01*
X116944005Y-64476136D01*
X116406777Y-64283035D01*
X115836546Y-64310222D01*
X115435995Y-64476136D01*
X115361861Y-64722255D01*
X112824700Y-64722255D01*
X112824700Y-58312940D01*
X112952235Y-58398157D01*
X113200000Y-58447440D01*
X114800000Y-58447440D01*
X115047765Y-58398157D01*
X115257809Y-58257809D01*
X115398157Y-58047765D01*
X115441075Y-57832000D01*
X122538467Y-57832000D01*
X122570843Y-57994765D01*
X122711191Y-58204809D01*
X122921235Y-58345157D01*
X123009080Y-58362630D01*
X120593972Y-60777739D01*
X120515903Y-60829903D01*
X120309251Y-61139181D01*
X120309250Y-61139182D01*
X120236683Y-61504000D01*
X120255000Y-61596086D01*
X120255001Y-64635603D01*
X119973466Y-64917138D01*
X119755000Y-65444561D01*
X119755000Y-66015439D01*
X119973466Y-66542862D01*
X120255000Y-66824396D01*
X120255001Y-67377283D01*
X120250091Y-67378260D01*
X119775423Y-67695423D01*
X119716841Y-67783097D01*
X119573999Y-67754684D01*
X119209181Y-67827251D01*
X118977970Y-67981741D01*
X118469972Y-68489739D01*
X118391903Y-68541903D01*
X118266221Y-68730000D01*
X118185250Y-68851182D01*
X118112683Y-69216000D01*
X118131000Y-69308086D01*
X118131001Y-83526685D01*
X118014259Y-83351969D01*
X117962097Y-83273903D01*
X117884031Y-83221741D01*
X115496261Y-80833972D01*
X115444097Y-80755903D01*
X115134819Y-80549250D01*
X114862086Y-80495000D01*
X114770000Y-80476683D01*
X114677914Y-80495000D01*
X114291112Y-80495000D01*
X114224577Y-80395423D01*
X113840892Y-80139053D01*
X114045134Y-80042389D01*
X114421041Y-79627423D01*
X114581904Y-79239039D01*
X114459915Y-79017000D01*
X113317000Y-79017000D01*
X113317000Y-79037000D01*
X113063000Y-79037000D01*
X113063000Y-79017000D01*
X111920085Y-79017000D01*
X111798096Y-79239039D01*
X111958959Y-79627423D01*
X112334866Y-80042389D01*
X112539108Y-80139053D01*
X112155423Y-80395423D01*
X111838260Y-80870091D01*
X111726887Y-81430000D01*
X111838260Y-81989909D01*
X112155423Y-82464577D01*
X112507758Y-82700000D01*
X112155423Y-82935423D01*
X111838260Y-83410091D01*
X111726887Y-83970000D01*
X111838260Y-84529909D01*
X112155423Y-85004577D01*
X112539108Y-85260947D01*
X112334866Y-85357611D01*
X111958959Y-85772577D01*
X111798096Y-86160961D01*
X111920085Y-86383000D01*
X113063000Y-86383000D01*
X113063000Y-86363000D01*
X113317000Y-86363000D01*
X113317000Y-86383000D01*
X114459915Y-86383000D01*
X114581904Y-86160961D01*
X114421041Y-85772577D01*
X114045134Y-85357611D01*
X113840892Y-85260947D01*
X114224577Y-85004577D01*
X114541740Y-84529909D01*
X114653113Y-83970000D01*
X114541740Y-83410091D01*
X114224577Y-82935423D01*
X113872242Y-82700000D01*
X114224577Y-82464577D01*
X114291112Y-82365000D01*
X114382711Y-82365000D01*
X116353001Y-84335291D01*
X116353000Y-88173914D01*
X116334683Y-88266000D01*
X116353000Y-88358085D01*
X116407250Y-88630818D01*
X116613903Y-88940097D01*
X116691972Y-88992261D01*
X117901740Y-90202030D01*
X117953903Y-90280097D01*
X118263181Y-90486750D01*
X118535914Y-90541000D01*
X118535917Y-90541000D01*
X118627999Y-90559316D01*
X118685575Y-90547864D01*
X119755000Y-91617289D01*
X119755000Y-92015439D01*
X119973466Y-92542862D01*
X120255000Y-92824396D01*
X120255001Y-93377283D01*
X120250091Y-93378260D01*
X119775423Y-93695423D01*
X119458260Y-94170091D01*
X119346887Y-94730000D01*
X119458260Y-95289909D01*
X119775423Y-95764577D01*
X120159108Y-96020947D01*
X119954866Y-96117611D01*
X119578959Y-96532577D01*
X119418096Y-96920961D01*
X119540085Y-97143000D01*
X120683000Y-97143000D01*
X120683000Y-97123000D01*
X120937000Y-97123000D01*
X120937000Y-97143000D01*
X122079915Y-97143000D01*
X122201904Y-96920961D01*
X122041041Y-96532577D01*
X121665134Y-96117611D01*
X121460892Y-96020947D01*
X121844577Y-95764577D01*
X122113303Y-95362400D01*
X122300111Y-95362400D01*
X126875000Y-99937290D01*
X126875000Y-100215548D01*
X127078242Y-100706217D01*
X127275000Y-100902975D01*
X127275001Y-101537024D01*
X127078242Y-101733783D01*
X126875000Y-102224452D01*
X126875000Y-102755548D01*
X127078242Y-103246217D01*
X127453783Y-103621758D01*
X127787528Y-103760000D01*
X127453783Y-103898242D01*
X127078242Y-104273783D01*
X126875000Y-104764452D01*
X126875000Y-105295548D01*
X127078242Y-105786217D01*
X127275001Y-105982976D01*
X127275000Y-106617025D01*
X127078242Y-106813783D01*
X126875000Y-107304452D01*
X126875000Y-107835548D01*
X127078242Y-108326217D01*
X127275001Y-108522976D01*
X127275000Y-109157025D01*
X127078242Y-109353783D01*
X126875000Y-109844452D01*
X126875000Y-110375548D01*
X127078242Y-110866217D01*
X127453783Y-111241758D01*
X127944452Y-111445000D01*
X128475548Y-111445000D01*
X128966217Y-111241758D01*
X129341758Y-110866217D01*
X129545000Y-110375548D01*
X129545000Y-109844452D01*
X129341758Y-109353783D01*
X129145000Y-109157025D01*
X129145000Y-108522975D01*
X129341758Y-108326217D01*
X129545000Y-107835548D01*
X129545000Y-107304452D01*
X129341758Y-106813783D01*
X129145000Y-106617025D01*
X129145000Y-105982975D01*
X129341758Y-105786217D01*
X129545000Y-105295548D01*
X129545000Y-104764452D01*
X129341758Y-104273783D01*
X128966217Y-103898242D01*
X128632472Y-103760000D01*
X128966217Y-103621758D01*
X129341758Y-103246217D01*
X129545000Y-102755548D01*
X129545000Y-102224452D01*
X129341758Y-101733783D01*
X129145000Y-101537025D01*
X129145000Y-100902975D01*
X129341758Y-100706217D01*
X129545000Y-100215548D01*
X129545000Y-99684452D01*
X129341758Y-99193783D01*
X128966217Y-98818242D01*
X128475548Y-98615000D01*
X128197290Y-98615000D01*
X123413661Y-93831372D01*
X123361497Y-93753303D01*
X123052219Y-93546650D01*
X122779486Y-93492400D01*
X122687400Y-93474083D01*
X122595314Y-93492400D01*
X122125000Y-93492400D01*
X122125000Y-92824396D01*
X122406534Y-92542862D01*
X122625000Y-92015439D01*
X122625000Y-91444561D01*
X122406534Y-90917138D01*
X122002862Y-90513466D01*
X121475439Y-90295000D01*
X121077289Y-90295000D01*
X120001000Y-89218711D01*
X120001000Y-87695303D01*
X120250091Y-87861740D01*
X120668667Y-87945000D01*
X120951333Y-87945000D01*
X121369909Y-87861740D01*
X121844577Y-87544577D01*
X122030786Y-87265896D01*
X122231837Y-87225904D01*
X122483229Y-87057929D01*
X122525631Y-86994470D01*
X124790103Y-84730000D01*
X126911822Y-84730000D01*
X127119375Y-85040625D01*
X127417761Y-85240000D01*
X127119375Y-85439375D01*
X126791161Y-85930582D01*
X126675908Y-86510000D01*
X126791161Y-87089418D01*
X127119375Y-87580625D01*
X127610582Y-87908839D01*
X128043744Y-87995000D01*
X128336256Y-87995000D01*
X128769418Y-87908839D01*
X129260625Y-87580625D01*
X129460000Y-87282239D01*
X129659375Y-87580625D01*
X130150582Y-87908839D01*
X130583744Y-87995000D01*
X130876256Y-87995000D01*
X131309418Y-87908839D01*
X131800625Y-87580625D01*
X132128839Y-87089418D01*
X132244092Y-86510000D01*
X132128839Y-85930582D01*
X131800625Y-85439375D01*
X131502239Y-85240000D01*
X131800625Y-85040625D01*
X132128839Y-84549418D01*
X132244092Y-83970000D01*
X132128839Y-83390582D01*
X131800625Y-82899375D01*
X131502239Y-82700000D01*
X131800625Y-82500625D01*
X132128839Y-82009418D01*
X132244092Y-81430000D01*
X132128839Y-80850582D01*
X131800625Y-80359375D01*
X131502239Y-80160000D01*
X131800625Y-79960625D01*
X132128839Y-79469418D01*
X132244092Y-78890000D01*
X132128839Y-78310582D01*
X131800625Y-77819375D01*
X131502239Y-77620000D01*
X131800625Y-77420625D01*
X132128839Y-76929418D01*
X132244092Y-76350000D01*
X132128839Y-75770582D01*
X131800625Y-75279375D01*
X131502239Y-75080000D01*
X131800625Y-74880625D01*
X132128839Y-74389418D01*
X132244092Y-73810000D01*
X132128839Y-73230582D01*
X131800625Y-72739375D01*
X131502239Y-72540000D01*
X131800625Y-72340625D01*
X132128839Y-71849418D01*
X132244092Y-71270000D01*
X132128839Y-70690582D01*
X131800625Y-70199375D01*
X131502239Y-70000000D01*
X131800625Y-69800625D01*
X132128839Y-69309418D01*
X132244092Y-68730000D01*
X132128839Y-68150582D01*
X131800625Y-67659375D01*
X131309418Y-67331161D01*
X130876256Y-67245000D01*
X130583744Y-67245000D01*
X130150582Y-67331161D01*
X129659375Y-67659375D01*
X129647184Y-67677619D01*
X129638157Y-67632235D01*
X129497809Y-67422191D01*
X129287765Y-67281843D01*
X129040000Y-67232560D01*
X127340000Y-67232560D01*
X127092235Y-67281843D01*
X126882191Y-67422191D01*
X126741843Y-67632235D01*
X126692560Y-67880000D01*
X126692560Y-69580000D01*
X126741843Y-69827765D01*
X126882191Y-70037809D01*
X127092235Y-70178157D01*
X127137619Y-70187184D01*
X127119375Y-70199375D01*
X126791161Y-70690582D01*
X126675908Y-71270000D01*
X126791161Y-71849418D01*
X127119375Y-72340625D01*
X127417761Y-72540000D01*
X127119375Y-72739375D01*
X126791161Y-73230582D01*
X126675908Y-73810000D01*
X126791161Y-74389418D01*
X127119375Y-74880625D01*
X127417761Y-75080000D01*
X127119375Y-75279375D01*
X126791161Y-75770582D01*
X126675908Y-76350000D01*
X126791161Y-76929418D01*
X127119375Y-77420625D01*
X127417761Y-77620000D01*
X127119375Y-77819375D01*
X126791161Y-78310582D01*
X126675908Y-78890000D01*
X126791161Y-79469418D01*
X127119375Y-79960625D01*
X127417761Y-80160000D01*
X127119375Y-80359375D01*
X126791161Y-80850582D01*
X126675908Y-81430000D01*
X126791161Y-82009418D01*
X127119375Y-82500625D01*
X127417761Y-82700000D01*
X127119375Y-82899375D01*
X126911822Y-83210000D01*
X124550146Y-83210000D01*
X124475299Y-83195112D01*
X124400452Y-83210000D01*
X124400448Y-83210000D01*
X124178763Y-83254096D01*
X124178761Y-83254097D01*
X124178762Y-83254097D01*
X123990826Y-83379671D01*
X123990824Y-83379673D01*
X123927371Y-83422071D01*
X123884973Y-83485524D01*
X121864804Y-85505695D01*
X121844577Y-85475423D01*
X121492242Y-85240000D01*
X121844577Y-85004577D01*
X122161740Y-84529909D01*
X122273113Y-83970000D01*
X122161740Y-83410091D01*
X121844577Y-82935423D01*
X121492242Y-82700000D01*
X121844577Y-82464577D01*
X122161740Y-81989909D01*
X122273113Y-81430000D01*
X122161740Y-80870091D01*
X121844577Y-80395423D01*
X121492242Y-80160000D01*
X121844577Y-79924577D01*
X122161740Y-79449909D01*
X122273113Y-78890000D01*
X122161740Y-78330091D01*
X121844577Y-77855423D01*
X121492242Y-77620000D01*
X121844577Y-77384577D01*
X122161740Y-76909909D01*
X122273113Y-76350000D01*
X122161740Y-75790091D01*
X121844577Y-75315423D01*
X121492242Y-75080000D01*
X121844577Y-74844577D01*
X122161740Y-74369909D01*
X122273113Y-73810000D01*
X122161740Y-73250091D01*
X121844577Y-72775423D01*
X121492242Y-72540000D01*
X121844577Y-72304577D01*
X122161740Y-71829909D01*
X122273113Y-71270000D01*
X122161740Y-70710091D01*
X121844577Y-70235423D01*
X121492242Y-70000000D01*
X121844577Y-69764577D01*
X122161740Y-69289909D01*
X122273113Y-68730000D01*
X122161740Y-68170091D01*
X122125000Y-68115106D01*
X122125000Y-66824396D01*
X122406534Y-66542862D01*
X122625000Y-66015439D01*
X122625000Y-65444561D01*
X122406534Y-64917138D01*
X122125000Y-64635604D01*
X122125000Y-61891289D01*
X124615031Y-59401259D01*
X124693097Y-59349097D01*
X124899750Y-59039819D01*
X124954000Y-58767086D01*
X124972317Y-58675001D01*
X124954000Y-58582915D01*
X124954000Y-58377533D01*
X125116765Y-58345157D01*
X125326809Y-58204809D01*
X125467157Y-57994765D01*
X125476184Y-57949381D01*
X125488375Y-57967625D01*
X125979582Y-58295839D01*
X126412744Y-58382000D01*
X126705256Y-58382000D01*
X127138418Y-58295839D01*
X127629625Y-57967625D01*
X127829000Y-57669239D01*
X128028375Y-57967625D01*
X128519582Y-58295839D01*
X128952744Y-58382000D01*
X129245256Y-58382000D01*
X129678418Y-58295839D01*
X130169625Y-57967625D01*
X130369000Y-57669239D01*
X130568375Y-57967625D01*
X131059582Y-58295839D01*
X131492744Y-58382000D01*
X131785256Y-58382000D01*
X132218418Y-58295839D01*
X132709625Y-57967625D01*
X132909000Y-57669239D01*
X133108375Y-57967625D01*
X133599582Y-58295839D01*
X134032744Y-58382000D01*
X134325256Y-58382000D01*
X134758418Y-58295839D01*
X135249625Y-57967625D01*
X135449000Y-57669239D01*
X135648375Y-57967625D01*
X136139582Y-58295839D01*
X136572744Y-58382000D01*
X136865256Y-58382000D01*
X137134300Y-58328484D01*
X137134301Y-92842848D01*
X137119412Y-92917700D01*
X137134301Y-92992552D01*
X137178397Y-93214237D01*
X137346372Y-93465629D01*
X137409828Y-93508029D01*
X141878600Y-97976802D01*
X141878600Y-98142874D01*
X142036169Y-98523280D01*
X142161694Y-98648805D01*
X136762807Y-104047692D01*
X136350891Y-103772458D01*
X136288261Y-103760000D01*
X136350891Y-103747542D01*
X136792481Y-103452481D01*
X137087542Y-103010891D01*
X137191154Y-102490000D01*
X137087542Y-101969109D01*
X136792481Y-101527519D01*
X136350891Y-101232458D01*
X136288261Y-101220000D01*
X136350891Y-101207542D01*
X136792481Y-100912481D01*
X137087542Y-100470891D01*
X137191154Y-99950000D01*
X137087542Y-99429109D01*
X136792481Y-98987519D01*
X136350891Y-98692458D01*
X135961485Y-98615000D01*
X135698515Y-98615000D01*
X135309109Y-98692458D01*
X134867519Y-98987519D01*
X134572458Y-99429109D01*
X134468846Y-99950000D01*
X134572458Y-100470891D01*
X134867519Y-100912481D01*
X135309109Y-101207542D01*
X135371739Y-101220000D01*
X135309109Y-101232458D01*
X134867519Y-101527519D01*
X134572458Y-101969109D01*
X134468846Y-102490000D01*
X134572458Y-103010891D01*
X134867519Y-103452481D01*
X135309109Y-103747542D01*
X135371739Y-103760000D01*
X135309109Y-103772458D01*
X134867519Y-104067519D01*
X134572458Y-104509109D01*
X134468846Y-105030000D01*
X134572458Y-105550891D01*
X134867519Y-105992481D01*
X135156098Y-106185303D01*
X135114096Y-106248163D01*
X135069455Y-106472590D01*
X134867519Y-106607519D01*
X134572458Y-107049109D01*
X134468846Y-107570000D01*
X134572458Y-108090891D01*
X134867519Y-108532481D01*
X135309109Y-108827542D01*
X135371739Y-108840000D01*
X135309109Y-108852458D01*
X134867519Y-109147519D01*
X134572458Y-109589109D01*
X134468846Y-110110000D01*
X134572458Y-110630891D01*
X134867519Y-111072481D01*
X135309109Y-111367542D01*
X135698515Y-111445000D01*
X135961485Y-111445000D01*
X136350891Y-111367542D01*
X136792481Y-111072481D01*
X137087542Y-110630891D01*
X137191154Y-110110000D01*
X137087542Y-109589109D01*
X136792481Y-109147519D01*
X136350891Y-108852458D01*
X136288261Y-108840000D01*
X136350891Y-108827542D01*
X136792481Y-108532481D01*
X137087542Y-108090891D01*
X137191154Y-107570000D01*
X137087542Y-107049109D01*
X136874152Y-106729749D01*
X157309800Y-86294102D01*
X157309801Y-96490097D01*
X145505528Y-108294371D01*
X145442072Y-108336771D01*
X145399672Y-108400227D01*
X145399671Y-108400228D01*
X145309619Y-108535000D01*
X145291204Y-108562560D01*
X145090000Y-108562560D01*
X144842235Y-108611843D01*
X144632191Y-108752191D01*
X144491843Y-108962235D01*
X144488725Y-108977908D01*
X144319507Y-108808690D01*
X143755330Y-108575000D01*
X143144670Y-108575000D01*
X142580493Y-108808690D01*
X142148690Y-109240493D01*
X141915000Y-109804670D01*
X141915000Y-110415330D01*
X142148690Y-110979507D01*
X142580493Y-111411310D01*
X143144670Y-111645000D01*
X143755330Y-111645000D01*
X144319507Y-111411310D01*
X144488725Y-111242092D01*
X144491843Y-111257765D01*
X144632191Y-111467809D01*
X144842235Y-111608157D01*
X145090000Y-111657440D01*
X146890000Y-111657440D01*
X147137765Y-111608157D01*
X147347809Y-111467809D01*
X147488157Y-111257765D01*
X147537440Y-111010000D01*
X147537440Y-109292071D01*
X183777000Y-109292071D01*
X183777000Y-109683929D01*
X183926958Y-110045958D01*
X184204042Y-110323042D01*
X184566071Y-110473000D01*
X184957929Y-110473000D01*
X185319958Y-110323042D01*
X185597042Y-110045958D01*
X185747000Y-109683929D01*
X185747000Y-109292071D01*
X185597042Y-108930042D01*
X185319958Y-108652958D01*
X184957929Y-108503000D01*
X184566071Y-108503000D01*
X184204042Y-108652958D01*
X183926958Y-108930042D01*
X183777000Y-109292071D01*
X147537440Y-109292071D01*
X147537440Y-109210000D01*
X147488157Y-108962235D01*
X147347809Y-108752191D01*
X147257592Y-108691909D01*
X150614641Y-105334860D01*
X160632000Y-105334860D01*
X160632000Y-106381140D01*
X161032393Y-107347775D01*
X161772225Y-108087607D01*
X162738860Y-108488000D01*
X163785140Y-108488000D01*
X164751775Y-108087607D01*
X165491607Y-107347775D01*
X165562859Y-107175758D01*
X165966615Y-107343000D01*
X166557385Y-107343000D01*
X167103185Y-107116922D01*
X167520922Y-106699185D01*
X167747000Y-106153385D01*
X167747000Y-105562615D01*
X167520922Y-105016815D01*
X167103185Y-104599078D01*
X166557385Y-104373000D01*
X165966615Y-104373000D01*
X165562859Y-104540242D01*
X165491607Y-104368225D01*
X164751775Y-103628393D01*
X163785140Y-103228000D01*
X162738860Y-103228000D01*
X161772225Y-103628393D01*
X161032393Y-104368225D01*
X160632000Y-105334860D01*
X150614641Y-105334860D01*
X158554273Y-97395229D01*
X158617729Y-97352829D01*
X158785704Y-97101437D01*
X158829800Y-96879752D01*
X158829800Y-96879747D01*
X158844688Y-96804900D01*
X158829800Y-96730053D01*
X158829800Y-78099111D01*
X158923800Y-77872174D01*
X158923800Y-77460426D01*
X158766231Y-77080020D01*
X158475080Y-76788869D01*
X158326702Y-76727409D01*
X158408631Y-76645480D01*
X158566200Y-76265074D01*
X158566200Y-75853326D01*
X158408631Y-75472920D01*
X158117480Y-75181769D01*
X157737074Y-75024200D01*
X157325326Y-75024200D01*
X156944920Y-75181769D01*
X156653769Y-75472920D01*
X156496200Y-75853326D01*
X156496200Y-76057623D01*
X156447596Y-76130364D01*
X156403500Y-76352049D01*
X156403500Y-76352053D01*
X156388612Y-76426900D01*
X156403500Y-76501747D01*
X156403501Y-78263519D01*
X156216520Y-78340969D01*
X155925369Y-78632120D01*
X155767800Y-79012526D01*
X155767800Y-79424274D01*
X155925369Y-79804680D01*
X156042800Y-79922111D01*
X156042801Y-84767697D01*
X147512305Y-93298194D01*
X147382380Y-93168269D01*
X147001974Y-93010700D01*
X146835903Y-93010700D01*
X143734300Y-89909099D01*
X143734300Y-58278946D01*
X143759582Y-58295839D01*
X144192744Y-58382000D01*
X144485256Y-58382000D01*
X144918418Y-58295839D01*
X145409625Y-57967625D01*
X145609000Y-57669239D01*
X145808375Y-57967625D01*
X146125430Y-58179475D01*
X146163097Y-58368837D01*
X146331072Y-58620229D01*
X146394528Y-58662629D01*
X147809400Y-60077502D01*
X147809401Y-89274288D01*
X147691969Y-89391720D01*
X147534400Y-89772126D01*
X147534400Y-90183874D01*
X147691969Y-90564280D01*
X147983120Y-90855431D01*
X148363526Y-91013000D01*
X148775274Y-91013000D01*
X149155680Y-90855431D01*
X149446831Y-90564280D01*
X149604400Y-90183874D01*
X149604400Y-89772126D01*
X149446831Y-89391720D01*
X149329400Y-89274289D01*
X149329400Y-66594860D01*
X160632000Y-66594860D01*
X160632000Y-67641140D01*
X161032393Y-68607775D01*
X161772225Y-69347607D01*
X162738860Y-69748000D01*
X163785140Y-69748000D01*
X164751775Y-69347607D01*
X165491607Y-68607775D01*
X165543724Y-68481952D01*
X165956670Y-68653000D01*
X166567330Y-68653000D01*
X167131507Y-68419310D01*
X167563310Y-67987507D01*
X167797000Y-67423330D01*
X167797000Y-66812670D01*
X167563310Y-66248493D01*
X167131507Y-65816690D01*
X166567330Y-65583000D01*
X165956670Y-65583000D01*
X165543724Y-65754048D01*
X165491607Y-65628225D01*
X164751775Y-64888393D01*
X163785140Y-64488000D01*
X162738860Y-64488000D01*
X161772225Y-64888393D01*
X161032393Y-65628225D01*
X160632000Y-66594860D01*
X149329400Y-66594860D01*
X149329400Y-63292071D01*
X183777000Y-63292071D01*
X183777000Y-63683929D01*
X183926958Y-64045958D01*
X184204042Y-64323042D01*
X184566071Y-64473000D01*
X184957929Y-64473000D01*
X185319958Y-64323042D01*
X185597042Y-64045958D01*
X185747000Y-63683929D01*
X185747000Y-63292071D01*
X185597042Y-62930042D01*
X185319958Y-62652958D01*
X184957929Y-62503000D01*
X184566071Y-62503000D01*
X184204042Y-62652958D01*
X183926958Y-62930042D01*
X183777000Y-63292071D01*
X149329400Y-63292071D01*
X149329400Y-59837548D01*
X149344288Y-59762700D01*
X149329400Y-59687852D01*
X149329400Y-59687848D01*
X149285304Y-59466163D01*
X149117329Y-59214771D01*
X149053873Y-59172371D01*
X147889380Y-58007879D01*
X147949625Y-57967625D01*
X148149000Y-57669239D01*
X148348375Y-57967625D01*
X148839582Y-58295839D01*
X149272744Y-58382000D01*
X149565256Y-58382000D01*
X149998418Y-58295839D01*
X150489625Y-57967625D01*
X150689000Y-57669239D01*
X150888375Y-57967625D01*
X151379582Y-58295839D01*
X151812744Y-58382000D01*
X152105256Y-58382000D01*
X152538418Y-58295839D01*
X153029625Y-57967625D01*
X153229000Y-57669239D01*
X153428375Y-57967625D01*
X153919582Y-58295839D01*
X154352744Y-58382000D01*
X154645256Y-58382000D01*
X155078418Y-58295839D01*
X155569625Y-57967625D01*
X155769000Y-57669239D01*
X155968375Y-57967625D01*
X156459582Y-58295839D01*
X156892744Y-58382000D01*
X157185256Y-58382000D01*
X157618418Y-58295839D01*
X158109625Y-57967625D01*
X158309000Y-57669239D01*
X158508375Y-57967625D01*
X158999582Y-58295839D01*
X159432744Y-58382000D01*
X159725256Y-58382000D01*
X160158418Y-58295839D01*
X160649625Y-57967625D01*
X160849000Y-57669239D01*
X161048375Y-57967625D01*
X161539582Y-58295839D01*
X161972744Y-58382000D01*
X162265256Y-58382000D01*
X162698418Y-58295839D01*
X163189625Y-57967625D01*
X163389000Y-57669239D01*
X163588375Y-57967625D01*
X164079582Y-58295839D01*
X164512744Y-58382000D01*
X164805256Y-58382000D01*
X165238418Y-58295839D01*
X165729625Y-57967625D01*
X165929000Y-57669239D01*
X166128375Y-57967625D01*
X166619582Y-58295839D01*
X167052744Y-58382000D01*
X167345256Y-58382000D01*
X167778418Y-58295839D01*
X168269625Y-57967625D01*
X168469000Y-57669239D01*
X168668375Y-57967625D01*
X169159582Y-58295839D01*
X169592744Y-58382000D01*
X169885256Y-58382000D01*
X170318418Y-58295839D01*
X170809625Y-57967625D01*
X171009000Y-57669239D01*
X171208375Y-57967625D01*
X171699582Y-58295839D01*
X172132744Y-58382000D01*
X172425256Y-58382000D01*
X172858418Y-58295839D01*
X173349625Y-57967625D01*
X173677839Y-57476418D01*
X173793092Y-56897000D01*
X173677839Y-56317582D01*
X173349625Y-55826375D01*
X173051239Y-55627000D01*
X173349625Y-55427625D01*
X173677839Y-54936418D01*
X173793092Y-54357000D01*
X173677839Y-53777582D01*
X173349625Y-53286375D01*
X172858418Y-52958161D01*
X172425256Y-52872000D01*
X172132744Y-52872000D01*
X171699582Y-52958161D01*
X171208375Y-53286375D01*
X171009000Y-53584761D01*
X170809625Y-53286375D01*
X170318418Y-52958161D01*
X169885256Y-52872000D01*
X169592744Y-52872000D01*
X169159582Y-52958161D01*
X168668375Y-53286375D01*
X168469000Y-53584761D01*
X168269625Y-53286375D01*
X167778418Y-52958161D01*
X167345256Y-52872000D01*
X167052744Y-52872000D01*
X166619582Y-52958161D01*
X166128375Y-53286375D01*
X165929000Y-53584761D01*
X165729625Y-53286375D01*
X165238418Y-52958161D01*
X164805256Y-52872000D01*
X164512744Y-52872000D01*
X164079582Y-52958161D01*
X163588375Y-53286375D01*
X163389000Y-53584761D01*
X163189625Y-53286375D01*
X162698418Y-52958161D01*
X162265256Y-52872000D01*
X161972744Y-52872000D01*
X161539582Y-52958161D01*
X161048375Y-53286375D01*
X160849000Y-53584761D01*
X160649625Y-53286375D01*
X160158418Y-52958161D01*
X159725256Y-52872000D01*
X159432744Y-52872000D01*
X158999582Y-52958161D01*
X158674725Y-53175223D01*
X158173831Y-52674330D01*
X158131429Y-52610871D01*
X157880037Y-52442896D01*
X157658352Y-52398800D01*
X157658347Y-52398800D01*
X157583500Y-52383912D01*
X157508653Y-52398800D01*
X113814347Y-52398800D01*
X113739500Y-52383912D01*
X113664653Y-52398800D01*
X113664648Y-52398800D01*
X113442963Y-52442896D01*
X113191571Y-52610871D01*
X113149171Y-52674327D01*
X111580230Y-54243269D01*
X111516771Y-54285671D01*
X111348796Y-54537064D01*
X111304700Y-54758749D01*
X111304700Y-54758753D01*
X111289812Y-54833600D01*
X99762000Y-54833600D01*
X99762000Y-48165431D01*
X102275000Y-48165431D01*
X102275000Y-49054569D01*
X102615259Y-49876026D01*
X103243974Y-50504741D01*
X104065431Y-50845000D01*
X104954569Y-50845000D01*
X105776026Y-50504741D01*
X106404741Y-49876026D01*
X106745000Y-49054569D01*
X106745000Y-48165431D01*
X106732574Y-48135431D01*
X190955000Y-48135431D01*
X190955000Y-49024569D01*
X191295259Y-49846026D01*
X191923974Y-50474741D01*
X192745431Y-50815000D01*
X193634569Y-50815000D01*
X194456026Y-50474741D01*
X195084741Y-49846026D01*
X195425000Y-49024569D01*
X195425000Y-48135431D01*
X195084741Y-47313974D01*
X194456026Y-46685259D01*
X193634569Y-46345000D01*
X192745431Y-46345000D01*
X191923974Y-46685259D01*
X191295259Y-47313974D01*
X190955000Y-48135431D01*
X106732574Y-48135431D01*
X106404741Y-47343974D01*
X105776026Y-46715259D01*
X104954569Y-46375000D01*
X104065431Y-46375000D01*
X103243974Y-46715259D01*
X102615259Y-47343974D01*
X102275000Y-48165431D01*
X99762000Y-48165431D01*
X99762000Y-44832000D01*
X197933000Y-44832000D01*
X197933000Y-118238000D01*
X197933000Y-118238000D01*
G37*
X197933000Y-118238000D02*
X99762000Y-118238000D01*
X99762000Y-114075431D01*
X102265000Y-114075431D01*
X102265000Y-114964569D01*
X102605259Y-115786026D01*
X103233974Y-116414741D01*
X104055431Y-116755000D01*
X104944569Y-116755000D01*
X105766026Y-116414741D01*
X106394741Y-115786026D01*
X106735000Y-114964569D01*
X106735000Y-114075431D01*
X191225000Y-114075431D01*
X191225000Y-114964569D01*
X191565259Y-115786026D01*
X192193974Y-116414741D01*
X193015431Y-116755000D01*
X193904569Y-116755000D01*
X194726026Y-116414741D01*
X195354741Y-115786026D01*
X195695000Y-114964569D01*
X195695000Y-114075431D01*
X195354741Y-113253974D01*
X194726026Y-112625259D01*
X193904569Y-112285000D01*
X193015431Y-112285000D01*
X192193974Y-112625259D01*
X191565259Y-113253974D01*
X191225000Y-114075431D01*
X106735000Y-114075431D01*
X106394741Y-113253974D01*
X105766026Y-112625259D01*
X104944569Y-112285000D01*
X104055431Y-112285000D01*
X103233974Y-112625259D01*
X102605259Y-113253974D01*
X102265000Y-114075431D01*
X99762000Y-114075431D01*
X99762000Y-110319039D01*
X111798096Y-110319039D01*
X111958959Y-110707423D01*
X112334866Y-111122389D01*
X112840959Y-111361914D01*
X113063000Y-111240629D01*
X113063000Y-110097000D01*
X113317000Y-110097000D01*
X113317000Y-111240629D01*
X113539041Y-111361914D01*
X114045134Y-111122389D01*
X114421041Y-110707423D01*
X114581904Y-110319039D01*
X114459915Y-110097000D01*
X113317000Y-110097000D01*
X113063000Y-110097000D01*
X111920085Y-110097000D01*
X111798096Y-110319039D01*
X99762000Y-110319039D01*
X99762000Y-109970000D01*
X119346887Y-109970000D01*
X119458260Y-110529909D01*
X119775423Y-111004577D01*
X120250091Y-111321740D01*
X120668667Y-111405000D01*
X120951333Y-111405000D01*
X121369909Y-111321740D01*
X121844577Y-111004577D01*
X122161740Y-110529909D01*
X122273113Y-109970000D01*
X122161740Y-109410091D01*
X121844577Y-108935423D01*
X121460892Y-108679053D01*
X121665134Y-108582389D01*
X122041041Y-108167423D01*
X122201904Y-107779039D01*
X122079915Y-107557000D01*
X120937000Y-107557000D01*
X120937000Y-107577000D01*
X120683000Y-107577000D01*
X120683000Y-107557000D01*
X119540085Y-107557000D01*
X119418096Y-107779039D01*
X119578959Y-108167423D01*
X119954866Y-108582389D01*
X120159108Y-108679053D01*
X119775423Y-108935423D01*
X119458260Y-109410091D01*
X119346887Y-109970000D01*
X99762000Y-109970000D01*
X99762000Y-107430000D01*
X111726887Y-107430000D01*
X111838260Y-107989909D01*
X112155423Y-108464577D01*
X112539108Y-108720947D01*
X112334866Y-108817611D01*
X111958959Y-109232577D01*
X111798096Y-109620961D01*
X111920085Y-109843000D01*
X113063000Y-109843000D01*
X113063000Y-109823000D01*
X113317000Y-109823000D01*
X113317000Y-109843000D01*
X114459915Y-109843000D01*
X114581904Y-109620961D01*
X114421041Y-109232577D01*
X114045134Y-108817611D01*
X113840892Y-108720947D01*
X114224577Y-108464577D01*
X114541740Y-107989909D01*
X114653113Y-107430000D01*
X114541740Y-106870091D01*
X114224577Y-106395423D01*
X113840892Y-106139053D01*
X114045134Y-106042389D01*
X114421041Y-105627423D01*
X114581904Y-105239039D01*
X114459915Y-105017000D01*
X113317000Y-105017000D01*
X113317000Y-105037000D01*
X113063000Y-105037000D01*
X113063000Y-105017000D01*
X111920085Y-105017000D01*
X111798096Y-105239039D01*
X111958959Y-105627423D01*
X112334866Y-106042389D01*
X112539108Y-106139053D01*
X112155423Y-106395423D01*
X111838260Y-106870091D01*
X111726887Y-107430000D01*
X99762000Y-107430000D01*
X99762000Y-104890000D01*
X119346887Y-104890000D01*
X119458260Y-105449909D01*
X119775423Y-105924577D01*
X120159108Y-106180947D01*
X119954866Y-106277611D01*
X119578959Y-106692577D01*
X119418096Y-107080961D01*
X119540085Y-107303000D01*
X120683000Y-107303000D01*
X120683000Y-107283000D01*
X120937000Y-107283000D01*
X120937000Y-107303000D01*
X122079915Y-107303000D01*
X122201904Y-107080961D01*
X122041041Y-106692577D01*
X121665134Y-106277611D01*
X121460892Y-106180947D01*
X121844577Y-105924577D01*
X122161740Y-105449909D01*
X122273113Y-104890000D01*
X122161740Y-104330091D01*
X121844577Y-103855423D01*
X121460892Y-103599053D01*
X121665134Y-103502389D01*
X122041041Y-103087423D01*
X122201904Y-102699039D01*
X122079915Y-102477000D01*
X120937000Y-102477000D01*
X120937000Y-102497000D01*
X120683000Y-102497000D01*
X120683000Y-102477000D01*
X119540085Y-102477000D01*
X119418096Y-102699039D01*
X119578959Y-103087423D01*
X119954866Y-103502389D01*
X120159108Y-103599053D01*
X119775423Y-103855423D01*
X119458260Y-104330091D01*
X119346887Y-104890000D01*
X99762000Y-104890000D01*
X99762000Y-102350000D01*
X111726887Y-102350000D01*
X111838260Y-102909909D01*
X112155423Y-103384577D01*
X112539108Y-103640947D01*
X112334866Y-103737611D01*
X111958959Y-104152577D01*
X111798096Y-104540961D01*
X111920085Y-104763000D01*
X113063000Y-104763000D01*
X113063000Y-104743000D01*
X113317000Y-104743000D01*
X113317000Y-104763000D01*
X114459915Y-104763000D01*
X114581904Y-104540961D01*
X114421041Y-104152577D01*
X114045134Y-103737611D01*
X113840892Y-103640947D01*
X114224577Y-103384577D01*
X114541740Y-102909909D01*
X114653113Y-102350000D01*
X114541740Y-101790091D01*
X114224577Y-101315423D01*
X113840892Y-101059053D01*
X114045134Y-100962389D01*
X114421041Y-100547423D01*
X114581904Y-100159039D01*
X114459915Y-99937000D01*
X113317000Y-99937000D01*
X113317000Y-99957000D01*
X113063000Y-99957000D01*
X113063000Y-99937000D01*
X111920085Y-99937000D01*
X111798096Y-100159039D01*
X111958959Y-100547423D01*
X112334866Y-100962389D01*
X112539108Y-101059053D01*
X112155423Y-101315423D01*
X111838260Y-101790091D01*
X111726887Y-102350000D01*
X99762000Y-102350000D01*
X99762000Y-99810000D01*
X119346887Y-99810000D01*
X119458260Y-100369909D01*
X119775423Y-100844577D01*
X120159108Y-101100947D01*
X119954866Y-101197611D01*
X119578959Y-101612577D01*
X119418096Y-102000961D01*
X119540085Y-102223000D01*
X120683000Y-102223000D01*
X120683000Y-102203000D01*
X120937000Y-102203000D01*
X120937000Y-102223000D01*
X122079915Y-102223000D01*
X122201904Y-102000961D01*
X122041041Y-101612577D01*
X121665134Y-101197611D01*
X121460892Y-101100947D01*
X121844577Y-100844577D01*
X122161740Y-100369909D01*
X122273113Y-99810000D01*
X122161740Y-99250091D01*
X121844577Y-98775423D01*
X121460892Y-98519053D01*
X121665134Y-98422389D01*
X122041041Y-98007423D01*
X122201904Y-97619039D01*
X122079915Y-97397000D01*
X120937000Y-97397000D01*
X120937000Y-97417000D01*
X120683000Y-97417000D01*
X120683000Y-97397000D01*
X119540085Y-97397000D01*
X119418096Y-97619039D01*
X119578959Y-98007423D01*
X119954866Y-98422389D01*
X120159108Y-98519053D01*
X119775423Y-98775423D01*
X119458260Y-99250091D01*
X119346887Y-99810000D01*
X99762000Y-99810000D01*
X99762000Y-97270000D01*
X111726887Y-97270000D01*
X111838260Y-97829909D01*
X112155423Y-98304577D01*
X112539108Y-98560947D01*
X112334866Y-98657611D01*
X111958959Y-99072577D01*
X111798096Y-99460961D01*
X111920085Y-99683000D01*
X113063000Y-99683000D01*
X113063000Y-99663000D01*
X113317000Y-99663000D01*
X113317000Y-99683000D01*
X114459915Y-99683000D01*
X114581904Y-99460961D01*
X114421041Y-99072577D01*
X114045134Y-98657611D01*
X113840892Y-98560947D01*
X114224577Y-98304577D01*
X114541740Y-97829909D01*
X114653113Y-97270000D01*
X114541740Y-96710091D01*
X114224577Y-96235423D01*
X114103894Y-96154785D01*
X114237765Y-96128157D01*
X114447809Y-95987809D01*
X114588157Y-95777765D01*
X114637440Y-95530000D01*
X114637440Y-93930000D01*
X114588157Y-93682235D01*
X114447809Y-93472191D01*
X114237765Y-93331843D01*
X113990000Y-93282560D01*
X112390000Y-93282560D01*
X112142235Y-93331843D01*
X111932191Y-93472191D01*
X111791843Y-93682235D01*
X111742560Y-93930000D01*
X111742560Y-95530000D01*
X111791843Y-95777765D01*
X111932191Y-95987809D01*
X112142235Y-96128157D01*
X112276106Y-96154785D01*
X112155423Y-96235423D01*
X111838260Y-96710091D01*
X111726887Y-97270000D01*
X99762000Y-97270000D01*
X99762000Y-92737745D01*
X115361861Y-92737745D01*
X115435995Y-92983864D01*
X115973223Y-93176965D01*
X116543454Y-93149778D01*
X116944005Y-92983864D01*
X117018139Y-92737745D01*
X116190000Y-91909605D01*
X115361861Y-92737745D01*
X99762000Y-92737745D01*
X99762000Y-91513223D01*
X114743035Y-91513223D01*
X114770222Y-92083454D01*
X114936136Y-92484005D01*
X115182255Y-92558139D01*
X116010395Y-91730000D01*
X116369605Y-91730000D01*
X117197745Y-92558139D01*
X117443864Y-92484005D01*
X117636965Y-91946777D01*
X117609778Y-91376546D01*
X117443864Y-90975995D01*
X117197745Y-90901861D01*
X116369605Y-91730000D01*
X116010395Y-91730000D01*
X115182255Y-90901861D01*
X114936136Y-90975995D01*
X114743035Y-91513223D01*
X99762000Y-91513223D01*
X99762000Y-90722255D01*
X115361861Y-90722255D01*
X116190000Y-91550395D01*
X117018139Y-90722255D01*
X116944005Y-90476136D01*
X116406777Y-90283035D01*
X115836546Y-90310222D01*
X115435995Y-90476136D01*
X115361861Y-90722255D01*
X99762000Y-90722255D01*
X99762000Y-86859039D01*
X111798096Y-86859039D01*
X111958959Y-87247423D01*
X112334866Y-87662389D01*
X112840959Y-87901914D01*
X113063000Y-87780629D01*
X113063000Y-86637000D01*
X113317000Y-86637000D01*
X113317000Y-87780629D01*
X113539041Y-87901914D01*
X114045134Y-87662389D01*
X114421041Y-87247423D01*
X114581904Y-86859039D01*
X114459915Y-86637000D01*
X113317000Y-86637000D01*
X113063000Y-86637000D01*
X111920085Y-86637000D01*
X111798096Y-86859039D01*
X99762000Y-86859039D01*
X99762000Y-76699039D01*
X111798096Y-76699039D01*
X111958959Y-77087423D01*
X112334866Y-77502389D01*
X112583367Y-77620000D01*
X112334866Y-77737611D01*
X111958959Y-78152577D01*
X111798096Y-78540961D01*
X111920085Y-78763000D01*
X113063000Y-78763000D01*
X113063000Y-76477000D01*
X113317000Y-76477000D01*
X113317000Y-78763000D01*
X114459915Y-78763000D01*
X114581904Y-78540961D01*
X114421041Y-78152577D01*
X114045134Y-77737611D01*
X113796633Y-77620000D01*
X114045134Y-77502389D01*
X114421041Y-77087423D01*
X114581904Y-76699039D01*
X114459915Y-76477000D01*
X113317000Y-76477000D01*
X113063000Y-76477000D01*
X111920085Y-76477000D01*
X111798096Y-76699039D01*
X99762000Y-76699039D01*
X99762000Y-54833600D01*
X111289812Y-54833600D01*
X111304700Y-54908447D01*
X111304701Y-69647948D01*
X111289812Y-69722800D01*
X111348797Y-70019337D01*
X111469095Y-70199375D01*
X111516772Y-70270729D01*
X111580228Y-70313129D01*
X111893908Y-70626809D01*
X111838260Y-70710091D01*
X111726887Y-71270000D01*
X111838260Y-71829909D01*
X112155423Y-72304577D01*
X112507758Y-72540000D01*
X112155423Y-72775423D01*
X111838260Y-73250091D01*
X111726887Y-73810000D01*
X111838260Y-74369909D01*
X112155423Y-74844577D01*
X112539108Y-75100947D01*
X112334866Y-75197611D01*
X111958959Y-75612577D01*
X111798096Y-76000961D01*
X111920085Y-76223000D01*
X113063000Y-76223000D01*
X113063000Y-76203000D01*
X113317000Y-76203000D01*
X113317000Y-76223000D01*
X114459915Y-76223000D01*
X114581904Y-76000961D01*
X114421041Y-75612577D01*
X114045134Y-75197611D01*
X113840892Y-75100947D01*
X114224577Y-74844577D01*
X114541740Y-74369909D01*
X114653113Y-73810000D01*
X114541740Y-73250091D01*
X114224577Y-72775423D01*
X113872242Y-72540000D01*
X114224577Y-72304577D01*
X114541740Y-71829909D01*
X114653113Y-71270000D01*
X114541740Y-70710091D01*
X114224577Y-70235423D01*
X114103894Y-70154785D01*
X114237765Y-70128157D01*
X114447809Y-69987809D01*
X114588157Y-69777765D01*
X114637440Y-69530000D01*
X114637440Y-67930000D01*
X114588157Y-67682235D01*
X114447809Y-67472191D01*
X114237765Y-67331843D01*
X113990000Y-67282560D01*
X112824700Y-67282560D01*
X112824700Y-66737745D01*
X115361861Y-66737745D01*
X115435995Y-66983864D01*
X115973223Y-67176965D01*
X116543454Y-67149778D01*
X116944005Y-66983864D01*
X117018139Y-66737745D01*
X116190000Y-65909605D01*
X115361861Y-66737745D01*
X112824700Y-66737745D01*
X112824700Y-65513223D01*
X114743035Y-65513223D01*
X114770222Y-66083454D01*
X114936136Y-66484005D01*
X115182255Y-66558139D01*
X116010395Y-65730000D01*
X116369605Y-65730000D01*
X117197745Y-66558139D01*
X117443864Y-66484005D01*
X117636965Y-65946777D01*
X117609778Y-65376546D01*
X117443864Y-64975995D01*
X117197745Y-64901861D01*
X116369605Y-65730000D01*
X116010395Y-65730000D01*
X115182255Y-64901861D01*
X114936136Y-64975995D01*
X114743035Y-65513223D01*
X112824700Y-65513223D01*
X112824700Y-64722255D01*
X115361861Y-64722255D01*
X116190000Y-65550395D01*
X117018139Y-64722255D01*
X116944005Y-64476136D01*
X116406777Y-64283035D01*
X115836546Y-64310222D01*
X115435995Y-64476136D01*
X115361861Y-64722255D01*
X112824700Y-64722255D01*
X112824700Y-58312940D01*
X112952235Y-58398157D01*
X113200000Y-58447440D01*
X114800000Y-58447440D01*
X115047765Y-58398157D01*
X115257809Y-58257809D01*
X115398157Y-58047765D01*
X115441075Y-57832000D01*
X122538467Y-57832000D01*
X122570843Y-57994765D01*
X122711191Y-58204809D01*
X122921235Y-58345157D01*
X123009080Y-58362630D01*
X120593972Y-60777739D01*
X120515903Y-60829903D01*
X120309251Y-61139181D01*
X120309250Y-61139182D01*
X120236683Y-61504000D01*
X120255000Y-61596086D01*
X120255001Y-64635603D01*
X119973466Y-64917138D01*
X119755000Y-65444561D01*
X119755000Y-66015439D01*
X119973466Y-66542862D01*
X120255000Y-66824396D01*
X120255001Y-67377283D01*
X120250091Y-67378260D01*
X119775423Y-67695423D01*
X119716841Y-67783097D01*
X119573999Y-67754684D01*
X119209181Y-67827251D01*
X118977970Y-67981741D01*
X118469972Y-68489739D01*
X118391903Y-68541903D01*
X118266221Y-68730000D01*
X118185250Y-68851182D01*
X118112683Y-69216000D01*
X118131000Y-69308086D01*
X118131001Y-83526685D01*
X118014259Y-83351969D01*
X117962097Y-83273903D01*
X117884031Y-83221741D01*
X115496261Y-80833972D01*
X115444097Y-80755903D01*
X115134819Y-80549250D01*
X114862086Y-80495000D01*
X114770000Y-80476683D01*
X114677914Y-80495000D01*
X114291112Y-80495000D01*
X114224577Y-80395423D01*
X113840892Y-80139053D01*
X114045134Y-80042389D01*
X114421041Y-79627423D01*
X114581904Y-79239039D01*
X114459915Y-79017000D01*
X113317000Y-79017000D01*
X113317000Y-79037000D01*
X113063000Y-79037000D01*
X113063000Y-79017000D01*
X111920085Y-79017000D01*
X111798096Y-79239039D01*
X111958959Y-79627423D01*
X112334866Y-80042389D01*
X112539108Y-80139053D01*
X112155423Y-80395423D01*
X111838260Y-80870091D01*
X111726887Y-81430000D01*
X111838260Y-81989909D01*
X112155423Y-82464577D01*
X112507758Y-82700000D01*
X112155423Y-82935423D01*
X111838260Y-83410091D01*
X111726887Y-83970000D01*
X111838260Y-84529909D01*
X112155423Y-85004577D01*
X112539108Y-85260947D01*
X112334866Y-85357611D01*
X111958959Y-85772577D01*
X111798096Y-86160961D01*
X111920085Y-86383000D01*
X113063000Y-86383000D01*
X113063000Y-86363000D01*
X113317000Y-86363000D01*
X113317000Y-86383000D01*
X114459915Y-86383000D01*
X114581904Y-86160961D01*
X114421041Y-85772577D01*
X114045134Y-85357611D01*
X113840892Y-85260947D01*
X114224577Y-85004577D01*
X114541740Y-84529909D01*
X114653113Y-83970000D01*
X114541740Y-83410091D01*
X114224577Y-82935423D01*
X113872242Y-82700000D01*
X114224577Y-82464577D01*
X114291112Y-82365000D01*
X114382711Y-82365000D01*
X116353001Y-84335291D01*
X116353000Y-88173914D01*
X116334683Y-88266000D01*
X116353000Y-88358085D01*
X116407250Y-88630818D01*
X116613903Y-88940097D01*
X116691972Y-88992261D01*
X117901740Y-90202030D01*
X117953903Y-90280097D01*
X118263181Y-90486750D01*
X118535914Y-90541000D01*
X118535917Y-90541000D01*
X118627999Y-90559316D01*
X118685575Y-90547864D01*
X119755000Y-91617289D01*
X119755000Y-92015439D01*
X119973466Y-92542862D01*
X120255000Y-92824396D01*
X120255001Y-93377283D01*
X120250091Y-93378260D01*
X119775423Y-93695423D01*
X119458260Y-94170091D01*
X119346887Y-94730000D01*
X119458260Y-95289909D01*
X119775423Y-95764577D01*
X120159108Y-96020947D01*
X119954866Y-96117611D01*
X119578959Y-96532577D01*
X119418096Y-96920961D01*
X119540085Y-97143000D01*
X120683000Y-97143000D01*
X120683000Y-97123000D01*
X120937000Y-97123000D01*
X120937000Y-97143000D01*
X122079915Y-97143000D01*
X122201904Y-96920961D01*
X122041041Y-96532577D01*
X121665134Y-96117611D01*
X121460892Y-96020947D01*
X121844577Y-95764577D01*
X122113303Y-95362400D01*
X122300111Y-95362400D01*
X126875000Y-99937290D01*
X126875000Y-100215548D01*
X127078242Y-100706217D01*
X127275000Y-100902975D01*
X127275001Y-101537024D01*
X127078242Y-101733783D01*
X126875000Y-102224452D01*
X126875000Y-102755548D01*
X127078242Y-103246217D01*
X127453783Y-103621758D01*
X127787528Y-103760000D01*
X127453783Y-103898242D01*
X127078242Y-104273783D01*
X126875000Y-104764452D01*
X126875000Y-105295548D01*
X127078242Y-105786217D01*
X127275001Y-105982976D01*
X127275000Y-106617025D01*
X127078242Y-106813783D01*
X126875000Y-107304452D01*
X126875000Y-107835548D01*
X127078242Y-108326217D01*
X127275001Y-108522976D01*
X127275000Y-109157025D01*
X127078242Y-109353783D01*
X126875000Y-109844452D01*
X126875000Y-110375548D01*
X127078242Y-110866217D01*
X127453783Y-111241758D01*
X127944452Y-111445000D01*
X128475548Y-111445000D01*
X128966217Y-111241758D01*
X129341758Y-110866217D01*
X129545000Y-110375548D01*
X129545000Y-109844452D01*
X129341758Y-109353783D01*
X129145000Y-109157025D01*
X129145000Y-108522975D01*
X129341758Y-108326217D01*
X129545000Y-107835548D01*
X129545000Y-107304452D01*
X129341758Y-106813783D01*
X129145000Y-106617025D01*
X129145000Y-105982975D01*
X129341758Y-105786217D01*
X129545000Y-105295548D01*
X129545000Y-104764452D01*
X129341758Y-104273783D01*
X128966217Y-103898242D01*
X128632472Y-103760000D01*
X128966217Y-103621758D01*
X129341758Y-103246217D01*
X129545000Y-102755548D01*
X129545000Y-102224452D01*
X129341758Y-101733783D01*
X129145000Y-101537025D01*
X129145000Y-100902975D01*
X129341758Y-100706217D01*
X129545000Y-100215548D01*
X129545000Y-99684452D01*
X129341758Y-99193783D01*
X128966217Y-98818242D01*
X128475548Y-98615000D01*
X128197290Y-98615000D01*
X123413661Y-93831372D01*
X123361497Y-93753303D01*
X123052219Y-93546650D01*
X122779486Y-93492400D01*
X122687400Y-93474083D01*
X122595314Y-93492400D01*
X122125000Y-93492400D01*
X122125000Y-92824396D01*
X122406534Y-92542862D01*
X122625000Y-92015439D01*
X122625000Y-91444561D01*
X122406534Y-90917138D01*
X122002862Y-90513466D01*
X121475439Y-90295000D01*
X121077289Y-90295000D01*
X120001000Y-89218711D01*
X120001000Y-87695303D01*
X120250091Y-87861740D01*
X120668667Y-87945000D01*
X120951333Y-87945000D01*
X121369909Y-87861740D01*
X121844577Y-87544577D01*
X122030786Y-87265896D01*
X122231837Y-87225904D01*
X122483229Y-87057929D01*
X122525631Y-86994470D01*
X124790103Y-84730000D01*
X126911822Y-84730000D01*
X127119375Y-85040625D01*
X127417761Y-85240000D01*
X127119375Y-85439375D01*
X126791161Y-85930582D01*
X126675908Y-86510000D01*
X126791161Y-87089418D01*
X127119375Y-87580625D01*
X127610582Y-87908839D01*
X128043744Y-87995000D01*
X128336256Y-87995000D01*
X128769418Y-87908839D01*
X129260625Y-87580625D01*
X129460000Y-87282239D01*
X129659375Y-87580625D01*
X130150582Y-87908839D01*
X130583744Y-87995000D01*
X130876256Y-87995000D01*
X131309418Y-87908839D01*
X131800625Y-87580625D01*
X132128839Y-87089418D01*
X132244092Y-86510000D01*
X132128839Y-85930582D01*
X131800625Y-85439375D01*
X131502239Y-85240000D01*
X131800625Y-85040625D01*
X132128839Y-84549418D01*
X132244092Y-83970000D01*
X132128839Y-83390582D01*
X131800625Y-82899375D01*
X131502239Y-82700000D01*
X131800625Y-82500625D01*
X132128839Y-82009418D01*
X132244092Y-81430000D01*
X132128839Y-80850582D01*
X131800625Y-80359375D01*
X131502239Y-80160000D01*
X131800625Y-79960625D01*
X132128839Y-79469418D01*
X132244092Y-78890000D01*
X132128839Y-78310582D01*
X131800625Y-77819375D01*
X131502239Y-77620000D01*
X131800625Y-77420625D01*
X132128839Y-76929418D01*
X132244092Y-76350000D01*
X132128839Y-75770582D01*
X131800625Y-75279375D01*
X131502239Y-75080000D01*
X131800625Y-74880625D01*
X132128839Y-74389418D01*
X132244092Y-73810000D01*
X132128839Y-73230582D01*
X131800625Y-72739375D01*
X131502239Y-72540000D01*
X131800625Y-72340625D01*
X132128839Y-71849418D01*
X132244092Y-71270000D01*
X132128839Y-70690582D01*
X131800625Y-70199375D01*
X131502239Y-70000000D01*
X131800625Y-69800625D01*
X132128839Y-69309418D01*
X132244092Y-68730000D01*
X132128839Y-68150582D01*
X131800625Y-67659375D01*
X131309418Y-67331161D01*
X130876256Y-67245000D01*
X130583744Y-67245000D01*
X130150582Y-67331161D01*
X129659375Y-67659375D01*
X129647184Y-67677619D01*
X129638157Y-67632235D01*
X129497809Y-67422191D01*
X129287765Y-67281843D01*
X129040000Y-67232560D01*
X127340000Y-67232560D01*
X127092235Y-67281843D01*
X126882191Y-67422191D01*
X126741843Y-67632235D01*
X126692560Y-67880000D01*
X126692560Y-69580000D01*
X126741843Y-69827765D01*
X126882191Y-70037809D01*
X127092235Y-70178157D01*
X127137619Y-70187184D01*
X127119375Y-70199375D01*
X126791161Y-70690582D01*
X126675908Y-71270000D01*
X126791161Y-71849418D01*
X127119375Y-72340625D01*
X127417761Y-72540000D01*
X127119375Y-72739375D01*
X126791161Y-73230582D01*
X126675908Y-73810000D01*
X126791161Y-74389418D01*
X127119375Y-74880625D01*
X127417761Y-75080000D01*
X127119375Y-75279375D01*
X126791161Y-75770582D01*
X126675908Y-76350000D01*
X126791161Y-76929418D01*
X127119375Y-77420625D01*
X127417761Y-77620000D01*
X127119375Y-77819375D01*
X126791161Y-78310582D01*
X126675908Y-78890000D01*
X126791161Y-79469418D01*
X127119375Y-79960625D01*
X127417761Y-80160000D01*
X127119375Y-80359375D01*
X126791161Y-80850582D01*
X126675908Y-81430000D01*
X126791161Y-82009418D01*
X127119375Y-82500625D01*
X127417761Y-82700000D01*
X127119375Y-82899375D01*
X126911822Y-83210000D01*
X124550146Y-83210000D01*
X124475299Y-83195112D01*
X124400452Y-83210000D01*
X124400448Y-83210000D01*
X124178763Y-83254096D01*
X124178761Y-83254097D01*
X124178762Y-83254097D01*
X123990826Y-83379671D01*
X123990824Y-83379673D01*
X123927371Y-83422071D01*
X123884973Y-83485524D01*
X121864804Y-85505695D01*
X121844577Y-85475423D01*
X121492242Y-85240000D01*
X121844577Y-85004577D01*
X122161740Y-84529909D01*
X122273113Y-83970000D01*
X122161740Y-83410091D01*
X121844577Y-82935423D01*
X121492242Y-82700000D01*
X121844577Y-82464577D01*
X122161740Y-81989909D01*
X122273113Y-81430000D01*
X122161740Y-80870091D01*
X121844577Y-80395423D01*
X121492242Y-80160000D01*
X121844577Y-79924577D01*
X122161740Y-79449909D01*
X122273113Y-78890000D01*
X122161740Y-78330091D01*
X121844577Y-77855423D01*
X121492242Y-77620000D01*
X121844577Y-77384577D01*
X122161740Y-76909909D01*
X122273113Y-76350000D01*
X122161740Y-75790091D01*
X121844577Y-75315423D01*
X121492242Y-75080000D01*
X121844577Y-74844577D01*
X122161740Y-74369909D01*
X122273113Y-73810000D01*
X122161740Y-73250091D01*
X121844577Y-72775423D01*
X121492242Y-72540000D01*
X121844577Y-72304577D01*
X122161740Y-71829909D01*
X122273113Y-71270000D01*
X122161740Y-70710091D01*
X121844577Y-70235423D01*
X121492242Y-70000000D01*
X121844577Y-69764577D01*
X122161740Y-69289909D01*
X122273113Y-68730000D01*
X122161740Y-68170091D01*
X122125000Y-68115106D01*
X122125000Y-66824396D01*
X122406534Y-66542862D01*
X122625000Y-66015439D01*
X122625000Y-65444561D01*
X122406534Y-64917138D01*
X122125000Y-64635604D01*
X122125000Y-61891289D01*
X124615031Y-59401259D01*
X124693097Y-59349097D01*
X124899750Y-59039819D01*
X124954000Y-58767086D01*
X124972317Y-58675001D01*
X124954000Y-58582915D01*
X124954000Y-58377533D01*
X125116765Y-58345157D01*
X125326809Y-58204809D01*
X125467157Y-57994765D01*
X125476184Y-57949381D01*
X125488375Y-57967625D01*
X125979582Y-58295839D01*
X126412744Y-58382000D01*
X126705256Y-58382000D01*
X127138418Y-58295839D01*
X127629625Y-57967625D01*
X127829000Y-57669239D01*
X128028375Y-57967625D01*
X128519582Y-58295839D01*
X128952744Y-58382000D01*
X129245256Y-58382000D01*
X129678418Y-58295839D01*
X130169625Y-57967625D01*
X130369000Y-57669239D01*
X130568375Y-57967625D01*
X131059582Y-58295839D01*
X131492744Y-58382000D01*
X131785256Y-58382000D01*
X132218418Y-58295839D01*
X132709625Y-57967625D01*
X132909000Y-57669239D01*
X133108375Y-57967625D01*
X133599582Y-58295839D01*
X134032744Y-58382000D01*
X134325256Y-58382000D01*
X134758418Y-58295839D01*
X135249625Y-57967625D01*
X135449000Y-57669239D01*
X135648375Y-57967625D01*
X136139582Y-58295839D01*
X136572744Y-58382000D01*
X136865256Y-58382000D01*
X137134300Y-58328484D01*
X137134301Y-92842848D01*
X137119412Y-92917700D01*
X137134301Y-92992552D01*
X137178397Y-93214237D01*
X137346372Y-93465629D01*
X137409828Y-93508029D01*
X141878600Y-97976802D01*
X141878600Y-98142874D01*
X142036169Y-98523280D01*
X142161694Y-98648805D01*
X136762807Y-104047692D01*
X136350891Y-103772458D01*
X136288261Y-103760000D01*
X136350891Y-103747542D01*
X136792481Y-103452481D01*
X137087542Y-103010891D01*
X137191154Y-102490000D01*
X137087542Y-101969109D01*
X136792481Y-101527519D01*
X136350891Y-101232458D01*
X136288261Y-101220000D01*
X136350891Y-101207542D01*
X136792481Y-100912481D01*
X137087542Y-100470891D01*
X137191154Y-99950000D01*
X137087542Y-99429109D01*
X136792481Y-98987519D01*
X136350891Y-98692458D01*
X135961485Y-98615000D01*
X135698515Y-98615000D01*
X135309109Y-98692458D01*
X134867519Y-98987519D01*
X134572458Y-99429109D01*
X134468846Y-99950000D01*
X134572458Y-100470891D01*
X134867519Y-100912481D01*
X135309109Y-101207542D01*
X135371739Y-101220000D01*
X135309109Y-101232458D01*
X134867519Y-101527519D01*
X134572458Y-101969109D01*
X134468846Y-102490000D01*
X134572458Y-103010891D01*
X134867519Y-103452481D01*
X135309109Y-103747542D01*
X135371739Y-103760000D01*
X135309109Y-103772458D01*
X134867519Y-104067519D01*
X134572458Y-104509109D01*
X134468846Y-105030000D01*
X134572458Y-105550891D01*
X134867519Y-105992481D01*
X135156098Y-106185303D01*
X135114096Y-106248163D01*
X135069455Y-106472590D01*
X134867519Y-106607519D01*
X134572458Y-107049109D01*
X134468846Y-107570000D01*
X134572458Y-108090891D01*
X134867519Y-108532481D01*
X135309109Y-108827542D01*
X135371739Y-108840000D01*
X135309109Y-108852458D01*
X134867519Y-109147519D01*
X134572458Y-109589109D01*
X134468846Y-110110000D01*
X134572458Y-110630891D01*
X134867519Y-111072481D01*
X135309109Y-111367542D01*
X135698515Y-111445000D01*
X135961485Y-111445000D01*
X136350891Y-111367542D01*
X136792481Y-111072481D01*
X137087542Y-110630891D01*
X137191154Y-110110000D01*
X137087542Y-109589109D01*
X136792481Y-109147519D01*
X136350891Y-108852458D01*
X136288261Y-108840000D01*
X136350891Y-108827542D01*
X136792481Y-108532481D01*
X137087542Y-108090891D01*
X137191154Y-107570000D01*
X137087542Y-107049109D01*
X136874152Y-106729749D01*
X157309800Y-86294102D01*
X157309801Y-96490097D01*
X145505528Y-108294371D01*
X145442072Y-108336771D01*
X145399672Y-108400227D01*
X145399671Y-108400228D01*
X145309619Y-108535000D01*
X145291204Y-108562560D01*
X145090000Y-108562560D01*
X144842235Y-108611843D01*
X144632191Y-108752191D01*
X144491843Y-108962235D01*
X144488725Y-108977908D01*
X144319507Y-108808690D01*
X143755330Y-108575000D01*
X143144670Y-108575000D01*
X142580493Y-108808690D01*
X142148690Y-109240493D01*
X141915000Y-109804670D01*
X141915000Y-110415330D01*
X142148690Y-110979507D01*
X142580493Y-111411310D01*
X143144670Y-111645000D01*
X143755330Y-111645000D01*
X144319507Y-111411310D01*
X144488725Y-111242092D01*
X144491843Y-111257765D01*
X144632191Y-111467809D01*
X144842235Y-111608157D01*
X145090000Y-111657440D01*
X146890000Y-111657440D01*
X147137765Y-111608157D01*
X147347809Y-111467809D01*
X147488157Y-111257765D01*
X147537440Y-111010000D01*
X147537440Y-109292071D01*
X183777000Y-109292071D01*
X183777000Y-109683929D01*
X183926958Y-110045958D01*
X184204042Y-110323042D01*
X184566071Y-110473000D01*
X184957929Y-110473000D01*
X185319958Y-110323042D01*
X185597042Y-110045958D01*
X185747000Y-109683929D01*
X185747000Y-109292071D01*
X185597042Y-108930042D01*
X185319958Y-108652958D01*
X184957929Y-108503000D01*
X184566071Y-108503000D01*
X184204042Y-108652958D01*
X183926958Y-108930042D01*
X183777000Y-109292071D01*
X147537440Y-109292071D01*
X147537440Y-109210000D01*
X147488157Y-108962235D01*
X147347809Y-108752191D01*
X147257592Y-108691909D01*
X150614641Y-105334860D01*
X160632000Y-105334860D01*
X160632000Y-106381140D01*
X161032393Y-107347775D01*
X161772225Y-108087607D01*
X162738860Y-108488000D01*
X163785140Y-108488000D01*
X164751775Y-108087607D01*
X165491607Y-107347775D01*
X165562859Y-107175758D01*
X165966615Y-107343000D01*
X166557385Y-107343000D01*
X167103185Y-107116922D01*
X167520922Y-106699185D01*
X167747000Y-106153385D01*
X167747000Y-105562615D01*
X167520922Y-105016815D01*
X167103185Y-104599078D01*
X166557385Y-104373000D01*
X165966615Y-104373000D01*
X165562859Y-104540242D01*
X165491607Y-104368225D01*
X164751775Y-103628393D01*
X163785140Y-103228000D01*
X162738860Y-103228000D01*
X161772225Y-103628393D01*
X161032393Y-104368225D01*
X160632000Y-105334860D01*
X150614641Y-105334860D01*
X158554273Y-97395229D01*
X158617729Y-97352829D01*
X158785704Y-97101437D01*
X158829800Y-96879752D01*
X158829800Y-96879747D01*
X158844688Y-96804900D01*
X158829800Y-96730053D01*
X158829800Y-78099111D01*
X158923800Y-77872174D01*
X158923800Y-77460426D01*
X158766231Y-77080020D01*
X158475080Y-76788869D01*
X158326702Y-76727409D01*
X158408631Y-76645480D01*
X158566200Y-76265074D01*
X158566200Y-75853326D01*
X158408631Y-75472920D01*
X158117480Y-75181769D01*
X157737074Y-75024200D01*
X157325326Y-75024200D01*
X156944920Y-75181769D01*
X156653769Y-75472920D01*
X156496200Y-75853326D01*
X156496200Y-76057623D01*
X156447596Y-76130364D01*
X156403500Y-76352049D01*
X156403500Y-76352053D01*
X156388612Y-76426900D01*
X156403500Y-76501747D01*
X156403501Y-78263519D01*
X156216520Y-78340969D01*
X155925369Y-78632120D01*
X155767800Y-79012526D01*
X155767800Y-79424274D01*
X155925369Y-79804680D01*
X156042800Y-79922111D01*
X156042801Y-84767697D01*
X147512305Y-93298194D01*
X147382380Y-93168269D01*
X147001974Y-93010700D01*
X146835903Y-93010700D01*
X143734300Y-89909099D01*
X143734300Y-58278946D01*
X143759582Y-58295839D01*
X144192744Y-58382000D01*
X144485256Y-58382000D01*
X144918418Y-58295839D01*
X145409625Y-57967625D01*
X145609000Y-57669239D01*
X145808375Y-57967625D01*
X146125430Y-58179475D01*
X146163097Y-58368837D01*
X146331072Y-58620229D01*
X146394528Y-58662629D01*
X147809400Y-60077502D01*
X147809401Y-89274288D01*
X147691969Y-89391720D01*
X147534400Y-89772126D01*
X147534400Y-90183874D01*
X147691969Y-90564280D01*
X147983120Y-90855431D01*
X148363526Y-91013000D01*
X148775274Y-91013000D01*
X149155680Y-90855431D01*
X149446831Y-90564280D01*
X149604400Y-90183874D01*
X149604400Y-89772126D01*
X149446831Y-89391720D01*
X149329400Y-89274289D01*
X149329400Y-66594860D01*
X160632000Y-66594860D01*
X160632000Y-67641140D01*
X161032393Y-68607775D01*
X161772225Y-69347607D01*
X162738860Y-69748000D01*
X163785140Y-69748000D01*
X164751775Y-69347607D01*
X165491607Y-68607775D01*
X165543724Y-68481952D01*
X165956670Y-68653000D01*
X166567330Y-68653000D01*
X167131507Y-68419310D01*
X167563310Y-67987507D01*
X167797000Y-67423330D01*
X167797000Y-66812670D01*
X167563310Y-66248493D01*
X167131507Y-65816690D01*
X166567330Y-65583000D01*
X165956670Y-65583000D01*
X165543724Y-65754048D01*
X165491607Y-65628225D01*
X164751775Y-64888393D01*
X163785140Y-64488000D01*
X162738860Y-64488000D01*
X161772225Y-64888393D01*
X161032393Y-65628225D01*
X160632000Y-66594860D01*
X149329400Y-66594860D01*
X149329400Y-63292071D01*
X183777000Y-63292071D01*
X183777000Y-63683929D01*
X183926958Y-64045958D01*
X184204042Y-64323042D01*
X184566071Y-64473000D01*
X184957929Y-64473000D01*
X185319958Y-64323042D01*
X185597042Y-64045958D01*
X185747000Y-63683929D01*
X185747000Y-63292071D01*
X185597042Y-62930042D01*
X185319958Y-62652958D01*
X184957929Y-62503000D01*
X184566071Y-62503000D01*
X184204042Y-62652958D01*
X183926958Y-62930042D01*
X183777000Y-63292071D01*
X149329400Y-63292071D01*
X149329400Y-59837548D01*
X149344288Y-59762700D01*
X149329400Y-59687852D01*
X149329400Y-59687848D01*
X149285304Y-59466163D01*
X149117329Y-59214771D01*
X149053873Y-59172371D01*
X147889380Y-58007879D01*
X147949625Y-57967625D01*
X148149000Y-57669239D01*
X148348375Y-57967625D01*
X148839582Y-58295839D01*
X149272744Y-58382000D01*
X149565256Y-58382000D01*
X149998418Y-58295839D01*
X150489625Y-57967625D01*
X150689000Y-57669239D01*
X150888375Y-57967625D01*
X151379582Y-58295839D01*
X151812744Y-58382000D01*
X152105256Y-58382000D01*
X152538418Y-58295839D01*
X153029625Y-57967625D01*
X153229000Y-57669239D01*
X153428375Y-57967625D01*
X153919582Y-58295839D01*
X154352744Y-58382000D01*
X154645256Y-58382000D01*
X155078418Y-58295839D01*
X155569625Y-57967625D01*
X155769000Y-57669239D01*
X155968375Y-57967625D01*
X156459582Y-58295839D01*
X156892744Y-58382000D01*
X157185256Y-58382000D01*
X157618418Y-58295839D01*
X158109625Y-57967625D01*
X158309000Y-57669239D01*
X158508375Y-57967625D01*
X158999582Y-58295839D01*
X159432744Y-58382000D01*
X159725256Y-58382000D01*
X160158418Y-58295839D01*
X160649625Y-57967625D01*
X160849000Y-57669239D01*
X161048375Y-57967625D01*
X161539582Y-58295839D01*
X161972744Y-58382000D01*
X162265256Y-58382000D01*
X162698418Y-58295839D01*
X163189625Y-57967625D01*
X163389000Y-57669239D01*
X163588375Y-57967625D01*
X164079582Y-58295839D01*
X164512744Y-58382000D01*
X164805256Y-58382000D01*
X165238418Y-58295839D01*
X165729625Y-57967625D01*
X165929000Y-57669239D01*
X166128375Y-57967625D01*
X166619582Y-58295839D01*
X167052744Y-58382000D01*
X167345256Y-58382000D01*
X167778418Y-58295839D01*
X168269625Y-57967625D01*
X168469000Y-57669239D01*
X168668375Y-57967625D01*
X169159582Y-58295839D01*
X169592744Y-58382000D01*
X169885256Y-58382000D01*
X170318418Y-58295839D01*
X170809625Y-57967625D01*
X171009000Y-57669239D01*
X171208375Y-57967625D01*
X171699582Y-58295839D01*
X172132744Y-58382000D01*
X172425256Y-58382000D01*
X172858418Y-58295839D01*
X173349625Y-57967625D01*
X173677839Y-57476418D01*
X173793092Y-56897000D01*
X173677839Y-56317582D01*
X173349625Y-55826375D01*
X173051239Y-55627000D01*
X173349625Y-55427625D01*
X173677839Y-54936418D01*
X173793092Y-54357000D01*
X173677839Y-53777582D01*
X173349625Y-53286375D01*
X172858418Y-52958161D01*
X172425256Y-52872000D01*
X172132744Y-52872000D01*
X171699582Y-52958161D01*
X171208375Y-53286375D01*
X171009000Y-53584761D01*
X170809625Y-53286375D01*
X170318418Y-52958161D01*
X169885256Y-52872000D01*
X169592744Y-52872000D01*
X169159582Y-52958161D01*
X168668375Y-53286375D01*
X168469000Y-53584761D01*
X168269625Y-53286375D01*
X167778418Y-52958161D01*
X167345256Y-52872000D01*
X167052744Y-52872000D01*
X166619582Y-52958161D01*
X166128375Y-53286375D01*
X165929000Y-53584761D01*
X165729625Y-53286375D01*
X165238418Y-52958161D01*
X164805256Y-52872000D01*
X164512744Y-52872000D01*
X164079582Y-52958161D01*
X163588375Y-53286375D01*
X163389000Y-53584761D01*
X163189625Y-53286375D01*
X162698418Y-52958161D01*
X162265256Y-52872000D01*
X161972744Y-52872000D01*
X161539582Y-52958161D01*
X161048375Y-53286375D01*
X160849000Y-53584761D01*
X160649625Y-53286375D01*
X160158418Y-52958161D01*
X159725256Y-52872000D01*
X159432744Y-52872000D01*
X158999582Y-52958161D01*
X158674725Y-53175223D01*
X158173831Y-52674330D01*
X158131429Y-52610871D01*
X157880037Y-52442896D01*
X157658352Y-52398800D01*
X157658347Y-52398800D01*
X157583500Y-52383912D01*
X157508653Y-52398800D01*
X113814347Y-52398800D01*
X113739500Y-52383912D01*
X113664653Y-52398800D01*
X113664648Y-52398800D01*
X113442963Y-52442896D01*
X113191571Y-52610871D01*
X113149171Y-52674327D01*
X111580230Y-54243269D01*
X111516771Y-54285671D01*
X111348796Y-54537064D01*
X111304700Y-54758749D01*
X111304700Y-54758753D01*
X111289812Y-54833600D01*
X99762000Y-54833600D01*
X99762000Y-48165431D01*
X102275000Y-48165431D01*
X102275000Y-49054569D01*
X102615259Y-49876026D01*
X103243974Y-50504741D01*
X104065431Y-50845000D01*
X104954569Y-50845000D01*
X105776026Y-50504741D01*
X106404741Y-49876026D01*
X106745000Y-49054569D01*
X106745000Y-48165431D01*
X106732574Y-48135431D01*
X190955000Y-48135431D01*
X190955000Y-49024569D01*
X191295259Y-49846026D01*
X191923974Y-50474741D01*
X192745431Y-50815000D01*
X193634569Y-50815000D01*
X194456026Y-50474741D01*
X195084741Y-49846026D01*
X195425000Y-49024569D01*
X195425000Y-48135431D01*
X195084741Y-47313974D01*
X194456026Y-46685259D01*
X193634569Y-46345000D01*
X192745431Y-46345000D01*
X191923974Y-46685259D01*
X191295259Y-47313974D01*
X190955000Y-48135431D01*
X106732574Y-48135431D01*
X106404741Y-47343974D01*
X105776026Y-46715259D01*
X104954569Y-46375000D01*
X104065431Y-46375000D01*
X103243974Y-46715259D01*
X102615259Y-47343974D01*
X102275000Y-48165431D01*
X99762000Y-48165431D01*
X99762000Y-44832000D01*
X197933000Y-44832000D01*
X197933000Y-118238000D01*
G36*
X135648375Y-55427625D02*
X135946761Y-55627000D01*
X135648375Y-55826375D01*
X135449000Y-56124761D01*
X135249625Y-55826375D01*
X134951239Y-55627000D01*
X135249625Y-55427625D01*
X135449000Y-55129239D01*
X135648375Y-55427625D01*
X135648375Y-55427625D01*
G37*
X135648375Y-55427625D02*
X135946761Y-55627000D01*
X135648375Y-55826375D01*
X135449000Y-56124761D01*
X135249625Y-55826375D01*
X134951239Y-55627000D01*
X135249625Y-55427625D01*
X135449000Y-55129239D01*
X135648375Y-55427625D01*
G36*
X122577514Y-54000108D02*
X122698181Y-54230000D01*
X123892000Y-54230000D01*
X123892000Y-54210000D01*
X124146000Y-54210000D01*
X124146000Y-54230000D01*
X126432000Y-54230000D01*
X126432000Y-54210000D01*
X126686000Y-54210000D01*
X126686000Y-54230000D01*
X126706000Y-54230000D01*
X126706000Y-54484000D01*
X126686000Y-54484000D01*
X126686000Y-54504000D01*
X126432000Y-54504000D01*
X126432000Y-54484000D01*
X124146000Y-54484000D01*
X124146000Y-54504000D01*
X123892000Y-54504000D01*
X123892000Y-54484000D01*
X122698181Y-54484000D01*
X122577514Y-54713892D01*
X122823817Y-55238358D01*
X123030855Y-55427039D01*
X122921235Y-55448843D01*
X122711191Y-55589191D01*
X122570843Y-55799235D01*
X122538467Y-55962000D01*
X115400099Y-55962000D01*
X115398157Y-55952235D01*
X115257809Y-55742191D01*
X115047765Y-55601843D01*
X114813813Y-55555307D01*
X114828139Y-55507745D01*
X114000000Y-54679605D01*
X113171861Y-55507745D01*
X113186187Y-55555307D01*
X112952235Y-55601843D01*
X112824700Y-55687060D01*
X112824700Y-55277669D01*
X112992255Y-55328139D01*
X113820395Y-54500000D01*
X113806253Y-54485858D01*
X113985858Y-54306253D01*
X114000000Y-54320395D01*
X114014143Y-54306253D01*
X114193748Y-54485858D01*
X114179605Y-54500000D01*
X115007745Y-55328139D01*
X115253864Y-55254005D01*
X115446965Y-54716777D01*
X115419778Y-54146546D01*
X115325442Y-53918800D01*
X122615698Y-53918800D01*
X122577514Y-54000108D01*
X122577514Y-54000108D01*
G37*
X122577514Y-54000108D02*
X122698181Y-54230000D01*
X123892000Y-54230000D01*
X123892000Y-54210000D01*
X124146000Y-54210000D01*
X124146000Y-54230000D01*
X126432000Y-54230000D01*
X126432000Y-54210000D01*
X126686000Y-54210000D01*
X126686000Y-54230000D01*
X126706000Y-54230000D01*
X126706000Y-54484000D01*
X126686000Y-54484000D01*
X126686000Y-54504000D01*
X126432000Y-54504000D01*
X126432000Y-54484000D01*
X124146000Y-54484000D01*
X124146000Y-54504000D01*
X123892000Y-54504000D01*
X123892000Y-54484000D01*
X122698181Y-54484000D01*
X122577514Y-54713892D01*
X122823817Y-55238358D01*
X123030855Y-55427039D01*
X122921235Y-55448843D01*
X122711191Y-55589191D01*
X122570843Y-55799235D01*
X122538467Y-55962000D01*
X115400099Y-55962000D01*
X115398157Y-55952235D01*
X115257809Y-55742191D01*
X115047765Y-55601843D01*
X114813813Y-55555307D01*
X114828139Y-55507745D01*
X114000000Y-54679605D01*
X113171861Y-55507745D01*
X113186187Y-55555307D01*
X112952235Y-55601843D01*
X112824700Y-55687060D01*
X112824700Y-55277669D01*
X112992255Y-55328139D01*
X113820395Y-54500000D01*
X113806253Y-54485858D01*
X113985858Y-54306253D01*
X114000000Y-54320395D01*
X114014143Y-54306253D01*
X114193748Y-54485858D01*
X114179605Y-54500000D01*
X115007745Y-55328139D01*
X115253864Y-55254005D01*
X115446965Y-54716777D01*
X115419778Y-54146546D01*
X115325442Y-53918800D01*
X122615698Y-53918800D01*
X122577514Y-54000108D01*
G04 #@! TD*
M02*
