G04 #@! TF.GenerationSoftware,KiCad,Pcbnew,(5.0.0-3-g5ebb6b6)*
G04 #@! TF.CreationDate,2018-12-13T20:58:23+09:00*
G04 #@! TF.ProjectId,SBC80-CF,53424338302D43462E6B696361645F70,rev?*
G04 #@! TF.SameCoordinates,Original*
G04 #@! TF.FileFunction,Legend,Top*
G04 #@! TF.FilePolarity,Positive*
%FSLAX46Y46*%
G04 Gerber Fmt 4.6, Leading zero omitted, Abs format (unit mm)*
G04 Created by KiCad (PCBNEW (5.0.0-3-g5ebb6b6)) date *
%MOMM*%
%LPD*%
G01*
G04 APERTURE LIST*
%ADD10C,0.150000*%
%ADD11C,0.300000*%
%ADD12C,0.120000*%
G04 APERTURE END LIST*
D10*
X140798571Y-113256666D02*
X141274761Y-113256666D01*
X140703333Y-113542380D02*
X141036666Y-112542380D01*
X141370000Y-113542380D01*
X142131904Y-113494761D02*
X142036666Y-113542380D01*
X141846190Y-113542380D01*
X141750952Y-113494761D01*
X141703333Y-113447142D01*
X141655714Y-113351904D01*
X141655714Y-113066190D01*
X141703333Y-112970952D01*
X141750952Y-112923333D01*
X141846190Y-112875714D01*
X142036666Y-112875714D01*
X142131904Y-112923333D01*
X142989047Y-113494761D02*
X142893809Y-113542380D01*
X142703333Y-113542380D01*
X142608095Y-113494761D01*
X142560476Y-113447142D01*
X142512857Y-113351904D01*
X142512857Y-113066190D01*
X142560476Y-112970952D01*
X142608095Y-112923333D01*
X142703333Y-112875714D01*
X142893809Y-112875714D01*
X142989047Y-112923333D01*
X143798571Y-113494761D02*
X143703333Y-113542380D01*
X143512857Y-113542380D01*
X143417619Y-113494761D01*
X143370000Y-113399523D01*
X143370000Y-113018571D01*
X143417619Y-112923333D01*
X143512857Y-112875714D01*
X143703333Y-112875714D01*
X143798571Y-112923333D01*
X143846190Y-113018571D01*
X143846190Y-113113809D01*
X143370000Y-113209047D01*
X144227142Y-113494761D02*
X144322380Y-113542380D01*
X144512857Y-113542380D01*
X144608095Y-113494761D01*
X144655714Y-113399523D01*
X144655714Y-113351904D01*
X144608095Y-113256666D01*
X144512857Y-113209047D01*
X144370000Y-113209047D01*
X144274761Y-113161428D01*
X144227142Y-113066190D01*
X144227142Y-113018571D01*
X144274761Y-112923333D01*
X144370000Y-112875714D01*
X144512857Y-112875714D01*
X144608095Y-112923333D01*
X145036666Y-113494761D02*
X145131904Y-113542380D01*
X145322380Y-113542380D01*
X145417619Y-113494761D01*
X145465238Y-113399523D01*
X145465238Y-113351904D01*
X145417619Y-113256666D01*
X145322380Y-113209047D01*
X145179523Y-113209047D01*
X145084285Y-113161428D01*
X145036666Y-113066190D01*
X145036666Y-113018571D01*
X145084285Y-112923333D01*
X145179523Y-112875714D01*
X145322380Y-112875714D01*
X145417619Y-112923333D01*
X147131904Y-113542380D02*
X146655714Y-113542380D01*
X146655714Y-112542380D01*
X147465238Y-113018571D02*
X147798571Y-113018571D01*
X147941428Y-113542380D02*
X147465238Y-113542380D01*
X147465238Y-112542380D01*
X147941428Y-112542380D01*
X148370000Y-113542380D02*
X148370000Y-112542380D01*
X148608095Y-112542380D01*
X148750952Y-112590000D01*
X148846190Y-112685238D01*
X148893809Y-112780476D01*
X148941428Y-112970952D01*
X148941428Y-113113809D01*
X148893809Y-113304285D01*
X148846190Y-113399523D01*
X148750952Y-113494761D01*
X148608095Y-113542380D01*
X148370000Y-113542380D01*
D11*
X127888571Y-60948571D02*
X127888571Y-59448571D01*
X128745714Y-60948571D02*
X128102857Y-60091428D01*
X128745714Y-59448571D02*
X127888571Y-60305714D01*
X129245714Y-59448571D02*
X130245714Y-59448571D01*
X129245714Y-60948571D01*
X130245714Y-60948571D01*
X131031428Y-60091428D02*
X130888571Y-60020000D01*
X130817142Y-59948571D01*
X130745714Y-59805714D01*
X130745714Y-59734285D01*
X130817142Y-59591428D01*
X130888571Y-59520000D01*
X131031428Y-59448571D01*
X131317142Y-59448571D01*
X131460000Y-59520000D01*
X131531428Y-59591428D01*
X131602857Y-59734285D01*
X131602857Y-59805714D01*
X131531428Y-59948571D01*
X131460000Y-60020000D01*
X131317142Y-60091428D01*
X131031428Y-60091428D01*
X130888571Y-60162857D01*
X130817142Y-60234285D01*
X130745714Y-60377142D01*
X130745714Y-60662857D01*
X130817142Y-60805714D01*
X130888571Y-60877142D01*
X131031428Y-60948571D01*
X131317142Y-60948571D01*
X131460000Y-60877142D01*
X131531428Y-60805714D01*
X131602857Y-60662857D01*
X131602857Y-60377142D01*
X131531428Y-60234285D01*
X131460000Y-60162857D01*
X131317142Y-60091428D01*
X132531428Y-59448571D02*
X132674285Y-59448571D01*
X132817142Y-59520000D01*
X132888571Y-59591428D01*
X132960000Y-59734285D01*
X133031428Y-60020000D01*
X133031428Y-60377142D01*
X132960000Y-60662857D01*
X132888571Y-60805714D01*
X132817142Y-60877142D01*
X132674285Y-60948571D01*
X132531428Y-60948571D01*
X132388571Y-60877142D01*
X132317142Y-60805714D01*
X132245714Y-60662857D01*
X132174285Y-60377142D01*
X132174285Y-60020000D01*
X132245714Y-59734285D01*
X132317142Y-59591428D01*
X132388571Y-59520000D01*
X132531428Y-59448571D01*
X133674285Y-60377142D02*
X134817142Y-60377142D01*
X136388571Y-60805714D02*
X136317142Y-60877142D01*
X136102857Y-60948571D01*
X135960000Y-60948571D01*
X135745714Y-60877142D01*
X135602857Y-60734285D01*
X135531428Y-60591428D01*
X135460000Y-60305714D01*
X135460000Y-60091428D01*
X135531428Y-59805714D01*
X135602857Y-59662857D01*
X135745714Y-59520000D01*
X135960000Y-59448571D01*
X136102857Y-59448571D01*
X136317142Y-59520000D01*
X136388571Y-59591428D01*
X137531428Y-60162857D02*
X137031428Y-60162857D01*
X137031428Y-60948571D02*
X137031428Y-59448571D01*
X137745714Y-59448571D01*
X140317142Y-60948571D02*
X139817142Y-60234285D01*
X139460000Y-60948571D02*
X139460000Y-59448571D01*
X140031428Y-59448571D01*
X140174285Y-59520000D01*
X140245714Y-59591428D01*
X140317142Y-59734285D01*
X140317142Y-59948571D01*
X140245714Y-60091428D01*
X140174285Y-60162857D01*
X140031428Y-60234285D01*
X139460000Y-60234285D01*
X140960000Y-60162857D02*
X141460000Y-60162857D01*
X141674285Y-60948571D02*
X140960000Y-60948571D01*
X140960000Y-59448571D01*
X141674285Y-59448571D01*
X142102857Y-59448571D02*
X142602857Y-60948571D01*
X143102857Y-59448571D01*
X144388571Y-60948571D02*
X143531428Y-60948571D01*
X143960000Y-60948571D02*
X143960000Y-59448571D01*
X143817142Y-59662857D01*
X143674285Y-59805714D01*
X143531428Y-59877142D01*
X146174285Y-60805714D02*
X146245714Y-60877142D01*
X146174285Y-60948571D01*
X146102857Y-60877142D01*
X146174285Y-60805714D01*
X146174285Y-60948571D01*
X146174285Y-60020000D02*
X146245714Y-60091428D01*
X146174285Y-60162857D01*
X146102857Y-60091428D01*
X146174285Y-60020000D01*
X146174285Y-60162857D01*
X148888571Y-60805714D02*
X148817142Y-60877142D01*
X148602857Y-60948571D01*
X148460000Y-60948571D01*
X148245714Y-60877142D01*
X148102857Y-60734285D01*
X148031428Y-60591428D01*
X147960000Y-60305714D01*
X147960000Y-60091428D01*
X148031428Y-59805714D01*
X148102857Y-59662857D01*
X148245714Y-59520000D01*
X148460000Y-59448571D01*
X148602857Y-59448571D01*
X148817142Y-59520000D01*
X148888571Y-59591428D01*
X149745714Y-60948571D02*
X149602857Y-60877142D01*
X149531428Y-60805714D01*
X149460000Y-60662857D01*
X149460000Y-60234285D01*
X149531428Y-60091428D01*
X149602857Y-60020000D01*
X149745714Y-59948571D01*
X149960000Y-59948571D01*
X150102857Y-60020000D01*
X150174285Y-60091428D01*
X150245714Y-60234285D01*
X150245714Y-60662857D01*
X150174285Y-60805714D01*
X150102857Y-60877142D01*
X149960000Y-60948571D01*
X149745714Y-60948571D01*
X150888571Y-60948571D02*
X150888571Y-59948571D01*
X150888571Y-60091428D02*
X150960000Y-60020000D01*
X151102857Y-59948571D01*
X151317142Y-59948571D01*
X151460000Y-60020000D01*
X151531428Y-60162857D01*
X151531428Y-60948571D01*
X151531428Y-60162857D02*
X151602857Y-60020000D01*
X151745714Y-59948571D01*
X151960000Y-59948571D01*
X152102857Y-60020000D01*
X152174285Y-60162857D01*
X152174285Y-60948571D01*
X152888571Y-59948571D02*
X152888571Y-61448571D01*
X152888571Y-60020000D02*
X153031428Y-59948571D01*
X153317142Y-59948571D01*
X153460000Y-60020000D01*
X153531428Y-60091428D01*
X153602857Y-60234285D01*
X153602857Y-60662857D01*
X153531428Y-60805714D01*
X153460000Y-60877142D01*
X153317142Y-60948571D01*
X153031428Y-60948571D01*
X152888571Y-60877142D01*
X154888571Y-60948571D02*
X154888571Y-60162857D01*
X154817142Y-60020000D01*
X154674285Y-59948571D01*
X154388571Y-59948571D01*
X154245714Y-60020000D01*
X154888571Y-60877142D02*
X154745714Y-60948571D01*
X154388571Y-60948571D01*
X154245714Y-60877142D01*
X154174285Y-60734285D01*
X154174285Y-60591428D01*
X154245714Y-60448571D01*
X154388571Y-60377142D01*
X154745714Y-60377142D01*
X154888571Y-60305714D01*
X156245714Y-60877142D02*
X156102857Y-60948571D01*
X155817142Y-60948571D01*
X155674285Y-60877142D01*
X155602857Y-60805714D01*
X155531428Y-60662857D01*
X155531428Y-60234285D01*
X155602857Y-60091428D01*
X155674285Y-60020000D01*
X155817142Y-59948571D01*
X156102857Y-59948571D01*
X156245714Y-60020000D01*
X156674285Y-59948571D02*
X157245714Y-59948571D01*
X156888571Y-59448571D02*
X156888571Y-60734285D01*
X156960000Y-60877142D01*
X157102857Y-60948571D01*
X157245714Y-60948571D01*
X159388571Y-60162857D02*
X158888571Y-60162857D01*
X158888571Y-60948571D02*
X158888571Y-59448571D01*
X159602857Y-59448571D01*
X160388571Y-60948571D02*
X160245714Y-60877142D01*
X160174285Y-60734285D01*
X160174285Y-59448571D01*
X161602857Y-60948571D02*
X161602857Y-60162857D01*
X161531428Y-60020000D01*
X161388571Y-59948571D01*
X161102857Y-59948571D01*
X160960000Y-60020000D01*
X161602857Y-60877142D02*
X161460000Y-60948571D01*
X161102857Y-60948571D01*
X160960000Y-60877142D01*
X160888571Y-60734285D01*
X160888571Y-60591428D01*
X160960000Y-60448571D01*
X161102857Y-60377142D01*
X161460000Y-60377142D01*
X161602857Y-60305714D01*
X162245714Y-60877142D02*
X162388571Y-60948571D01*
X162674285Y-60948571D01*
X162817142Y-60877142D01*
X162888571Y-60734285D01*
X162888571Y-60662857D01*
X162817142Y-60520000D01*
X162674285Y-60448571D01*
X162460000Y-60448571D01*
X162317142Y-60377142D01*
X162245714Y-60234285D01*
X162245714Y-60162857D01*
X162317142Y-60020000D01*
X162460000Y-59948571D01*
X162674285Y-59948571D01*
X162817142Y-60020000D01*
X163531428Y-60948571D02*
X163531428Y-59448571D01*
X164174285Y-60948571D02*
X164174285Y-60162857D01*
X164102857Y-60020000D01*
X163960000Y-59948571D01*
X163745714Y-59948571D01*
X163602857Y-60020000D01*
X163531428Y-60091428D01*
X166888571Y-60805714D02*
X166817142Y-60877142D01*
X166602857Y-60948571D01*
X166460000Y-60948571D01*
X166245714Y-60877142D01*
X166102857Y-60734285D01*
X166031428Y-60591428D01*
X165960000Y-60305714D01*
X165960000Y-60091428D01*
X166031428Y-59805714D01*
X166102857Y-59662857D01*
X166245714Y-59520000D01*
X166460000Y-59448571D01*
X166602857Y-59448571D01*
X166817142Y-59520000D01*
X166888571Y-59591428D01*
X168174285Y-60948571D02*
X168174285Y-60162857D01*
X168102857Y-60020000D01*
X167960000Y-59948571D01*
X167674285Y-59948571D01*
X167531428Y-60020000D01*
X168174285Y-60877142D02*
X168031428Y-60948571D01*
X167674285Y-60948571D01*
X167531428Y-60877142D01*
X167460000Y-60734285D01*
X167460000Y-60591428D01*
X167531428Y-60448571D01*
X167674285Y-60377142D01*
X168031428Y-60377142D01*
X168174285Y-60305714D01*
X168888571Y-60948571D02*
X168888571Y-59948571D01*
X168888571Y-60234285D02*
X168960000Y-60091428D01*
X169031428Y-60020000D01*
X169174285Y-59948571D01*
X169317142Y-59948571D01*
X170460000Y-60948571D02*
X170460000Y-59448571D01*
X170460000Y-60877142D02*
X170317142Y-60948571D01*
X170031428Y-60948571D01*
X169888571Y-60877142D01*
X169817142Y-60805714D01*
X169745714Y-60662857D01*
X169745714Y-60234285D01*
X169817142Y-60091428D01*
X169888571Y-60020000D01*
X170031428Y-59948571D01*
X170317142Y-59948571D01*
X170460000Y-60020000D01*
X172245714Y-60520000D02*
X172960000Y-60520000D01*
X172102857Y-60948571D02*
X172602857Y-59448571D01*
X173102857Y-60948571D01*
X174245714Y-60948571D02*
X174245714Y-59448571D01*
X174245714Y-60877142D02*
X174102857Y-60948571D01*
X173817142Y-60948571D01*
X173674285Y-60877142D01*
X173602857Y-60805714D01*
X173531428Y-60662857D01*
X173531428Y-60234285D01*
X173602857Y-60091428D01*
X173674285Y-60020000D01*
X173817142Y-59948571D01*
X174102857Y-59948571D01*
X174245714Y-60020000D01*
X175602857Y-60948571D02*
X175602857Y-60162857D01*
X175531428Y-60020000D01*
X175388571Y-59948571D01*
X175102857Y-59948571D01*
X174960000Y-60020000D01*
X175602857Y-60877142D02*
X175460000Y-60948571D01*
X175102857Y-60948571D01*
X174960000Y-60877142D01*
X174888571Y-60734285D01*
X174888571Y-60591428D01*
X174960000Y-60448571D01*
X175102857Y-60377142D01*
X175460000Y-60377142D01*
X175602857Y-60305714D01*
X176317142Y-59948571D02*
X176317142Y-61448571D01*
X176317142Y-60020000D02*
X176460000Y-59948571D01*
X176745714Y-59948571D01*
X176888571Y-60020000D01*
X176960000Y-60091428D01*
X177031428Y-60234285D01*
X177031428Y-60662857D01*
X176960000Y-60805714D01*
X176888571Y-60877142D01*
X176745714Y-60948571D01*
X176460000Y-60948571D01*
X176317142Y-60877142D01*
X177460000Y-59948571D02*
X178031428Y-59948571D01*
X177674285Y-59448571D02*
X177674285Y-60734285D01*
X177745714Y-60877142D01*
X177888571Y-60948571D01*
X178031428Y-60948571D01*
X179102857Y-60877142D02*
X178960000Y-60948571D01*
X178674285Y-60948571D01*
X178531428Y-60877142D01*
X178460000Y-60734285D01*
X178460000Y-60162857D01*
X178531428Y-60020000D01*
X178674285Y-59948571D01*
X178960000Y-59948571D01*
X179102857Y-60020000D01*
X179174285Y-60162857D01*
X179174285Y-60305714D01*
X178460000Y-60448571D01*
X179817142Y-60948571D02*
X179817142Y-59948571D01*
X179817142Y-60234285D02*
X179888571Y-60091428D01*
X179960000Y-60020000D01*
X180102857Y-59948571D01*
X180245714Y-59948571D01*
X170557857Y-87150714D02*
X170486428Y-87222142D01*
X170272142Y-87293571D01*
X170129285Y-87293571D01*
X169915000Y-87222142D01*
X169772142Y-87079285D01*
X169700714Y-86936428D01*
X169629285Y-86650714D01*
X169629285Y-86436428D01*
X169700714Y-86150714D01*
X169772142Y-86007857D01*
X169915000Y-85865000D01*
X170129285Y-85793571D01*
X170272142Y-85793571D01*
X170486428Y-85865000D01*
X170557857Y-85936428D01*
X171415000Y-87293571D02*
X171272142Y-87222142D01*
X171200714Y-87150714D01*
X171129285Y-87007857D01*
X171129285Y-86579285D01*
X171200714Y-86436428D01*
X171272142Y-86365000D01*
X171415000Y-86293571D01*
X171629285Y-86293571D01*
X171772142Y-86365000D01*
X171843571Y-86436428D01*
X171915000Y-86579285D01*
X171915000Y-87007857D01*
X171843571Y-87150714D01*
X171772142Y-87222142D01*
X171629285Y-87293571D01*
X171415000Y-87293571D01*
X172557857Y-87293571D02*
X172557857Y-86293571D01*
X172557857Y-86436428D02*
X172629285Y-86365000D01*
X172772142Y-86293571D01*
X172986428Y-86293571D01*
X173129285Y-86365000D01*
X173200714Y-86507857D01*
X173200714Y-87293571D01*
X173200714Y-86507857D02*
X173272142Y-86365000D01*
X173415000Y-86293571D01*
X173629285Y-86293571D01*
X173772142Y-86365000D01*
X173843571Y-86507857D01*
X173843571Y-87293571D01*
X174557857Y-86293571D02*
X174557857Y-87793571D01*
X174557857Y-86365000D02*
X174700714Y-86293571D01*
X174986428Y-86293571D01*
X175129285Y-86365000D01*
X175200714Y-86436428D01*
X175272142Y-86579285D01*
X175272142Y-87007857D01*
X175200714Y-87150714D01*
X175129285Y-87222142D01*
X174986428Y-87293571D01*
X174700714Y-87293571D01*
X174557857Y-87222142D01*
X176557857Y-87293571D02*
X176557857Y-86507857D01*
X176486428Y-86365000D01*
X176343571Y-86293571D01*
X176057857Y-86293571D01*
X175915000Y-86365000D01*
X176557857Y-87222142D02*
X176415000Y-87293571D01*
X176057857Y-87293571D01*
X175915000Y-87222142D01*
X175843571Y-87079285D01*
X175843571Y-86936428D01*
X175915000Y-86793571D01*
X176057857Y-86722142D01*
X176415000Y-86722142D01*
X176557857Y-86650714D01*
X177915000Y-87222142D02*
X177772142Y-87293571D01*
X177486428Y-87293571D01*
X177343571Y-87222142D01*
X177272142Y-87150714D01*
X177200714Y-87007857D01*
X177200714Y-86579285D01*
X177272142Y-86436428D01*
X177343571Y-86365000D01*
X177486428Y-86293571D01*
X177772142Y-86293571D01*
X177915000Y-86365000D01*
X178343571Y-86293571D02*
X178915000Y-86293571D01*
X178557857Y-85793571D02*
X178557857Y-87079285D01*
X178629285Y-87222142D01*
X178772142Y-87293571D01*
X178915000Y-87293571D01*
X181057857Y-86507857D02*
X180557857Y-86507857D01*
X180557857Y-87293571D02*
X180557857Y-85793571D01*
X181272142Y-85793571D01*
X182057857Y-87293571D02*
X181915000Y-87222142D01*
X181843571Y-87079285D01*
X181843571Y-85793571D01*
X183272142Y-87293571D02*
X183272142Y-86507857D01*
X183200714Y-86365000D01*
X183057857Y-86293571D01*
X182772142Y-86293571D01*
X182629285Y-86365000D01*
X183272142Y-87222142D02*
X183129285Y-87293571D01*
X182772142Y-87293571D01*
X182629285Y-87222142D01*
X182557857Y-87079285D01*
X182557857Y-86936428D01*
X182629285Y-86793571D01*
X182772142Y-86722142D01*
X183129285Y-86722142D01*
X183272142Y-86650714D01*
X183915000Y-87222142D02*
X184057857Y-87293571D01*
X184343571Y-87293571D01*
X184486428Y-87222142D01*
X184557857Y-87079285D01*
X184557857Y-87007857D01*
X184486428Y-86865000D01*
X184343571Y-86793571D01*
X184129285Y-86793571D01*
X183986428Y-86722142D01*
X183915000Y-86579285D01*
X183915000Y-86507857D01*
X183986428Y-86365000D01*
X184129285Y-86293571D01*
X184343571Y-86293571D01*
X184486428Y-86365000D01*
X185200714Y-87293571D02*
X185200714Y-85793571D01*
X185843571Y-87293571D02*
X185843571Y-86507857D01*
X185772142Y-86365000D01*
X185629285Y-86293571D01*
X185415000Y-86293571D01*
X185272142Y-86365000D01*
X185200714Y-86436428D01*
X188557857Y-87150714D02*
X188486428Y-87222142D01*
X188272142Y-87293571D01*
X188129285Y-87293571D01*
X187915000Y-87222142D01*
X187772142Y-87079285D01*
X187700714Y-86936428D01*
X187629285Y-86650714D01*
X187629285Y-86436428D01*
X187700714Y-86150714D01*
X187772142Y-86007857D01*
X187915000Y-85865000D01*
X188129285Y-85793571D01*
X188272142Y-85793571D01*
X188486428Y-85865000D01*
X188557857Y-85936428D01*
X189843571Y-87293571D02*
X189843571Y-86507857D01*
X189772142Y-86365000D01*
X189629285Y-86293571D01*
X189343571Y-86293571D01*
X189200714Y-86365000D01*
X189843571Y-87222142D02*
X189700714Y-87293571D01*
X189343571Y-87293571D01*
X189200714Y-87222142D01*
X189129285Y-87079285D01*
X189129285Y-86936428D01*
X189200714Y-86793571D01*
X189343571Y-86722142D01*
X189700714Y-86722142D01*
X189843571Y-86650714D01*
X190557857Y-87293571D02*
X190557857Y-86293571D01*
X190557857Y-86579285D02*
X190629285Y-86436428D01*
X190700714Y-86365000D01*
X190843571Y-86293571D01*
X190986428Y-86293571D01*
X192129285Y-87293571D02*
X192129285Y-85793571D01*
X192129285Y-87222142D02*
X191986428Y-87293571D01*
X191700714Y-87293571D01*
X191557857Y-87222142D01*
X191486428Y-87150714D01*
X191415000Y-87007857D01*
X191415000Y-86579285D01*
X191486428Y-86436428D01*
X191557857Y-86365000D01*
X191700714Y-86293571D01*
X191986428Y-86293571D01*
X192129285Y-86365000D01*
X121161428Y-56877142D02*
X120018571Y-57520000D01*
X120018571Y-56234285D01*
X121161428Y-56877142D01*
X116593571Y-81982857D02*
X116593571Y-80982857D01*
X118093571Y-81625714D01*
X117093571Y-79768571D02*
X118093571Y-79768571D01*
X116522142Y-80125714D02*
X117593571Y-80482857D01*
X117593571Y-79554285D01*
X118093571Y-78982857D02*
X116593571Y-78982857D01*
X117307857Y-78982857D02*
X117307857Y-78125714D01*
X118093571Y-78125714D02*
X116593571Y-78125714D01*
X117950714Y-76554285D02*
X118022142Y-76625714D01*
X118093571Y-76840000D01*
X118093571Y-76982857D01*
X118022142Y-77197142D01*
X117879285Y-77340000D01*
X117736428Y-77411428D01*
X117450714Y-77482857D01*
X117236428Y-77482857D01*
X116950714Y-77411428D01*
X116807857Y-77340000D01*
X116665000Y-77197142D01*
X116593571Y-76982857D01*
X116593571Y-76840000D01*
X116665000Y-76625714D01*
X116736428Y-76554285D01*
X118093571Y-75125714D02*
X118093571Y-75982857D01*
X118093571Y-75554285D02*
X116593571Y-75554285D01*
X116807857Y-75697142D01*
X116950714Y-75840000D01*
X117022142Y-75982857D01*
X116593571Y-74625714D02*
X116593571Y-73697142D01*
X117165000Y-74197142D01*
X117165000Y-73982857D01*
X117236428Y-73840000D01*
X117307857Y-73768571D01*
X117450714Y-73697142D01*
X117807857Y-73697142D01*
X117950714Y-73768571D01*
X118022142Y-73840000D01*
X118093571Y-73982857D01*
X118093571Y-74411428D01*
X118022142Y-74554285D01*
X117950714Y-74625714D01*
X117236428Y-72840000D02*
X117165000Y-72982857D01*
X117093571Y-73054285D01*
X116950714Y-73125714D01*
X116879285Y-73125714D01*
X116736428Y-73054285D01*
X116665000Y-72982857D01*
X116593571Y-72840000D01*
X116593571Y-72554285D01*
X116665000Y-72411428D01*
X116736428Y-72340000D01*
X116879285Y-72268571D01*
X116950714Y-72268571D01*
X117093571Y-72340000D01*
X117165000Y-72411428D01*
X117236428Y-72554285D01*
X117236428Y-72840000D01*
X117307857Y-72982857D01*
X117379285Y-73054285D01*
X117522142Y-73125714D01*
X117807857Y-73125714D01*
X117950714Y-73054285D01*
X118022142Y-72982857D01*
X118093571Y-72840000D01*
X118093571Y-72554285D01*
X118022142Y-72411428D01*
X117950714Y-72340000D01*
X117807857Y-72268571D01*
X117522142Y-72268571D01*
X117379285Y-72340000D01*
X117307857Y-72411428D01*
X117236428Y-72554285D01*
X116593571Y-106668571D02*
X116593571Y-105668571D01*
X118093571Y-106311428D01*
X117093571Y-104454285D02*
X118093571Y-104454285D01*
X116522142Y-104811428D02*
X117593571Y-105168571D01*
X117593571Y-104240000D01*
X118093571Y-103668571D02*
X116593571Y-103668571D01*
X117307857Y-103668571D02*
X117307857Y-102811428D01*
X118093571Y-102811428D02*
X116593571Y-102811428D01*
X117950714Y-101240000D02*
X118022142Y-101311428D01*
X118093571Y-101525714D01*
X118093571Y-101668571D01*
X118022142Y-101882857D01*
X117879285Y-102025714D01*
X117736428Y-102097142D01*
X117450714Y-102168571D01*
X117236428Y-102168571D01*
X116950714Y-102097142D01*
X116807857Y-102025714D01*
X116665000Y-101882857D01*
X116593571Y-101668571D01*
X116593571Y-101525714D01*
X116665000Y-101311428D01*
X116736428Y-101240000D01*
X116593571Y-100311428D02*
X116593571Y-100168571D01*
X116665000Y-100025714D01*
X116736428Y-99954285D01*
X116879285Y-99882857D01*
X117165000Y-99811428D01*
X117522142Y-99811428D01*
X117807857Y-99882857D01*
X117950714Y-99954285D01*
X118022142Y-100025714D01*
X118093571Y-100168571D01*
X118093571Y-100311428D01*
X118022142Y-100454285D01*
X117950714Y-100525714D01*
X117807857Y-100597142D01*
X117522142Y-100668571D01*
X117165000Y-100668571D01*
X116879285Y-100597142D01*
X116736428Y-100525714D01*
X116665000Y-100454285D01*
X116593571Y-100311428D01*
X117093571Y-98525714D02*
X118093571Y-98525714D01*
X116522142Y-98882857D02*
X117593571Y-99240000D01*
X117593571Y-98311428D01*
D10*
X133234523Y-86543571D02*
X133567857Y-86543571D01*
X133710714Y-87067380D02*
X133234523Y-87067380D01*
X133234523Y-86067380D01*
X133710714Y-86067380D01*
X134329761Y-86067380D02*
X134425000Y-86067380D01*
X134520238Y-86115000D01*
X134567857Y-86162619D01*
X134615476Y-86257857D01*
X134663095Y-86448333D01*
X134663095Y-86686428D01*
X134615476Y-86876904D01*
X134567857Y-86972142D01*
X134520238Y-87019761D01*
X134425000Y-87067380D01*
X134329761Y-87067380D01*
X134234523Y-87019761D01*
X134186904Y-86972142D01*
X134139285Y-86876904D01*
X134091666Y-86686428D01*
X134091666Y-86448333D01*
X134139285Y-86257857D01*
X134186904Y-86162619D01*
X134234523Y-86115000D01*
X134329761Y-86067380D01*
X133758333Y-84432142D02*
X133710714Y-84479761D01*
X133567857Y-84527380D01*
X133472619Y-84527380D01*
X133329761Y-84479761D01*
X133234523Y-84384523D01*
X133186904Y-84289285D01*
X133139285Y-84098809D01*
X133139285Y-83955952D01*
X133186904Y-83765476D01*
X133234523Y-83670238D01*
X133329761Y-83575000D01*
X133472619Y-83527380D01*
X133567857Y-83527380D01*
X133710714Y-83575000D01*
X133758333Y-83622619D01*
X134377380Y-83527380D02*
X134472619Y-83527380D01*
X134567857Y-83575000D01*
X134615476Y-83622619D01*
X134663095Y-83717857D01*
X134710714Y-83908333D01*
X134710714Y-84146428D01*
X134663095Y-84336904D01*
X134615476Y-84432142D01*
X134567857Y-84479761D01*
X134472619Y-84527380D01*
X134377380Y-84527380D01*
X134282142Y-84479761D01*
X134234523Y-84432142D01*
X134186904Y-84336904D01*
X134139285Y-84146428D01*
X134139285Y-83908333D01*
X134186904Y-83717857D01*
X134234523Y-83622619D01*
X134282142Y-83575000D01*
X134377380Y-83527380D01*
X133210714Y-81701666D02*
X133686904Y-81701666D01*
X133115476Y-81987380D02*
X133448809Y-80987380D01*
X133782142Y-81987380D01*
X134305952Y-80987380D02*
X134401190Y-80987380D01*
X134496428Y-81035000D01*
X134544047Y-81082619D01*
X134591666Y-81177857D01*
X134639285Y-81368333D01*
X134639285Y-81606428D01*
X134591666Y-81796904D01*
X134544047Y-81892142D01*
X134496428Y-81939761D01*
X134401190Y-81987380D01*
X134305952Y-81987380D01*
X134210714Y-81939761D01*
X134163095Y-81892142D01*
X134115476Y-81796904D01*
X134067857Y-81606428D01*
X134067857Y-81368333D01*
X134115476Y-81177857D01*
X134163095Y-81082619D01*
X134210714Y-81035000D01*
X134305952Y-80987380D01*
X133353571Y-78875952D02*
X133258333Y-78828333D01*
X133210714Y-78780714D01*
X133163095Y-78685476D01*
X133163095Y-78637857D01*
X133210714Y-78542619D01*
X133258333Y-78495000D01*
X133353571Y-78447380D01*
X133544047Y-78447380D01*
X133639285Y-78495000D01*
X133686904Y-78542619D01*
X133734523Y-78637857D01*
X133734523Y-78685476D01*
X133686904Y-78780714D01*
X133639285Y-78828333D01*
X133544047Y-78875952D01*
X133353571Y-78875952D01*
X133258333Y-78923571D01*
X133210714Y-78971190D01*
X133163095Y-79066428D01*
X133163095Y-79256904D01*
X133210714Y-79352142D01*
X133258333Y-79399761D01*
X133353571Y-79447380D01*
X133544047Y-79447380D01*
X133639285Y-79399761D01*
X133686904Y-79352142D01*
X133734523Y-79256904D01*
X133734523Y-79066428D01*
X133686904Y-78971190D01*
X133639285Y-78923571D01*
X133544047Y-78875952D01*
X134353571Y-78447380D02*
X134448809Y-78447380D01*
X134544047Y-78495000D01*
X134591666Y-78542619D01*
X134639285Y-78637857D01*
X134686904Y-78828333D01*
X134686904Y-79066428D01*
X134639285Y-79256904D01*
X134591666Y-79352142D01*
X134544047Y-79399761D01*
X134448809Y-79447380D01*
X134353571Y-79447380D01*
X134258333Y-79399761D01*
X134210714Y-79352142D01*
X134163095Y-79256904D01*
X134115476Y-79066428D01*
X134115476Y-78828333D01*
X134163095Y-78637857D01*
X134210714Y-78542619D01*
X134258333Y-78495000D01*
X134353571Y-78447380D01*
X133639285Y-75907380D02*
X133448809Y-75907380D01*
X133353571Y-75955000D01*
X133305952Y-76002619D01*
X133210714Y-76145476D01*
X133163095Y-76335952D01*
X133163095Y-76716904D01*
X133210714Y-76812142D01*
X133258333Y-76859761D01*
X133353571Y-76907380D01*
X133544047Y-76907380D01*
X133639285Y-76859761D01*
X133686904Y-76812142D01*
X133734523Y-76716904D01*
X133734523Y-76478809D01*
X133686904Y-76383571D01*
X133639285Y-76335952D01*
X133544047Y-76288333D01*
X133353571Y-76288333D01*
X133258333Y-76335952D01*
X133210714Y-76383571D01*
X133163095Y-76478809D01*
X134353571Y-75907380D02*
X134448809Y-75907380D01*
X134544047Y-75955000D01*
X134591666Y-76002619D01*
X134639285Y-76097857D01*
X134686904Y-76288333D01*
X134686904Y-76526428D01*
X134639285Y-76716904D01*
X134591666Y-76812142D01*
X134544047Y-76859761D01*
X134448809Y-76907380D01*
X134353571Y-76907380D01*
X134258333Y-76859761D01*
X134210714Y-76812142D01*
X134163095Y-76716904D01*
X134115476Y-76526428D01*
X134115476Y-76288333D01*
X134163095Y-76097857D01*
X134210714Y-76002619D01*
X134258333Y-75955000D01*
X134353571Y-75907380D01*
X133639285Y-73700714D02*
X133639285Y-74367380D01*
X133401190Y-73319761D02*
X133163095Y-74034047D01*
X133782142Y-74034047D01*
X134353571Y-73367380D02*
X134448809Y-73367380D01*
X134544047Y-73415000D01*
X134591666Y-73462619D01*
X134639285Y-73557857D01*
X134686904Y-73748333D01*
X134686904Y-73986428D01*
X134639285Y-74176904D01*
X134591666Y-74272142D01*
X134544047Y-74319761D01*
X134448809Y-74367380D01*
X134353571Y-74367380D01*
X134258333Y-74319761D01*
X134210714Y-74272142D01*
X134163095Y-74176904D01*
X134115476Y-73986428D01*
X134115476Y-73748333D01*
X134163095Y-73557857D01*
X134210714Y-73462619D01*
X134258333Y-73415000D01*
X134353571Y-73367380D01*
X133163095Y-70922619D02*
X133210714Y-70875000D01*
X133305952Y-70827380D01*
X133544047Y-70827380D01*
X133639285Y-70875000D01*
X133686904Y-70922619D01*
X133734523Y-71017857D01*
X133734523Y-71113095D01*
X133686904Y-71255952D01*
X133115476Y-71827380D01*
X133734523Y-71827380D01*
X134353571Y-70827380D02*
X134448809Y-70827380D01*
X134544047Y-70875000D01*
X134591666Y-70922619D01*
X134639285Y-71017857D01*
X134686904Y-71208333D01*
X134686904Y-71446428D01*
X134639285Y-71636904D01*
X134591666Y-71732142D01*
X134544047Y-71779761D01*
X134448809Y-71827380D01*
X134353571Y-71827380D01*
X134258333Y-71779761D01*
X134210714Y-71732142D01*
X134163095Y-71636904D01*
X134115476Y-71446428D01*
X134115476Y-71208333D01*
X134163095Y-71017857D01*
X134210714Y-70922619D01*
X134258333Y-70875000D01*
X134353571Y-70827380D01*
X133401190Y-68287380D02*
X133496428Y-68287380D01*
X133591666Y-68335000D01*
X133639285Y-68382619D01*
X133686904Y-68477857D01*
X133734523Y-68668333D01*
X133734523Y-68906428D01*
X133686904Y-69096904D01*
X133639285Y-69192142D01*
X133591666Y-69239761D01*
X133496428Y-69287380D01*
X133401190Y-69287380D01*
X133305952Y-69239761D01*
X133258333Y-69192142D01*
X133210714Y-69096904D01*
X133163095Y-68906428D01*
X133163095Y-68668333D01*
X133210714Y-68477857D01*
X133258333Y-68382619D01*
X133305952Y-68335000D01*
X133401190Y-68287380D01*
X134353571Y-68287380D02*
X134448809Y-68287380D01*
X134544047Y-68335000D01*
X134591666Y-68382619D01*
X134639285Y-68477857D01*
X134686904Y-68668333D01*
X134686904Y-68906428D01*
X134639285Y-69096904D01*
X134591666Y-69192142D01*
X134544047Y-69239761D01*
X134448809Y-69287380D01*
X134353571Y-69287380D01*
X134258333Y-69239761D01*
X134210714Y-69192142D01*
X134163095Y-69096904D01*
X134115476Y-68906428D01*
X134115476Y-68668333D01*
X134163095Y-68477857D01*
X134210714Y-68382619D01*
X134258333Y-68335000D01*
X134353571Y-68287380D01*
D12*
G04 #@! TO.C,J3*
X151570000Y-71940000D02*
X152070000Y-71690000D01*
X151570000Y-71440000D02*
X151570000Y-71940000D01*
X152070000Y-71690000D02*
X151570000Y-71440000D01*
X191310000Y-65660000D02*
X198290000Y-65660000D01*
X188130000Y-65660000D02*
X190040000Y-65660000D01*
X180510000Y-65660000D02*
X186860000Y-65660000D01*
X177340000Y-65660000D02*
X179240000Y-65660000D01*
X169720000Y-65660000D02*
X176070000Y-65660000D01*
X198290000Y-68840000D02*
X198290000Y-66930000D01*
X198290000Y-76460000D02*
X198290000Y-70110000D01*
X198290000Y-79630000D02*
X198290000Y-77720000D01*
X198290000Y-87250000D02*
X198290000Y-80900000D01*
X198290000Y-90420000D02*
X198290000Y-88520000D01*
X198290000Y-98040000D02*
X198290000Y-91700000D01*
X198290000Y-101220000D02*
X198290000Y-99310000D01*
X198290000Y-108840000D02*
X198290000Y-102490000D01*
X191310000Y-108840000D02*
X198290000Y-108840000D01*
X188130000Y-108840000D02*
X190040000Y-108840000D01*
X180510000Y-108840000D02*
X186860000Y-108840000D01*
X177340000Y-108840000D02*
X179240000Y-108840000D01*
X169720000Y-108840000D02*
X176070000Y-108840000D01*
X162830000Y-109730000D02*
X168500000Y-109730000D01*
X168500000Y-109730000D02*
X168500000Y-107800000D01*
X168500000Y-107800000D02*
X161820000Y-107800000D01*
X161820000Y-107800000D02*
X161820000Y-66700000D01*
X161820000Y-66700000D02*
X168500000Y-66700000D01*
X168500000Y-66700000D02*
X168500000Y-64770000D01*
X168500000Y-64770000D02*
X162830000Y-64770000D01*
X157140000Y-109730000D02*
X154780000Y-109730000D01*
X154780000Y-109730000D02*
X154780000Y-104670000D01*
X154780000Y-104670000D02*
X152900000Y-104670000D01*
X152900000Y-104670000D02*
X152900000Y-103660000D01*
X152900000Y-103660000D02*
X158510000Y-103660000D01*
X158510000Y-103660000D02*
X158510000Y-70840000D01*
X158510000Y-70840000D02*
X152900000Y-70840000D01*
X152900000Y-70840000D02*
X152900000Y-69830000D01*
X152900000Y-69830000D02*
X154780000Y-69830000D01*
X154780000Y-69830000D02*
X154780000Y-64770000D01*
X154780000Y-64770000D02*
X157140000Y-64770000D01*
G04 #@! TO.C,J2*
X126860000Y-87840000D02*
X132060000Y-87840000D01*
X126860000Y-70000000D02*
X126860000Y-87840000D01*
X132060000Y-67400000D02*
X132060000Y-87840000D01*
X126860000Y-70000000D02*
X129460000Y-70000000D01*
X129460000Y-70000000D02*
X129460000Y-67400000D01*
X129460000Y-67400000D02*
X132060000Y-67400000D01*
X126860000Y-68730000D02*
X126860000Y-67400000D01*
X126860000Y-67400000D02*
X128190000Y-67400000D01*
G04 #@! TO.C,D1*
X143047665Y-111188608D02*
G75*
G03X146280000Y-111345516I1672335J1078608D01*
G01*
X143047665Y-109031392D02*
G75*
G02X146280000Y-108874484I1672335J-1078608D01*
G01*
X143678870Y-111189837D02*
G75*
G03X145760961Y-111190000I1041130J1079837D01*
G01*
X143678870Y-109030163D02*
G75*
G02X145760961Y-109030000I1041130J-1079837D01*
G01*
X146280000Y-111346000D02*
X146280000Y-111190000D01*
X146280000Y-109030000D02*
X146280000Y-108874000D01*
G04 #@! TO.C,C1*
X121310000Y-67100000D02*
X116070000Y-67100000D01*
X121310000Y-64360000D02*
X116070000Y-64360000D01*
X121310000Y-67100000D02*
X121310000Y-66785000D01*
X121310000Y-64675000D02*
X121310000Y-64360000D01*
X116070000Y-67100000D02*
X116070000Y-66785000D01*
X116070000Y-64675000D02*
X116070000Y-64360000D01*
G04 #@! TO.C,C2*
X116070000Y-90675000D02*
X116070000Y-90360000D01*
X116070000Y-93100000D02*
X116070000Y-92785000D01*
X121310000Y-90675000D02*
X121310000Y-90360000D01*
X121310000Y-93100000D02*
X121310000Y-92785000D01*
X121310000Y-90360000D02*
X116070000Y-90360000D01*
X121310000Y-93100000D02*
X116070000Y-93100000D01*
G04 #@! TO.C,C3*
X116620000Y-55750000D02*
G75*
G03X116620000Y-55750000I-2620000J0D01*
G01*
X111420000Y-55750000D02*
X116580000Y-55750000D01*
X111420000Y-55710000D02*
X116580000Y-55710000D01*
X111421000Y-55670000D02*
X116579000Y-55670000D01*
X111422000Y-55630000D02*
X116578000Y-55630000D01*
X111424000Y-55590000D02*
X116576000Y-55590000D01*
X111427000Y-55550000D02*
X116573000Y-55550000D01*
X111431000Y-55510000D02*
X112960000Y-55510000D01*
X115040000Y-55510000D02*
X116569000Y-55510000D01*
X111435000Y-55470000D02*
X112960000Y-55470000D01*
X115040000Y-55470000D02*
X116565000Y-55470000D01*
X111439000Y-55430000D02*
X112960000Y-55430000D01*
X115040000Y-55430000D02*
X116561000Y-55430000D01*
X111444000Y-55390000D02*
X112960000Y-55390000D01*
X115040000Y-55390000D02*
X116556000Y-55390000D01*
X111450000Y-55350000D02*
X112960000Y-55350000D01*
X115040000Y-55350000D02*
X116550000Y-55350000D01*
X111457000Y-55310000D02*
X112960000Y-55310000D01*
X115040000Y-55310000D02*
X116543000Y-55310000D01*
X111464000Y-55270000D02*
X112960000Y-55270000D01*
X115040000Y-55270000D02*
X116536000Y-55270000D01*
X111472000Y-55230000D02*
X112960000Y-55230000D01*
X115040000Y-55230000D02*
X116528000Y-55230000D01*
X111480000Y-55190000D02*
X112960000Y-55190000D01*
X115040000Y-55190000D02*
X116520000Y-55190000D01*
X111489000Y-55150000D02*
X112960000Y-55150000D01*
X115040000Y-55150000D02*
X116511000Y-55150000D01*
X111499000Y-55110000D02*
X112960000Y-55110000D01*
X115040000Y-55110000D02*
X116501000Y-55110000D01*
X111509000Y-55070000D02*
X112960000Y-55070000D01*
X115040000Y-55070000D02*
X116491000Y-55070000D01*
X111520000Y-55029000D02*
X112960000Y-55029000D01*
X115040000Y-55029000D02*
X116480000Y-55029000D01*
X111532000Y-54989000D02*
X112960000Y-54989000D01*
X115040000Y-54989000D02*
X116468000Y-54989000D01*
X111545000Y-54949000D02*
X112960000Y-54949000D01*
X115040000Y-54949000D02*
X116455000Y-54949000D01*
X111558000Y-54909000D02*
X112960000Y-54909000D01*
X115040000Y-54909000D02*
X116442000Y-54909000D01*
X111572000Y-54869000D02*
X112960000Y-54869000D01*
X115040000Y-54869000D02*
X116428000Y-54869000D01*
X111586000Y-54829000D02*
X112960000Y-54829000D01*
X115040000Y-54829000D02*
X116414000Y-54829000D01*
X111602000Y-54789000D02*
X112960000Y-54789000D01*
X115040000Y-54789000D02*
X116398000Y-54789000D01*
X111618000Y-54749000D02*
X112960000Y-54749000D01*
X115040000Y-54749000D02*
X116382000Y-54749000D01*
X111635000Y-54709000D02*
X112960000Y-54709000D01*
X115040000Y-54709000D02*
X116365000Y-54709000D01*
X111652000Y-54669000D02*
X112960000Y-54669000D01*
X115040000Y-54669000D02*
X116348000Y-54669000D01*
X111671000Y-54629000D02*
X112960000Y-54629000D01*
X115040000Y-54629000D02*
X116329000Y-54629000D01*
X111690000Y-54589000D02*
X112960000Y-54589000D01*
X115040000Y-54589000D02*
X116310000Y-54589000D01*
X111710000Y-54549000D02*
X112960000Y-54549000D01*
X115040000Y-54549000D02*
X116290000Y-54549000D01*
X111732000Y-54509000D02*
X112960000Y-54509000D01*
X115040000Y-54509000D02*
X116268000Y-54509000D01*
X111753000Y-54469000D02*
X112960000Y-54469000D01*
X115040000Y-54469000D02*
X116247000Y-54469000D01*
X111776000Y-54429000D02*
X112960000Y-54429000D01*
X115040000Y-54429000D02*
X116224000Y-54429000D01*
X111800000Y-54389000D02*
X112960000Y-54389000D01*
X115040000Y-54389000D02*
X116200000Y-54389000D01*
X111825000Y-54349000D02*
X112960000Y-54349000D01*
X115040000Y-54349000D02*
X116175000Y-54349000D01*
X111851000Y-54309000D02*
X112960000Y-54309000D01*
X115040000Y-54309000D02*
X116149000Y-54309000D01*
X111878000Y-54269000D02*
X112960000Y-54269000D01*
X115040000Y-54269000D02*
X116122000Y-54269000D01*
X111905000Y-54229000D02*
X112960000Y-54229000D01*
X115040000Y-54229000D02*
X116095000Y-54229000D01*
X111935000Y-54189000D02*
X112960000Y-54189000D01*
X115040000Y-54189000D02*
X116065000Y-54189000D01*
X111965000Y-54149000D02*
X112960000Y-54149000D01*
X115040000Y-54149000D02*
X116035000Y-54149000D01*
X111996000Y-54109000D02*
X112960000Y-54109000D01*
X115040000Y-54109000D02*
X116004000Y-54109000D01*
X112029000Y-54069000D02*
X112960000Y-54069000D01*
X115040000Y-54069000D02*
X115971000Y-54069000D01*
X112063000Y-54029000D02*
X112960000Y-54029000D01*
X115040000Y-54029000D02*
X115937000Y-54029000D01*
X112099000Y-53989000D02*
X112960000Y-53989000D01*
X115040000Y-53989000D02*
X115901000Y-53989000D01*
X112136000Y-53949000D02*
X112960000Y-53949000D01*
X115040000Y-53949000D02*
X115864000Y-53949000D01*
X112174000Y-53909000D02*
X112960000Y-53909000D01*
X115040000Y-53909000D02*
X115826000Y-53909000D01*
X112215000Y-53869000D02*
X112960000Y-53869000D01*
X115040000Y-53869000D02*
X115785000Y-53869000D01*
X112257000Y-53829000D02*
X112960000Y-53829000D01*
X115040000Y-53829000D02*
X115743000Y-53829000D01*
X112301000Y-53789000D02*
X112960000Y-53789000D01*
X115040000Y-53789000D02*
X115699000Y-53789000D01*
X112347000Y-53749000D02*
X112960000Y-53749000D01*
X115040000Y-53749000D02*
X115653000Y-53749000D01*
X112395000Y-53709000D02*
X112960000Y-53709000D01*
X115040000Y-53709000D02*
X115605000Y-53709000D01*
X112446000Y-53669000D02*
X112960000Y-53669000D01*
X115040000Y-53669000D02*
X115554000Y-53669000D01*
X112500000Y-53629000D02*
X112960000Y-53629000D01*
X115040000Y-53629000D02*
X115500000Y-53629000D01*
X112557000Y-53589000D02*
X112960000Y-53589000D01*
X115040000Y-53589000D02*
X115443000Y-53589000D01*
X112617000Y-53549000D02*
X112960000Y-53549000D01*
X115040000Y-53549000D02*
X115383000Y-53549000D01*
X112681000Y-53509000D02*
X112960000Y-53509000D01*
X115040000Y-53509000D02*
X115319000Y-53509000D01*
X112749000Y-53469000D02*
X112960000Y-53469000D01*
X115040000Y-53469000D02*
X115251000Y-53469000D01*
X112822000Y-53429000D02*
X115178000Y-53429000D01*
X112902000Y-53389000D02*
X115098000Y-53389000D01*
X112989000Y-53349000D02*
X115011000Y-53349000D01*
X113085000Y-53309000D02*
X114915000Y-53309000D01*
X113195000Y-53269000D02*
X114805000Y-53269000D01*
X113323000Y-53229000D02*
X114677000Y-53229000D01*
X113482000Y-53189000D02*
X114518000Y-53189000D01*
X113716000Y-53149000D02*
X114284000Y-53149000D01*
X112525000Y-58554775D02*
X112525000Y-58054775D01*
X112275000Y-58304775D02*
X112775000Y-58304775D01*
G04 #@! TO.C,R1*
X130100000Y-99030000D02*
X130100000Y-100870000D01*
X130100000Y-100870000D02*
X133940000Y-100870000D01*
X133940000Y-100870000D02*
X133940000Y-99030000D01*
X133940000Y-99030000D02*
X130100000Y-99030000D01*
X129150000Y-99950000D02*
X130100000Y-99950000D01*
X134890000Y-99950000D02*
X133940000Y-99950000D01*
G04 #@! TO.C,R2*
X134890000Y-102490000D02*
X133940000Y-102490000D01*
X129150000Y-102490000D02*
X130100000Y-102490000D01*
X133940000Y-101570000D02*
X130100000Y-101570000D01*
X133940000Y-103410000D02*
X133940000Y-101570000D01*
X130100000Y-103410000D02*
X133940000Y-103410000D01*
X130100000Y-101570000D02*
X130100000Y-103410000D01*
G04 #@! TO.C,R3*
X130100000Y-104110000D02*
X130100000Y-105950000D01*
X130100000Y-105950000D02*
X133940000Y-105950000D01*
X133940000Y-105950000D02*
X133940000Y-104110000D01*
X133940000Y-104110000D02*
X130100000Y-104110000D01*
X129150000Y-105030000D02*
X130100000Y-105030000D01*
X134890000Y-105030000D02*
X133940000Y-105030000D01*
G04 #@! TO.C,R4*
X134890000Y-107570000D02*
X133940000Y-107570000D01*
X129150000Y-107570000D02*
X130100000Y-107570000D01*
X133940000Y-106650000D02*
X130100000Y-106650000D01*
X133940000Y-108490000D02*
X133940000Y-106650000D01*
X130100000Y-108490000D02*
X133940000Y-108490000D01*
X130100000Y-106650000D02*
X130100000Y-108490000D01*
G04 #@! TO.C,R5*
X130100000Y-109190000D02*
X130100000Y-111030000D01*
X130100000Y-111030000D02*
X133940000Y-111030000D01*
X133940000Y-111030000D02*
X133940000Y-109190000D01*
X133940000Y-109190000D02*
X130100000Y-109190000D01*
X129150000Y-110110000D02*
X130100000Y-110110000D01*
X134890000Y-110110000D02*
X133940000Y-110110000D01*
G04 #@! TO.C,U1*
X118000000Y-67400000D02*
G75*
G02X116000000Y-67400000I-1000000J0D01*
G01*
X116000000Y-67400000D02*
X114350000Y-67400000D01*
X114350000Y-67400000D02*
X114350000Y-87840000D01*
X114350000Y-87840000D02*
X119650000Y-87840000D01*
X119650000Y-87840000D02*
X119650000Y-67400000D01*
X119650000Y-67400000D02*
X118000000Y-67400000D01*
X111860000Y-67340000D02*
X111860000Y-87900000D01*
X111860000Y-87900000D02*
X122140000Y-87900000D01*
X122140000Y-87900000D02*
X122140000Y-67340000D01*
X122140000Y-67340000D02*
X111860000Y-67340000D01*
G04 #@! TO.C,U2*
X118000000Y-93400000D02*
G75*
G02X116000000Y-93400000I-1000000J0D01*
G01*
X116000000Y-93400000D02*
X114350000Y-93400000D01*
X114350000Y-93400000D02*
X114350000Y-111300000D01*
X114350000Y-111300000D02*
X119650000Y-111300000D01*
X119650000Y-111300000D02*
X119650000Y-93400000D01*
X119650000Y-93400000D02*
X118000000Y-93400000D01*
X111860000Y-93340000D02*
X111860000Y-111360000D01*
X111860000Y-111360000D02*
X122140000Y-111360000D01*
X122140000Y-111360000D02*
X122140000Y-93340000D01*
X122140000Y-93340000D02*
X111860000Y-93340000D01*
G04 #@! TO.C,J1*
X122689000Y-52917000D02*
X173609000Y-52917000D01*
X173609000Y-52917000D02*
X173609000Y-50257000D01*
X173609000Y-50257000D02*
X122689000Y-50257000D01*
X122689000Y-50257000D02*
X122689000Y-52917000D01*
X123639000Y-50257000D02*
X123639000Y-44257000D01*
X123639000Y-44257000D02*
X124399000Y-44257000D01*
X124399000Y-44257000D02*
X124399000Y-50257000D01*
X123699000Y-50257000D02*
X123699000Y-44257000D01*
X123819000Y-50257000D02*
X123819000Y-44257000D01*
X123939000Y-50257000D02*
X123939000Y-44257000D01*
X124059000Y-50257000D02*
X124059000Y-44257000D01*
X124179000Y-50257000D02*
X124179000Y-44257000D01*
X124299000Y-50257000D02*
X124299000Y-44257000D01*
X123639000Y-53314071D02*
X123639000Y-52917000D01*
X124399000Y-53314071D02*
X124399000Y-52917000D01*
X123639000Y-55787000D02*
X123639000Y-55399929D01*
X124399000Y-55787000D02*
X124399000Y-55399929D01*
X125289000Y-52917000D02*
X125289000Y-50257000D01*
X126179000Y-50257000D02*
X126179000Y-44257000D01*
X126179000Y-44257000D02*
X126939000Y-44257000D01*
X126939000Y-44257000D02*
X126939000Y-50257000D01*
X126179000Y-53314071D02*
X126179000Y-52917000D01*
X126939000Y-53314071D02*
X126939000Y-52917000D01*
X126179000Y-55854071D02*
X126179000Y-55399929D01*
X126939000Y-55854071D02*
X126939000Y-55399929D01*
X127829000Y-52917000D02*
X127829000Y-50257000D01*
X128719000Y-50257000D02*
X128719000Y-44257000D01*
X128719000Y-44257000D02*
X129479000Y-44257000D01*
X129479000Y-44257000D02*
X129479000Y-50257000D01*
X128719000Y-53314071D02*
X128719000Y-52917000D01*
X129479000Y-53314071D02*
X129479000Y-52917000D01*
X128719000Y-55854071D02*
X128719000Y-55399929D01*
X129479000Y-55854071D02*
X129479000Y-55399929D01*
X130369000Y-52917000D02*
X130369000Y-50257000D01*
X131259000Y-50257000D02*
X131259000Y-44257000D01*
X131259000Y-44257000D02*
X132019000Y-44257000D01*
X132019000Y-44257000D02*
X132019000Y-50257000D01*
X131259000Y-53314071D02*
X131259000Y-52917000D01*
X132019000Y-53314071D02*
X132019000Y-52917000D01*
X131259000Y-55854071D02*
X131259000Y-55399929D01*
X132019000Y-55854071D02*
X132019000Y-55399929D01*
X132909000Y-52917000D02*
X132909000Y-50257000D01*
X133799000Y-50257000D02*
X133799000Y-44257000D01*
X133799000Y-44257000D02*
X134559000Y-44257000D01*
X134559000Y-44257000D02*
X134559000Y-50257000D01*
X133799000Y-53314071D02*
X133799000Y-52917000D01*
X134559000Y-53314071D02*
X134559000Y-52917000D01*
X133799000Y-55854071D02*
X133799000Y-55399929D01*
X134559000Y-55854071D02*
X134559000Y-55399929D01*
X135449000Y-52917000D02*
X135449000Y-50257000D01*
X136339000Y-50257000D02*
X136339000Y-44257000D01*
X136339000Y-44257000D02*
X137099000Y-44257000D01*
X137099000Y-44257000D02*
X137099000Y-50257000D01*
X136339000Y-53314071D02*
X136339000Y-52917000D01*
X137099000Y-53314071D02*
X137099000Y-52917000D01*
X136339000Y-55854071D02*
X136339000Y-55399929D01*
X137099000Y-55854071D02*
X137099000Y-55399929D01*
X137989000Y-52917000D02*
X137989000Y-50257000D01*
X138879000Y-50257000D02*
X138879000Y-44257000D01*
X138879000Y-44257000D02*
X139639000Y-44257000D01*
X139639000Y-44257000D02*
X139639000Y-50257000D01*
X138879000Y-53314071D02*
X138879000Y-52917000D01*
X139639000Y-53314071D02*
X139639000Y-52917000D01*
X138879000Y-55854071D02*
X138879000Y-55399929D01*
X139639000Y-55854071D02*
X139639000Y-55399929D01*
X140529000Y-52917000D02*
X140529000Y-50257000D01*
X141419000Y-50257000D02*
X141419000Y-44257000D01*
X141419000Y-44257000D02*
X142179000Y-44257000D01*
X142179000Y-44257000D02*
X142179000Y-50257000D01*
X141419000Y-53314071D02*
X141419000Y-52917000D01*
X142179000Y-53314071D02*
X142179000Y-52917000D01*
X141419000Y-55854071D02*
X141419000Y-55399929D01*
X142179000Y-55854071D02*
X142179000Y-55399929D01*
X143069000Y-52917000D02*
X143069000Y-50257000D01*
X143959000Y-50257000D02*
X143959000Y-44257000D01*
X143959000Y-44257000D02*
X144719000Y-44257000D01*
X144719000Y-44257000D02*
X144719000Y-50257000D01*
X143959000Y-53314071D02*
X143959000Y-52917000D01*
X144719000Y-53314071D02*
X144719000Y-52917000D01*
X143959000Y-55854071D02*
X143959000Y-55399929D01*
X144719000Y-55854071D02*
X144719000Y-55399929D01*
X145609000Y-52917000D02*
X145609000Y-50257000D01*
X146499000Y-50257000D02*
X146499000Y-44257000D01*
X146499000Y-44257000D02*
X147259000Y-44257000D01*
X147259000Y-44257000D02*
X147259000Y-50257000D01*
X146499000Y-53314071D02*
X146499000Y-52917000D01*
X147259000Y-53314071D02*
X147259000Y-52917000D01*
X146499000Y-55854071D02*
X146499000Y-55399929D01*
X147259000Y-55854071D02*
X147259000Y-55399929D01*
X148149000Y-52917000D02*
X148149000Y-50257000D01*
X149039000Y-50257000D02*
X149039000Y-44257000D01*
X149039000Y-44257000D02*
X149799000Y-44257000D01*
X149799000Y-44257000D02*
X149799000Y-50257000D01*
X149039000Y-53314071D02*
X149039000Y-52917000D01*
X149799000Y-53314071D02*
X149799000Y-52917000D01*
X149039000Y-55854071D02*
X149039000Y-55399929D01*
X149799000Y-55854071D02*
X149799000Y-55399929D01*
X150689000Y-52917000D02*
X150689000Y-50257000D01*
X151579000Y-50257000D02*
X151579000Y-44257000D01*
X151579000Y-44257000D02*
X152339000Y-44257000D01*
X152339000Y-44257000D02*
X152339000Y-50257000D01*
X151579000Y-53314071D02*
X151579000Y-52917000D01*
X152339000Y-53314071D02*
X152339000Y-52917000D01*
X151579000Y-55854071D02*
X151579000Y-55399929D01*
X152339000Y-55854071D02*
X152339000Y-55399929D01*
X153229000Y-52917000D02*
X153229000Y-50257000D01*
X154119000Y-50257000D02*
X154119000Y-44257000D01*
X154119000Y-44257000D02*
X154879000Y-44257000D01*
X154879000Y-44257000D02*
X154879000Y-50257000D01*
X154119000Y-53314071D02*
X154119000Y-52917000D01*
X154879000Y-53314071D02*
X154879000Y-52917000D01*
X154119000Y-55854071D02*
X154119000Y-55399929D01*
X154879000Y-55854071D02*
X154879000Y-55399929D01*
X155769000Y-52917000D02*
X155769000Y-50257000D01*
X156659000Y-50257000D02*
X156659000Y-44257000D01*
X156659000Y-44257000D02*
X157419000Y-44257000D01*
X157419000Y-44257000D02*
X157419000Y-50257000D01*
X156659000Y-53314071D02*
X156659000Y-52917000D01*
X157419000Y-53314071D02*
X157419000Y-52917000D01*
X156659000Y-55854071D02*
X156659000Y-55399929D01*
X157419000Y-55854071D02*
X157419000Y-55399929D01*
X158309000Y-52917000D02*
X158309000Y-50257000D01*
X159199000Y-50257000D02*
X159199000Y-44257000D01*
X159199000Y-44257000D02*
X159959000Y-44257000D01*
X159959000Y-44257000D02*
X159959000Y-50257000D01*
X159199000Y-53314071D02*
X159199000Y-52917000D01*
X159959000Y-53314071D02*
X159959000Y-52917000D01*
X159199000Y-55854071D02*
X159199000Y-55399929D01*
X159959000Y-55854071D02*
X159959000Y-55399929D01*
X160849000Y-52917000D02*
X160849000Y-50257000D01*
X161739000Y-50257000D02*
X161739000Y-44257000D01*
X161739000Y-44257000D02*
X162499000Y-44257000D01*
X162499000Y-44257000D02*
X162499000Y-50257000D01*
X161739000Y-53314071D02*
X161739000Y-52917000D01*
X162499000Y-53314071D02*
X162499000Y-52917000D01*
X161739000Y-55854071D02*
X161739000Y-55399929D01*
X162499000Y-55854071D02*
X162499000Y-55399929D01*
X163389000Y-52917000D02*
X163389000Y-50257000D01*
X164279000Y-50257000D02*
X164279000Y-44257000D01*
X164279000Y-44257000D02*
X165039000Y-44257000D01*
X165039000Y-44257000D02*
X165039000Y-50257000D01*
X164279000Y-53314071D02*
X164279000Y-52917000D01*
X165039000Y-53314071D02*
X165039000Y-52917000D01*
X164279000Y-55854071D02*
X164279000Y-55399929D01*
X165039000Y-55854071D02*
X165039000Y-55399929D01*
X165929000Y-52917000D02*
X165929000Y-50257000D01*
X166819000Y-50257000D02*
X166819000Y-44257000D01*
X166819000Y-44257000D02*
X167579000Y-44257000D01*
X167579000Y-44257000D02*
X167579000Y-50257000D01*
X166819000Y-53314071D02*
X166819000Y-52917000D01*
X167579000Y-53314071D02*
X167579000Y-52917000D01*
X166819000Y-55854071D02*
X166819000Y-55399929D01*
X167579000Y-55854071D02*
X167579000Y-55399929D01*
X168469000Y-52917000D02*
X168469000Y-50257000D01*
X169359000Y-50257000D02*
X169359000Y-44257000D01*
X169359000Y-44257000D02*
X170119000Y-44257000D01*
X170119000Y-44257000D02*
X170119000Y-50257000D01*
X169359000Y-53314071D02*
X169359000Y-52917000D01*
X170119000Y-53314071D02*
X170119000Y-52917000D01*
X169359000Y-55854071D02*
X169359000Y-55399929D01*
X170119000Y-55854071D02*
X170119000Y-55399929D01*
X171009000Y-52917000D02*
X171009000Y-50257000D01*
X171899000Y-50257000D02*
X171899000Y-44257000D01*
X171899000Y-44257000D02*
X172659000Y-44257000D01*
X172659000Y-44257000D02*
X172659000Y-50257000D01*
X171899000Y-53314071D02*
X171899000Y-52917000D01*
X172659000Y-53314071D02*
X172659000Y-52917000D01*
X171899000Y-55854071D02*
X171899000Y-55399929D01*
X172659000Y-55854071D02*
X172659000Y-55399929D01*
X124019000Y-58167000D02*
X122749000Y-58167000D01*
X122749000Y-58167000D02*
X122749000Y-56897000D01*
G04 #@! TO.C,J3*
D10*
X164306666Y-86702380D02*
X164306666Y-87416666D01*
X164259047Y-87559523D01*
X164163809Y-87654761D01*
X164020952Y-87702380D01*
X163925714Y-87702380D01*
X164687619Y-86702380D02*
X165306666Y-86702380D01*
X164973333Y-87083333D01*
X165116190Y-87083333D01*
X165211428Y-87130952D01*
X165259047Y-87178571D01*
X165306666Y-87273809D01*
X165306666Y-87511904D01*
X165259047Y-87607142D01*
X165211428Y-87654761D01*
X165116190Y-87702380D01*
X164830476Y-87702380D01*
X164735238Y-87654761D01*
X164687619Y-87607142D01*
G04 #@! TO.C,J2*
X129126666Y-65852380D02*
X129126666Y-66566666D01*
X129079047Y-66709523D01*
X128983809Y-66804761D01*
X128840952Y-66852380D01*
X128745714Y-66852380D01*
X129555238Y-65947619D02*
X129602857Y-65900000D01*
X129698095Y-65852380D01*
X129936190Y-65852380D01*
X130031428Y-65900000D01*
X130079047Y-65947619D01*
X130126666Y-66042857D01*
X130126666Y-66138095D01*
X130079047Y-66280952D01*
X129507619Y-66852380D01*
X130126666Y-66852380D01*
G04 #@! TO.C,D1*
X144021904Y-107362380D02*
X144021904Y-106362380D01*
X144260000Y-106362380D01*
X144402857Y-106410000D01*
X144498095Y-106505238D01*
X144545714Y-106600476D01*
X144593333Y-106790952D01*
X144593333Y-106933809D01*
X144545714Y-107124285D01*
X144498095Y-107219523D01*
X144402857Y-107314761D01*
X144260000Y-107362380D01*
X144021904Y-107362380D01*
X145545714Y-107362380D02*
X144974285Y-107362380D01*
X145260000Y-107362380D02*
X145260000Y-106362380D01*
X145164761Y-106505238D01*
X145069523Y-106600476D01*
X144974285Y-106648095D01*
G04 #@! TO.C,C1*
X123217333Y-65953642D02*
X123169714Y-66001261D01*
X123026857Y-66048880D01*
X122931619Y-66048880D01*
X122788761Y-66001261D01*
X122693523Y-65906023D01*
X122645904Y-65810785D01*
X122598285Y-65620309D01*
X122598285Y-65477452D01*
X122645904Y-65286976D01*
X122693523Y-65191738D01*
X122788761Y-65096500D01*
X122931619Y-65048880D01*
X123026857Y-65048880D01*
X123169714Y-65096500D01*
X123217333Y-65144119D01*
X124169714Y-66048880D02*
X123598285Y-66048880D01*
X123884000Y-66048880D02*
X123884000Y-65048880D01*
X123788761Y-65191738D01*
X123693523Y-65286976D01*
X123598285Y-65334595D01*
G04 #@! TO.C,C2*
X123407833Y-92052142D02*
X123360214Y-92099761D01*
X123217357Y-92147380D01*
X123122119Y-92147380D01*
X122979261Y-92099761D01*
X122884023Y-92004523D01*
X122836404Y-91909285D01*
X122788785Y-91718809D01*
X122788785Y-91575952D01*
X122836404Y-91385476D01*
X122884023Y-91290238D01*
X122979261Y-91195000D01*
X123122119Y-91147380D01*
X123217357Y-91147380D01*
X123360214Y-91195000D01*
X123407833Y-91242619D01*
X123788785Y-91242619D02*
X123836404Y-91195000D01*
X123931642Y-91147380D01*
X124169738Y-91147380D01*
X124264976Y-91195000D01*
X124312595Y-91242619D01*
X124360214Y-91337857D01*
X124360214Y-91433095D01*
X124312595Y-91575952D01*
X123741166Y-92147380D01*
X124360214Y-92147380D01*
G04 #@! TO.C,C3*
X109628333Y-57762142D02*
X109580714Y-57809761D01*
X109437857Y-57857380D01*
X109342619Y-57857380D01*
X109199761Y-57809761D01*
X109104523Y-57714523D01*
X109056904Y-57619285D01*
X109009285Y-57428809D01*
X109009285Y-57285952D01*
X109056904Y-57095476D01*
X109104523Y-57000238D01*
X109199761Y-56905000D01*
X109342619Y-56857380D01*
X109437857Y-56857380D01*
X109580714Y-56905000D01*
X109628333Y-56952619D01*
X109961666Y-56857380D02*
X110580714Y-56857380D01*
X110247380Y-57238333D01*
X110390238Y-57238333D01*
X110485476Y-57285952D01*
X110533095Y-57333571D01*
X110580714Y-57428809D01*
X110580714Y-57666904D01*
X110533095Y-57762142D01*
X110485476Y-57809761D01*
X110390238Y-57857380D01*
X110104523Y-57857380D01*
X110009285Y-57809761D01*
X109961666Y-57762142D01*
G04 #@! TO.C,R1*
X138203333Y-100402380D02*
X137870000Y-99926190D01*
X137631904Y-100402380D02*
X137631904Y-99402380D01*
X138012857Y-99402380D01*
X138108095Y-99450000D01*
X138155714Y-99497619D01*
X138203333Y-99592857D01*
X138203333Y-99735714D01*
X138155714Y-99830952D01*
X138108095Y-99878571D01*
X138012857Y-99926190D01*
X137631904Y-99926190D01*
X139155714Y-100402380D02*
X138584285Y-100402380D01*
X138870000Y-100402380D02*
X138870000Y-99402380D01*
X138774761Y-99545238D01*
X138679523Y-99640476D01*
X138584285Y-99688095D01*
G04 #@! TO.C,R2*
X138203333Y-102942380D02*
X137870000Y-102466190D01*
X137631904Y-102942380D02*
X137631904Y-101942380D01*
X138012857Y-101942380D01*
X138108095Y-101990000D01*
X138155714Y-102037619D01*
X138203333Y-102132857D01*
X138203333Y-102275714D01*
X138155714Y-102370952D01*
X138108095Y-102418571D01*
X138012857Y-102466190D01*
X137631904Y-102466190D01*
X138584285Y-102037619D02*
X138631904Y-101990000D01*
X138727142Y-101942380D01*
X138965238Y-101942380D01*
X139060476Y-101990000D01*
X139108095Y-102037619D01*
X139155714Y-102132857D01*
X139155714Y-102228095D01*
X139108095Y-102370952D01*
X138536666Y-102942380D01*
X139155714Y-102942380D01*
G04 #@! TO.C,R3*
X138203333Y-105482380D02*
X137870000Y-105006190D01*
X137631904Y-105482380D02*
X137631904Y-104482380D01*
X138012857Y-104482380D01*
X138108095Y-104530000D01*
X138155714Y-104577619D01*
X138203333Y-104672857D01*
X138203333Y-104815714D01*
X138155714Y-104910952D01*
X138108095Y-104958571D01*
X138012857Y-105006190D01*
X137631904Y-105006190D01*
X138536666Y-104482380D02*
X139155714Y-104482380D01*
X138822380Y-104863333D01*
X138965238Y-104863333D01*
X139060476Y-104910952D01*
X139108095Y-104958571D01*
X139155714Y-105053809D01*
X139155714Y-105291904D01*
X139108095Y-105387142D01*
X139060476Y-105434761D01*
X138965238Y-105482380D01*
X138679523Y-105482380D01*
X138584285Y-105434761D01*
X138536666Y-105387142D01*
G04 #@! TO.C,R4*
X138203333Y-108022380D02*
X137870000Y-107546190D01*
X137631904Y-108022380D02*
X137631904Y-107022380D01*
X138012857Y-107022380D01*
X138108095Y-107070000D01*
X138155714Y-107117619D01*
X138203333Y-107212857D01*
X138203333Y-107355714D01*
X138155714Y-107450952D01*
X138108095Y-107498571D01*
X138012857Y-107546190D01*
X137631904Y-107546190D01*
X139060476Y-107355714D02*
X139060476Y-108022380D01*
X138822380Y-106974761D02*
X138584285Y-107689047D01*
X139203333Y-107689047D01*
G04 #@! TO.C,R5*
X138203333Y-110382380D02*
X137870000Y-109906190D01*
X137631904Y-110382380D02*
X137631904Y-109382380D01*
X138012857Y-109382380D01*
X138108095Y-109430000D01*
X138155714Y-109477619D01*
X138203333Y-109572857D01*
X138203333Y-109715714D01*
X138155714Y-109810952D01*
X138108095Y-109858571D01*
X138012857Y-109906190D01*
X137631904Y-109906190D01*
X139108095Y-109382380D02*
X138631904Y-109382380D01*
X138584285Y-109858571D01*
X138631904Y-109810952D01*
X138727142Y-109763333D01*
X138965238Y-109763333D01*
X139060476Y-109810952D01*
X139108095Y-109858571D01*
X139155714Y-109953809D01*
X139155714Y-110191904D01*
X139108095Y-110287142D01*
X139060476Y-110334761D01*
X138965238Y-110382380D01*
X138727142Y-110382380D01*
X138631904Y-110334761D01*
X138584285Y-110287142D01*
G04 #@! TO.C,U1*
X111890595Y-65747380D02*
X111890595Y-66556904D01*
X111938214Y-66652142D01*
X111985833Y-66699761D01*
X112081071Y-66747380D01*
X112271547Y-66747380D01*
X112366785Y-66699761D01*
X112414404Y-66652142D01*
X112462023Y-66556904D01*
X112462023Y-65747380D01*
X113462023Y-66747380D02*
X112890595Y-66747380D01*
X113176309Y-66747380D02*
X113176309Y-65747380D01*
X113081071Y-65890238D01*
X112985833Y-65985476D01*
X112890595Y-66033095D01*
G04 #@! TO.C,U2*
X111827095Y-91718880D02*
X111827095Y-92528404D01*
X111874714Y-92623642D01*
X111922333Y-92671261D01*
X112017571Y-92718880D01*
X112208047Y-92718880D01*
X112303285Y-92671261D01*
X112350904Y-92623642D01*
X112398523Y-92528404D01*
X112398523Y-91718880D01*
X112827095Y-91814119D02*
X112874714Y-91766500D01*
X112969952Y-91718880D01*
X113208047Y-91718880D01*
X113303285Y-91766500D01*
X113350904Y-91814119D01*
X113398523Y-91909357D01*
X113398523Y-92004595D01*
X113350904Y-92147452D01*
X112779476Y-92718880D01*
X113398523Y-92718880D01*
G04 #@! TO.C,J1*
X120562380Y-51743333D02*
X121276666Y-51743333D01*
X121419523Y-51790952D01*
X121514761Y-51886190D01*
X121562380Y-52029047D01*
X121562380Y-52124285D01*
X121562380Y-50743333D02*
X121562380Y-51314761D01*
X121562380Y-51029047D02*
X120562380Y-51029047D01*
X120705238Y-51124285D01*
X120800476Y-51219523D01*
X120848095Y-51314761D01*
G04 #@! TD*
M02*
