G04 #@! TF.GenerationSoftware,KiCad,Pcbnew,(5.0.0-3-g5ebb6b6)*
G04 #@! TF.CreationDate,2019-01-10T21:14:54+09:00*
G04 #@! TF.ProjectId,SBC80-CF,53424338302D43462E6B696361645F70,rev?*
G04 #@! TF.SameCoordinates,Original*
G04 #@! TF.FileFunction,Legend,Top*
G04 #@! TF.FilePolarity,Positive*
%FSLAX46Y46*%
G04 Gerber Fmt 4.6, Leading zero omitted, Abs format (unit mm)*
G04 Created by KiCad (PCBNEW (5.0.0-3-g5ebb6b6)) date *
%MOMM*%
%LPD*%
G01*
G04 APERTURE LIST*
%ADD10C,0.300000*%
%ADD11C,0.150000*%
%ADD12C,0.200000*%
%ADD13C,0.120000*%
G04 APERTURE END LIST*
D10*
X130544285Y-63798571D02*
X130544285Y-62298571D01*
X131401428Y-63798571D02*
X130758571Y-62941428D01*
X131401428Y-62298571D02*
X130544285Y-63155714D01*
X132044285Y-62298571D02*
X132044285Y-63512857D01*
X132115714Y-63655714D01*
X132187142Y-63727142D01*
X132330000Y-63798571D01*
X132615714Y-63798571D01*
X132758571Y-63727142D01*
X132830000Y-63655714D01*
X132901428Y-63512857D01*
X132901428Y-62298571D01*
X133615714Y-63798571D02*
X133615714Y-62298571D01*
X134472857Y-63798571D01*
X134472857Y-62298571D01*
X135187142Y-63798571D02*
X135187142Y-62298571D01*
X135901428Y-63227142D02*
X137044285Y-63227142D01*
X137758571Y-63798571D02*
X137758571Y-62298571D01*
X138615714Y-63798571D01*
X138615714Y-62298571D01*
X139330000Y-63012857D02*
X139830000Y-63012857D01*
X140044285Y-63798571D02*
X139330000Y-63798571D01*
X139330000Y-62298571D01*
X140044285Y-62298571D01*
X140472857Y-62298571D02*
X141330000Y-62298571D01*
X140901428Y-63798571D02*
X140901428Y-62298571D01*
D11*
X126019761Y-90147142D02*
X125972142Y-90194761D01*
X125829285Y-90242380D01*
X125734047Y-90242380D01*
X125591190Y-90194761D01*
X125495952Y-90099523D01*
X125448333Y-90004285D01*
X125400714Y-89813809D01*
X125400714Y-89670952D01*
X125448333Y-89480476D01*
X125495952Y-89385238D01*
X125591190Y-89290000D01*
X125734047Y-89242380D01*
X125829285Y-89242380D01*
X125972142Y-89290000D01*
X126019761Y-89337619D01*
X126781666Y-89718571D02*
X126448333Y-89718571D01*
X126448333Y-90242380D02*
X126448333Y-89242380D01*
X126924523Y-89242380D01*
X128067380Y-90242380D02*
X128067380Y-89242380D01*
X129257857Y-89194761D02*
X128400714Y-90480476D01*
X129781666Y-89242380D02*
X129972142Y-89242380D01*
X130067380Y-89290000D01*
X130162619Y-89385238D01*
X130210238Y-89575714D01*
X130210238Y-89909047D01*
X130162619Y-90099523D01*
X130067380Y-90194761D01*
X129972142Y-90242380D01*
X129781666Y-90242380D01*
X129686428Y-90194761D01*
X129591190Y-90099523D01*
X129543571Y-89909047D01*
X129543571Y-89575714D01*
X129591190Y-89385238D01*
X129686428Y-89290000D01*
X129781666Y-89242380D01*
X131353095Y-89956666D02*
X131829285Y-89956666D01*
X131257857Y-90242380D02*
X131591190Y-89242380D01*
X131924523Y-90242380D01*
X132257857Y-90242380D02*
X132257857Y-89242380D01*
X132495952Y-89242380D01*
X132638809Y-89290000D01*
X132734047Y-89385238D01*
X132781666Y-89480476D01*
X132829285Y-89670952D01*
X132829285Y-89813809D01*
X132781666Y-90004285D01*
X132734047Y-90099523D01*
X132638809Y-90194761D01*
X132495952Y-90242380D01*
X132257857Y-90242380D01*
X133257857Y-90242380D02*
X133257857Y-89242380D01*
X133495952Y-89242380D01*
X133638809Y-89290000D01*
X133734047Y-89385238D01*
X133781666Y-89480476D01*
X133829285Y-89670952D01*
X133829285Y-89813809D01*
X133781666Y-90004285D01*
X133734047Y-90099523D01*
X133638809Y-90194761D01*
X133495952Y-90242380D01*
X133257857Y-90242380D01*
X134829285Y-90242380D02*
X134495952Y-89766190D01*
X134257857Y-90242380D02*
X134257857Y-89242380D01*
X134638809Y-89242380D01*
X134734047Y-89290000D01*
X134781666Y-89337619D01*
X134829285Y-89432857D01*
X134829285Y-89575714D01*
X134781666Y-89670952D01*
X134734047Y-89718571D01*
X134638809Y-89766190D01*
X134257857Y-89766190D01*
D10*
X173840000Y-94098571D02*
X173840000Y-92598571D01*
X174197142Y-92598571D01*
X174411428Y-92670000D01*
X174554285Y-92812857D01*
X174625714Y-92955714D01*
X174697142Y-93241428D01*
X174697142Y-93455714D01*
X174625714Y-93741428D01*
X174554285Y-93884285D01*
X174411428Y-94027142D01*
X174197142Y-94098571D01*
X173840000Y-94098571D01*
X175911428Y-94027142D02*
X175768571Y-94098571D01*
X175482857Y-94098571D01*
X175340000Y-94027142D01*
X175268571Y-93884285D01*
X175268571Y-93312857D01*
X175340000Y-93170000D01*
X175482857Y-93098571D01*
X175768571Y-93098571D01*
X175911428Y-93170000D01*
X175982857Y-93312857D01*
X175982857Y-93455714D01*
X175268571Y-93598571D01*
X176554285Y-94027142D02*
X176697142Y-94098571D01*
X176982857Y-94098571D01*
X177125714Y-94027142D01*
X177197142Y-93884285D01*
X177197142Y-93812857D01*
X177125714Y-93670000D01*
X176982857Y-93598571D01*
X176768571Y-93598571D01*
X176625714Y-93527142D01*
X176554285Y-93384285D01*
X176554285Y-93312857D01*
X176625714Y-93170000D01*
X176768571Y-93098571D01*
X176982857Y-93098571D01*
X177125714Y-93170000D01*
X177840000Y-94098571D02*
X177840000Y-93098571D01*
X177840000Y-92598571D02*
X177768571Y-92670000D01*
X177840000Y-92741428D01*
X177911428Y-92670000D01*
X177840000Y-92598571D01*
X177840000Y-92741428D01*
X179197142Y-93098571D02*
X179197142Y-94312857D01*
X179125714Y-94455714D01*
X179054285Y-94527142D01*
X178911428Y-94598571D01*
X178697142Y-94598571D01*
X178554285Y-94527142D01*
X179197142Y-94027142D02*
X179054285Y-94098571D01*
X178768571Y-94098571D01*
X178625714Y-94027142D01*
X178554285Y-93955714D01*
X178482857Y-93812857D01*
X178482857Y-93384285D01*
X178554285Y-93241428D01*
X178625714Y-93170000D01*
X178768571Y-93098571D01*
X179054285Y-93098571D01*
X179197142Y-93170000D01*
X179911428Y-93098571D02*
X179911428Y-94098571D01*
X179911428Y-93241428D02*
X179982857Y-93170000D01*
X180125714Y-93098571D01*
X180340000Y-93098571D01*
X180482857Y-93170000D01*
X180554285Y-93312857D01*
X180554285Y-94098571D01*
X181840000Y-94027142D02*
X181697142Y-94098571D01*
X181411428Y-94098571D01*
X181268571Y-94027142D01*
X181197142Y-93884285D01*
X181197142Y-93312857D01*
X181268571Y-93170000D01*
X181411428Y-93098571D01*
X181697142Y-93098571D01*
X181840000Y-93170000D01*
X181911428Y-93312857D01*
X181911428Y-93455714D01*
X181197142Y-93598571D01*
X183197142Y-94098571D02*
X183197142Y-92598571D01*
X183197142Y-94027142D02*
X183054285Y-94098571D01*
X182768571Y-94098571D01*
X182625714Y-94027142D01*
X182554285Y-93955714D01*
X182482857Y-93812857D01*
X182482857Y-93384285D01*
X182554285Y-93241428D01*
X182625714Y-93170000D01*
X182768571Y-93098571D01*
X183054285Y-93098571D01*
X183197142Y-93170000D01*
X185054285Y-94098571D02*
X185054285Y-92598571D01*
X185054285Y-93170000D02*
X185197142Y-93098571D01*
X185482857Y-93098571D01*
X185625714Y-93170000D01*
X185697142Y-93241428D01*
X185768571Y-93384285D01*
X185768571Y-93812857D01*
X185697142Y-93955714D01*
X185625714Y-94027142D01*
X185482857Y-94098571D01*
X185197142Y-94098571D01*
X185054285Y-94027142D01*
X186268571Y-93098571D02*
X186625714Y-94098571D01*
X186982857Y-93098571D02*
X186625714Y-94098571D01*
X186482857Y-94455714D01*
X186411428Y-94527142D01*
X186268571Y-94598571D01*
X188482857Y-93098571D02*
X189054285Y-93098571D01*
X188697142Y-92598571D02*
X188697142Y-93884285D01*
X188768571Y-94027142D01*
X188911428Y-94098571D01*
X189054285Y-94098571D01*
X189768571Y-94098571D02*
X189625714Y-94027142D01*
X189554285Y-93955714D01*
X189482857Y-93812857D01*
X189482857Y-93384285D01*
X189554285Y-93241428D01*
X189625714Y-93170000D01*
X189768571Y-93098571D01*
X189982857Y-93098571D01*
X190125714Y-93170000D01*
X190197142Y-93241428D01*
X190268571Y-93384285D01*
X190268571Y-93812857D01*
X190197142Y-93955714D01*
X190125714Y-94027142D01*
X189982857Y-94098571D01*
X189768571Y-94098571D01*
X190911428Y-94098571D02*
X190911428Y-93098571D01*
X190911428Y-93241428D02*
X190982857Y-93170000D01*
X191125714Y-93098571D01*
X191340000Y-93098571D01*
X191482857Y-93170000D01*
X191554285Y-93312857D01*
X191554285Y-94098571D01*
X191554285Y-93312857D02*
X191625714Y-93170000D01*
X191768571Y-93098571D01*
X191982857Y-93098571D01*
X192125714Y-93170000D01*
X192197142Y-93312857D01*
X192197142Y-94098571D01*
X192911428Y-94098571D02*
X192911428Y-93098571D01*
X192911428Y-92598571D02*
X192840000Y-92670000D01*
X192911428Y-92741428D01*
X192982857Y-92670000D01*
X192911428Y-92598571D01*
X192911428Y-92741428D01*
X193697142Y-94098571D02*
X193982857Y-94098571D01*
X194125714Y-94027142D01*
X194197142Y-93955714D01*
X194340000Y-93741428D01*
X194411428Y-93455714D01*
X194411428Y-92884285D01*
X194340000Y-92741428D01*
X194268571Y-92670000D01*
X194125714Y-92598571D01*
X193840000Y-92598571D01*
X193697142Y-92670000D01*
X193625714Y-92741428D01*
X193554285Y-92884285D01*
X193554285Y-93241428D01*
X193625714Y-93384285D01*
X193697142Y-93455714D01*
X193840000Y-93527142D01*
X194125714Y-93527142D01*
X194268571Y-93455714D01*
X194340000Y-93384285D01*
X194411428Y-93241428D01*
X174196428Y-90317857D02*
X173696428Y-90317857D01*
X173696428Y-91103571D02*
X173696428Y-89603571D01*
X174410714Y-89603571D01*
X175196428Y-91103571D02*
X175053571Y-91032142D01*
X174982142Y-90960714D01*
X174910714Y-90817857D01*
X174910714Y-90389285D01*
X174982142Y-90246428D01*
X175053571Y-90175000D01*
X175196428Y-90103571D01*
X175410714Y-90103571D01*
X175553571Y-90175000D01*
X175625000Y-90246428D01*
X175696428Y-90389285D01*
X175696428Y-90817857D01*
X175625000Y-90960714D01*
X175553571Y-91032142D01*
X175410714Y-91103571D01*
X175196428Y-91103571D01*
X176553571Y-91103571D02*
X176410714Y-91032142D01*
X176339285Y-90960714D01*
X176267857Y-90817857D01*
X176267857Y-90389285D01*
X176339285Y-90246428D01*
X176410714Y-90175000D01*
X176553571Y-90103571D01*
X176767857Y-90103571D01*
X176910714Y-90175000D01*
X176982142Y-90246428D01*
X177053571Y-90389285D01*
X177053571Y-90817857D01*
X176982142Y-90960714D01*
X176910714Y-91032142D01*
X176767857Y-91103571D01*
X176553571Y-91103571D01*
X177482142Y-90103571D02*
X178053571Y-90103571D01*
X177696428Y-89603571D02*
X177696428Y-90889285D01*
X177767857Y-91032142D01*
X177910714Y-91103571D01*
X178053571Y-91103571D01*
X178553571Y-90103571D02*
X178553571Y-91603571D01*
X178553571Y-90175000D02*
X178696428Y-90103571D01*
X178982142Y-90103571D01*
X179125000Y-90175000D01*
X179196428Y-90246428D01*
X179267857Y-90389285D01*
X179267857Y-90817857D01*
X179196428Y-90960714D01*
X179125000Y-91032142D01*
X178982142Y-91103571D01*
X178696428Y-91103571D01*
X178553571Y-91032142D01*
X179910714Y-91103571D02*
X179910714Y-90103571D01*
X179910714Y-90389285D02*
X179982142Y-90246428D01*
X180053571Y-90175000D01*
X180196428Y-90103571D01*
X180339285Y-90103571D01*
X180839285Y-91103571D02*
X180839285Y-90103571D01*
X180839285Y-89603571D02*
X180767857Y-89675000D01*
X180839285Y-89746428D01*
X180910714Y-89675000D01*
X180839285Y-89603571D01*
X180839285Y-89746428D01*
X181553571Y-90103571D02*
X181553571Y-91103571D01*
X181553571Y-90246428D02*
X181625000Y-90175000D01*
X181767857Y-90103571D01*
X181982142Y-90103571D01*
X182125000Y-90175000D01*
X182196428Y-90317857D01*
X182196428Y-91103571D01*
X182696428Y-90103571D02*
X183267857Y-90103571D01*
X182910714Y-89603571D02*
X182910714Y-90889285D01*
X182982142Y-91032142D01*
X183125000Y-91103571D01*
X183267857Y-91103571D01*
D12*
X148268095Y-110562380D02*
X148268095Y-109562380D01*
X148839523Y-110562380D02*
X148410952Y-109990952D01*
X148839523Y-109562380D02*
X148268095Y-110133809D01*
D11*
X140798571Y-113256666D02*
X141274761Y-113256666D01*
X140703333Y-113542380D02*
X141036666Y-112542380D01*
X141370000Y-113542380D01*
X142131904Y-113494761D02*
X142036666Y-113542380D01*
X141846190Y-113542380D01*
X141750952Y-113494761D01*
X141703333Y-113447142D01*
X141655714Y-113351904D01*
X141655714Y-113066190D01*
X141703333Y-112970952D01*
X141750952Y-112923333D01*
X141846190Y-112875714D01*
X142036666Y-112875714D01*
X142131904Y-112923333D01*
X142989047Y-113494761D02*
X142893809Y-113542380D01*
X142703333Y-113542380D01*
X142608095Y-113494761D01*
X142560476Y-113447142D01*
X142512857Y-113351904D01*
X142512857Y-113066190D01*
X142560476Y-112970952D01*
X142608095Y-112923333D01*
X142703333Y-112875714D01*
X142893809Y-112875714D01*
X142989047Y-112923333D01*
X143798571Y-113494761D02*
X143703333Y-113542380D01*
X143512857Y-113542380D01*
X143417619Y-113494761D01*
X143370000Y-113399523D01*
X143370000Y-113018571D01*
X143417619Y-112923333D01*
X143512857Y-112875714D01*
X143703333Y-112875714D01*
X143798571Y-112923333D01*
X143846190Y-113018571D01*
X143846190Y-113113809D01*
X143370000Y-113209047D01*
X144227142Y-113494761D02*
X144322380Y-113542380D01*
X144512857Y-113542380D01*
X144608095Y-113494761D01*
X144655714Y-113399523D01*
X144655714Y-113351904D01*
X144608095Y-113256666D01*
X144512857Y-113209047D01*
X144370000Y-113209047D01*
X144274761Y-113161428D01*
X144227142Y-113066190D01*
X144227142Y-113018571D01*
X144274761Y-112923333D01*
X144370000Y-112875714D01*
X144512857Y-112875714D01*
X144608095Y-112923333D01*
X145036666Y-113494761D02*
X145131904Y-113542380D01*
X145322380Y-113542380D01*
X145417619Y-113494761D01*
X145465238Y-113399523D01*
X145465238Y-113351904D01*
X145417619Y-113256666D01*
X145322380Y-113209047D01*
X145179523Y-113209047D01*
X145084285Y-113161428D01*
X145036666Y-113066190D01*
X145036666Y-113018571D01*
X145084285Y-112923333D01*
X145179523Y-112875714D01*
X145322380Y-112875714D01*
X145417619Y-112923333D01*
X147131904Y-113542380D02*
X146655714Y-113542380D01*
X146655714Y-112542380D01*
X147465238Y-113018571D02*
X147798571Y-113018571D01*
X147941428Y-113542380D02*
X147465238Y-113542380D01*
X147465238Y-112542380D01*
X147941428Y-112542380D01*
X148370000Y-113542380D02*
X148370000Y-112542380D01*
X148608095Y-112542380D01*
X148750952Y-112590000D01*
X148846190Y-112685238D01*
X148893809Y-112780476D01*
X148941428Y-112970952D01*
X148941428Y-113113809D01*
X148893809Y-113304285D01*
X148846190Y-113399523D01*
X148750952Y-113494761D01*
X148608095Y-113542380D01*
X148370000Y-113542380D01*
D10*
X123093571Y-60948571D02*
X123093571Y-59448571D01*
X123950714Y-60948571D02*
X123307857Y-60091428D01*
X123950714Y-59448571D02*
X123093571Y-60305714D01*
X124450714Y-59448571D02*
X125450714Y-59448571D01*
X124450714Y-60948571D01*
X125450714Y-60948571D01*
X126236428Y-60091428D02*
X126093571Y-60020000D01*
X126022142Y-59948571D01*
X125950714Y-59805714D01*
X125950714Y-59734285D01*
X126022142Y-59591428D01*
X126093571Y-59520000D01*
X126236428Y-59448571D01*
X126522142Y-59448571D01*
X126665000Y-59520000D01*
X126736428Y-59591428D01*
X126807857Y-59734285D01*
X126807857Y-59805714D01*
X126736428Y-59948571D01*
X126665000Y-60020000D01*
X126522142Y-60091428D01*
X126236428Y-60091428D01*
X126093571Y-60162857D01*
X126022142Y-60234285D01*
X125950714Y-60377142D01*
X125950714Y-60662857D01*
X126022142Y-60805714D01*
X126093571Y-60877142D01*
X126236428Y-60948571D01*
X126522142Y-60948571D01*
X126665000Y-60877142D01*
X126736428Y-60805714D01*
X126807857Y-60662857D01*
X126807857Y-60377142D01*
X126736428Y-60234285D01*
X126665000Y-60162857D01*
X126522142Y-60091428D01*
X127736428Y-59448571D02*
X127879285Y-59448571D01*
X128022142Y-59520000D01*
X128093571Y-59591428D01*
X128165000Y-59734285D01*
X128236428Y-60020000D01*
X128236428Y-60377142D01*
X128165000Y-60662857D01*
X128093571Y-60805714D01*
X128022142Y-60877142D01*
X127879285Y-60948571D01*
X127736428Y-60948571D01*
X127593571Y-60877142D01*
X127522142Y-60805714D01*
X127450714Y-60662857D01*
X127379285Y-60377142D01*
X127379285Y-60020000D01*
X127450714Y-59734285D01*
X127522142Y-59591428D01*
X127593571Y-59520000D01*
X127736428Y-59448571D01*
X128879285Y-60377142D02*
X130022142Y-60377142D01*
X131593571Y-60805714D02*
X131522142Y-60877142D01*
X131307857Y-60948571D01*
X131165000Y-60948571D01*
X130950714Y-60877142D01*
X130807857Y-60734285D01*
X130736428Y-60591428D01*
X130665000Y-60305714D01*
X130665000Y-60091428D01*
X130736428Y-59805714D01*
X130807857Y-59662857D01*
X130950714Y-59520000D01*
X131165000Y-59448571D01*
X131307857Y-59448571D01*
X131522142Y-59520000D01*
X131593571Y-59591428D01*
X132736428Y-60162857D02*
X132236428Y-60162857D01*
X132236428Y-60948571D02*
X132236428Y-59448571D01*
X132950714Y-59448571D01*
X135522142Y-60948571D02*
X135022142Y-60234285D01*
X134665000Y-60948571D02*
X134665000Y-59448571D01*
X135236428Y-59448571D01*
X135379285Y-59520000D01*
X135450714Y-59591428D01*
X135522142Y-59734285D01*
X135522142Y-59948571D01*
X135450714Y-60091428D01*
X135379285Y-60162857D01*
X135236428Y-60234285D01*
X134665000Y-60234285D01*
X136165000Y-60162857D02*
X136665000Y-60162857D01*
X136879285Y-60948571D02*
X136165000Y-60948571D01*
X136165000Y-59448571D01*
X136879285Y-59448571D01*
X137307857Y-59448571D02*
X137807857Y-60948571D01*
X138307857Y-59448571D01*
X138736428Y-59591428D02*
X138807857Y-59520000D01*
X138950714Y-59448571D01*
X139307857Y-59448571D01*
X139450714Y-59520000D01*
X139522142Y-59591428D01*
X139593571Y-59734285D01*
X139593571Y-59877142D01*
X139522142Y-60091428D01*
X138665000Y-60948571D01*
X139593571Y-60948571D01*
X141379285Y-60805714D02*
X141450714Y-60877142D01*
X141379285Y-60948571D01*
X141307857Y-60877142D01*
X141379285Y-60805714D01*
X141379285Y-60948571D01*
X141379285Y-60020000D02*
X141450714Y-60091428D01*
X141379285Y-60162857D01*
X141307857Y-60091428D01*
X141379285Y-60020000D01*
X141379285Y-60162857D01*
X144093571Y-60805714D02*
X144022142Y-60877142D01*
X143807857Y-60948571D01*
X143665000Y-60948571D01*
X143450714Y-60877142D01*
X143307857Y-60734285D01*
X143236428Y-60591428D01*
X143165000Y-60305714D01*
X143165000Y-60091428D01*
X143236428Y-59805714D01*
X143307857Y-59662857D01*
X143450714Y-59520000D01*
X143665000Y-59448571D01*
X143807857Y-59448571D01*
X144022142Y-59520000D01*
X144093571Y-59591428D01*
X144950714Y-60948571D02*
X144807857Y-60877142D01*
X144736428Y-60805714D01*
X144665000Y-60662857D01*
X144665000Y-60234285D01*
X144736428Y-60091428D01*
X144807857Y-60020000D01*
X144950714Y-59948571D01*
X145165000Y-59948571D01*
X145307857Y-60020000D01*
X145379285Y-60091428D01*
X145450714Y-60234285D01*
X145450714Y-60662857D01*
X145379285Y-60805714D01*
X145307857Y-60877142D01*
X145165000Y-60948571D01*
X144950714Y-60948571D01*
X146093571Y-60948571D02*
X146093571Y-59948571D01*
X146093571Y-60091428D02*
X146165000Y-60020000D01*
X146307857Y-59948571D01*
X146522142Y-59948571D01*
X146665000Y-60020000D01*
X146736428Y-60162857D01*
X146736428Y-60948571D01*
X146736428Y-60162857D02*
X146807857Y-60020000D01*
X146950714Y-59948571D01*
X147165000Y-59948571D01*
X147307857Y-60020000D01*
X147379285Y-60162857D01*
X147379285Y-60948571D01*
X148093571Y-59948571D02*
X148093571Y-61448571D01*
X148093571Y-60020000D02*
X148236428Y-59948571D01*
X148522142Y-59948571D01*
X148665000Y-60020000D01*
X148736428Y-60091428D01*
X148807857Y-60234285D01*
X148807857Y-60662857D01*
X148736428Y-60805714D01*
X148665000Y-60877142D01*
X148522142Y-60948571D01*
X148236428Y-60948571D01*
X148093571Y-60877142D01*
X150093571Y-60948571D02*
X150093571Y-60162857D01*
X150022142Y-60020000D01*
X149879285Y-59948571D01*
X149593571Y-59948571D01*
X149450714Y-60020000D01*
X150093571Y-60877142D02*
X149950714Y-60948571D01*
X149593571Y-60948571D01*
X149450714Y-60877142D01*
X149379285Y-60734285D01*
X149379285Y-60591428D01*
X149450714Y-60448571D01*
X149593571Y-60377142D01*
X149950714Y-60377142D01*
X150093571Y-60305714D01*
X151450714Y-60877142D02*
X151307857Y-60948571D01*
X151022142Y-60948571D01*
X150879285Y-60877142D01*
X150807857Y-60805714D01*
X150736428Y-60662857D01*
X150736428Y-60234285D01*
X150807857Y-60091428D01*
X150879285Y-60020000D01*
X151022142Y-59948571D01*
X151307857Y-59948571D01*
X151450714Y-60020000D01*
X151879285Y-59948571D02*
X152450714Y-59948571D01*
X152093571Y-59448571D02*
X152093571Y-60734285D01*
X152165000Y-60877142D01*
X152307857Y-60948571D01*
X152450714Y-60948571D01*
X154593571Y-60162857D02*
X154093571Y-60162857D01*
X154093571Y-60948571D02*
X154093571Y-59448571D01*
X154807857Y-59448571D01*
X155593571Y-60948571D02*
X155450714Y-60877142D01*
X155379285Y-60734285D01*
X155379285Y-59448571D01*
X156807857Y-60948571D02*
X156807857Y-60162857D01*
X156736428Y-60020000D01*
X156593571Y-59948571D01*
X156307857Y-59948571D01*
X156165000Y-60020000D01*
X156807857Y-60877142D02*
X156665000Y-60948571D01*
X156307857Y-60948571D01*
X156165000Y-60877142D01*
X156093571Y-60734285D01*
X156093571Y-60591428D01*
X156165000Y-60448571D01*
X156307857Y-60377142D01*
X156665000Y-60377142D01*
X156807857Y-60305714D01*
X157450714Y-60877142D02*
X157593571Y-60948571D01*
X157879285Y-60948571D01*
X158022142Y-60877142D01*
X158093571Y-60734285D01*
X158093571Y-60662857D01*
X158022142Y-60520000D01*
X157879285Y-60448571D01*
X157665000Y-60448571D01*
X157522142Y-60377142D01*
X157450714Y-60234285D01*
X157450714Y-60162857D01*
X157522142Y-60020000D01*
X157665000Y-59948571D01*
X157879285Y-59948571D01*
X158022142Y-60020000D01*
X158736428Y-60948571D02*
X158736428Y-59448571D01*
X159379285Y-60948571D02*
X159379285Y-60162857D01*
X159307857Y-60020000D01*
X159165000Y-59948571D01*
X158950714Y-59948571D01*
X158807857Y-60020000D01*
X158736428Y-60091428D01*
X162093571Y-60805714D02*
X162022142Y-60877142D01*
X161807857Y-60948571D01*
X161665000Y-60948571D01*
X161450714Y-60877142D01*
X161307857Y-60734285D01*
X161236428Y-60591428D01*
X161165000Y-60305714D01*
X161165000Y-60091428D01*
X161236428Y-59805714D01*
X161307857Y-59662857D01*
X161450714Y-59520000D01*
X161665000Y-59448571D01*
X161807857Y-59448571D01*
X162022142Y-59520000D01*
X162093571Y-59591428D01*
X163379285Y-60948571D02*
X163379285Y-60162857D01*
X163307857Y-60020000D01*
X163165000Y-59948571D01*
X162879285Y-59948571D01*
X162736428Y-60020000D01*
X163379285Y-60877142D02*
X163236428Y-60948571D01*
X162879285Y-60948571D01*
X162736428Y-60877142D01*
X162665000Y-60734285D01*
X162665000Y-60591428D01*
X162736428Y-60448571D01*
X162879285Y-60377142D01*
X163236428Y-60377142D01*
X163379285Y-60305714D01*
X164093571Y-60948571D02*
X164093571Y-59948571D01*
X164093571Y-60234285D02*
X164165000Y-60091428D01*
X164236428Y-60020000D01*
X164379285Y-59948571D01*
X164522142Y-59948571D01*
X165665000Y-60948571D02*
X165665000Y-59448571D01*
X165665000Y-60877142D02*
X165522142Y-60948571D01*
X165236428Y-60948571D01*
X165093571Y-60877142D01*
X165022142Y-60805714D01*
X164950714Y-60662857D01*
X164950714Y-60234285D01*
X165022142Y-60091428D01*
X165093571Y-60020000D01*
X165236428Y-59948571D01*
X165522142Y-59948571D01*
X165665000Y-60020000D01*
X167450714Y-60520000D02*
X168165000Y-60520000D01*
X167307857Y-60948571D02*
X167807857Y-59448571D01*
X168307857Y-60948571D01*
X169450714Y-60948571D02*
X169450714Y-59448571D01*
X169450714Y-60877142D02*
X169307857Y-60948571D01*
X169022142Y-60948571D01*
X168879285Y-60877142D01*
X168807857Y-60805714D01*
X168736428Y-60662857D01*
X168736428Y-60234285D01*
X168807857Y-60091428D01*
X168879285Y-60020000D01*
X169022142Y-59948571D01*
X169307857Y-59948571D01*
X169450714Y-60020000D01*
X170807857Y-60948571D02*
X170807857Y-60162857D01*
X170736428Y-60020000D01*
X170593571Y-59948571D01*
X170307857Y-59948571D01*
X170165000Y-60020000D01*
X170807857Y-60877142D02*
X170665000Y-60948571D01*
X170307857Y-60948571D01*
X170165000Y-60877142D01*
X170093571Y-60734285D01*
X170093571Y-60591428D01*
X170165000Y-60448571D01*
X170307857Y-60377142D01*
X170665000Y-60377142D01*
X170807857Y-60305714D01*
X171522142Y-59948571D02*
X171522142Y-61448571D01*
X171522142Y-60020000D02*
X171665000Y-59948571D01*
X171950714Y-59948571D01*
X172093571Y-60020000D01*
X172165000Y-60091428D01*
X172236428Y-60234285D01*
X172236428Y-60662857D01*
X172165000Y-60805714D01*
X172093571Y-60877142D01*
X171950714Y-60948571D01*
X171665000Y-60948571D01*
X171522142Y-60877142D01*
X172665000Y-59948571D02*
X173236428Y-59948571D01*
X172879285Y-59448571D02*
X172879285Y-60734285D01*
X172950714Y-60877142D01*
X173093571Y-60948571D01*
X173236428Y-60948571D01*
X174307857Y-60877142D02*
X174165000Y-60948571D01*
X173879285Y-60948571D01*
X173736428Y-60877142D01*
X173665000Y-60734285D01*
X173665000Y-60162857D01*
X173736428Y-60020000D01*
X173879285Y-59948571D01*
X174165000Y-59948571D01*
X174307857Y-60020000D01*
X174379285Y-60162857D01*
X174379285Y-60305714D01*
X173665000Y-60448571D01*
X175022142Y-60948571D02*
X175022142Y-59948571D01*
X175022142Y-60234285D02*
X175093571Y-60091428D01*
X175165000Y-60020000D01*
X175307857Y-59948571D01*
X175450714Y-59948571D01*
X174367857Y-80800714D02*
X174296428Y-80872142D01*
X174082142Y-80943571D01*
X173939285Y-80943571D01*
X173725000Y-80872142D01*
X173582142Y-80729285D01*
X173510714Y-80586428D01*
X173439285Y-80300714D01*
X173439285Y-80086428D01*
X173510714Y-79800714D01*
X173582142Y-79657857D01*
X173725000Y-79515000D01*
X173939285Y-79443571D01*
X174082142Y-79443571D01*
X174296428Y-79515000D01*
X174367857Y-79586428D01*
X175225000Y-80943571D02*
X175082142Y-80872142D01*
X175010714Y-80800714D01*
X174939285Y-80657857D01*
X174939285Y-80229285D01*
X175010714Y-80086428D01*
X175082142Y-80015000D01*
X175225000Y-79943571D01*
X175439285Y-79943571D01*
X175582142Y-80015000D01*
X175653571Y-80086428D01*
X175725000Y-80229285D01*
X175725000Y-80657857D01*
X175653571Y-80800714D01*
X175582142Y-80872142D01*
X175439285Y-80943571D01*
X175225000Y-80943571D01*
X176367857Y-80943571D02*
X176367857Y-79943571D01*
X176367857Y-80086428D02*
X176439285Y-80015000D01*
X176582142Y-79943571D01*
X176796428Y-79943571D01*
X176939285Y-80015000D01*
X177010714Y-80157857D01*
X177010714Y-80943571D01*
X177010714Y-80157857D02*
X177082142Y-80015000D01*
X177225000Y-79943571D01*
X177439285Y-79943571D01*
X177582142Y-80015000D01*
X177653571Y-80157857D01*
X177653571Y-80943571D01*
X178367857Y-79943571D02*
X178367857Y-81443571D01*
X178367857Y-80015000D02*
X178510714Y-79943571D01*
X178796428Y-79943571D01*
X178939285Y-80015000D01*
X179010714Y-80086428D01*
X179082142Y-80229285D01*
X179082142Y-80657857D01*
X179010714Y-80800714D01*
X178939285Y-80872142D01*
X178796428Y-80943571D01*
X178510714Y-80943571D01*
X178367857Y-80872142D01*
X180367857Y-80943571D02*
X180367857Y-80157857D01*
X180296428Y-80015000D01*
X180153571Y-79943571D01*
X179867857Y-79943571D01*
X179725000Y-80015000D01*
X180367857Y-80872142D02*
X180225000Y-80943571D01*
X179867857Y-80943571D01*
X179725000Y-80872142D01*
X179653571Y-80729285D01*
X179653571Y-80586428D01*
X179725000Y-80443571D01*
X179867857Y-80372142D01*
X180225000Y-80372142D01*
X180367857Y-80300714D01*
X181725000Y-80872142D02*
X181582142Y-80943571D01*
X181296428Y-80943571D01*
X181153571Y-80872142D01*
X181082142Y-80800714D01*
X181010714Y-80657857D01*
X181010714Y-80229285D01*
X181082142Y-80086428D01*
X181153571Y-80015000D01*
X181296428Y-79943571D01*
X181582142Y-79943571D01*
X181725000Y-80015000D01*
X182153571Y-79943571D02*
X182725000Y-79943571D01*
X182367857Y-79443571D02*
X182367857Y-80729285D01*
X182439285Y-80872142D01*
X182582142Y-80943571D01*
X182725000Y-80943571D01*
X184867857Y-80157857D02*
X184367857Y-80157857D01*
X184367857Y-80943571D02*
X184367857Y-79443571D01*
X185082142Y-79443571D01*
X185867857Y-80943571D02*
X185725000Y-80872142D01*
X185653571Y-80729285D01*
X185653571Y-79443571D01*
X187082142Y-80943571D02*
X187082142Y-80157857D01*
X187010714Y-80015000D01*
X186867857Y-79943571D01*
X186582142Y-79943571D01*
X186439285Y-80015000D01*
X187082142Y-80872142D02*
X186939285Y-80943571D01*
X186582142Y-80943571D01*
X186439285Y-80872142D01*
X186367857Y-80729285D01*
X186367857Y-80586428D01*
X186439285Y-80443571D01*
X186582142Y-80372142D01*
X186939285Y-80372142D01*
X187082142Y-80300714D01*
X187725000Y-80872142D02*
X187867857Y-80943571D01*
X188153571Y-80943571D01*
X188296428Y-80872142D01*
X188367857Y-80729285D01*
X188367857Y-80657857D01*
X188296428Y-80515000D01*
X188153571Y-80443571D01*
X187939285Y-80443571D01*
X187796428Y-80372142D01*
X187725000Y-80229285D01*
X187725000Y-80157857D01*
X187796428Y-80015000D01*
X187939285Y-79943571D01*
X188153571Y-79943571D01*
X188296428Y-80015000D01*
X189010714Y-80943571D02*
X189010714Y-79443571D01*
X189653571Y-80943571D02*
X189653571Y-80157857D01*
X189582142Y-80015000D01*
X189439285Y-79943571D01*
X189225000Y-79943571D01*
X189082142Y-80015000D01*
X189010714Y-80086428D01*
X192367857Y-80800714D02*
X192296428Y-80872142D01*
X192082142Y-80943571D01*
X191939285Y-80943571D01*
X191725000Y-80872142D01*
X191582142Y-80729285D01*
X191510714Y-80586428D01*
X191439285Y-80300714D01*
X191439285Y-80086428D01*
X191510714Y-79800714D01*
X191582142Y-79657857D01*
X191725000Y-79515000D01*
X191939285Y-79443571D01*
X192082142Y-79443571D01*
X192296428Y-79515000D01*
X192367857Y-79586428D01*
X193653571Y-80943571D02*
X193653571Y-80157857D01*
X193582142Y-80015000D01*
X193439285Y-79943571D01*
X193153571Y-79943571D01*
X193010714Y-80015000D01*
X193653571Y-80872142D02*
X193510714Y-80943571D01*
X193153571Y-80943571D01*
X193010714Y-80872142D01*
X192939285Y-80729285D01*
X192939285Y-80586428D01*
X193010714Y-80443571D01*
X193153571Y-80372142D01*
X193510714Y-80372142D01*
X193653571Y-80300714D01*
X194367857Y-80943571D02*
X194367857Y-79943571D01*
X194367857Y-80229285D02*
X194439285Y-80086428D01*
X194510714Y-80015000D01*
X194653571Y-79943571D01*
X194796428Y-79943571D01*
X195939285Y-80943571D02*
X195939285Y-79443571D01*
X195939285Y-80872142D02*
X195796428Y-80943571D01*
X195510714Y-80943571D01*
X195367857Y-80872142D01*
X195296428Y-80800714D01*
X195225000Y-80657857D01*
X195225000Y-80229285D01*
X195296428Y-80086428D01*
X195367857Y-80015000D01*
X195510714Y-79943571D01*
X195796428Y-79943571D01*
X195939285Y-80015000D01*
X121161428Y-56877142D02*
X120018571Y-57520000D01*
X120018571Y-56234285D01*
X121161428Y-56877142D01*
X116593571Y-81982857D02*
X116593571Y-80982857D01*
X118093571Y-81625714D01*
X117093571Y-79768571D02*
X118093571Y-79768571D01*
X116522142Y-80125714D02*
X117593571Y-80482857D01*
X117593571Y-79554285D01*
X118093571Y-78982857D02*
X116593571Y-78982857D01*
X117307857Y-78982857D02*
X117307857Y-78125714D01*
X118093571Y-78125714D02*
X116593571Y-78125714D01*
X117950714Y-76554285D02*
X118022142Y-76625714D01*
X118093571Y-76840000D01*
X118093571Y-76982857D01*
X118022142Y-77197142D01*
X117879285Y-77340000D01*
X117736428Y-77411428D01*
X117450714Y-77482857D01*
X117236428Y-77482857D01*
X116950714Y-77411428D01*
X116807857Y-77340000D01*
X116665000Y-77197142D01*
X116593571Y-76982857D01*
X116593571Y-76840000D01*
X116665000Y-76625714D01*
X116736428Y-76554285D01*
X118093571Y-75125714D02*
X118093571Y-75982857D01*
X118093571Y-75554285D02*
X116593571Y-75554285D01*
X116807857Y-75697142D01*
X116950714Y-75840000D01*
X117022142Y-75982857D01*
X116593571Y-74625714D02*
X116593571Y-73697142D01*
X117165000Y-74197142D01*
X117165000Y-73982857D01*
X117236428Y-73840000D01*
X117307857Y-73768571D01*
X117450714Y-73697142D01*
X117807857Y-73697142D01*
X117950714Y-73768571D01*
X118022142Y-73840000D01*
X118093571Y-73982857D01*
X118093571Y-74411428D01*
X118022142Y-74554285D01*
X117950714Y-74625714D01*
X117236428Y-72840000D02*
X117165000Y-72982857D01*
X117093571Y-73054285D01*
X116950714Y-73125714D01*
X116879285Y-73125714D01*
X116736428Y-73054285D01*
X116665000Y-72982857D01*
X116593571Y-72840000D01*
X116593571Y-72554285D01*
X116665000Y-72411428D01*
X116736428Y-72340000D01*
X116879285Y-72268571D01*
X116950714Y-72268571D01*
X117093571Y-72340000D01*
X117165000Y-72411428D01*
X117236428Y-72554285D01*
X117236428Y-72840000D01*
X117307857Y-72982857D01*
X117379285Y-73054285D01*
X117522142Y-73125714D01*
X117807857Y-73125714D01*
X117950714Y-73054285D01*
X118022142Y-72982857D01*
X118093571Y-72840000D01*
X118093571Y-72554285D01*
X118022142Y-72411428D01*
X117950714Y-72340000D01*
X117807857Y-72268571D01*
X117522142Y-72268571D01*
X117379285Y-72340000D01*
X117307857Y-72411428D01*
X117236428Y-72554285D01*
X116593571Y-106668571D02*
X116593571Y-105668571D01*
X118093571Y-106311428D01*
X117093571Y-104454285D02*
X118093571Y-104454285D01*
X116522142Y-104811428D02*
X117593571Y-105168571D01*
X117593571Y-104240000D01*
X118093571Y-103668571D02*
X116593571Y-103668571D01*
X117307857Y-103668571D02*
X117307857Y-102811428D01*
X118093571Y-102811428D02*
X116593571Y-102811428D01*
X117950714Y-101240000D02*
X118022142Y-101311428D01*
X118093571Y-101525714D01*
X118093571Y-101668571D01*
X118022142Y-101882857D01*
X117879285Y-102025714D01*
X117736428Y-102097142D01*
X117450714Y-102168571D01*
X117236428Y-102168571D01*
X116950714Y-102097142D01*
X116807857Y-102025714D01*
X116665000Y-101882857D01*
X116593571Y-101668571D01*
X116593571Y-101525714D01*
X116665000Y-101311428D01*
X116736428Y-101240000D01*
X116593571Y-100311428D02*
X116593571Y-100168571D01*
X116665000Y-100025714D01*
X116736428Y-99954285D01*
X116879285Y-99882857D01*
X117165000Y-99811428D01*
X117522142Y-99811428D01*
X117807857Y-99882857D01*
X117950714Y-99954285D01*
X118022142Y-100025714D01*
X118093571Y-100168571D01*
X118093571Y-100311428D01*
X118022142Y-100454285D01*
X117950714Y-100525714D01*
X117807857Y-100597142D01*
X117522142Y-100668571D01*
X117165000Y-100668571D01*
X116879285Y-100597142D01*
X116736428Y-100525714D01*
X116665000Y-100454285D01*
X116593571Y-100311428D01*
X117093571Y-98525714D02*
X118093571Y-98525714D01*
X116522142Y-98882857D02*
X117593571Y-99240000D01*
X117593571Y-98311428D01*
D11*
X133234523Y-86543571D02*
X133567857Y-86543571D01*
X133710714Y-87067380D02*
X133234523Y-87067380D01*
X133234523Y-86067380D01*
X133710714Y-86067380D01*
X134329761Y-86067380D02*
X134425000Y-86067380D01*
X134520238Y-86115000D01*
X134567857Y-86162619D01*
X134615476Y-86257857D01*
X134663095Y-86448333D01*
X134663095Y-86686428D01*
X134615476Y-86876904D01*
X134567857Y-86972142D01*
X134520238Y-87019761D01*
X134425000Y-87067380D01*
X134329761Y-87067380D01*
X134234523Y-87019761D01*
X134186904Y-86972142D01*
X134139285Y-86876904D01*
X134091666Y-86686428D01*
X134091666Y-86448333D01*
X134139285Y-86257857D01*
X134186904Y-86162619D01*
X134234523Y-86115000D01*
X134329761Y-86067380D01*
X133758333Y-84432142D02*
X133710714Y-84479761D01*
X133567857Y-84527380D01*
X133472619Y-84527380D01*
X133329761Y-84479761D01*
X133234523Y-84384523D01*
X133186904Y-84289285D01*
X133139285Y-84098809D01*
X133139285Y-83955952D01*
X133186904Y-83765476D01*
X133234523Y-83670238D01*
X133329761Y-83575000D01*
X133472619Y-83527380D01*
X133567857Y-83527380D01*
X133710714Y-83575000D01*
X133758333Y-83622619D01*
X134377380Y-83527380D02*
X134472619Y-83527380D01*
X134567857Y-83575000D01*
X134615476Y-83622619D01*
X134663095Y-83717857D01*
X134710714Y-83908333D01*
X134710714Y-84146428D01*
X134663095Y-84336904D01*
X134615476Y-84432142D01*
X134567857Y-84479761D01*
X134472619Y-84527380D01*
X134377380Y-84527380D01*
X134282142Y-84479761D01*
X134234523Y-84432142D01*
X134186904Y-84336904D01*
X134139285Y-84146428D01*
X134139285Y-83908333D01*
X134186904Y-83717857D01*
X134234523Y-83622619D01*
X134282142Y-83575000D01*
X134377380Y-83527380D01*
X133210714Y-81701666D02*
X133686904Y-81701666D01*
X133115476Y-81987380D02*
X133448809Y-80987380D01*
X133782142Y-81987380D01*
X134305952Y-80987380D02*
X134401190Y-80987380D01*
X134496428Y-81035000D01*
X134544047Y-81082619D01*
X134591666Y-81177857D01*
X134639285Y-81368333D01*
X134639285Y-81606428D01*
X134591666Y-81796904D01*
X134544047Y-81892142D01*
X134496428Y-81939761D01*
X134401190Y-81987380D01*
X134305952Y-81987380D01*
X134210714Y-81939761D01*
X134163095Y-81892142D01*
X134115476Y-81796904D01*
X134067857Y-81606428D01*
X134067857Y-81368333D01*
X134115476Y-81177857D01*
X134163095Y-81082619D01*
X134210714Y-81035000D01*
X134305952Y-80987380D01*
X133353571Y-78875952D02*
X133258333Y-78828333D01*
X133210714Y-78780714D01*
X133163095Y-78685476D01*
X133163095Y-78637857D01*
X133210714Y-78542619D01*
X133258333Y-78495000D01*
X133353571Y-78447380D01*
X133544047Y-78447380D01*
X133639285Y-78495000D01*
X133686904Y-78542619D01*
X133734523Y-78637857D01*
X133734523Y-78685476D01*
X133686904Y-78780714D01*
X133639285Y-78828333D01*
X133544047Y-78875952D01*
X133353571Y-78875952D01*
X133258333Y-78923571D01*
X133210714Y-78971190D01*
X133163095Y-79066428D01*
X133163095Y-79256904D01*
X133210714Y-79352142D01*
X133258333Y-79399761D01*
X133353571Y-79447380D01*
X133544047Y-79447380D01*
X133639285Y-79399761D01*
X133686904Y-79352142D01*
X133734523Y-79256904D01*
X133734523Y-79066428D01*
X133686904Y-78971190D01*
X133639285Y-78923571D01*
X133544047Y-78875952D01*
X134353571Y-78447380D02*
X134448809Y-78447380D01*
X134544047Y-78495000D01*
X134591666Y-78542619D01*
X134639285Y-78637857D01*
X134686904Y-78828333D01*
X134686904Y-79066428D01*
X134639285Y-79256904D01*
X134591666Y-79352142D01*
X134544047Y-79399761D01*
X134448809Y-79447380D01*
X134353571Y-79447380D01*
X134258333Y-79399761D01*
X134210714Y-79352142D01*
X134163095Y-79256904D01*
X134115476Y-79066428D01*
X134115476Y-78828333D01*
X134163095Y-78637857D01*
X134210714Y-78542619D01*
X134258333Y-78495000D01*
X134353571Y-78447380D01*
X133639285Y-75907380D02*
X133448809Y-75907380D01*
X133353571Y-75955000D01*
X133305952Y-76002619D01*
X133210714Y-76145476D01*
X133163095Y-76335952D01*
X133163095Y-76716904D01*
X133210714Y-76812142D01*
X133258333Y-76859761D01*
X133353571Y-76907380D01*
X133544047Y-76907380D01*
X133639285Y-76859761D01*
X133686904Y-76812142D01*
X133734523Y-76716904D01*
X133734523Y-76478809D01*
X133686904Y-76383571D01*
X133639285Y-76335952D01*
X133544047Y-76288333D01*
X133353571Y-76288333D01*
X133258333Y-76335952D01*
X133210714Y-76383571D01*
X133163095Y-76478809D01*
X134353571Y-75907380D02*
X134448809Y-75907380D01*
X134544047Y-75955000D01*
X134591666Y-76002619D01*
X134639285Y-76097857D01*
X134686904Y-76288333D01*
X134686904Y-76526428D01*
X134639285Y-76716904D01*
X134591666Y-76812142D01*
X134544047Y-76859761D01*
X134448809Y-76907380D01*
X134353571Y-76907380D01*
X134258333Y-76859761D01*
X134210714Y-76812142D01*
X134163095Y-76716904D01*
X134115476Y-76526428D01*
X134115476Y-76288333D01*
X134163095Y-76097857D01*
X134210714Y-76002619D01*
X134258333Y-75955000D01*
X134353571Y-75907380D01*
X133639285Y-73700714D02*
X133639285Y-74367380D01*
X133401190Y-73319761D02*
X133163095Y-74034047D01*
X133782142Y-74034047D01*
X134353571Y-73367380D02*
X134448809Y-73367380D01*
X134544047Y-73415000D01*
X134591666Y-73462619D01*
X134639285Y-73557857D01*
X134686904Y-73748333D01*
X134686904Y-73986428D01*
X134639285Y-74176904D01*
X134591666Y-74272142D01*
X134544047Y-74319761D01*
X134448809Y-74367380D01*
X134353571Y-74367380D01*
X134258333Y-74319761D01*
X134210714Y-74272142D01*
X134163095Y-74176904D01*
X134115476Y-73986428D01*
X134115476Y-73748333D01*
X134163095Y-73557857D01*
X134210714Y-73462619D01*
X134258333Y-73415000D01*
X134353571Y-73367380D01*
X133163095Y-70922619D02*
X133210714Y-70875000D01*
X133305952Y-70827380D01*
X133544047Y-70827380D01*
X133639285Y-70875000D01*
X133686904Y-70922619D01*
X133734523Y-71017857D01*
X133734523Y-71113095D01*
X133686904Y-71255952D01*
X133115476Y-71827380D01*
X133734523Y-71827380D01*
X134353571Y-70827380D02*
X134448809Y-70827380D01*
X134544047Y-70875000D01*
X134591666Y-70922619D01*
X134639285Y-71017857D01*
X134686904Y-71208333D01*
X134686904Y-71446428D01*
X134639285Y-71636904D01*
X134591666Y-71732142D01*
X134544047Y-71779761D01*
X134448809Y-71827380D01*
X134353571Y-71827380D01*
X134258333Y-71779761D01*
X134210714Y-71732142D01*
X134163095Y-71636904D01*
X134115476Y-71446428D01*
X134115476Y-71208333D01*
X134163095Y-71017857D01*
X134210714Y-70922619D01*
X134258333Y-70875000D01*
X134353571Y-70827380D01*
X133401190Y-68287380D02*
X133496428Y-68287380D01*
X133591666Y-68335000D01*
X133639285Y-68382619D01*
X133686904Y-68477857D01*
X133734523Y-68668333D01*
X133734523Y-68906428D01*
X133686904Y-69096904D01*
X133639285Y-69192142D01*
X133591666Y-69239761D01*
X133496428Y-69287380D01*
X133401190Y-69287380D01*
X133305952Y-69239761D01*
X133258333Y-69192142D01*
X133210714Y-69096904D01*
X133163095Y-68906428D01*
X133163095Y-68668333D01*
X133210714Y-68477857D01*
X133258333Y-68382619D01*
X133305952Y-68335000D01*
X133401190Y-68287380D01*
X134353571Y-68287380D02*
X134448809Y-68287380D01*
X134544047Y-68335000D01*
X134591666Y-68382619D01*
X134639285Y-68477857D01*
X134686904Y-68668333D01*
X134686904Y-68906428D01*
X134639285Y-69096904D01*
X134591666Y-69192142D01*
X134544047Y-69239761D01*
X134448809Y-69287380D01*
X134353571Y-69287380D01*
X134258333Y-69239761D01*
X134210714Y-69192142D01*
X134163095Y-69096904D01*
X134115476Y-68906428D01*
X134115476Y-68668333D01*
X134163095Y-68477857D01*
X134210714Y-68382619D01*
X134258333Y-68335000D01*
X134353571Y-68287380D01*
D13*
G04 #@! TO.C,J2*
X126860000Y-87840000D02*
X132060000Y-87840000D01*
X126860000Y-70000000D02*
X126860000Y-87840000D01*
X132060000Y-67400000D02*
X132060000Y-87840000D01*
X126860000Y-70000000D02*
X129460000Y-70000000D01*
X129460000Y-70000000D02*
X129460000Y-67400000D01*
X129460000Y-67400000D02*
X132060000Y-67400000D01*
X126860000Y-68730000D02*
X126860000Y-67400000D01*
X126860000Y-67400000D02*
X128190000Y-67400000D01*
G04 #@! TO.C,D1*
X143047665Y-111188608D02*
G75*
G03X146280000Y-111345516I1672335J1078608D01*
G01*
X143047665Y-109031392D02*
G75*
G02X146280000Y-108874484I1672335J-1078608D01*
G01*
X143678870Y-111189837D02*
G75*
G03X145760961Y-111190000I1041130J1079837D01*
G01*
X143678870Y-109030163D02*
G75*
G02X145760961Y-109030000I1041130J-1079837D01*
G01*
X146280000Y-111346000D02*
X146280000Y-111190000D01*
X146280000Y-109030000D02*
X146280000Y-108874000D01*
G04 #@! TO.C,C1*
X121310000Y-67100000D02*
X116070000Y-67100000D01*
X121310000Y-64360000D02*
X116070000Y-64360000D01*
X121310000Y-67100000D02*
X121310000Y-66785000D01*
X121310000Y-64675000D02*
X121310000Y-64360000D01*
X116070000Y-67100000D02*
X116070000Y-66785000D01*
X116070000Y-64675000D02*
X116070000Y-64360000D01*
G04 #@! TO.C,C2*
X116070000Y-90675000D02*
X116070000Y-90360000D01*
X116070000Y-93100000D02*
X116070000Y-92785000D01*
X121310000Y-90675000D02*
X121310000Y-90360000D01*
X121310000Y-93100000D02*
X121310000Y-92785000D01*
X121310000Y-90360000D02*
X116070000Y-90360000D01*
X121310000Y-93100000D02*
X116070000Y-93100000D01*
G04 #@! TO.C,C3*
X116620000Y-55750000D02*
G75*
G03X116620000Y-55750000I-2620000J0D01*
G01*
X111420000Y-55750000D02*
X116580000Y-55750000D01*
X111420000Y-55710000D02*
X116580000Y-55710000D01*
X111421000Y-55670000D02*
X116579000Y-55670000D01*
X111422000Y-55630000D02*
X116578000Y-55630000D01*
X111424000Y-55590000D02*
X116576000Y-55590000D01*
X111427000Y-55550000D02*
X116573000Y-55550000D01*
X111431000Y-55510000D02*
X112960000Y-55510000D01*
X115040000Y-55510000D02*
X116569000Y-55510000D01*
X111435000Y-55470000D02*
X112960000Y-55470000D01*
X115040000Y-55470000D02*
X116565000Y-55470000D01*
X111439000Y-55430000D02*
X112960000Y-55430000D01*
X115040000Y-55430000D02*
X116561000Y-55430000D01*
X111444000Y-55390000D02*
X112960000Y-55390000D01*
X115040000Y-55390000D02*
X116556000Y-55390000D01*
X111450000Y-55350000D02*
X112960000Y-55350000D01*
X115040000Y-55350000D02*
X116550000Y-55350000D01*
X111457000Y-55310000D02*
X112960000Y-55310000D01*
X115040000Y-55310000D02*
X116543000Y-55310000D01*
X111464000Y-55270000D02*
X112960000Y-55270000D01*
X115040000Y-55270000D02*
X116536000Y-55270000D01*
X111472000Y-55230000D02*
X112960000Y-55230000D01*
X115040000Y-55230000D02*
X116528000Y-55230000D01*
X111480000Y-55190000D02*
X112960000Y-55190000D01*
X115040000Y-55190000D02*
X116520000Y-55190000D01*
X111489000Y-55150000D02*
X112960000Y-55150000D01*
X115040000Y-55150000D02*
X116511000Y-55150000D01*
X111499000Y-55110000D02*
X112960000Y-55110000D01*
X115040000Y-55110000D02*
X116501000Y-55110000D01*
X111509000Y-55070000D02*
X112960000Y-55070000D01*
X115040000Y-55070000D02*
X116491000Y-55070000D01*
X111520000Y-55029000D02*
X112960000Y-55029000D01*
X115040000Y-55029000D02*
X116480000Y-55029000D01*
X111532000Y-54989000D02*
X112960000Y-54989000D01*
X115040000Y-54989000D02*
X116468000Y-54989000D01*
X111545000Y-54949000D02*
X112960000Y-54949000D01*
X115040000Y-54949000D02*
X116455000Y-54949000D01*
X111558000Y-54909000D02*
X112960000Y-54909000D01*
X115040000Y-54909000D02*
X116442000Y-54909000D01*
X111572000Y-54869000D02*
X112960000Y-54869000D01*
X115040000Y-54869000D02*
X116428000Y-54869000D01*
X111586000Y-54829000D02*
X112960000Y-54829000D01*
X115040000Y-54829000D02*
X116414000Y-54829000D01*
X111602000Y-54789000D02*
X112960000Y-54789000D01*
X115040000Y-54789000D02*
X116398000Y-54789000D01*
X111618000Y-54749000D02*
X112960000Y-54749000D01*
X115040000Y-54749000D02*
X116382000Y-54749000D01*
X111635000Y-54709000D02*
X112960000Y-54709000D01*
X115040000Y-54709000D02*
X116365000Y-54709000D01*
X111652000Y-54669000D02*
X112960000Y-54669000D01*
X115040000Y-54669000D02*
X116348000Y-54669000D01*
X111671000Y-54629000D02*
X112960000Y-54629000D01*
X115040000Y-54629000D02*
X116329000Y-54629000D01*
X111690000Y-54589000D02*
X112960000Y-54589000D01*
X115040000Y-54589000D02*
X116310000Y-54589000D01*
X111710000Y-54549000D02*
X112960000Y-54549000D01*
X115040000Y-54549000D02*
X116290000Y-54549000D01*
X111732000Y-54509000D02*
X112960000Y-54509000D01*
X115040000Y-54509000D02*
X116268000Y-54509000D01*
X111753000Y-54469000D02*
X112960000Y-54469000D01*
X115040000Y-54469000D02*
X116247000Y-54469000D01*
X111776000Y-54429000D02*
X112960000Y-54429000D01*
X115040000Y-54429000D02*
X116224000Y-54429000D01*
X111800000Y-54389000D02*
X112960000Y-54389000D01*
X115040000Y-54389000D02*
X116200000Y-54389000D01*
X111825000Y-54349000D02*
X112960000Y-54349000D01*
X115040000Y-54349000D02*
X116175000Y-54349000D01*
X111851000Y-54309000D02*
X112960000Y-54309000D01*
X115040000Y-54309000D02*
X116149000Y-54309000D01*
X111878000Y-54269000D02*
X112960000Y-54269000D01*
X115040000Y-54269000D02*
X116122000Y-54269000D01*
X111905000Y-54229000D02*
X112960000Y-54229000D01*
X115040000Y-54229000D02*
X116095000Y-54229000D01*
X111935000Y-54189000D02*
X112960000Y-54189000D01*
X115040000Y-54189000D02*
X116065000Y-54189000D01*
X111965000Y-54149000D02*
X112960000Y-54149000D01*
X115040000Y-54149000D02*
X116035000Y-54149000D01*
X111996000Y-54109000D02*
X112960000Y-54109000D01*
X115040000Y-54109000D02*
X116004000Y-54109000D01*
X112029000Y-54069000D02*
X112960000Y-54069000D01*
X115040000Y-54069000D02*
X115971000Y-54069000D01*
X112063000Y-54029000D02*
X112960000Y-54029000D01*
X115040000Y-54029000D02*
X115937000Y-54029000D01*
X112099000Y-53989000D02*
X112960000Y-53989000D01*
X115040000Y-53989000D02*
X115901000Y-53989000D01*
X112136000Y-53949000D02*
X112960000Y-53949000D01*
X115040000Y-53949000D02*
X115864000Y-53949000D01*
X112174000Y-53909000D02*
X112960000Y-53909000D01*
X115040000Y-53909000D02*
X115826000Y-53909000D01*
X112215000Y-53869000D02*
X112960000Y-53869000D01*
X115040000Y-53869000D02*
X115785000Y-53869000D01*
X112257000Y-53829000D02*
X112960000Y-53829000D01*
X115040000Y-53829000D02*
X115743000Y-53829000D01*
X112301000Y-53789000D02*
X112960000Y-53789000D01*
X115040000Y-53789000D02*
X115699000Y-53789000D01*
X112347000Y-53749000D02*
X112960000Y-53749000D01*
X115040000Y-53749000D02*
X115653000Y-53749000D01*
X112395000Y-53709000D02*
X112960000Y-53709000D01*
X115040000Y-53709000D02*
X115605000Y-53709000D01*
X112446000Y-53669000D02*
X112960000Y-53669000D01*
X115040000Y-53669000D02*
X115554000Y-53669000D01*
X112500000Y-53629000D02*
X112960000Y-53629000D01*
X115040000Y-53629000D02*
X115500000Y-53629000D01*
X112557000Y-53589000D02*
X112960000Y-53589000D01*
X115040000Y-53589000D02*
X115443000Y-53589000D01*
X112617000Y-53549000D02*
X112960000Y-53549000D01*
X115040000Y-53549000D02*
X115383000Y-53549000D01*
X112681000Y-53509000D02*
X112960000Y-53509000D01*
X115040000Y-53509000D02*
X115319000Y-53509000D01*
X112749000Y-53469000D02*
X112960000Y-53469000D01*
X115040000Y-53469000D02*
X115251000Y-53469000D01*
X112822000Y-53429000D02*
X115178000Y-53429000D01*
X112902000Y-53389000D02*
X115098000Y-53389000D01*
X112989000Y-53349000D02*
X115011000Y-53349000D01*
X113085000Y-53309000D02*
X114915000Y-53309000D01*
X113195000Y-53269000D02*
X114805000Y-53269000D01*
X113323000Y-53229000D02*
X114677000Y-53229000D01*
X113482000Y-53189000D02*
X114518000Y-53189000D01*
X113716000Y-53149000D02*
X114284000Y-53149000D01*
X112525000Y-58554775D02*
X112525000Y-58054775D01*
X112275000Y-58304775D02*
X112775000Y-58304775D01*
G04 #@! TO.C,R1*
X130100000Y-99030000D02*
X130100000Y-100870000D01*
X130100000Y-100870000D02*
X133940000Y-100870000D01*
X133940000Y-100870000D02*
X133940000Y-99030000D01*
X133940000Y-99030000D02*
X130100000Y-99030000D01*
X129150000Y-99950000D02*
X130100000Y-99950000D01*
X134890000Y-99950000D02*
X133940000Y-99950000D01*
G04 #@! TO.C,R2*
X134890000Y-102490000D02*
X133940000Y-102490000D01*
X129150000Y-102490000D02*
X130100000Y-102490000D01*
X133940000Y-101570000D02*
X130100000Y-101570000D01*
X133940000Y-103410000D02*
X133940000Y-101570000D01*
X130100000Y-103410000D02*
X133940000Y-103410000D01*
X130100000Y-101570000D02*
X130100000Y-103410000D01*
G04 #@! TO.C,R3*
X130100000Y-104110000D02*
X130100000Y-105950000D01*
X130100000Y-105950000D02*
X133940000Y-105950000D01*
X133940000Y-105950000D02*
X133940000Y-104110000D01*
X133940000Y-104110000D02*
X130100000Y-104110000D01*
X129150000Y-105030000D02*
X130100000Y-105030000D01*
X134890000Y-105030000D02*
X133940000Y-105030000D01*
G04 #@! TO.C,R4*
X134890000Y-107570000D02*
X133940000Y-107570000D01*
X129150000Y-107570000D02*
X130100000Y-107570000D01*
X133940000Y-106650000D02*
X130100000Y-106650000D01*
X133940000Y-108490000D02*
X133940000Y-106650000D01*
X130100000Y-108490000D02*
X133940000Y-108490000D01*
X130100000Y-106650000D02*
X130100000Y-108490000D01*
G04 #@! TO.C,R5*
X130100000Y-109190000D02*
X130100000Y-111030000D01*
X130100000Y-111030000D02*
X133940000Y-111030000D01*
X133940000Y-111030000D02*
X133940000Y-109190000D01*
X133940000Y-109190000D02*
X130100000Y-109190000D01*
X129150000Y-110110000D02*
X130100000Y-110110000D01*
X134890000Y-110110000D02*
X133940000Y-110110000D01*
G04 #@! TO.C,U1*
X118000000Y-67400000D02*
G75*
G02X116000000Y-67400000I-1000000J0D01*
G01*
X116000000Y-67400000D02*
X114350000Y-67400000D01*
X114350000Y-67400000D02*
X114350000Y-87840000D01*
X114350000Y-87840000D02*
X119650000Y-87840000D01*
X119650000Y-87840000D02*
X119650000Y-67400000D01*
X119650000Y-67400000D02*
X118000000Y-67400000D01*
X111860000Y-67340000D02*
X111860000Y-87900000D01*
X111860000Y-87900000D02*
X122140000Y-87900000D01*
X122140000Y-87900000D02*
X122140000Y-67340000D01*
X122140000Y-67340000D02*
X111860000Y-67340000D01*
G04 #@! TO.C,U2*
X118000000Y-93400000D02*
G75*
G02X116000000Y-93400000I-1000000J0D01*
G01*
X116000000Y-93400000D02*
X114350000Y-93400000D01*
X114350000Y-93400000D02*
X114350000Y-111300000D01*
X114350000Y-111300000D02*
X119650000Y-111300000D01*
X119650000Y-111300000D02*
X119650000Y-93400000D01*
X119650000Y-93400000D02*
X118000000Y-93400000D01*
X111860000Y-93340000D02*
X111860000Y-111360000D01*
X111860000Y-111360000D02*
X122140000Y-111360000D01*
X122140000Y-111360000D02*
X122140000Y-93340000D01*
X122140000Y-93340000D02*
X111860000Y-93340000D01*
G04 #@! TO.C,J1*
X122689000Y-52917000D02*
X173609000Y-52917000D01*
X173609000Y-52917000D02*
X173609000Y-50257000D01*
X173609000Y-50257000D02*
X122689000Y-50257000D01*
X122689000Y-50257000D02*
X122689000Y-52917000D01*
X123639000Y-50257000D02*
X123639000Y-44257000D01*
X123639000Y-44257000D02*
X124399000Y-44257000D01*
X124399000Y-44257000D02*
X124399000Y-50257000D01*
X123699000Y-50257000D02*
X123699000Y-44257000D01*
X123819000Y-50257000D02*
X123819000Y-44257000D01*
X123939000Y-50257000D02*
X123939000Y-44257000D01*
X124059000Y-50257000D02*
X124059000Y-44257000D01*
X124179000Y-50257000D02*
X124179000Y-44257000D01*
X124299000Y-50257000D02*
X124299000Y-44257000D01*
X123639000Y-53314071D02*
X123639000Y-52917000D01*
X124399000Y-53314071D02*
X124399000Y-52917000D01*
X123639000Y-55787000D02*
X123639000Y-55399929D01*
X124399000Y-55787000D02*
X124399000Y-55399929D01*
X125289000Y-52917000D02*
X125289000Y-50257000D01*
X126179000Y-50257000D02*
X126179000Y-44257000D01*
X126179000Y-44257000D02*
X126939000Y-44257000D01*
X126939000Y-44257000D02*
X126939000Y-50257000D01*
X126179000Y-53314071D02*
X126179000Y-52917000D01*
X126939000Y-53314071D02*
X126939000Y-52917000D01*
X126179000Y-55854071D02*
X126179000Y-55399929D01*
X126939000Y-55854071D02*
X126939000Y-55399929D01*
X127829000Y-52917000D02*
X127829000Y-50257000D01*
X128719000Y-50257000D02*
X128719000Y-44257000D01*
X128719000Y-44257000D02*
X129479000Y-44257000D01*
X129479000Y-44257000D02*
X129479000Y-50257000D01*
X128719000Y-53314071D02*
X128719000Y-52917000D01*
X129479000Y-53314071D02*
X129479000Y-52917000D01*
X128719000Y-55854071D02*
X128719000Y-55399929D01*
X129479000Y-55854071D02*
X129479000Y-55399929D01*
X130369000Y-52917000D02*
X130369000Y-50257000D01*
X131259000Y-50257000D02*
X131259000Y-44257000D01*
X131259000Y-44257000D02*
X132019000Y-44257000D01*
X132019000Y-44257000D02*
X132019000Y-50257000D01*
X131259000Y-53314071D02*
X131259000Y-52917000D01*
X132019000Y-53314071D02*
X132019000Y-52917000D01*
X131259000Y-55854071D02*
X131259000Y-55399929D01*
X132019000Y-55854071D02*
X132019000Y-55399929D01*
X132909000Y-52917000D02*
X132909000Y-50257000D01*
X133799000Y-50257000D02*
X133799000Y-44257000D01*
X133799000Y-44257000D02*
X134559000Y-44257000D01*
X134559000Y-44257000D02*
X134559000Y-50257000D01*
X133799000Y-53314071D02*
X133799000Y-52917000D01*
X134559000Y-53314071D02*
X134559000Y-52917000D01*
X133799000Y-55854071D02*
X133799000Y-55399929D01*
X134559000Y-55854071D02*
X134559000Y-55399929D01*
X135449000Y-52917000D02*
X135449000Y-50257000D01*
X136339000Y-50257000D02*
X136339000Y-44257000D01*
X136339000Y-44257000D02*
X137099000Y-44257000D01*
X137099000Y-44257000D02*
X137099000Y-50257000D01*
X136339000Y-53314071D02*
X136339000Y-52917000D01*
X137099000Y-53314071D02*
X137099000Y-52917000D01*
X136339000Y-55854071D02*
X136339000Y-55399929D01*
X137099000Y-55854071D02*
X137099000Y-55399929D01*
X137989000Y-52917000D02*
X137989000Y-50257000D01*
X138879000Y-50257000D02*
X138879000Y-44257000D01*
X138879000Y-44257000D02*
X139639000Y-44257000D01*
X139639000Y-44257000D02*
X139639000Y-50257000D01*
X138879000Y-53314071D02*
X138879000Y-52917000D01*
X139639000Y-53314071D02*
X139639000Y-52917000D01*
X138879000Y-55854071D02*
X138879000Y-55399929D01*
X139639000Y-55854071D02*
X139639000Y-55399929D01*
X140529000Y-52917000D02*
X140529000Y-50257000D01*
X141419000Y-50257000D02*
X141419000Y-44257000D01*
X141419000Y-44257000D02*
X142179000Y-44257000D01*
X142179000Y-44257000D02*
X142179000Y-50257000D01*
X141419000Y-53314071D02*
X141419000Y-52917000D01*
X142179000Y-53314071D02*
X142179000Y-52917000D01*
X141419000Y-55854071D02*
X141419000Y-55399929D01*
X142179000Y-55854071D02*
X142179000Y-55399929D01*
X143069000Y-52917000D02*
X143069000Y-50257000D01*
X143959000Y-50257000D02*
X143959000Y-44257000D01*
X143959000Y-44257000D02*
X144719000Y-44257000D01*
X144719000Y-44257000D02*
X144719000Y-50257000D01*
X143959000Y-53314071D02*
X143959000Y-52917000D01*
X144719000Y-53314071D02*
X144719000Y-52917000D01*
X143959000Y-55854071D02*
X143959000Y-55399929D01*
X144719000Y-55854071D02*
X144719000Y-55399929D01*
X145609000Y-52917000D02*
X145609000Y-50257000D01*
X146499000Y-50257000D02*
X146499000Y-44257000D01*
X146499000Y-44257000D02*
X147259000Y-44257000D01*
X147259000Y-44257000D02*
X147259000Y-50257000D01*
X146499000Y-53314071D02*
X146499000Y-52917000D01*
X147259000Y-53314071D02*
X147259000Y-52917000D01*
X146499000Y-55854071D02*
X146499000Y-55399929D01*
X147259000Y-55854071D02*
X147259000Y-55399929D01*
X148149000Y-52917000D02*
X148149000Y-50257000D01*
X149039000Y-50257000D02*
X149039000Y-44257000D01*
X149039000Y-44257000D02*
X149799000Y-44257000D01*
X149799000Y-44257000D02*
X149799000Y-50257000D01*
X149039000Y-53314071D02*
X149039000Y-52917000D01*
X149799000Y-53314071D02*
X149799000Y-52917000D01*
X149039000Y-55854071D02*
X149039000Y-55399929D01*
X149799000Y-55854071D02*
X149799000Y-55399929D01*
X150689000Y-52917000D02*
X150689000Y-50257000D01*
X151579000Y-50257000D02*
X151579000Y-44257000D01*
X151579000Y-44257000D02*
X152339000Y-44257000D01*
X152339000Y-44257000D02*
X152339000Y-50257000D01*
X151579000Y-53314071D02*
X151579000Y-52917000D01*
X152339000Y-53314071D02*
X152339000Y-52917000D01*
X151579000Y-55854071D02*
X151579000Y-55399929D01*
X152339000Y-55854071D02*
X152339000Y-55399929D01*
X153229000Y-52917000D02*
X153229000Y-50257000D01*
X154119000Y-50257000D02*
X154119000Y-44257000D01*
X154119000Y-44257000D02*
X154879000Y-44257000D01*
X154879000Y-44257000D02*
X154879000Y-50257000D01*
X154119000Y-53314071D02*
X154119000Y-52917000D01*
X154879000Y-53314071D02*
X154879000Y-52917000D01*
X154119000Y-55854071D02*
X154119000Y-55399929D01*
X154879000Y-55854071D02*
X154879000Y-55399929D01*
X155769000Y-52917000D02*
X155769000Y-50257000D01*
X156659000Y-50257000D02*
X156659000Y-44257000D01*
X156659000Y-44257000D02*
X157419000Y-44257000D01*
X157419000Y-44257000D02*
X157419000Y-50257000D01*
X156659000Y-53314071D02*
X156659000Y-52917000D01*
X157419000Y-53314071D02*
X157419000Y-52917000D01*
X156659000Y-55854071D02*
X156659000Y-55399929D01*
X157419000Y-55854071D02*
X157419000Y-55399929D01*
X158309000Y-52917000D02*
X158309000Y-50257000D01*
X159199000Y-50257000D02*
X159199000Y-44257000D01*
X159199000Y-44257000D02*
X159959000Y-44257000D01*
X159959000Y-44257000D02*
X159959000Y-50257000D01*
X159199000Y-53314071D02*
X159199000Y-52917000D01*
X159959000Y-53314071D02*
X159959000Y-52917000D01*
X159199000Y-55854071D02*
X159199000Y-55399929D01*
X159959000Y-55854071D02*
X159959000Y-55399929D01*
X160849000Y-52917000D02*
X160849000Y-50257000D01*
X161739000Y-50257000D02*
X161739000Y-44257000D01*
X161739000Y-44257000D02*
X162499000Y-44257000D01*
X162499000Y-44257000D02*
X162499000Y-50257000D01*
X161739000Y-53314071D02*
X161739000Y-52917000D01*
X162499000Y-53314071D02*
X162499000Y-52917000D01*
X161739000Y-55854071D02*
X161739000Y-55399929D01*
X162499000Y-55854071D02*
X162499000Y-55399929D01*
X163389000Y-52917000D02*
X163389000Y-50257000D01*
X164279000Y-50257000D02*
X164279000Y-44257000D01*
X164279000Y-44257000D02*
X165039000Y-44257000D01*
X165039000Y-44257000D02*
X165039000Y-50257000D01*
X164279000Y-53314071D02*
X164279000Y-52917000D01*
X165039000Y-53314071D02*
X165039000Y-52917000D01*
X164279000Y-55854071D02*
X164279000Y-55399929D01*
X165039000Y-55854071D02*
X165039000Y-55399929D01*
X165929000Y-52917000D02*
X165929000Y-50257000D01*
X166819000Y-50257000D02*
X166819000Y-44257000D01*
X166819000Y-44257000D02*
X167579000Y-44257000D01*
X167579000Y-44257000D02*
X167579000Y-50257000D01*
X166819000Y-53314071D02*
X166819000Y-52917000D01*
X167579000Y-53314071D02*
X167579000Y-52917000D01*
X166819000Y-55854071D02*
X166819000Y-55399929D01*
X167579000Y-55854071D02*
X167579000Y-55399929D01*
X168469000Y-52917000D02*
X168469000Y-50257000D01*
X169359000Y-50257000D02*
X169359000Y-44257000D01*
X169359000Y-44257000D02*
X170119000Y-44257000D01*
X170119000Y-44257000D02*
X170119000Y-50257000D01*
X169359000Y-53314071D02*
X169359000Y-52917000D01*
X170119000Y-53314071D02*
X170119000Y-52917000D01*
X169359000Y-55854071D02*
X169359000Y-55399929D01*
X170119000Y-55854071D02*
X170119000Y-55399929D01*
X171009000Y-52917000D02*
X171009000Y-50257000D01*
X171899000Y-50257000D02*
X171899000Y-44257000D01*
X171899000Y-44257000D02*
X172659000Y-44257000D01*
X172659000Y-44257000D02*
X172659000Y-50257000D01*
X171899000Y-53314071D02*
X171899000Y-52917000D01*
X172659000Y-53314071D02*
X172659000Y-52917000D01*
X171899000Y-55854071D02*
X171899000Y-55399929D01*
X172659000Y-55854071D02*
X172659000Y-55399929D01*
X124019000Y-58167000D02*
X122749000Y-58167000D01*
X122749000Y-58167000D02*
X122749000Y-56897000D01*
G04 #@! TO.C,J3*
X186452000Y-64898000D02*
X192802000Y-64898000D01*
X183282000Y-64898000D02*
X185182000Y-64898000D01*
X175662000Y-64898000D02*
X182012000Y-64898000D01*
X186452000Y-108078000D02*
X192802000Y-108078000D01*
X183282000Y-108078000D02*
X185182000Y-108078000D01*
X175662000Y-108078000D02*
X182012000Y-108078000D01*
X168772000Y-108968000D02*
X186912000Y-108968000D01*
X186912000Y-108968000D02*
X186912000Y-107038000D01*
X186912000Y-107038000D02*
X167762000Y-107038000D01*
X167762000Y-107038000D02*
X167762000Y-65938000D01*
X167762000Y-65938000D02*
X186912000Y-65938000D01*
X186912000Y-65938000D02*
X186912000Y-64008000D01*
X186912000Y-64008000D02*
X168772000Y-64008000D01*
X163082000Y-108968000D02*
X160722000Y-108968000D01*
X160722000Y-108968000D02*
X160722000Y-103908000D01*
X160722000Y-103908000D02*
X158842000Y-103908000D01*
X158842000Y-103908000D02*
X158842000Y-102898000D01*
X158842000Y-102898000D02*
X164452000Y-102898000D01*
X164452000Y-102898000D02*
X164452000Y-70078000D01*
X164452000Y-70078000D02*
X158842000Y-70078000D01*
X158842000Y-70078000D02*
X158842000Y-69068000D01*
X158842000Y-69068000D02*
X160722000Y-69068000D01*
X160722000Y-69068000D02*
X160722000Y-64008000D01*
X160722000Y-64008000D02*
X163082000Y-64008000D01*
G04 #@! TO.C,J2*
D11*
X129126666Y-65852380D02*
X129126666Y-66566666D01*
X129079047Y-66709523D01*
X128983809Y-66804761D01*
X128840952Y-66852380D01*
X128745714Y-66852380D01*
X129555238Y-65947619D02*
X129602857Y-65900000D01*
X129698095Y-65852380D01*
X129936190Y-65852380D01*
X130031428Y-65900000D01*
X130079047Y-65947619D01*
X130126666Y-66042857D01*
X130126666Y-66138095D01*
X130079047Y-66280952D01*
X129507619Y-66852380D01*
X130126666Y-66852380D01*
G04 #@! TO.C,D1*
X144021904Y-107362380D02*
X144021904Y-106362380D01*
X144260000Y-106362380D01*
X144402857Y-106410000D01*
X144498095Y-106505238D01*
X144545714Y-106600476D01*
X144593333Y-106790952D01*
X144593333Y-106933809D01*
X144545714Y-107124285D01*
X144498095Y-107219523D01*
X144402857Y-107314761D01*
X144260000Y-107362380D01*
X144021904Y-107362380D01*
X145545714Y-107362380D02*
X144974285Y-107362380D01*
X145260000Y-107362380D02*
X145260000Y-106362380D01*
X145164761Y-106505238D01*
X145069523Y-106600476D01*
X144974285Y-106648095D01*
G04 #@! TO.C,C1*
X123217333Y-65953642D02*
X123169714Y-66001261D01*
X123026857Y-66048880D01*
X122931619Y-66048880D01*
X122788761Y-66001261D01*
X122693523Y-65906023D01*
X122645904Y-65810785D01*
X122598285Y-65620309D01*
X122598285Y-65477452D01*
X122645904Y-65286976D01*
X122693523Y-65191738D01*
X122788761Y-65096500D01*
X122931619Y-65048880D01*
X123026857Y-65048880D01*
X123169714Y-65096500D01*
X123217333Y-65144119D01*
X124169714Y-66048880D02*
X123598285Y-66048880D01*
X123884000Y-66048880D02*
X123884000Y-65048880D01*
X123788761Y-65191738D01*
X123693523Y-65286976D01*
X123598285Y-65334595D01*
G04 #@! TO.C,C2*
X123407833Y-92052142D02*
X123360214Y-92099761D01*
X123217357Y-92147380D01*
X123122119Y-92147380D01*
X122979261Y-92099761D01*
X122884023Y-92004523D01*
X122836404Y-91909285D01*
X122788785Y-91718809D01*
X122788785Y-91575952D01*
X122836404Y-91385476D01*
X122884023Y-91290238D01*
X122979261Y-91195000D01*
X123122119Y-91147380D01*
X123217357Y-91147380D01*
X123360214Y-91195000D01*
X123407833Y-91242619D01*
X123788785Y-91242619D02*
X123836404Y-91195000D01*
X123931642Y-91147380D01*
X124169738Y-91147380D01*
X124264976Y-91195000D01*
X124312595Y-91242619D01*
X124360214Y-91337857D01*
X124360214Y-91433095D01*
X124312595Y-91575952D01*
X123741166Y-92147380D01*
X124360214Y-92147380D01*
G04 #@! TO.C,C3*
X109628333Y-57762142D02*
X109580714Y-57809761D01*
X109437857Y-57857380D01*
X109342619Y-57857380D01*
X109199761Y-57809761D01*
X109104523Y-57714523D01*
X109056904Y-57619285D01*
X109009285Y-57428809D01*
X109009285Y-57285952D01*
X109056904Y-57095476D01*
X109104523Y-57000238D01*
X109199761Y-56905000D01*
X109342619Y-56857380D01*
X109437857Y-56857380D01*
X109580714Y-56905000D01*
X109628333Y-56952619D01*
X109961666Y-56857380D02*
X110580714Y-56857380D01*
X110247380Y-57238333D01*
X110390238Y-57238333D01*
X110485476Y-57285952D01*
X110533095Y-57333571D01*
X110580714Y-57428809D01*
X110580714Y-57666904D01*
X110533095Y-57762142D01*
X110485476Y-57809761D01*
X110390238Y-57857380D01*
X110104523Y-57857380D01*
X110009285Y-57809761D01*
X109961666Y-57762142D01*
G04 #@! TO.C,R1*
X138203333Y-100402380D02*
X137870000Y-99926190D01*
X137631904Y-100402380D02*
X137631904Y-99402380D01*
X138012857Y-99402380D01*
X138108095Y-99450000D01*
X138155714Y-99497619D01*
X138203333Y-99592857D01*
X138203333Y-99735714D01*
X138155714Y-99830952D01*
X138108095Y-99878571D01*
X138012857Y-99926190D01*
X137631904Y-99926190D01*
X139155714Y-100402380D02*
X138584285Y-100402380D01*
X138870000Y-100402380D02*
X138870000Y-99402380D01*
X138774761Y-99545238D01*
X138679523Y-99640476D01*
X138584285Y-99688095D01*
G04 #@! TO.C,R2*
X138203333Y-102942380D02*
X137870000Y-102466190D01*
X137631904Y-102942380D02*
X137631904Y-101942380D01*
X138012857Y-101942380D01*
X138108095Y-101990000D01*
X138155714Y-102037619D01*
X138203333Y-102132857D01*
X138203333Y-102275714D01*
X138155714Y-102370952D01*
X138108095Y-102418571D01*
X138012857Y-102466190D01*
X137631904Y-102466190D01*
X138584285Y-102037619D02*
X138631904Y-101990000D01*
X138727142Y-101942380D01*
X138965238Y-101942380D01*
X139060476Y-101990000D01*
X139108095Y-102037619D01*
X139155714Y-102132857D01*
X139155714Y-102228095D01*
X139108095Y-102370952D01*
X138536666Y-102942380D01*
X139155714Y-102942380D01*
G04 #@! TO.C,R3*
X138203333Y-105482380D02*
X137870000Y-105006190D01*
X137631904Y-105482380D02*
X137631904Y-104482380D01*
X138012857Y-104482380D01*
X138108095Y-104530000D01*
X138155714Y-104577619D01*
X138203333Y-104672857D01*
X138203333Y-104815714D01*
X138155714Y-104910952D01*
X138108095Y-104958571D01*
X138012857Y-105006190D01*
X137631904Y-105006190D01*
X138536666Y-104482380D02*
X139155714Y-104482380D01*
X138822380Y-104863333D01*
X138965238Y-104863333D01*
X139060476Y-104910952D01*
X139108095Y-104958571D01*
X139155714Y-105053809D01*
X139155714Y-105291904D01*
X139108095Y-105387142D01*
X139060476Y-105434761D01*
X138965238Y-105482380D01*
X138679523Y-105482380D01*
X138584285Y-105434761D01*
X138536666Y-105387142D01*
G04 #@! TO.C,R4*
X138203333Y-108022380D02*
X137870000Y-107546190D01*
X137631904Y-108022380D02*
X137631904Y-107022380D01*
X138012857Y-107022380D01*
X138108095Y-107070000D01*
X138155714Y-107117619D01*
X138203333Y-107212857D01*
X138203333Y-107355714D01*
X138155714Y-107450952D01*
X138108095Y-107498571D01*
X138012857Y-107546190D01*
X137631904Y-107546190D01*
X139060476Y-107355714D02*
X139060476Y-108022380D01*
X138822380Y-106974761D02*
X138584285Y-107689047D01*
X139203333Y-107689047D01*
G04 #@! TO.C,R5*
X138203333Y-110382380D02*
X137870000Y-109906190D01*
X137631904Y-110382380D02*
X137631904Y-109382380D01*
X138012857Y-109382380D01*
X138108095Y-109430000D01*
X138155714Y-109477619D01*
X138203333Y-109572857D01*
X138203333Y-109715714D01*
X138155714Y-109810952D01*
X138108095Y-109858571D01*
X138012857Y-109906190D01*
X137631904Y-109906190D01*
X139108095Y-109382380D02*
X138631904Y-109382380D01*
X138584285Y-109858571D01*
X138631904Y-109810952D01*
X138727142Y-109763333D01*
X138965238Y-109763333D01*
X139060476Y-109810952D01*
X139108095Y-109858571D01*
X139155714Y-109953809D01*
X139155714Y-110191904D01*
X139108095Y-110287142D01*
X139060476Y-110334761D01*
X138965238Y-110382380D01*
X138727142Y-110382380D01*
X138631904Y-110334761D01*
X138584285Y-110287142D01*
G04 #@! TO.C,U1*
X111890595Y-65747380D02*
X111890595Y-66556904D01*
X111938214Y-66652142D01*
X111985833Y-66699761D01*
X112081071Y-66747380D01*
X112271547Y-66747380D01*
X112366785Y-66699761D01*
X112414404Y-66652142D01*
X112462023Y-66556904D01*
X112462023Y-65747380D01*
X113462023Y-66747380D02*
X112890595Y-66747380D01*
X113176309Y-66747380D02*
X113176309Y-65747380D01*
X113081071Y-65890238D01*
X112985833Y-65985476D01*
X112890595Y-66033095D01*
G04 #@! TO.C,U2*
X111827095Y-91718880D02*
X111827095Y-92528404D01*
X111874714Y-92623642D01*
X111922333Y-92671261D01*
X112017571Y-92718880D01*
X112208047Y-92718880D01*
X112303285Y-92671261D01*
X112350904Y-92623642D01*
X112398523Y-92528404D01*
X112398523Y-91718880D01*
X112827095Y-91814119D02*
X112874714Y-91766500D01*
X112969952Y-91718880D01*
X113208047Y-91718880D01*
X113303285Y-91766500D01*
X113350904Y-91814119D01*
X113398523Y-91909357D01*
X113398523Y-92004595D01*
X113350904Y-92147452D01*
X112779476Y-92718880D01*
X113398523Y-92718880D01*
G04 #@! TO.C,J1*
X120562380Y-51743333D02*
X121276666Y-51743333D01*
X121419523Y-51790952D01*
X121514761Y-51886190D01*
X121562380Y-52029047D01*
X121562380Y-52124285D01*
X121562380Y-50743333D02*
X121562380Y-51314761D01*
X121562380Y-51029047D02*
X120562380Y-51029047D01*
X120705238Y-51124285D01*
X120800476Y-51219523D01*
X120848095Y-51314761D01*
G04 #@! TO.C,J3*
X169572380Y-84408333D02*
X170286666Y-84408333D01*
X170429523Y-84455952D01*
X170524761Y-84551190D01*
X170572380Y-84694047D01*
X170572380Y-84789285D01*
X169572380Y-84027380D02*
X169572380Y-83408333D01*
X169953333Y-83741666D01*
X169953333Y-83598809D01*
X170000952Y-83503571D01*
X170048571Y-83455952D01*
X170143809Y-83408333D01*
X170381904Y-83408333D01*
X170477142Y-83455952D01*
X170524761Y-83503571D01*
X170572380Y-83598809D01*
X170572380Y-83884523D01*
X170524761Y-83979761D01*
X170477142Y-84027380D01*
G04 #@! TD*
M02*
