G04 #@! TF.GenerationSoftware,KiCad,Pcbnew,(5.0.0-3-g5ebb6b6)*
G04 #@! TF.CreationDate,2018-12-24T17:10:46+09:00*
G04 #@! TF.ProjectId,SBC80-CF,53424338302D43462E6B696361645F70,rev?*
G04 #@! TF.SameCoordinates,Original*
G04 #@! TF.FileFunction,Copper,L1,Top,Signal*
G04 #@! TF.FilePolarity,Positive*
%FSLAX46Y46*%
G04 Gerber Fmt 4.6, Leading zero omitted, Abs format (unit mm)*
G04 Created by KiCad (PCBNEW (5.0.0-3-g5ebb6b6)) date 2018 December 24, Monday 17:10:46*
%MOMM*%
%LPD*%
G01*
G04 APERTURE LIST*
G04 #@! TA.AperFunction,ComponentPad*
%ADD10R,1.700000X1.700000*%
G04 #@! TD*
G04 #@! TA.AperFunction,ComponentPad*
%ADD11O,1.700000X1.700000*%
G04 #@! TD*
G04 #@! TA.AperFunction,ComponentPad*
%ADD12R,1.800000X1.800000*%
G04 #@! TD*
G04 #@! TA.AperFunction,ComponentPad*
%ADD13C,1.800000*%
G04 #@! TD*
G04 #@! TA.AperFunction,ComponentPad*
%ADD14C,1.600000*%
G04 #@! TD*
G04 #@! TA.AperFunction,ComponentPad*
%ADD15R,1.600000X1.600000*%
G04 #@! TD*
G04 #@! TA.AperFunction,ComponentPad*
%ADD16C,1.400000*%
G04 #@! TD*
G04 #@! TA.AperFunction,ComponentPad*
%ADD17O,1.400000X1.400000*%
G04 #@! TD*
G04 #@! TA.AperFunction,ComponentPad*
%ADD18O,1.600000X1.600000*%
G04 #@! TD*
G04 #@! TA.AperFunction,ComponentPad*
%ADD19C,0.700000*%
G04 #@! TD*
G04 #@! TA.AperFunction,SMDPad,CuDef*
%ADD20R,4.000000X3.000000*%
G04 #@! TD*
G04 #@! TA.AperFunction,SMDPad,CuDef*
%ADD21R,3.510000X0.410000*%
G04 #@! TD*
G04 #@! TA.AperFunction,ComponentPad*
%ADD22C,3.990000*%
G04 #@! TD*
G04 #@! TA.AperFunction,ComponentPad*
%ADD23C,1.700000*%
G04 #@! TD*
G04 #@! TA.AperFunction,SMDPad,CuDef*
%ADD24R,4.570000X2.490000*%
G04 #@! TD*
G04 #@! TA.AperFunction,ViaPad*
%ADD25C,0.800000*%
G04 #@! TD*
G04 #@! TA.AperFunction,Conductor*
%ADD26C,0.250000*%
G04 #@! TD*
G04 #@! TA.AperFunction,Conductor*
%ADD27C,0.600000*%
G04 #@! TD*
G04 #@! TA.AperFunction,Conductor*
%ADD28C,0.254000*%
G04 #@! TD*
G04 APERTURE END LIST*
D10*
G04 #@! TO.P,J2,1*
G04 #@! TO.N,Net-(J2-Pad1)*
X128190000Y-68730000D03*
D11*
G04 #@! TO.P,J2,2*
G04 #@! TO.N,/~CS0*
X130730000Y-68730000D03*
G04 #@! TO.P,J2,3*
G04 #@! TO.N,Net-(J2-Pad3)*
X128190000Y-71270000D03*
G04 #@! TO.P,J2,4*
G04 #@! TO.N,/~CS0*
X130730000Y-71270000D03*
G04 #@! TO.P,J2,5*
G04 #@! TO.N,Net-(J2-Pad5)*
X128190000Y-73810000D03*
G04 #@! TO.P,J2,6*
G04 #@! TO.N,/~CS0*
X130730000Y-73810000D03*
G04 #@! TO.P,J2,7*
G04 #@! TO.N,Net-(J2-Pad7)*
X128190000Y-76350000D03*
G04 #@! TO.P,J2,8*
G04 #@! TO.N,/~CS0*
X130730000Y-76350000D03*
G04 #@! TO.P,J2,9*
G04 #@! TO.N,Net-(J2-Pad9)*
X128190000Y-78890000D03*
G04 #@! TO.P,J2,10*
G04 #@! TO.N,/~CS0*
X130730000Y-78890000D03*
G04 #@! TO.P,J2,11*
G04 #@! TO.N,Net-(J2-Pad11)*
X128190000Y-81430000D03*
G04 #@! TO.P,J2,12*
G04 #@! TO.N,/~CS0*
X130730000Y-81430000D03*
G04 #@! TO.P,J2,13*
G04 #@! TO.N,Net-(J2-Pad13)*
X128190000Y-83970000D03*
G04 #@! TO.P,J2,14*
G04 #@! TO.N,/~CS0*
X130730000Y-83970000D03*
G04 #@! TO.P,J2,15*
G04 #@! TO.N,Net-(J2-Pad15)*
X128190000Y-86510000D03*
G04 #@! TO.P,J2,16*
G04 #@! TO.N,/~CS0*
X130730000Y-86510000D03*
G04 #@! TD*
D12*
G04 #@! TO.P,D1,1*
G04 #@! TO.N,/~DASP*
X145990000Y-110110000D03*
D13*
G04 #@! TO.P,D1,2*
G04 #@! TO.N,Net-(D1-Pad2)*
X143450000Y-110110000D03*
G04 #@! TD*
D14*
G04 #@! TO.P,C1,1*
G04 #@! TO.N,VCC*
X121190000Y-65730000D03*
G04 #@! TO.P,C1,2*
G04 #@! TO.N,GND*
X116190000Y-65730000D03*
G04 #@! TD*
G04 #@! TO.P,C2,2*
G04 #@! TO.N,GND*
X116190000Y-91730000D03*
G04 #@! TO.P,C2,1*
G04 #@! TO.N,VCC*
X121190000Y-91730000D03*
G04 #@! TD*
D15*
G04 #@! TO.P,C3,1*
G04 #@! TO.N,VCC*
X114000000Y-57000000D03*
D14*
G04 #@! TO.P,C3,2*
G04 #@! TO.N,GND*
X114000000Y-54500000D03*
G04 #@! TD*
D16*
G04 #@! TO.P,R1,1*
G04 #@! TO.N,VCC*
X128210000Y-99950000D03*
D17*
G04 #@! TO.P,R1,2*
G04 #@! TO.N,/~CS1*
X135830000Y-99950000D03*
G04 #@! TD*
G04 #@! TO.P,R2,2*
G04 #@! TO.N,/~WE*
X135830000Y-102490000D03*
D16*
G04 #@! TO.P,R2,1*
G04 #@! TO.N,VCC*
X128210000Y-102490000D03*
G04 #@! TD*
G04 #@! TO.P,R3,1*
G04 #@! TO.N,VCC*
X128210000Y-105030000D03*
D17*
G04 #@! TO.P,R3,2*
G04 #@! TO.N,/~DMACK*
X135830000Y-105030000D03*
G04 #@! TD*
G04 #@! TO.P,R4,2*
G04 #@! TO.N,/~PDIAG*
X135830000Y-107570000D03*
D16*
G04 #@! TO.P,R4,1*
G04 #@! TO.N,VCC*
X128210000Y-107570000D03*
G04 #@! TD*
G04 #@! TO.P,R5,1*
G04 #@! TO.N,VCC*
X128210000Y-110110000D03*
D17*
G04 #@! TO.P,R5,2*
G04 #@! TO.N,Net-(D1-Pad2)*
X135830000Y-110110000D03*
G04 #@! TD*
D15*
G04 #@! TO.P,U1,1*
G04 #@! TO.N,/A5*
X113190000Y-68730000D03*
D18*
G04 #@! TO.P,U1,9*
G04 #@! TO.N,Net-(J2-Pad13)*
X120810000Y-86510000D03*
G04 #@! TO.P,U1,2*
G04 #@! TO.N,/A6*
X113190000Y-71270000D03*
G04 #@! TO.P,U1,10*
G04 #@! TO.N,Net-(J2-Pad11)*
X120810000Y-83970000D03*
G04 #@! TO.P,U1,3*
G04 #@! TO.N,/A7*
X113190000Y-73810000D03*
G04 #@! TO.P,U1,11*
G04 #@! TO.N,Net-(J2-Pad9)*
X120810000Y-81430000D03*
G04 #@! TO.P,U1,4*
G04 #@! TO.N,GND*
X113190000Y-76350000D03*
G04 #@! TO.P,U1,12*
G04 #@! TO.N,Net-(J2-Pad7)*
X120810000Y-78890000D03*
G04 #@! TO.P,U1,5*
G04 #@! TO.N,GND*
X113190000Y-78890000D03*
G04 #@! TO.P,U1,13*
G04 #@! TO.N,Net-(J2-Pad5)*
X120810000Y-76350000D03*
G04 #@! TO.P,U1,6*
G04 #@! TO.N,VCC*
X113190000Y-81430000D03*
G04 #@! TO.P,U1,14*
G04 #@! TO.N,Net-(J2-Pad3)*
X120810000Y-73810000D03*
G04 #@! TO.P,U1,7*
G04 #@! TO.N,Net-(J2-Pad15)*
X113190000Y-83970000D03*
G04 #@! TO.P,U1,15*
G04 #@! TO.N,Net-(J2-Pad1)*
X120810000Y-71270000D03*
G04 #@! TO.P,U1,8*
G04 #@! TO.N,GND*
X113190000Y-86510000D03*
G04 #@! TO.P,U1,16*
G04 #@! TO.N,VCC*
X120810000Y-68730000D03*
G04 #@! TD*
D15*
G04 #@! TO.P,U2,1*
G04 #@! TO.N,/RES*
X113190000Y-94730000D03*
D18*
G04 #@! TO.P,U2,8*
G04 #@! TO.N,N/C*
X120810000Y-109970000D03*
G04 #@! TO.P,U2,2*
G04 #@! TO.N,~RESET*
X113190000Y-97270000D03*
G04 #@! TO.P,U2,9*
G04 #@! TO.N,GND*
X120810000Y-107430000D03*
G04 #@! TO.P,U2,3*
X113190000Y-99810000D03*
G04 #@! TO.P,U2,10*
G04 #@! TO.N,N/C*
X120810000Y-104890000D03*
G04 #@! TO.P,U2,4*
X113190000Y-102350000D03*
G04 #@! TO.P,U2,11*
G04 #@! TO.N,GND*
X120810000Y-102350000D03*
G04 #@! TO.P,U2,5*
X113190000Y-104890000D03*
G04 #@! TO.P,U2,12*
G04 #@! TO.N,N/C*
X120810000Y-99810000D03*
G04 #@! TO.P,U2,6*
X113190000Y-107430000D03*
G04 #@! TO.P,U2,13*
G04 #@! TO.N,GND*
X120810000Y-97270000D03*
G04 #@! TO.P,U2,7*
X113190000Y-109970000D03*
G04 #@! TO.P,U2,14*
G04 #@! TO.N,VCC*
X120810000Y-94730000D03*
G04 #@! TD*
D10*
G04 #@! TO.P,J1,1*
G04 #@! TO.N,VCC*
X124019000Y-56897000D03*
D11*
G04 #@! TO.P,J1,2*
G04 #@! TO.N,GND*
X124019000Y-54357000D03*
G04 #@! TO.P,J1,3*
G04 #@! TO.N,VCC*
X126559000Y-56897000D03*
G04 #@! TO.P,J1,4*
G04 #@! TO.N,GND*
X126559000Y-54357000D03*
G04 #@! TO.P,J1,5*
G04 #@! TO.N,N/C*
X129099000Y-56897000D03*
G04 #@! TO.P,J1,6*
X129099000Y-54357000D03*
G04 #@! TO.P,J1,7*
X131639000Y-56897000D03*
G04 #@! TO.P,J1,8*
X131639000Y-54357000D03*
G04 #@! TO.P,J1,9*
G04 #@! TO.N,/D0*
X134179000Y-56897000D03*
G04 #@! TO.P,J1,10*
G04 #@! TO.N,/D1*
X134179000Y-54357000D03*
G04 #@! TO.P,J1,11*
G04 #@! TO.N,/D2*
X136719000Y-56897000D03*
G04 #@! TO.P,J1,12*
G04 #@! TO.N,/D3*
X136719000Y-54357000D03*
G04 #@! TO.P,J1,13*
G04 #@! TO.N,/D4*
X139259000Y-56897000D03*
G04 #@! TO.P,J1,14*
G04 #@! TO.N,/D5*
X139259000Y-54357000D03*
G04 #@! TO.P,J1,15*
G04 #@! TO.N,/D6*
X141799000Y-56897000D03*
G04 #@! TO.P,J1,16*
G04 #@! TO.N,/D7*
X141799000Y-54357000D03*
G04 #@! TO.P,J1,17*
G04 #@! TO.N,~IORD*
X144339000Y-56897000D03*
G04 #@! TO.P,J1,18*
G04 #@! TO.N,N/C*
X144339000Y-54357000D03*
G04 #@! TO.P,J1,19*
G04 #@! TO.N,~IOWR*
X146879000Y-56897000D03*
G04 #@! TO.P,J1,20*
G04 #@! TO.N,N/C*
X146879000Y-54357000D03*
G04 #@! TO.P,J1,21*
G04 #@! TO.N,/RES*
X149419000Y-56897000D03*
G04 #@! TO.P,J1,22*
G04 #@! TO.N,N/C*
X149419000Y-54357000D03*
G04 #@! TO.P,J1,23*
X151959000Y-56897000D03*
G04 #@! TO.P,J1,24*
X151959000Y-54357000D03*
G04 #@! TO.P,J1,25*
G04 #@! TO.N,/A0*
X154499000Y-56897000D03*
G04 #@! TO.P,J1,26*
G04 #@! TO.N,/A1*
X154499000Y-54357000D03*
G04 #@! TO.P,J1,27*
G04 #@! TO.N,/A2*
X157039000Y-56897000D03*
G04 #@! TO.P,J1,28*
G04 #@! TO.N,N/C*
X157039000Y-54357000D03*
G04 #@! TO.P,J1,29*
X159579000Y-56897000D03*
G04 #@! TO.P,J1,30*
G04 #@! TO.N,/A5*
X159579000Y-54357000D03*
G04 #@! TO.P,J1,31*
G04 #@! TO.N,/A6*
X162119000Y-56897000D03*
G04 #@! TO.P,J1,32*
G04 #@! TO.N,/A7*
X162119000Y-54357000D03*
G04 #@! TO.P,J1,33*
G04 #@! TO.N,N/C*
X164659000Y-56897000D03*
G04 #@! TO.P,J1,34*
X164659000Y-54357000D03*
G04 #@! TO.P,J1,35*
X167199000Y-56897000D03*
G04 #@! TO.P,J1,36*
X167199000Y-54357000D03*
G04 #@! TO.P,J1,37*
X169739000Y-56897000D03*
G04 #@! TO.P,J1,38*
X169739000Y-54357000D03*
G04 #@! TO.P,J1,39*
X172279000Y-56897000D03*
G04 #@! TO.P,J1,40*
X172279000Y-54357000D03*
G04 #@! TD*
D19*
G04 #@! TO.P,J3,*
G04 #@! TO.N,*
X184762000Y-109488000D03*
X184762000Y-63488000D03*
D20*
X181262000Y-109488000D03*
X181262000Y-63088000D03*
D21*
G04 #@! TO.P,J3,50*
G04 #@! TO.N,GND*
X160262000Y-70928000D03*
G04 #@! TO.P,J3,25*
G04 #@! TO.N,/~CD2*
X160262000Y-71568000D03*
G04 #@! TO.P,J3,49*
G04 #@! TO.N,/D10*
X160262000Y-72198000D03*
G04 #@! TO.P,J3,24*
G04 #@! TO.N,/~IOCS16*
X160262000Y-72838000D03*
G04 #@! TO.P,J3,48*
G04 #@! TO.N,/D9*
X160262000Y-73468000D03*
G04 #@! TO.P,J3,23*
G04 #@! TO.N,/D2*
X160262000Y-74108000D03*
G04 #@! TO.P,J3,47*
G04 #@! TO.N,/D8*
X160262000Y-74738000D03*
G04 #@! TO.P,J3,22*
G04 #@! TO.N,/D1*
X160262000Y-75378000D03*
G04 #@! TO.P,J3,46*
G04 #@! TO.N,/~PDIAG*
X160262000Y-76008000D03*
G04 #@! TO.P,J3,21*
G04 #@! TO.N,/D0*
X160262000Y-76648000D03*
G04 #@! TO.P,J3,45*
G04 #@! TO.N,/~DASP*
X160262000Y-77278000D03*
G04 #@! TO.P,J3,20*
G04 #@! TO.N,/A0*
X160262000Y-77918000D03*
G04 #@! TO.P,J3,44*
G04 #@! TO.N,/~DMACK*
X160262000Y-78548000D03*
G04 #@! TO.P,J3,19*
G04 #@! TO.N,/A1*
X160262000Y-79188000D03*
G04 #@! TO.P,J3,43*
G04 #@! TO.N,/DMREQ*
X160262000Y-79818000D03*
G04 #@! TO.P,J3,18*
G04 #@! TO.N,/A2*
X160262000Y-80458000D03*
G04 #@! TO.P,J3,42*
G04 #@! TO.N,/IORDY*
X160262000Y-81088000D03*
G04 #@! TO.P,J3,17*
G04 #@! TO.N,GND*
X160262000Y-81728000D03*
G04 #@! TO.P,J3,41*
G04 #@! TO.N,~RESET*
X160262000Y-82358000D03*
G04 #@! TO.P,J3,16*
G04 #@! TO.N,GND*
X160262000Y-82998000D03*
G04 #@! TO.P,J3,40*
G04 #@! TO.N,/VS2*
X160262000Y-83628000D03*
G04 #@! TO.P,J3,15*
G04 #@! TO.N,GND*
X160262000Y-84268000D03*
G04 #@! TO.P,J3,39*
X160262000Y-84898000D03*
G04 #@! TO.P,J3,14*
X160262000Y-85538000D03*
G04 #@! TO.P,J3,38*
G04 #@! TO.N,VCC*
X160262000Y-86168000D03*
G04 #@! TO.P,J3,13*
X160262000Y-86808000D03*
G04 #@! TO.P,J3,37*
G04 #@! TO.N,/INTRQ*
X160262000Y-87438000D03*
G04 #@! TO.P,J3,12*
G04 #@! TO.N,GND*
X160262000Y-88078000D03*
G04 #@! TO.P,J3,36*
G04 #@! TO.N,/~WE*
X160262000Y-88708000D03*
G04 #@! TO.P,J3,11*
G04 #@! TO.N,GND*
X160262000Y-89348000D03*
G04 #@! TO.P,J3,35*
G04 #@! TO.N,~IOWR*
X160262000Y-89978000D03*
G04 #@! TO.P,J3,10*
G04 #@! TO.N,GND*
X160262000Y-90618000D03*
G04 #@! TO.P,J3,34*
G04 #@! TO.N,~IORD*
X160262000Y-91248000D03*
G04 #@! TO.P,J3,9*
G04 #@! TO.N,GND*
X160262000Y-91888000D03*
G04 #@! TO.P,J3,33*
G04 #@! TO.N,/VS1*
X160262000Y-92518000D03*
G04 #@! TO.P,J3,8*
G04 #@! TO.N,GND*
X160262000Y-93158000D03*
G04 #@! TO.P,J3,32*
G04 #@! TO.N,/~CS1*
X160262000Y-93788000D03*
G04 #@! TO.P,J3,7*
G04 #@! TO.N,/~CS0*
X160262000Y-94428000D03*
G04 #@! TO.P,J3,31*
G04 #@! TO.N,/D15*
X160262000Y-95058000D03*
G04 #@! TO.P,J3,6*
G04 #@! TO.N,/D7*
X160262000Y-95698000D03*
G04 #@! TO.P,J3,30*
G04 #@! TO.N,/D14*
X160262000Y-96328000D03*
G04 #@! TO.P,J3,5*
G04 #@! TO.N,/D6*
X160262000Y-96968000D03*
G04 #@! TO.P,J3,29*
G04 #@! TO.N,/D13*
X160262000Y-97598000D03*
G04 #@! TO.P,J3,4*
G04 #@! TO.N,/D5*
X160262000Y-98238000D03*
G04 #@! TO.P,J3,28*
G04 #@! TO.N,/D12*
X160262000Y-98868000D03*
G04 #@! TO.P,J3,3*
G04 #@! TO.N,/D4*
X160262000Y-99508000D03*
G04 #@! TO.P,J3,27*
G04 #@! TO.N,/D11*
X160262000Y-100138000D03*
G04 #@! TO.P,J3,2*
G04 #@! TO.N,/D3*
X160262000Y-100778000D03*
G04 #@! TO.P,J3,26*
G04 #@! TO.N,/~CD1*
X160262000Y-101408000D03*
G04 #@! TO.P,J3,1*
G04 #@! TO.N,GND*
X160262000Y-102048000D03*
D22*
G04 #@! TO.P,J3,*
G04 #@! TO.N,*
X163262000Y-105858000D03*
X163262000Y-67118000D03*
D23*
X166262000Y-105858000D03*
D13*
X166262000Y-67118000D03*
D24*
X165932000Y-63148000D03*
X165932000Y-109828000D03*
G04 #@! TD*
D25*
G04 #@! TO.N,GND*
X135664000Y-55685700D03*
X135195000Y-75185000D03*
X135195000Y-87885000D03*
X136465000Y-95505000D03*
X159325000Y-63120000D03*
X163135000Y-59945000D03*
X165040000Y-73280000D03*
G04 #@! TO.N,/~DASP*
X157888800Y-77666300D03*
G04 #@! TO.N,/D3*
X142913600Y-97937000D03*
G04 #@! TO.N,/D4*
X143689300Y-97138700D03*
G04 #@! TO.N,/D5*
X144464700Y-96340300D03*
G04 #@! TO.N,/D6*
X145734800Y-95119800D03*
G04 #@! TO.N,/D7*
X146796100Y-94045700D03*
G04 #@! TO.N,~IOWR*
X148569400Y-89978000D03*
G04 #@! TO.N,/~DMACK*
X156802800Y-79218400D03*
G04 #@! TO.N,/~PDIAG*
X157531200Y-76059200D03*
G04 #@! TD*
D26*
G04 #@! TO.N,VCC*
X158181700Y-86808000D02*
X160262000Y-86808000D01*
X128210000Y-99950000D02*
X141352000Y-86808000D01*
X141352000Y-86808000D02*
X158181700Y-86808000D01*
X158181700Y-86808000D02*
X158181700Y-86168000D01*
X160262000Y-86168000D02*
X158181700Y-86168000D01*
D27*
X128210000Y-105030000D02*
X128210000Y-102490000D01*
D26*
G04 #@! TO.N,GND*
X160262000Y-91888000D02*
X162342300Y-91888000D01*
X162342300Y-93158000D02*
X162342300Y-91888000D01*
X162342300Y-102048000D02*
X162342300Y-93158000D01*
X162342300Y-93158000D02*
X162229700Y-93158000D01*
X122881700Y-106059700D02*
X122881700Y-105338900D01*
X122881700Y-105338900D02*
X121018100Y-103475300D01*
X121018100Y-103475300D02*
X120810000Y-103475300D01*
X121935300Y-107430000D02*
X122881700Y-106483600D01*
X122881700Y-106483600D02*
X122881700Y-106059700D01*
X158181700Y-102048000D02*
X154170000Y-106059700D01*
X154170000Y-106059700D02*
X122881700Y-106059700D01*
X160262000Y-102048000D02*
X158181700Y-102048000D01*
X160714500Y-102048000D02*
X160262000Y-102048000D01*
X160714500Y-102048000D02*
X162342300Y-102048000D01*
X162229700Y-81728000D02*
X162342300Y-81840600D01*
X162342300Y-81840600D02*
X162342300Y-82998000D01*
X160262000Y-90618000D02*
X158181700Y-90618000D01*
X160262000Y-91888000D02*
X158181700Y-91888000D01*
X158181700Y-91888000D02*
X158181700Y-90618000D01*
X158181700Y-70928000D02*
X154085100Y-70928000D01*
X154085100Y-70928000D02*
X140529000Y-57371900D01*
X140529000Y-57371900D02*
X140529000Y-56466000D01*
X140529000Y-56466000D02*
X139748700Y-55685700D01*
X139748700Y-55685700D02*
X135664000Y-55685700D01*
X160262000Y-81728000D02*
X162229700Y-81728000D01*
X160262000Y-93158000D02*
X162229700Y-93158000D01*
X162229700Y-90618000D02*
X162342300Y-90505400D01*
X162342300Y-90505400D02*
X162342300Y-89348000D01*
X160262000Y-90618000D02*
X162229700Y-90618000D01*
X160262000Y-70928000D02*
X158181700Y-70928000D01*
X120810000Y-102350000D02*
X120810000Y-103475300D01*
X119684700Y-99810000D02*
X119684700Y-99239200D01*
X119684700Y-99239200D02*
X120528600Y-98395300D01*
X120528600Y-98395300D02*
X120810000Y-98395300D01*
X120810000Y-101224700D02*
X120528700Y-101224700D01*
X120528700Y-101224700D02*
X119684700Y-100380700D01*
X119684700Y-100380700D02*
X119684700Y-99810000D01*
X119684700Y-99810000D02*
X114315300Y-99810000D01*
X113190000Y-104890000D02*
X113190000Y-103764700D01*
X113190000Y-103764700D02*
X113471400Y-103764700D01*
X113471400Y-103764700D02*
X114315300Y-102920800D01*
X114315300Y-102920800D02*
X114315300Y-99810000D01*
X113190000Y-99810000D02*
X114315300Y-99810000D01*
X120810000Y-97270000D02*
X120810000Y-98395300D01*
X120810000Y-102350000D02*
X120810000Y-101224700D01*
X116190000Y-91730000D02*
X113190000Y-88730000D01*
X113190000Y-88730000D02*
X113190000Y-86510000D01*
X162229700Y-84268000D02*
X162342300Y-84155400D01*
X162342300Y-84155400D02*
X162342300Y-82998000D01*
X162100100Y-84898000D02*
X162342300Y-85140200D01*
X162342300Y-85140200D02*
X162342300Y-85538000D01*
X162100100Y-84898000D02*
X162110100Y-84898000D01*
X161189600Y-84898000D02*
X162100100Y-84898000D01*
X160577000Y-84898000D02*
X161189600Y-84898000D01*
X160262000Y-85538000D02*
X162342300Y-85538000D01*
X160262000Y-84898000D02*
X160577000Y-84898000D01*
X162110100Y-84898000D02*
X162229700Y-84778400D01*
X162229700Y-84778400D02*
X162229700Y-84268000D01*
X160262000Y-84268000D02*
X162229700Y-84268000D01*
X124019000Y-54357000D02*
X122843700Y-54357000D01*
X114000000Y-54500000D02*
X122700700Y-54500000D01*
X122700700Y-54500000D02*
X122843700Y-54357000D01*
X120810000Y-107430000D02*
X121935300Y-107430000D01*
X162342300Y-88078000D02*
X162342300Y-85538000D01*
X162229700Y-88078000D02*
X162342300Y-88078000D01*
X160262000Y-88078000D02*
X162229700Y-88078000D01*
X126559000Y-54357000D02*
X124019000Y-54357000D01*
X160262000Y-82998000D02*
X162342300Y-82998000D01*
X162342300Y-88078000D02*
X162342300Y-89348000D01*
X160262000Y-89348000D02*
X162342300Y-89348000D01*
G04 #@! TO.N,/~DASP*
X160262000Y-77278000D02*
X158181700Y-77278000D01*
X158181700Y-77278000D02*
X158181700Y-77373400D01*
X158181700Y-77373400D02*
X157888800Y-77666300D01*
G04 #@! TO.N,Net-(D1-Pad2)*
X135830000Y-110110000D02*
X143450000Y-110110000D01*
G04 #@! TO.N,/A1*
X154499000Y-54357000D02*
X154499000Y-55532300D01*
X160262000Y-79188000D02*
X162342300Y-79188000D01*
X162342300Y-79188000D02*
X162796900Y-78733400D01*
X162796900Y-78733400D02*
X162796900Y-70387800D01*
X162796900Y-70387800D02*
X155674300Y-63265200D01*
X155674300Y-63265200D02*
X155674300Y-56340200D01*
X155674300Y-56340200D02*
X154866400Y-55532300D01*
X154866400Y-55532300D02*
X154499000Y-55532300D01*
G04 #@! TO.N,/A2*
X160262000Y-80458000D02*
X162342300Y-80458000D01*
X162342300Y-80458000D02*
X167523400Y-75276900D01*
X167523400Y-75276900D02*
X167523400Y-66597500D01*
X167523400Y-66597500D02*
X165723500Y-64797600D01*
X165723500Y-64797600D02*
X163581400Y-64797600D01*
X163581400Y-64797600D02*
X157039000Y-58255200D01*
X157039000Y-58255200D02*
X157039000Y-56897000D01*
G04 #@! TO.N,/D0*
X160262000Y-76648000D02*
X158181700Y-76648000D01*
X158181700Y-76648000D02*
X158045100Y-76784600D01*
X158045100Y-76784600D02*
X154066600Y-76784600D01*
X154066600Y-76784600D02*
X134179000Y-56897000D01*
G04 #@! TO.N,/D1*
X158181700Y-75378000D02*
X157415800Y-74612100D01*
X157415800Y-74612100D02*
X152733600Y-74612100D01*
X152733600Y-74612100D02*
X135458100Y-57336600D01*
X135458100Y-57336600D02*
X135458100Y-56513800D01*
X135458100Y-56513800D02*
X134476600Y-55532300D01*
X134476600Y-55532300D02*
X134179000Y-55532300D01*
X160262000Y-75378000D02*
X158181700Y-75378000D01*
X134179000Y-54357000D02*
X134179000Y-55532300D01*
G04 #@! TO.N,/D2*
X136719000Y-56897000D02*
X137894300Y-56897000D01*
X160262000Y-74108000D02*
X154738000Y-74108000D01*
X154738000Y-74108000D02*
X137894300Y-57264300D01*
X137894300Y-57264300D02*
X137894300Y-56897000D01*
G04 #@! TO.N,/D3*
X160262000Y-100778000D02*
X145754600Y-100778000D01*
X145754600Y-100778000D02*
X142913600Y-97937000D01*
G04 #@! TO.N,/D4*
X160262000Y-99508000D02*
X146058600Y-99508000D01*
X146058600Y-99508000D02*
X143689300Y-97138700D01*
G04 #@! TO.N,/D5*
X160262000Y-98238000D02*
X146362400Y-98238000D01*
X146362400Y-98238000D02*
X144464700Y-96340300D01*
G04 #@! TO.N,/D6*
X160262000Y-96968000D02*
X147583000Y-96968000D01*
X147583000Y-96968000D02*
X145734800Y-95119800D01*
G04 #@! TO.N,/D7*
X160262000Y-95698000D02*
X148448400Y-95698000D01*
X148448400Y-95698000D02*
X146796100Y-94045700D01*
G04 #@! TO.N,~IORD*
X144339000Y-56897000D02*
X145514300Y-56897000D01*
X160262000Y-91248000D02*
X162342300Y-91248000D01*
X162342300Y-91248000D02*
X168546800Y-85043500D01*
X168546800Y-85043500D02*
X168546800Y-61744700D01*
X168546800Y-61744700D02*
X165117100Y-58315000D01*
X165117100Y-58315000D02*
X159282900Y-58315000D01*
X159282900Y-58315000D02*
X158309000Y-57341100D01*
X158309000Y-57341100D02*
X158309000Y-56417000D01*
X158309000Y-56417000D02*
X157613700Y-55721700D01*
X157613700Y-55721700D02*
X156719500Y-55721700D01*
X156719500Y-55721700D02*
X155769000Y-54771200D01*
X155769000Y-54771200D02*
X155769000Y-53877000D01*
X155769000Y-53877000D02*
X155023900Y-53131900D01*
X155023900Y-53131900D02*
X151482400Y-53131900D01*
X151482400Y-53131900D02*
X150594400Y-54019900D01*
X150594400Y-54019900D02*
X150594400Y-54924000D01*
X150594400Y-54924000D02*
X149796700Y-55721700D01*
X149796700Y-55721700D02*
X146322200Y-55721700D01*
X146322200Y-55721700D02*
X145514300Y-56529600D01*
X145514300Y-56529600D02*
X145514300Y-56897000D01*
G04 #@! TO.N,~IOWR*
X160262000Y-89978000D02*
X148569400Y-89978000D01*
G04 #@! TO.N,/RES*
X113190000Y-94730000D02*
X113190000Y-93604700D01*
X149419000Y-56897000D02*
X148243700Y-56897000D01*
X148243700Y-56897000D02*
X148243700Y-57264300D01*
X148243700Y-57264300D02*
X147419100Y-58088900D01*
X147419100Y-58088900D02*
X143766500Y-58088900D01*
X143766500Y-58088900D02*
X143069000Y-57391400D01*
X143069000Y-57391400D02*
X143069000Y-53950400D01*
X143069000Y-53950400D02*
X142250500Y-53131900D01*
X142250500Y-53131900D02*
X133731100Y-53131900D01*
X133731100Y-53131900D02*
X132909000Y-53954000D01*
X132909000Y-53954000D02*
X132909000Y-58228500D01*
X132909000Y-58228500D02*
X121137500Y-70000000D01*
X121137500Y-70000000D02*
X120411000Y-70000000D01*
X120411000Y-70000000D02*
X117000000Y-73411000D01*
X117000000Y-73411000D02*
X117000000Y-79282000D01*
X117000000Y-79282000D02*
X113582000Y-82700000D01*
X113582000Y-82700000D02*
X112834300Y-82700000D01*
X112834300Y-82700000D02*
X112064700Y-83469600D01*
X112064700Y-83469600D02*
X112064700Y-92479400D01*
X112064700Y-92479400D02*
X113190000Y-93604700D01*
G04 #@! TO.N,/A0*
X160262000Y-77918000D02*
X162342300Y-77918000D01*
X154499000Y-56897000D02*
X154499000Y-62729700D01*
X154499000Y-62729700D02*
X162342300Y-70573000D01*
X162342300Y-70573000D02*
X162342300Y-77918000D01*
G04 #@! TO.N,Net-(J2-Pad1)*
X128190000Y-68730000D02*
X127014700Y-68730000D01*
X120810000Y-71270000D02*
X124474700Y-71270000D01*
X124474700Y-71270000D02*
X127014700Y-68730000D01*
G04 #@! TO.N,/~CS0*
X160262000Y-94428000D02*
X148204200Y-94428000D01*
X148204200Y-94428000D02*
X147066000Y-93289800D01*
X147066000Y-93289800D02*
X146481200Y-93289800D01*
X146481200Y-93289800D02*
X136252300Y-103518700D01*
X136252300Y-103518700D02*
X133293400Y-103518700D01*
X133293400Y-103518700D02*
X130994700Y-101220000D01*
X130994700Y-101220000D02*
X128021300Y-101220000D01*
X128021300Y-101220000D02*
X127157300Y-100356000D01*
X127157300Y-100356000D02*
X127157300Y-91258000D01*
X127157300Y-91258000D02*
X130730000Y-87685300D01*
X130730000Y-86510000D02*
X130730000Y-87685300D01*
G04 #@! TO.N,Net-(J2-Pad3)*
X128190000Y-71270000D02*
X127014700Y-71270000D01*
X120810000Y-73810000D02*
X124474700Y-73810000D01*
X124474700Y-73810000D02*
X127014700Y-71270000D01*
G04 #@! TO.N,Net-(J2-Pad5)*
X128190000Y-73810000D02*
X127014700Y-73810000D01*
X120810000Y-76350000D02*
X124474700Y-76350000D01*
X124474700Y-76350000D02*
X127014700Y-73810000D01*
G04 #@! TO.N,Net-(J2-Pad7)*
X128190000Y-76350000D02*
X127014700Y-76350000D01*
X120810000Y-78890000D02*
X124474700Y-78890000D01*
X124474700Y-78890000D02*
X127014700Y-76350000D01*
G04 #@! TO.N,Net-(J2-Pad9)*
X127014700Y-78890000D02*
X124474700Y-81430000D01*
X124474700Y-81430000D02*
X120810000Y-81430000D01*
X128190000Y-78890000D02*
X127014700Y-78890000D01*
G04 #@! TO.N,Net-(J2-Pad11)*
X128190000Y-81430000D02*
X127014700Y-81430000D01*
X120810000Y-83970000D02*
X124474700Y-83970000D01*
X124474700Y-83970000D02*
X127014700Y-81430000D01*
G04 #@! TO.N,Net-(J2-Pad15)*
X128190000Y-86510000D02*
X127014700Y-86510000D01*
X113190000Y-83970000D02*
X114315300Y-83970000D01*
X114315300Y-83970000D02*
X115680000Y-85334700D01*
X115680000Y-85334700D02*
X125839400Y-85334700D01*
X125839400Y-85334700D02*
X127014700Y-86510000D01*
G04 #@! TO.N,/~CS1*
X158181700Y-93788000D02*
X157221300Y-92827600D01*
X157221300Y-92827600D02*
X143977700Y-92827600D01*
X143977700Y-92827600D02*
X136855300Y-99950000D01*
X160262000Y-93788000D02*
X158181700Y-93788000D01*
X135830000Y-99950000D02*
X136855300Y-99950000D01*
G04 #@! TO.N,/~WE*
X135830000Y-101464700D02*
X134804700Y-100439400D01*
X134804700Y-100439400D02*
X134804700Y-99523900D01*
X134804700Y-99523900D02*
X145620600Y-88708000D01*
X145620600Y-88708000D02*
X158181700Y-88708000D01*
X160262000Y-88708000D02*
X158181700Y-88708000D01*
X135830000Y-102490000D02*
X135830000Y-101464700D01*
G04 #@! TO.N,~RESET*
X113190000Y-97270000D02*
X114315300Y-97270000D01*
X160262000Y-82358000D02*
X136057000Y-82358000D01*
X136057000Y-82358000D02*
X133080400Y-85334600D01*
X133080400Y-85334600D02*
X130204400Y-85334600D01*
X130204400Y-85334600D02*
X129460000Y-86079000D01*
X129460000Y-86079000D02*
X129460000Y-86982600D01*
X129460000Y-86982600D02*
X123402700Y-93039900D01*
X123402700Y-93039900D02*
X118545400Y-93039900D01*
X118545400Y-93039900D02*
X114315300Y-97270000D01*
G04 #@! TO.N,/~DMACK*
X160262000Y-78548000D02*
X157473200Y-78548000D01*
X157473200Y-78548000D02*
X156802800Y-79218400D01*
G04 #@! TO.N,/~PDIAG*
X160262000Y-76008000D02*
X157582400Y-76008000D01*
X157582400Y-76008000D02*
X157531200Y-76059200D01*
G04 #@! TO.N,/A5*
X114315300Y-68730000D02*
X116075700Y-66969600D01*
X116075700Y-66969600D02*
X121590000Y-66969600D01*
X121590000Y-66969600D02*
X130369000Y-58190600D01*
X130369000Y-58190600D02*
X130369000Y-53962400D01*
X130369000Y-53962400D02*
X131649900Y-52681500D01*
X131649900Y-52681500D02*
X157095500Y-52681500D01*
X157095500Y-52681500D02*
X158403700Y-53989700D01*
X158403700Y-53989700D02*
X158403700Y-54357000D01*
X159579000Y-54357000D02*
X158403700Y-54357000D01*
X113190000Y-68730000D02*
X114315300Y-68730000D01*
G04 #@! TO.N,/A7*
X113190000Y-73810000D02*
X113190000Y-72684700D01*
X162119000Y-54357000D02*
X160943700Y-54357000D01*
X160943700Y-54357000D02*
X160943700Y-53989700D01*
X160943700Y-53989700D02*
X159183700Y-52229700D01*
X159183700Y-52229700D02*
X129527400Y-52229700D01*
X129527400Y-52229700D02*
X127829000Y-53928100D01*
X127829000Y-53928100D02*
X127829000Y-57387900D01*
X127829000Y-57387900D02*
X120882000Y-64334900D01*
X120882000Y-64334900D02*
X115520600Y-64334900D01*
X115520600Y-64334900D02*
X112064700Y-67790800D01*
X112064700Y-67790800D02*
X112064700Y-71840800D01*
X112064700Y-71840800D02*
X112908600Y-72684700D01*
X112908600Y-72684700D02*
X113190000Y-72684700D01*
G04 #@! TD*
D28*
G04 #@! TO.N,GND*
G36*
X197933000Y-118238000D02*
X99762000Y-118238000D01*
X99762000Y-114075431D01*
X102265000Y-114075431D01*
X102265000Y-114964569D01*
X102605259Y-115786026D01*
X103233974Y-116414741D01*
X104055431Y-116755000D01*
X104944569Y-116755000D01*
X105766026Y-116414741D01*
X106394741Y-115786026D01*
X106735000Y-114964569D01*
X106735000Y-114075431D01*
X191225000Y-114075431D01*
X191225000Y-114964569D01*
X191565259Y-115786026D01*
X192193974Y-116414741D01*
X193015431Y-116755000D01*
X193904569Y-116755000D01*
X194726026Y-116414741D01*
X195354741Y-115786026D01*
X195695000Y-114964569D01*
X195695000Y-114075431D01*
X195354741Y-113253974D01*
X194726026Y-112625259D01*
X193904569Y-112285000D01*
X193015431Y-112285000D01*
X192193974Y-112625259D01*
X191565259Y-113253974D01*
X191225000Y-114075431D01*
X106735000Y-114075431D01*
X106394741Y-113253974D01*
X105766026Y-112625259D01*
X104944569Y-112285000D01*
X104055431Y-112285000D01*
X103233974Y-112625259D01*
X102605259Y-113253974D01*
X102265000Y-114075431D01*
X99762000Y-114075431D01*
X99762000Y-110319039D01*
X111798096Y-110319039D01*
X111958959Y-110707423D01*
X112334866Y-111122389D01*
X112840959Y-111361914D01*
X113063000Y-111240629D01*
X113063000Y-110097000D01*
X113317000Y-110097000D01*
X113317000Y-111240629D01*
X113539041Y-111361914D01*
X114045134Y-111122389D01*
X114421041Y-110707423D01*
X114581904Y-110319039D01*
X114459915Y-110097000D01*
X113317000Y-110097000D01*
X113063000Y-110097000D01*
X111920085Y-110097000D01*
X111798096Y-110319039D01*
X99762000Y-110319039D01*
X99762000Y-109970000D01*
X119346887Y-109970000D01*
X119458260Y-110529909D01*
X119775423Y-111004577D01*
X120250091Y-111321740D01*
X120668667Y-111405000D01*
X120951333Y-111405000D01*
X121369909Y-111321740D01*
X121844577Y-111004577D01*
X122161740Y-110529909D01*
X122273113Y-109970000D01*
X122161740Y-109410091D01*
X121844577Y-108935423D01*
X121460892Y-108679053D01*
X121665134Y-108582389D01*
X122041041Y-108167423D01*
X122201904Y-107779039D01*
X122079915Y-107557000D01*
X120937000Y-107557000D01*
X120937000Y-107577000D01*
X120683000Y-107577000D01*
X120683000Y-107557000D01*
X119540085Y-107557000D01*
X119418096Y-107779039D01*
X119578959Y-108167423D01*
X119954866Y-108582389D01*
X120159108Y-108679053D01*
X119775423Y-108935423D01*
X119458260Y-109410091D01*
X119346887Y-109970000D01*
X99762000Y-109970000D01*
X99762000Y-107430000D01*
X111726887Y-107430000D01*
X111838260Y-107989909D01*
X112155423Y-108464577D01*
X112539108Y-108720947D01*
X112334866Y-108817611D01*
X111958959Y-109232577D01*
X111798096Y-109620961D01*
X111920085Y-109843000D01*
X113063000Y-109843000D01*
X113063000Y-109823000D01*
X113317000Y-109823000D01*
X113317000Y-109843000D01*
X114459915Y-109843000D01*
X114581904Y-109620961D01*
X114421041Y-109232577D01*
X114045134Y-108817611D01*
X113840892Y-108720947D01*
X114224577Y-108464577D01*
X114541740Y-107989909D01*
X114653113Y-107430000D01*
X114541740Y-106870091D01*
X114224577Y-106395423D01*
X113840892Y-106139053D01*
X114045134Y-106042389D01*
X114421041Y-105627423D01*
X114581904Y-105239039D01*
X114459915Y-105017000D01*
X113317000Y-105017000D01*
X113317000Y-105037000D01*
X113063000Y-105037000D01*
X113063000Y-105017000D01*
X111920085Y-105017000D01*
X111798096Y-105239039D01*
X111958959Y-105627423D01*
X112334866Y-106042389D01*
X112539108Y-106139053D01*
X112155423Y-106395423D01*
X111838260Y-106870091D01*
X111726887Y-107430000D01*
X99762000Y-107430000D01*
X99762000Y-104890000D01*
X119346887Y-104890000D01*
X119458260Y-105449909D01*
X119775423Y-105924577D01*
X120159108Y-106180947D01*
X119954866Y-106277611D01*
X119578959Y-106692577D01*
X119418096Y-107080961D01*
X119540085Y-107303000D01*
X120683000Y-107303000D01*
X120683000Y-107283000D01*
X120937000Y-107283000D01*
X120937000Y-107303000D01*
X122079915Y-107303000D01*
X122201904Y-107080961D01*
X122041041Y-106692577D01*
X121665134Y-106277611D01*
X121460892Y-106180947D01*
X121844577Y-105924577D01*
X122161740Y-105449909D01*
X122273113Y-104890000D01*
X122161740Y-104330091D01*
X121844577Y-103855423D01*
X121460892Y-103599053D01*
X121665134Y-103502389D01*
X122041041Y-103087423D01*
X122201904Y-102699039D01*
X122079915Y-102477000D01*
X120937000Y-102477000D01*
X120937000Y-102497000D01*
X120683000Y-102497000D01*
X120683000Y-102477000D01*
X119540085Y-102477000D01*
X119418096Y-102699039D01*
X119578959Y-103087423D01*
X119954866Y-103502389D01*
X120159108Y-103599053D01*
X119775423Y-103855423D01*
X119458260Y-104330091D01*
X119346887Y-104890000D01*
X99762000Y-104890000D01*
X99762000Y-102350000D01*
X111726887Y-102350000D01*
X111838260Y-102909909D01*
X112155423Y-103384577D01*
X112539108Y-103640947D01*
X112334866Y-103737611D01*
X111958959Y-104152577D01*
X111798096Y-104540961D01*
X111920085Y-104763000D01*
X113063000Y-104763000D01*
X113063000Y-104743000D01*
X113317000Y-104743000D01*
X113317000Y-104763000D01*
X114459915Y-104763000D01*
X114581904Y-104540961D01*
X114421041Y-104152577D01*
X114045134Y-103737611D01*
X113840892Y-103640947D01*
X114224577Y-103384577D01*
X114541740Y-102909909D01*
X114653113Y-102350000D01*
X114541740Y-101790091D01*
X114224577Y-101315423D01*
X113840892Y-101059053D01*
X114045134Y-100962389D01*
X114421041Y-100547423D01*
X114581904Y-100159039D01*
X114459915Y-99937000D01*
X113317000Y-99937000D01*
X113317000Y-99957000D01*
X113063000Y-99957000D01*
X113063000Y-99937000D01*
X111920085Y-99937000D01*
X111798096Y-100159039D01*
X111958959Y-100547423D01*
X112334866Y-100962389D01*
X112539108Y-101059053D01*
X112155423Y-101315423D01*
X111838260Y-101790091D01*
X111726887Y-102350000D01*
X99762000Y-102350000D01*
X99762000Y-99810000D01*
X119346887Y-99810000D01*
X119458260Y-100369909D01*
X119775423Y-100844577D01*
X120159108Y-101100947D01*
X119954866Y-101197611D01*
X119578959Y-101612577D01*
X119418096Y-102000961D01*
X119540085Y-102223000D01*
X120683000Y-102223000D01*
X120683000Y-102203000D01*
X120937000Y-102203000D01*
X120937000Y-102223000D01*
X122079915Y-102223000D01*
X122201904Y-102000961D01*
X122041041Y-101612577D01*
X121665134Y-101197611D01*
X121460892Y-101100947D01*
X121844577Y-100844577D01*
X122161740Y-100369909D01*
X122273113Y-99810000D01*
X122161740Y-99250091D01*
X121844577Y-98775423D01*
X121460892Y-98519053D01*
X121665134Y-98422389D01*
X122041041Y-98007423D01*
X122201904Y-97619039D01*
X122079915Y-97397000D01*
X120937000Y-97397000D01*
X120937000Y-97417000D01*
X120683000Y-97417000D01*
X120683000Y-97397000D01*
X119540085Y-97397000D01*
X119418096Y-97619039D01*
X119578959Y-98007423D01*
X119954866Y-98422389D01*
X120159108Y-98519053D01*
X119775423Y-98775423D01*
X119458260Y-99250091D01*
X119346887Y-99810000D01*
X99762000Y-99810000D01*
X99762000Y-76699039D01*
X111798096Y-76699039D01*
X111958959Y-77087423D01*
X112334866Y-77502389D01*
X112583367Y-77620000D01*
X112334866Y-77737611D01*
X111958959Y-78152577D01*
X111798096Y-78540961D01*
X111920085Y-78763000D01*
X113063000Y-78763000D01*
X113063000Y-76477000D01*
X113317000Y-76477000D01*
X113317000Y-78763000D01*
X114459915Y-78763000D01*
X114581904Y-78540961D01*
X114421041Y-78152577D01*
X114045134Y-77737611D01*
X113796633Y-77620000D01*
X114045134Y-77502389D01*
X114421041Y-77087423D01*
X114581904Y-76699039D01*
X114459915Y-76477000D01*
X113317000Y-76477000D01*
X113063000Y-76477000D01*
X111920085Y-76477000D01*
X111798096Y-76699039D01*
X99762000Y-76699039D01*
X99762000Y-67790800D01*
X111289812Y-67790800D01*
X111304700Y-67865647D01*
X111304701Y-71765948D01*
X111289812Y-71840800D01*
X111348797Y-72137337D01*
X111474190Y-72325000D01*
X111516772Y-72388729D01*
X111580228Y-72431129D01*
X112062937Y-72913838D01*
X111838260Y-73250091D01*
X111726887Y-73810000D01*
X111838260Y-74369909D01*
X112155423Y-74844577D01*
X112539108Y-75100947D01*
X112334866Y-75197611D01*
X111958959Y-75612577D01*
X111798096Y-76000961D01*
X111920085Y-76223000D01*
X113063000Y-76223000D01*
X113063000Y-76203000D01*
X113317000Y-76203000D01*
X113317000Y-76223000D01*
X114459915Y-76223000D01*
X114581904Y-76000961D01*
X114421041Y-75612577D01*
X114045134Y-75197611D01*
X113840892Y-75100947D01*
X114224577Y-74844577D01*
X114541740Y-74369909D01*
X114653113Y-73810000D01*
X114541740Y-73250091D01*
X114224577Y-72775423D01*
X113945896Y-72589214D01*
X113928614Y-72502333D01*
X114224577Y-72304577D01*
X114541740Y-71829909D01*
X114653113Y-71270000D01*
X114541740Y-70710091D01*
X114224577Y-70235423D01*
X114103894Y-70154785D01*
X114237765Y-70128157D01*
X114447809Y-69987809D01*
X114588157Y-69777765D01*
X114637440Y-69530000D01*
X114637440Y-69428797D01*
X114863229Y-69277929D01*
X114905631Y-69214470D01*
X116390502Y-67729600D01*
X119752587Y-67729600D01*
X119458260Y-68170091D01*
X119346887Y-68730000D01*
X119458260Y-69289909D01*
X119693791Y-69642406D01*
X116515530Y-72820669D01*
X116452071Y-72863071D01*
X116284096Y-73114464D01*
X116240000Y-73336149D01*
X116240000Y-73336153D01*
X116225112Y-73411000D01*
X116240000Y-73485847D01*
X116240001Y-78967197D01*
X114459776Y-80747423D01*
X114224577Y-80395423D01*
X113840892Y-80139053D01*
X114045134Y-80042389D01*
X114421041Y-79627423D01*
X114581904Y-79239039D01*
X114459915Y-79017000D01*
X113317000Y-79017000D01*
X113317000Y-79037000D01*
X113063000Y-79037000D01*
X113063000Y-79017000D01*
X111920085Y-79017000D01*
X111798096Y-79239039D01*
X111958959Y-79627423D01*
X112334866Y-80042389D01*
X112539108Y-80139053D01*
X112155423Y-80395423D01*
X111838260Y-80870091D01*
X111726887Y-81430000D01*
X111838260Y-81989909D01*
X112091135Y-82368363D01*
X111580230Y-82879269D01*
X111516771Y-82921671D01*
X111348796Y-83173064D01*
X111304700Y-83394749D01*
X111304700Y-83394753D01*
X111289812Y-83469600D01*
X111304700Y-83544447D01*
X111304701Y-92404548D01*
X111289812Y-92479400D01*
X111348797Y-92775937D01*
X111384795Y-92829811D01*
X111516772Y-93027329D01*
X111580228Y-93069729D01*
X111962463Y-93451964D01*
X111932191Y-93472191D01*
X111791843Y-93682235D01*
X111742560Y-93930000D01*
X111742560Y-95530000D01*
X111791843Y-95777765D01*
X111932191Y-95987809D01*
X112142235Y-96128157D01*
X112276106Y-96154785D01*
X112155423Y-96235423D01*
X111838260Y-96710091D01*
X111726887Y-97270000D01*
X111838260Y-97829909D01*
X112155423Y-98304577D01*
X112539108Y-98560947D01*
X112334866Y-98657611D01*
X111958959Y-99072577D01*
X111798096Y-99460961D01*
X111920085Y-99683000D01*
X113063000Y-99683000D01*
X113063000Y-99663000D01*
X113317000Y-99663000D01*
X113317000Y-99683000D01*
X114459915Y-99683000D01*
X114581904Y-99460961D01*
X114421041Y-99072577D01*
X114045134Y-98657611D01*
X113840892Y-98560947D01*
X114224577Y-98304577D01*
X114410786Y-98025896D01*
X114611837Y-97985904D01*
X114863229Y-97817929D01*
X114905631Y-97754470D01*
X118860202Y-93799900D01*
X119705614Y-93799900D01*
X119458260Y-94170091D01*
X119346887Y-94730000D01*
X119458260Y-95289909D01*
X119775423Y-95764577D01*
X120159108Y-96020947D01*
X119954866Y-96117611D01*
X119578959Y-96532577D01*
X119418096Y-96920961D01*
X119540085Y-97143000D01*
X120683000Y-97143000D01*
X120683000Y-97123000D01*
X120937000Y-97123000D01*
X120937000Y-97143000D01*
X122079915Y-97143000D01*
X122201904Y-96920961D01*
X122041041Y-96532577D01*
X121665134Y-96117611D01*
X121460892Y-96020947D01*
X121844577Y-95764577D01*
X122161740Y-95289909D01*
X122273113Y-94730000D01*
X122161740Y-94170091D01*
X121914386Y-93799900D01*
X123327853Y-93799900D01*
X123402700Y-93814788D01*
X123477547Y-93799900D01*
X123477552Y-93799900D01*
X123699237Y-93755804D01*
X123950629Y-93587829D01*
X123993031Y-93524370D01*
X126412956Y-91104445D01*
X126382412Y-91258000D01*
X126397301Y-91332852D01*
X126397300Y-100281153D01*
X126382412Y-100356000D01*
X126397300Y-100430847D01*
X126397300Y-100430851D01*
X126441396Y-100652536D01*
X126609371Y-100903929D01*
X126672830Y-100946331D01*
X127269262Y-101542763D01*
X127078242Y-101733783D01*
X126875000Y-102224452D01*
X126875000Y-102755548D01*
X127078242Y-103246217D01*
X127275001Y-103442976D01*
X127275000Y-104077025D01*
X127078242Y-104273783D01*
X126875000Y-104764452D01*
X126875000Y-105295548D01*
X127078242Y-105786217D01*
X127453783Y-106161758D01*
X127787528Y-106300000D01*
X127453783Y-106438242D01*
X127078242Y-106813783D01*
X126875000Y-107304452D01*
X126875000Y-107835548D01*
X127078242Y-108326217D01*
X127453783Y-108701758D01*
X127787528Y-108840000D01*
X127453783Y-108978242D01*
X127078242Y-109353783D01*
X126875000Y-109844452D01*
X126875000Y-110375548D01*
X127078242Y-110866217D01*
X127453783Y-111241758D01*
X127944452Y-111445000D01*
X128475548Y-111445000D01*
X128966217Y-111241758D01*
X129341758Y-110866217D01*
X129545000Y-110375548D01*
X129545000Y-109844452D01*
X129341758Y-109353783D01*
X128966217Y-108978242D01*
X128632472Y-108840000D01*
X128966217Y-108701758D01*
X129341758Y-108326217D01*
X129545000Y-107835548D01*
X129545000Y-107304452D01*
X129341758Y-106813783D01*
X128966217Y-106438242D01*
X128632472Y-106300000D01*
X128966217Y-106161758D01*
X129341758Y-105786217D01*
X129545000Y-105295548D01*
X129545000Y-104764452D01*
X129341758Y-104273783D01*
X129145000Y-104077025D01*
X129145000Y-103442975D01*
X129341758Y-103246217D01*
X129545000Y-102755548D01*
X129545000Y-102224452D01*
X129443745Y-101980000D01*
X130679899Y-101980000D01*
X132703071Y-104003173D01*
X132745471Y-104066629D01*
X132808927Y-104109029D01*
X132996862Y-104234604D01*
X133045005Y-104244180D01*
X133218548Y-104278700D01*
X133218552Y-104278700D01*
X133293400Y-104293588D01*
X133368248Y-104278700D01*
X134726412Y-104278700D01*
X134572458Y-104509109D01*
X134468846Y-105030000D01*
X134572458Y-105550891D01*
X134867519Y-105992481D01*
X135309109Y-106287542D01*
X135371739Y-106300000D01*
X135309109Y-106312458D01*
X134867519Y-106607519D01*
X134572458Y-107049109D01*
X134468846Y-107570000D01*
X134572458Y-108090891D01*
X134867519Y-108532481D01*
X135309109Y-108827542D01*
X135371739Y-108840000D01*
X135309109Y-108852458D01*
X134867519Y-109147519D01*
X134572458Y-109589109D01*
X134468846Y-110110000D01*
X134572458Y-110630891D01*
X134867519Y-111072481D01*
X135309109Y-111367542D01*
X135698515Y-111445000D01*
X135961485Y-111445000D01*
X136350891Y-111367542D01*
X136792481Y-111072481D01*
X136927774Y-110870000D01*
X142103331Y-110870000D01*
X142148690Y-110979507D01*
X142580493Y-111411310D01*
X143144670Y-111645000D01*
X143755330Y-111645000D01*
X144319507Y-111411310D01*
X144488725Y-111242092D01*
X144491843Y-111257765D01*
X144632191Y-111467809D01*
X144842235Y-111608157D01*
X145090000Y-111657440D01*
X146890000Y-111657440D01*
X147137765Y-111608157D01*
X147347809Y-111467809D01*
X147488157Y-111257765D01*
X147537440Y-111010000D01*
X147537440Y-109210000D01*
X147488157Y-108962235D01*
X147347809Y-108752191D01*
X147137765Y-108611843D01*
X146890000Y-108562560D01*
X145090000Y-108562560D01*
X144842235Y-108611843D01*
X144632191Y-108752191D01*
X144491843Y-108962235D01*
X144488725Y-108977908D01*
X144319507Y-108808690D01*
X143755330Y-108575000D01*
X143144670Y-108575000D01*
X142580493Y-108808690D01*
X142148690Y-109240493D01*
X142103331Y-109350000D01*
X136927774Y-109350000D01*
X136792481Y-109147519D01*
X136350891Y-108852458D01*
X136288261Y-108840000D01*
X136350891Y-108827542D01*
X136792481Y-108532481D01*
X137087542Y-108090891D01*
X137191154Y-107570000D01*
X137087542Y-107049109D01*
X136792481Y-106607519D01*
X136350891Y-106312458D01*
X136288261Y-106300000D01*
X136350891Y-106287542D01*
X136792481Y-105992481D01*
X137087542Y-105550891D01*
X137130513Y-105334860D01*
X160632000Y-105334860D01*
X160632000Y-106381140D01*
X161032393Y-107347775D01*
X161772225Y-108087607D01*
X162738860Y-108488000D01*
X163018456Y-108488000D01*
X162999560Y-108583000D01*
X162999560Y-111073000D01*
X163048843Y-111320765D01*
X163189191Y-111530809D01*
X163399235Y-111671157D01*
X163647000Y-111720440D01*
X168217000Y-111720440D01*
X168464765Y-111671157D01*
X168674809Y-111530809D01*
X168815157Y-111320765D01*
X168864440Y-111073000D01*
X168864440Y-108583000D01*
X168815157Y-108335235D01*
X168674809Y-108125191D01*
X168469490Y-107988000D01*
X178614560Y-107988000D01*
X178614560Y-110988000D01*
X178663843Y-111235765D01*
X178804191Y-111445809D01*
X179014235Y-111586157D01*
X179262000Y-111635440D01*
X183262000Y-111635440D01*
X183509765Y-111586157D01*
X183719809Y-111445809D01*
X183860157Y-111235765D01*
X183909440Y-110988000D01*
X183909440Y-110003666D01*
X183926958Y-110045958D01*
X184204042Y-110323042D01*
X184566071Y-110473000D01*
X184957929Y-110473000D01*
X185319958Y-110323042D01*
X185597042Y-110045958D01*
X185747000Y-109683929D01*
X185747000Y-109292071D01*
X185597042Y-108930042D01*
X185319958Y-108652958D01*
X184957929Y-108503000D01*
X184566071Y-108503000D01*
X184204042Y-108652958D01*
X183926958Y-108930042D01*
X183909440Y-108972334D01*
X183909440Y-107988000D01*
X183860157Y-107740235D01*
X183719809Y-107530191D01*
X183509765Y-107389843D01*
X183262000Y-107340560D01*
X179262000Y-107340560D01*
X179014235Y-107389843D01*
X178804191Y-107530191D01*
X178663843Y-107740235D01*
X178614560Y-107988000D01*
X168469490Y-107988000D01*
X168464765Y-107984843D01*
X168217000Y-107935560D01*
X164903822Y-107935560D01*
X165491607Y-107347775D01*
X165562859Y-107175758D01*
X165966615Y-107343000D01*
X166557385Y-107343000D01*
X167103185Y-107116922D01*
X167520922Y-106699185D01*
X167747000Y-106153385D01*
X167747000Y-105562615D01*
X167520922Y-105016815D01*
X167103185Y-104599078D01*
X166557385Y-104373000D01*
X165966615Y-104373000D01*
X165562859Y-104540242D01*
X165491607Y-104368225D01*
X164751775Y-103628393D01*
X163785140Y-103228000D01*
X162738860Y-103228000D01*
X161772225Y-103628393D01*
X161032393Y-104368225D01*
X160632000Y-105334860D01*
X137130513Y-105334860D01*
X137191154Y-105030000D01*
X137087542Y-104509109D01*
X136794461Y-104070483D01*
X136800229Y-104066629D01*
X136842631Y-104003170D01*
X142179345Y-98666456D01*
X142327320Y-98814431D01*
X142707726Y-98972000D01*
X142873799Y-98972000D01*
X145164271Y-101262473D01*
X145206671Y-101325929D01*
X145270127Y-101368329D01*
X145458062Y-101493904D01*
X145506205Y-101503480D01*
X145679748Y-101538000D01*
X145679752Y-101538000D01*
X145754600Y-101552888D01*
X145829448Y-101538000D01*
X157859560Y-101538000D01*
X157859560Y-101613000D01*
X157877530Y-101703341D01*
X157872000Y-101716691D01*
X157872000Y-101786750D01*
X157899613Y-101814363D01*
X157908843Y-101860765D01*
X158049191Y-102070809D01*
X158168456Y-102150500D01*
X158030750Y-102150500D01*
X157872000Y-102309250D01*
X157872000Y-102379309D01*
X157968673Y-102612698D01*
X158147301Y-102791327D01*
X158380690Y-102888000D01*
X159976250Y-102888000D01*
X160135000Y-102729250D01*
X160135000Y-102260440D01*
X160389000Y-102260440D01*
X160389000Y-102729250D01*
X160547750Y-102888000D01*
X162143310Y-102888000D01*
X162376699Y-102791327D01*
X162555327Y-102612698D01*
X162652000Y-102379309D01*
X162652000Y-102309250D01*
X162493250Y-102150500D01*
X162355544Y-102150500D01*
X162474809Y-102070809D01*
X162615157Y-101860765D01*
X162624387Y-101814363D01*
X162652000Y-101786750D01*
X162652000Y-101716691D01*
X162646470Y-101703341D01*
X162664440Y-101613000D01*
X162664440Y-101203000D01*
X162642560Y-101093000D01*
X162664440Y-100983000D01*
X162664440Y-100573000D01*
X162641565Y-100458000D01*
X162664440Y-100343000D01*
X162664440Y-99933000D01*
X162642560Y-99823000D01*
X162664440Y-99713000D01*
X162664440Y-99303000D01*
X162641565Y-99188000D01*
X162664440Y-99073000D01*
X162664440Y-98663000D01*
X162642560Y-98553000D01*
X162664440Y-98443000D01*
X162664440Y-98033000D01*
X162641565Y-97918000D01*
X162664440Y-97803000D01*
X162664440Y-97393000D01*
X162642560Y-97283000D01*
X162664440Y-97173000D01*
X162664440Y-96763000D01*
X162641565Y-96648000D01*
X162664440Y-96533000D01*
X162664440Y-96123000D01*
X162642560Y-96013000D01*
X162664440Y-95903000D01*
X162664440Y-95493000D01*
X162641565Y-95378000D01*
X162664440Y-95263000D01*
X162664440Y-94853000D01*
X162642560Y-94743000D01*
X162664440Y-94633000D01*
X162664440Y-94223000D01*
X162641565Y-94108000D01*
X162664440Y-93993000D01*
X162664440Y-93583000D01*
X162647814Y-93499415D01*
X162652000Y-93489309D01*
X162652000Y-93419250D01*
X162626870Y-93394120D01*
X162615157Y-93335235D01*
X162493391Y-93153000D01*
X162615157Y-92970765D01*
X162624387Y-92924363D01*
X162652000Y-92896750D01*
X162652000Y-92826691D01*
X162646470Y-92813341D01*
X162664440Y-92723000D01*
X162664440Y-92313000D01*
X162647814Y-92229415D01*
X162652000Y-92219309D01*
X162652000Y-92149250D01*
X162626870Y-92124120D01*
X162615157Y-92065235D01*
X162581592Y-92015002D01*
X162652000Y-92015002D01*
X162652000Y-91955109D01*
X162890229Y-91795929D01*
X162932631Y-91732470D01*
X169031273Y-85633829D01*
X169094729Y-85591429D01*
X169262704Y-85340037D01*
X169306800Y-85118352D01*
X169306800Y-85118348D01*
X169321688Y-85043501D01*
X169306800Y-84968654D01*
X169306800Y-61819546D01*
X169321688Y-61744699D01*
X169306800Y-61669852D01*
X169306800Y-61669848D01*
X169290520Y-61588000D01*
X178614560Y-61588000D01*
X178614560Y-64588000D01*
X178663843Y-64835765D01*
X178804191Y-65045809D01*
X179014235Y-65186157D01*
X179262000Y-65235440D01*
X183262000Y-65235440D01*
X183509765Y-65186157D01*
X183719809Y-65045809D01*
X183860157Y-64835765D01*
X183909440Y-64588000D01*
X183909440Y-64003666D01*
X183926958Y-64045958D01*
X184204042Y-64323042D01*
X184566071Y-64473000D01*
X184957929Y-64473000D01*
X185319958Y-64323042D01*
X185597042Y-64045958D01*
X185747000Y-63683929D01*
X185747000Y-63292071D01*
X185597042Y-62930042D01*
X185319958Y-62652958D01*
X184957929Y-62503000D01*
X184566071Y-62503000D01*
X184204042Y-62652958D01*
X183926958Y-62930042D01*
X183909440Y-62972334D01*
X183909440Y-61588000D01*
X183860157Y-61340235D01*
X183719809Y-61130191D01*
X183509765Y-60989843D01*
X183262000Y-60940560D01*
X179262000Y-60940560D01*
X179014235Y-60989843D01*
X178804191Y-61130191D01*
X178663843Y-61340235D01*
X178614560Y-61588000D01*
X169290520Y-61588000D01*
X169262704Y-61448163D01*
X169094729Y-61196771D01*
X169031273Y-61154371D01*
X165775648Y-57898747D01*
X165929000Y-57669239D01*
X166128375Y-57967625D01*
X166619582Y-58295839D01*
X167052744Y-58382000D01*
X167345256Y-58382000D01*
X167778418Y-58295839D01*
X168269625Y-57967625D01*
X168469000Y-57669239D01*
X168668375Y-57967625D01*
X169159582Y-58295839D01*
X169592744Y-58382000D01*
X169885256Y-58382000D01*
X170318418Y-58295839D01*
X170809625Y-57967625D01*
X171009000Y-57669239D01*
X171208375Y-57967625D01*
X171699582Y-58295839D01*
X172132744Y-58382000D01*
X172425256Y-58382000D01*
X172858418Y-58295839D01*
X173349625Y-57967625D01*
X173677839Y-57476418D01*
X173793092Y-56897000D01*
X173677839Y-56317582D01*
X173349625Y-55826375D01*
X173051239Y-55627000D01*
X173349625Y-55427625D01*
X173677839Y-54936418D01*
X173793092Y-54357000D01*
X173677839Y-53777582D01*
X173349625Y-53286375D01*
X172858418Y-52958161D01*
X172425256Y-52872000D01*
X172132744Y-52872000D01*
X171699582Y-52958161D01*
X171208375Y-53286375D01*
X171009000Y-53584761D01*
X170809625Y-53286375D01*
X170318418Y-52958161D01*
X169885256Y-52872000D01*
X169592744Y-52872000D01*
X169159582Y-52958161D01*
X168668375Y-53286375D01*
X168469000Y-53584761D01*
X168269625Y-53286375D01*
X167778418Y-52958161D01*
X167345256Y-52872000D01*
X167052744Y-52872000D01*
X166619582Y-52958161D01*
X166128375Y-53286375D01*
X165929000Y-53584761D01*
X165729625Y-53286375D01*
X165238418Y-52958161D01*
X164805256Y-52872000D01*
X164512744Y-52872000D01*
X164079582Y-52958161D01*
X163588375Y-53286375D01*
X163389000Y-53584761D01*
X163189625Y-53286375D01*
X162698418Y-52958161D01*
X162265256Y-52872000D01*
X161972744Y-52872000D01*
X161539582Y-52958161D01*
X161208311Y-53179509D01*
X159774031Y-51745230D01*
X159731629Y-51681771D01*
X159480237Y-51513796D01*
X159258552Y-51469700D01*
X159258547Y-51469700D01*
X159183700Y-51454812D01*
X159108853Y-51469700D01*
X129602246Y-51469700D01*
X129527399Y-51454812D01*
X129452552Y-51469700D01*
X129452548Y-51469700D01*
X129230863Y-51513796D01*
X129230861Y-51513797D01*
X129230862Y-51513797D01*
X129042926Y-51639371D01*
X129042924Y-51639373D01*
X128979471Y-51681771D01*
X128937073Y-51745224D01*
X127467720Y-53214579D01*
X127325924Y-53085355D01*
X126915890Y-52915524D01*
X126686000Y-53036845D01*
X126686000Y-54230000D01*
X126706000Y-54230000D01*
X126706000Y-54484000D01*
X126686000Y-54484000D01*
X126686000Y-54504000D01*
X126432000Y-54504000D01*
X126432000Y-54484000D01*
X124146000Y-54484000D01*
X124146000Y-54504000D01*
X123892000Y-54504000D01*
X123892000Y-54484000D01*
X122698181Y-54484000D01*
X122577514Y-54713892D01*
X122823817Y-55238358D01*
X123030855Y-55427039D01*
X122921235Y-55448843D01*
X122711191Y-55589191D01*
X122570843Y-55799235D01*
X122521560Y-56047000D01*
X122521560Y-57747000D01*
X122570843Y-57994765D01*
X122711191Y-58204809D01*
X122921235Y-58345157D01*
X123169000Y-58394440D01*
X124869000Y-58394440D01*
X125116765Y-58345157D01*
X125326809Y-58204809D01*
X125467157Y-57994765D01*
X125476184Y-57949381D01*
X125488375Y-57967625D01*
X125899661Y-58242437D01*
X120567199Y-63574900D01*
X115595448Y-63574900D01*
X115520600Y-63560012D01*
X115445752Y-63574900D01*
X115445748Y-63574900D01*
X115272205Y-63609420D01*
X115224062Y-63618996D01*
X115126884Y-63683929D01*
X114972671Y-63786971D01*
X114930271Y-63850427D01*
X111580230Y-67200469D01*
X111516771Y-67242871D01*
X111348796Y-67494264D01*
X111304700Y-67715949D01*
X111304700Y-67715953D01*
X111289812Y-67790800D01*
X99762000Y-67790800D01*
X99762000Y-56200000D01*
X112552560Y-56200000D01*
X112552560Y-57800000D01*
X112601843Y-58047765D01*
X112742191Y-58257809D01*
X112952235Y-58398157D01*
X113200000Y-58447440D01*
X114800000Y-58447440D01*
X115047765Y-58398157D01*
X115257809Y-58257809D01*
X115398157Y-58047765D01*
X115447440Y-57800000D01*
X115447440Y-56200000D01*
X115398157Y-55952235D01*
X115257809Y-55742191D01*
X115047765Y-55601843D01*
X114813813Y-55555307D01*
X114828139Y-55507745D01*
X114000000Y-54679605D01*
X113171861Y-55507745D01*
X113186187Y-55555307D01*
X112952235Y-55601843D01*
X112742191Y-55742191D01*
X112601843Y-55952235D01*
X112552560Y-56200000D01*
X99762000Y-56200000D01*
X99762000Y-54283223D01*
X112553035Y-54283223D01*
X112580222Y-54853454D01*
X112746136Y-55254005D01*
X112992255Y-55328139D01*
X113820395Y-54500000D01*
X114179605Y-54500000D01*
X115007745Y-55328139D01*
X115253864Y-55254005D01*
X115446965Y-54716777D01*
X115419778Y-54146546D01*
X115359122Y-54000108D01*
X122577514Y-54000108D01*
X122698181Y-54230000D01*
X123892000Y-54230000D01*
X123892000Y-53036845D01*
X124146000Y-53036845D01*
X124146000Y-54230000D01*
X126432000Y-54230000D01*
X126432000Y-53036845D01*
X126202110Y-52915524D01*
X125792076Y-53085355D01*
X125363817Y-53475642D01*
X125289000Y-53634954D01*
X125214183Y-53475642D01*
X124785924Y-53085355D01*
X124375890Y-52915524D01*
X124146000Y-53036845D01*
X123892000Y-53036845D01*
X123662110Y-52915524D01*
X123252076Y-53085355D01*
X122823817Y-53475642D01*
X122577514Y-54000108D01*
X115359122Y-54000108D01*
X115253864Y-53745995D01*
X115007745Y-53671861D01*
X114179605Y-54500000D01*
X113820395Y-54500000D01*
X112992255Y-53671861D01*
X112746136Y-53745995D01*
X112553035Y-54283223D01*
X99762000Y-54283223D01*
X99762000Y-53492255D01*
X113171861Y-53492255D01*
X114000000Y-54320395D01*
X114828139Y-53492255D01*
X114754005Y-53246136D01*
X114216777Y-53053035D01*
X113646546Y-53080222D01*
X113245995Y-53246136D01*
X113171861Y-53492255D01*
X99762000Y-53492255D01*
X99762000Y-48165431D01*
X102275000Y-48165431D01*
X102275000Y-49054569D01*
X102615259Y-49876026D01*
X103243974Y-50504741D01*
X104065431Y-50845000D01*
X104954569Y-50845000D01*
X105776026Y-50504741D01*
X106404741Y-49876026D01*
X106745000Y-49054569D01*
X106745000Y-48165431D01*
X106732574Y-48135431D01*
X190955000Y-48135431D01*
X190955000Y-49024569D01*
X191295259Y-49846026D01*
X191923974Y-50474741D01*
X192745431Y-50815000D01*
X193634569Y-50815000D01*
X194456026Y-50474741D01*
X195084741Y-49846026D01*
X195425000Y-49024569D01*
X195425000Y-48135431D01*
X195084741Y-47313974D01*
X194456026Y-46685259D01*
X193634569Y-46345000D01*
X192745431Y-46345000D01*
X191923974Y-46685259D01*
X191295259Y-47313974D01*
X190955000Y-48135431D01*
X106732574Y-48135431D01*
X106404741Y-47343974D01*
X105776026Y-46715259D01*
X104954569Y-46375000D01*
X104065431Y-46375000D01*
X103243974Y-46715259D01*
X102615259Y-47343974D01*
X102275000Y-48165431D01*
X99762000Y-48165431D01*
X99762000Y-44832000D01*
X197933000Y-44832000D01*
X197933000Y-118238000D01*
X197933000Y-118238000D01*
G37*
X197933000Y-118238000D02*
X99762000Y-118238000D01*
X99762000Y-114075431D01*
X102265000Y-114075431D01*
X102265000Y-114964569D01*
X102605259Y-115786026D01*
X103233974Y-116414741D01*
X104055431Y-116755000D01*
X104944569Y-116755000D01*
X105766026Y-116414741D01*
X106394741Y-115786026D01*
X106735000Y-114964569D01*
X106735000Y-114075431D01*
X191225000Y-114075431D01*
X191225000Y-114964569D01*
X191565259Y-115786026D01*
X192193974Y-116414741D01*
X193015431Y-116755000D01*
X193904569Y-116755000D01*
X194726026Y-116414741D01*
X195354741Y-115786026D01*
X195695000Y-114964569D01*
X195695000Y-114075431D01*
X195354741Y-113253974D01*
X194726026Y-112625259D01*
X193904569Y-112285000D01*
X193015431Y-112285000D01*
X192193974Y-112625259D01*
X191565259Y-113253974D01*
X191225000Y-114075431D01*
X106735000Y-114075431D01*
X106394741Y-113253974D01*
X105766026Y-112625259D01*
X104944569Y-112285000D01*
X104055431Y-112285000D01*
X103233974Y-112625259D01*
X102605259Y-113253974D01*
X102265000Y-114075431D01*
X99762000Y-114075431D01*
X99762000Y-110319039D01*
X111798096Y-110319039D01*
X111958959Y-110707423D01*
X112334866Y-111122389D01*
X112840959Y-111361914D01*
X113063000Y-111240629D01*
X113063000Y-110097000D01*
X113317000Y-110097000D01*
X113317000Y-111240629D01*
X113539041Y-111361914D01*
X114045134Y-111122389D01*
X114421041Y-110707423D01*
X114581904Y-110319039D01*
X114459915Y-110097000D01*
X113317000Y-110097000D01*
X113063000Y-110097000D01*
X111920085Y-110097000D01*
X111798096Y-110319039D01*
X99762000Y-110319039D01*
X99762000Y-109970000D01*
X119346887Y-109970000D01*
X119458260Y-110529909D01*
X119775423Y-111004577D01*
X120250091Y-111321740D01*
X120668667Y-111405000D01*
X120951333Y-111405000D01*
X121369909Y-111321740D01*
X121844577Y-111004577D01*
X122161740Y-110529909D01*
X122273113Y-109970000D01*
X122161740Y-109410091D01*
X121844577Y-108935423D01*
X121460892Y-108679053D01*
X121665134Y-108582389D01*
X122041041Y-108167423D01*
X122201904Y-107779039D01*
X122079915Y-107557000D01*
X120937000Y-107557000D01*
X120937000Y-107577000D01*
X120683000Y-107577000D01*
X120683000Y-107557000D01*
X119540085Y-107557000D01*
X119418096Y-107779039D01*
X119578959Y-108167423D01*
X119954866Y-108582389D01*
X120159108Y-108679053D01*
X119775423Y-108935423D01*
X119458260Y-109410091D01*
X119346887Y-109970000D01*
X99762000Y-109970000D01*
X99762000Y-107430000D01*
X111726887Y-107430000D01*
X111838260Y-107989909D01*
X112155423Y-108464577D01*
X112539108Y-108720947D01*
X112334866Y-108817611D01*
X111958959Y-109232577D01*
X111798096Y-109620961D01*
X111920085Y-109843000D01*
X113063000Y-109843000D01*
X113063000Y-109823000D01*
X113317000Y-109823000D01*
X113317000Y-109843000D01*
X114459915Y-109843000D01*
X114581904Y-109620961D01*
X114421041Y-109232577D01*
X114045134Y-108817611D01*
X113840892Y-108720947D01*
X114224577Y-108464577D01*
X114541740Y-107989909D01*
X114653113Y-107430000D01*
X114541740Y-106870091D01*
X114224577Y-106395423D01*
X113840892Y-106139053D01*
X114045134Y-106042389D01*
X114421041Y-105627423D01*
X114581904Y-105239039D01*
X114459915Y-105017000D01*
X113317000Y-105017000D01*
X113317000Y-105037000D01*
X113063000Y-105037000D01*
X113063000Y-105017000D01*
X111920085Y-105017000D01*
X111798096Y-105239039D01*
X111958959Y-105627423D01*
X112334866Y-106042389D01*
X112539108Y-106139053D01*
X112155423Y-106395423D01*
X111838260Y-106870091D01*
X111726887Y-107430000D01*
X99762000Y-107430000D01*
X99762000Y-104890000D01*
X119346887Y-104890000D01*
X119458260Y-105449909D01*
X119775423Y-105924577D01*
X120159108Y-106180947D01*
X119954866Y-106277611D01*
X119578959Y-106692577D01*
X119418096Y-107080961D01*
X119540085Y-107303000D01*
X120683000Y-107303000D01*
X120683000Y-107283000D01*
X120937000Y-107283000D01*
X120937000Y-107303000D01*
X122079915Y-107303000D01*
X122201904Y-107080961D01*
X122041041Y-106692577D01*
X121665134Y-106277611D01*
X121460892Y-106180947D01*
X121844577Y-105924577D01*
X122161740Y-105449909D01*
X122273113Y-104890000D01*
X122161740Y-104330091D01*
X121844577Y-103855423D01*
X121460892Y-103599053D01*
X121665134Y-103502389D01*
X122041041Y-103087423D01*
X122201904Y-102699039D01*
X122079915Y-102477000D01*
X120937000Y-102477000D01*
X120937000Y-102497000D01*
X120683000Y-102497000D01*
X120683000Y-102477000D01*
X119540085Y-102477000D01*
X119418096Y-102699039D01*
X119578959Y-103087423D01*
X119954866Y-103502389D01*
X120159108Y-103599053D01*
X119775423Y-103855423D01*
X119458260Y-104330091D01*
X119346887Y-104890000D01*
X99762000Y-104890000D01*
X99762000Y-102350000D01*
X111726887Y-102350000D01*
X111838260Y-102909909D01*
X112155423Y-103384577D01*
X112539108Y-103640947D01*
X112334866Y-103737611D01*
X111958959Y-104152577D01*
X111798096Y-104540961D01*
X111920085Y-104763000D01*
X113063000Y-104763000D01*
X113063000Y-104743000D01*
X113317000Y-104743000D01*
X113317000Y-104763000D01*
X114459915Y-104763000D01*
X114581904Y-104540961D01*
X114421041Y-104152577D01*
X114045134Y-103737611D01*
X113840892Y-103640947D01*
X114224577Y-103384577D01*
X114541740Y-102909909D01*
X114653113Y-102350000D01*
X114541740Y-101790091D01*
X114224577Y-101315423D01*
X113840892Y-101059053D01*
X114045134Y-100962389D01*
X114421041Y-100547423D01*
X114581904Y-100159039D01*
X114459915Y-99937000D01*
X113317000Y-99937000D01*
X113317000Y-99957000D01*
X113063000Y-99957000D01*
X113063000Y-99937000D01*
X111920085Y-99937000D01*
X111798096Y-100159039D01*
X111958959Y-100547423D01*
X112334866Y-100962389D01*
X112539108Y-101059053D01*
X112155423Y-101315423D01*
X111838260Y-101790091D01*
X111726887Y-102350000D01*
X99762000Y-102350000D01*
X99762000Y-99810000D01*
X119346887Y-99810000D01*
X119458260Y-100369909D01*
X119775423Y-100844577D01*
X120159108Y-101100947D01*
X119954866Y-101197611D01*
X119578959Y-101612577D01*
X119418096Y-102000961D01*
X119540085Y-102223000D01*
X120683000Y-102223000D01*
X120683000Y-102203000D01*
X120937000Y-102203000D01*
X120937000Y-102223000D01*
X122079915Y-102223000D01*
X122201904Y-102000961D01*
X122041041Y-101612577D01*
X121665134Y-101197611D01*
X121460892Y-101100947D01*
X121844577Y-100844577D01*
X122161740Y-100369909D01*
X122273113Y-99810000D01*
X122161740Y-99250091D01*
X121844577Y-98775423D01*
X121460892Y-98519053D01*
X121665134Y-98422389D01*
X122041041Y-98007423D01*
X122201904Y-97619039D01*
X122079915Y-97397000D01*
X120937000Y-97397000D01*
X120937000Y-97417000D01*
X120683000Y-97417000D01*
X120683000Y-97397000D01*
X119540085Y-97397000D01*
X119418096Y-97619039D01*
X119578959Y-98007423D01*
X119954866Y-98422389D01*
X120159108Y-98519053D01*
X119775423Y-98775423D01*
X119458260Y-99250091D01*
X119346887Y-99810000D01*
X99762000Y-99810000D01*
X99762000Y-76699039D01*
X111798096Y-76699039D01*
X111958959Y-77087423D01*
X112334866Y-77502389D01*
X112583367Y-77620000D01*
X112334866Y-77737611D01*
X111958959Y-78152577D01*
X111798096Y-78540961D01*
X111920085Y-78763000D01*
X113063000Y-78763000D01*
X113063000Y-76477000D01*
X113317000Y-76477000D01*
X113317000Y-78763000D01*
X114459915Y-78763000D01*
X114581904Y-78540961D01*
X114421041Y-78152577D01*
X114045134Y-77737611D01*
X113796633Y-77620000D01*
X114045134Y-77502389D01*
X114421041Y-77087423D01*
X114581904Y-76699039D01*
X114459915Y-76477000D01*
X113317000Y-76477000D01*
X113063000Y-76477000D01*
X111920085Y-76477000D01*
X111798096Y-76699039D01*
X99762000Y-76699039D01*
X99762000Y-67790800D01*
X111289812Y-67790800D01*
X111304700Y-67865647D01*
X111304701Y-71765948D01*
X111289812Y-71840800D01*
X111348797Y-72137337D01*
X111474190Y-72325000D01*
X111516772Y-72388729D01*
X111580228Y-72431129D01*
X112062937Y-72913838D01*
X111838260Y-73250091D01*
X111726887Y-73810000D01*
X111838260Y-74369909D01*
X112155423Y-74844577D01*
X112539108Y-75100947D01*
X112334866Y-75197611D01*
X111958959Y-75612577D01*
X111798096Y-76000961D01*
X111920085Y-76223000D01*
X113063000Y-76223000D01*
X113063000Y-76203000D01*
X113317000Y-76203000D01*
X113317000Y-76223000D01*
X114459915Y-76223000D01*
X114581904Y-76000961D01*
X114421041Y-75612577D01*
X114045134Y-75197611D01*
X113840892Y-75100947D01*
X114224577Y-74844577D01*
X114541740Y-74369909D01*
X114653113Y-73810000D01*
X114541740Y-73250091D01*
X114224577Y-72775423D01*
X113945896Y-72589214D01*
X113928614Y-72502333D01*
X114224577Y-72304577D01*
X114541740Y-71829909D01*
X114653113Y-71270000D01*
X114541740Y-70710091D01*
X114224577Y-70235423D01*
X114103894Y-70154785D01*
X114237765Y-70128157D01*
X114447809Y-69987809D01*
X114588157Y-69777765D01*
X114637440Y-69530000D01*
X114637440Y-69428797D01*
X114863229Y-69277929D01*
X114905631Y-69214470D01*
X116390502Y-67729600D01*
X119752587Y-67729600D01*
X119458260Y-68170091D01*
X119346887Y-68730000D01*
X119458260Y-69289909D01*
X119693791Y-69642406D01*
X116515530Y-72820669D01*
X116452071Y-72863071D01*
X116284096Y-73114464D01*
X116240000Y-73336149D01*
X116240000Y-73336153D01*
X116225112Y-73411000D01*
X116240000Y-73485847D01*
X116240001Y-78967197D01*
X114459776Y-80747423D01*
X114224577Y-80395423D01*
X113840892Y-80139053D01*
X114045134Y-80042389D01*
X114421041Y-79627423D01*
X114581904Y-79239039D01*
X114459915Y-79017000D01*
X113317000Y-79017000D01*
X113317000Y-79037000D01*
X113063000Y-79037000D01*
X113063000Y-79017000D01*
X111920085Y-79017000D01*
X111798096Y-79239039D01*
X111958959Y-79627423D01*
X112334866Y-80042389D01*
X112539108Y-80139053D01*
X112155423Y-80395423D01*
X111838260Y-80870091D01*
X111726887Y-81430000D01*
X111838260Y-81989909D01*
X112091135Y-82368363D01*
X111580230Y-82879269D01*
X111516771Y-82921671D01*
X111348796Y-83173064D01*
X111304700Y-83394749D01*
X111304700Y-83394753D01*
X111289812Y-83469600D01*
X111304700Y-83544447D01*
X111304701Y-92404548D01*
X111289812Y-92479400D01*
X111348797Y-92775937D01*
X111384795Y-92829811D01*
X111516772Y-93027329D01*
X111580228Y-93069729D01*
X111962463Y-93451964D01*
X111932191Y-93472191D01*
X111791843Y-93682235D01*
X111742560Y-93930000D01*
X111742560Y-95530000D01*
X111791843Y-95777765D01*
X111932191Y-95987809D01*
X112142235Y-96128157D01*
X112276106Y-96154785D01*
X112155423Y-96235423D01*
X111838260Y-96710091D01*
X111726887Y-97270000D01*
X111838260Y-97829909D01*
X112155423Y-98304577D01*
X112539108Y-98560947D01*
X112334866Y-98657611D01*
X111958959Y-99072577D01*
X111798096Y-99460961D01*
X111920085Y-99683000D01*
X113063000Y-99683000D01*
X113063000Y-99663000D01*
X113317000Y-99663000D01*
X113317000Y-99683000D01*
X114459915Y-99683000D01*
X114581904Y-99460961D01*
X114421041Y-99072577D01*
X114045134Y-98657611D01*
X113840892Y-98560947D01*
X114224577Y-98304577D01*
X114410786Y-98025896D01*
X114611837Y-97985904D01*
X114863229Y-97817929D01*
X114905631Y-97754470D01*
X118860202Y-93799900D01*
X119705614Y-93799900D01*
X119458260Y-94170091D01*
X119346887Y-94730000D01*
X119458260Y-95289909D01*
X119775423Y-95764577D01*
X120159108Y-96020947D01*
X119954866Y-96117611D01*
X119578959Y-96532577D01*
X119418096Y-96920961D01*
X119540085Y-97143000D01*
X120683000Y-97143000D01*
X120683000Y-97123000D01*
X120937000Y-97123000D01*
X120937000Y-97143000D01*
X122079915Y-97143000D01*
X122201904Y-96920961D01*
X122041041Y-96532577D01*
X121665134Y-96117611D01*
X121460892Y-96020947D01*
X121844577Y-95764577D01*
X122161740Y-95289909D01*
X122273113Y-94730000D01*
X122161740Y-94170091D01*
X121914386Y-93799900D01*
X123327853Y-93799900D01*
X123402700Y-93814788D01*
X123477547Y-93799900D01*
X123477552Y-93799900D01*
X123699237Y-93755804D01*
X123950629Y-93587829D01*
X123993031Y-93524370D01*
X126412956Y-91104445D01*
X126382412Y-91258000D01*
X126397301Y-91332852D01*
X126397300Y-100281153D01*
X126382412Y-100356000D01*
X126397300Y-100430847D01*
X126397300Y-100430851D01*
X126441396Y-100652536D01*
X126609371Y-100903929D01*
X126672830Y-100946331D01*
X127269262Y-101542763D01*
X127078242Y-101733783D01*
X126875000Y-102224452D01*
X126875000Y-102755548D01*
X127078242Y-103246217D01*
X127275001Y-103442976D01*
X127275000Y-104077025D01*
X127078242Y-104273783D01*
X126875000Y-104764452D01*
X126875000Y-105295548D01*
X127078242Y-105786217D01*
X127453783Y-106161758D01*
X127787528Y-106300000D01*
X127453783Y-106438242D01*
X127078242Y-106813783D01*
X126875000Y-107304452D01*
X126875000Y-107835548D01*
X127078242Y-108326217D01*
X127453783Y-108701758D01*
X127787528Y-108840000D01*
X127453783Y-108978242D01*
X127078242Y-109353783D01*
X126875000Y-109844452D01*
X126875000Y-110375548D01*
X127078242Y-110866217D01*
X127453783Y-111241758D01*
X127944452Y-111445000D01*
X128475548Y-111445000D01*
X128966217Y-111241758D01*
X129341758Y-110866217D01*
X129545000Y-110375548D01*
X129545000Y-109844452D01*
X129341758Y-109353783D01*
X128966217Y-108978242D01*
X128632472Y-108840000D01*
X128966217Y-108701758D01*
X129341758Y-108326217D01*
X129545000Y-107835548D01*
X129545000Y-107304452D01*
X129341758Y-106813783D01*
X128966217Y-106438242D01*
X128632472Y-106300000D01*
X128966217Y-106161758D01*
X129341758Y-105786217D01*
X129545000Y-105295548D01*
X129545000Y-104764452D01*
X129341758Y-104273783D01*
X129145000Y-104077025D01*
X129145000Y-103442975D01*
X129341758Y-103246217D01*
X129545000Y-102755548D01*
X129545000Y-102224452D01*
X129443745Y-101980000D01*
X130679899Y-101980000D01*
X132703071Y-104003173D01*
X132745471Y-104066629D01*
X132808927Y-104109029D01*
X132996862Y-104234604D01*
X133045005Y-104244180D01*
X133218548Y-104278700D01*
X133218552Y-104278700D01*
X133293400Y-104293588D01*
X133368248Y-104278700D01*
X134726412Y-104278700D01*
X134572458Y-104509109D01*
X134468846Y-105030000D01*
X134572458Y-105550891D01*
X134867519Y-105992481D01*
X135309109Y-106287542D01*
X135371739Y-106300000D01*
X135309109Y-106312458D01*
X134867519Y-106607519D01*
X134572458Y-107049109D01*
X134468846Y-107570000D01*
X134572458Y-108090891D01*
X134867519Y-108532481D01*
X135309109Y-108827542D01*
X135371739Y-108840000D01*
X135309109Y-108852458D01*
X134867519Y-109147519D01*
X134572458Y-109589109D01*
X134468846Y-110110000D01*
X134572458Y-110630891D01*
X134867519Y-111072481D01*
X135309109Y-111367542D01*
X135698515Y-111445000D01*
X135961485Y-111445000D01*
X136350891Y-111367542D01*
X136792481Y-111072481D01*
X136927774Y-110870000D01*
X142103331Y-110870000D01*
X142148690Y-110979507D01*
X142580493Y-111411310D01*
X143144670Y-111645000D01*
X143755330Y-111645000D01*
X144319507Y-111411310D01*
X144488725Y-111242092D01*
X144491843Y-111257765D01*
X144632191Y-111467809D01*
X144842235Y-111608157D01*
X145090000Y-111657440D01*
X146890000Y-111657440D01*
X147137765Y-111608157D01*
X147347809Y-111467809D01*
X147488157Y-111257765D01*
X147537440Y-111010000D01*
X147537440Y-109210000D01*
X147488157Y-108962235D01*
X147347809Y-108752191D01*
X147137765Y-108611843D01*
X146890000Y-108562560D01*
X145090000Y-108562560D01*
X144842235Y-108611843D01*
X144632191Y-108752191D01*
X144491843Y-108962235D01*
X144488725Y-108977908D01*
X144319507Y-108808690D01*
X143755330Y-108575000D01*
X143144670Y-108575000D01*
X142580493Y-108808690D01*
X142148690Y-109240493D01*
X142103331Y-109350000D01*
X136927774Y-109350000D01*
X136792481Y-109147519D01*
X136350891Y-108852458D01*
X136288261Y-108840000D01*
X136350891Y-108827542D01*
X136792481Y-108532481D01*
X137087542Y-108090891D01*
X137191154Y-107570000D01*
X137087542Y-107049109D01*
X136792481Y-106607519D01*
X136350891Y-106312458D01*
X136288261Y-106300000D01*
X136350891Y-106287542D01*
X136792481Y-105992481D01*
X137087542Y-105550891D01*
X137130513Y-105334860D01*
X160632000Y-105334860D01*
X160632000Y-106381140D01*
X161032393Y-107347775D01*
X161772225Y-108087607D01*
X162738860Y-108488000D01*
X163018456Y-108488000D01*
X162999560Y-108583000D01*
X162999560Y-111073000D01*
X163048843Y-111320765D01*
X163189191Y-111530809D01*
X163399235Y-111671157D01*
X163647000Y-111720440D01*
X168217000Y-111720440D01*
X168464765Y-111671157D01*
X168674809Y-111530809D01*
X168815157Y-111320765D01*
X168864440Y-111073000D01*
X168864440Y-108583000D01*
X168815157Y-108335235D01*
X168674809Y-108125191D01*
X168469490Y-107988000D01*
X178614560Y-107988000D01*
X178614560Y-110988000D01*
X178663843Y-111235765D01*
X178804191Y-111445809D01*
X179014235Y-111586157D01*
X179262000Y-111635440D01*
X183262000Y-111635440D01*
X183509765Y-111586157D01*
X183719809Y-111445809D01*
X183860157Y-111235765D01*
X183909440Y-110988000D01*
X183909440Y-110003666D01*
X183926958Y-110045958D01*
X184204042Y-110323042D01*
X184566071Y-110473000D01*
X184957929Y-110473000D01*
X185319958Y-110323042D01*
X185597042Y-110045958D01*
X185747000Y-109683929D01*
X185747000Y-109292071D01*
X185597042Y-108930042D01*
X185319958Y-108652958D01*
X184957929Y-108503000D01*
X184566071Y-108503000D01*
X184204042Y-108652958D01*
X183926958Y-108930042D01*
X183909440Y-108972334D01*
X183909440Y-107988000D01*
X183860157Y-107740235D01*
X183719809Y-107530191D01*
X183509765Y-107389843D01*
X183262000Y-107340560D01*
X179262000Y-107340560D01*
X179014235Y-107389843D01*
X178804191Y-107530191D01*
X178663843Y-107740235D01*
X178614560Y-107988000D01*
X168469490Y-107988000D01*
X168464765Y-107984843D01*
X168217000Y-107935560D01*
X164903822Y-107935560D01*
X165491607Y-107347775D01*
X165562859Y-107175758D01*
X165966615Y-107343000D01*
X166557385Y-107343000D01*
X167103185Y-107116922D01*
X167520922Y-106699185D01*
X167747000Y-106153385D01*
X167747000Y-105562615D01*
X167520922Y-105016815D01*
X167103185Y-104599078D01*
X166557385Y-104373000D01*
X165966615Y-104373000D01*
X165562859Y-104540242D01*
X165491607Y-104368225D01*
X164751775Y-103628393D01*
X163785140Y-103228000D01*
X162738860Y-103228000D01*
X161772225Y-103628393D01*
X161032393Y-104368225D01*
X160632000Y-105334860D01*
X137130513Y-105334860D01*
X137191154Y-105030000D01*
X137087542Y-104509109D01*
X136794461Y-104070483D01*
X136800229Y-104066629D01*
X136842631Y-104003170D01*
X142179345Y-98666456D01*
X142327320Y-98814431D01*
X142707726Y-98972000D01*
X142873799Y-98972000D01*
X145164271Y-101262473D01*
X145206671Y-101325929D01*
X145270127Y-101368329D01*
X145458062Y-101493904D01*
X145506205Y-101503480D01*
X145679748Y-101538000D01*
X145679752Y-101538000D01*
X145754600Y-101552888D01*
X145829448Y-101538000D01*
X157859560Y-101538000D01*
X157859560Y-101613000D01*
X157877530Y-101703341D01*
X157872000Y-101716691D01*
X157872000Y-101786750D01*
X157899613Y-101814363D01*
X157908843Y-101860765D01*
X158049191Y-102070809D01*
X158168456Y-102150500D01*
X158030750Y-102150500D01*
X157872000Y-102309250D01*
X157872000Y-102379309D01*
X157968673Y-102612698D01*
X158147301Y-102791327D01*
X158380690Y-102888000D01*
X159976250Y-102888000D01*
X160135000Y-102729250D01*
X160135000Y-102260440D01*
X160389000Y-102260440D01*
X160389000Y-102729250D01*
X160547750Y-102888000D01*
X162143310Y-102888000D01*
X162376699Y-102791327D01*
X162555327Y-102612698D01*
X162652000Y-102379309D01*
X162652000Y-102309250D01*
X162493250Y-102150500D01*
X162355544Y-102150500D01*
X162474809Y-102070809D01*
X162615157Y-101860765D01*
X162624387Y-101814363D01*
X162652000Y-101786750D01*
X162652000Y-101716691D01*
X162646470Y-101703341D01*
X162664440Y-101613000D01*
X162664440Y-101203000D01*
X162642560Y-101093000D01*
X162664440Y-100983000D01*
X162664440Y-100573000D01*
X162641565Y-100458000D01*
X162664440Y-100343000D01*
X162664440Y-99933000D01*
X162642560Y-99823000D01*
X162664440Y-99713000D01*
X162664440Y-99303000D01*
X162641565Y-99188000D01*
X162664440Y-99073000D01*
X162664440Y-98663000D01*
X162642560Y-98553000D01*
X162664440Y-98443000D01*
X162664440Y-98033000D01*
X162641565Y-97918000D01*
X162664440Y-97803000D01*
X162664440Y-97393000D01*
X162642560Y-97283000D01*
X162664440Y-97173000D01*
X162664440Y-96763000D01*
X162641565Y-96648000D01*
X162664440Y-96533000D01*
X162664440Y-96123000D01*
X162642560Y-96013000D01*
X162664440Y-95903000D01*
X162664440Y-95493000D01*
X162641565Y-95378000D01*
X162664440Y-95263000D01*
X162664440Y-94853000D01*
X162642560Y-94743000D01*
X162664440Y-94633000D01*
X162664440Y-94223000D01*
X162641565Y-94108000D01*
X162664440Y-93993000D01*
X162664440Y-93583000D01*
X162647814Y-93499415D01*
X162652000Y-93489309D01*
X162652000Y-93419250D01*
X162626870Y-93394120D01*
X162615157Y-93335235D01*
X162493391Y-93153000D01*
X162615157Y-92970765D01*
X162624387Y-92924363D01*
X162652000Y-92896750D01*
X162652000Y-92826691D01*
X162646470Y-92813341D01*
X162664440Y-92723000D01*
X162664440Y-92313000D01*
X162647814Y-92229415D01*
X162652000Y-92219309D01*
X162652000Y-92149250D01*
X162626870Y-92124120D01*
X162615157Y-92065235D01*
X162581592Y-92015002D01*
X162652000Y-92015002D01*
X162652000Y-91955109D01*
X162890229Y-91795929D01*
X162932631Y-91732470D01*
X169031273Y-85633829D01*
X169094729Y-85591429D01*
X169262704Y-85340037D01*
X169306800Y-85118352D01*
X169306800Y-85118348D01*
X169321688Y-85043501D01*
X169306800Y-84968654D01*
X169306800Y-61819546D01*
X169321688Y-61744699D01*
X169306800Y-61669852D01*
X169306800Y-61669848D01*
X169290520Y-61588000D01*
X178614560Y-61588000D01*
X178614560Y-64588000D01*
X178663843Y-64835765D01*
X178804191Y-65045809D01*
X179014235Y-65186157D01*
X179262000Y-65235440D01*
X183262000Y-65235440D01*
X183509765Y-65186157D01*
X183719809Y-65045809D01*
X183860157Y-64835765D01*
X183909440Y-64588000D01*
X183909440Y-64003666D01*
X183926958Y-64045958D01*
X184204042Y-64323042D01*
X184566071Y-64473000D01*
X184957929Y-64473000D01*
X185319958Y-64323042D01*
X185597042Y-64045958D01*
X185747000Y-63683929D01*
X185747000Y-63292071D01*
X185597042Y-62930042D01*
X185319958Y-62652958D01*
X184957929Y-62503000D01*
X184566071Y-62503000D01*
X184204042Y-62652958D01*
X183926958Y-62930042D01*
X183909440Y-62972334D01*
X183909440Y-61588000D01*
X183860157Y-61340235D01*
X183719809Y-61130191D01*
X183509765Y-60989843D01*
X183262000Y-60940560D01*
X179262000Y-60940560D01*
X179014235Y-60989843D01*
X178804191Y-61130191D01*
X178663843Y-61340235D01*
X178614560Y-61588000D01*
X169290520Y-61588000D01*
X169262704Y-61448163D01*
X169094729Y-61196771D01*
X169031273Y-61154371D01*
X165775648Y-57898747D01*
X165929000Y-57669239D01*
X166128375Y-57967625D01*
X166619582Y-58295839D01*
X167052744Y-58382000D01*
X167345256Y-58382000D01*
X167778418Y-58295839D01*
X168269625Y-57967625D01*
X168469000Y-57669239D01*
X168668375Y-57967625D01*
X169159582Y-58295839D01*
X169592744Y-58382000D01*
X169885256Y-58382000D01*
X170318418Y-58295839D01*
X170809625Y-57967625D01*
X171009000Y-57669239D01*
X171208375Y-57967625D01*
X171699582Y-58295839D01*
X172132744Y-58382000D01*
X172425256Y-58382000D01*
X172858418Y-58295839D01*
X173349625Y-57967625D01*
X173677839Y-57476418D01*
X173793092Y-56897000D01*
X173677839Y-56317582D01*
X173349625Y-55826375D01*
X173051239Y-55627000D01*
X173349625Y-55427625D01*
X173677839Y-54936418D01*
X173793092Y-54357000D01*
X173677839Y-53777582D01*
X173349625Y-53286375D01*
X172858418Y-52958161D01*
X172425256Y-52872000D01*
X172132744Y-52872000D01*
X171699582Y-52958161D01*
X171208375Y-53286375D01*
X171009000Y-53584761D01*
X170809625Y-53286375D01*
X170318418Y-52958161D01*
X169885256Y-52872000D01*
X169592744Y-52872000D01*
X169159582Y-52958161D01*
X168668375Y-53286375D01*
X168469000Y-53584761D01*
X168269625Y-53286375D01*
X167778418Y-52958161D01*
X167345256Y-52872000D01*
X167052744Y-52872000D01*
X166619582Y-52958161D01*
X166128375Y-53286375D01*
X165929000Y-53584761D01*
X165729625Y-53286375D01*
X165238418Y-52958161D01*
X164805256Y-52872000D01*
X164512744Y-52872000D01*
X164079582Y-52958161D01*
X163588375Y-53286375D01*
X163389000Y-53584761D01*
X163189625Y-53286375D01*
X162698418Y-52958161D01*
X162265256Y-52872000D01*
X161972744Y-52872000D01*
X161539582Y-52958161D01*
X161208311Y-53179509D01*
X159774031Y-51745230D01*
X159731629Y-51681771D01*
X159480237Y-51513796D01*
X159258552Y-51469700D01*
X159258547Y-51469700D01*
X159183700Y-51454812D01*
X159108853Y-51469700D01*
X129602246Y-51469700D01*
X129527399Y-51454812D01*
X129452552Y-51469700D01*
X129452548Y-51469700D01*
X129230863Y-51513796D01*
X129230861Y-51513797D01*
X129230862Y-51513797D01*
X129042926Y-51639371D01*
X129042924Y-51639373D01*
X128979471Y-51681771D01*
X128937073Y-51745224D01*
X127467720Y-53214579D01*
X127325924Y-53085355D01*
X126915890Y-52915524D01*
X126686000Y-53036845D01*
X126686000Y-54230000D01*
X126706000Y-54230000D01*
X126706000Y-54484000D01*
X126686000Y-54484000D01*
X126686000Y-54504000D01*
X126432000Y-54504000D01*
X126432000Y-54484000D01*
X124146000Y-54484000D01*
X124146000Y-54504000D01*
X123892000Y-54504000D01*
X123892000Y-54484000D01*
X122698181Y-54484000D01*
X122577514Y-54713892D01*
X122823817Y-55238358D01*
X123030855Y-55427039D01*
X122921235Y-55448843D01*
X122711191Y-55589191D01*
X122570843Y-55799235D01*
X122521560Y-56047000D01*
X122521560Y-57747000D01*
X122570843Y-57994765D01*
X122711191Y-58204809D01*
X122921235Y-58345157D01*
X123169000Y-58394440D01*
X124869000Y-58394440D01*
X125116765Y-58345157D01*
X125326809Y-58204809D01*
X125467157Y-57994765D01*
X125476184Y-57949381D01*
X125488375Y-57967625D01*
X125899661Y-58242437D01*
X120567199Y-63574900D01*
X115595448Y-63574900D01*
X115520600Y-63560012D01*
X115445752Y-63574900D01*
X115445748Y-63574900D01*
X115272205Y-63609420D01*
X115224062Y-63618996D01*
X115126884Y-63683929D01*
X114972671Y-63786971D01*
X114930271Y-63850427D01*
X111580230Y-67200469D01*
X111516771Y-67242871D01*
X111348796Y-67494264D01*
X111304700Y-67715949D01*
X111304700Y-67715953D01*
X111289812Y-67790800D01*
X99762000Y-67790800D01*
X99762000Y-56200000D01*
X112552560Y-56200000D01*
X112552560Y-57800000D01*
X112601843Y-58047765D01*
X112742191Y-58257809D01*
X112952235Y-58398157D01*
X113200000Y-58447440D01*
X114800000Y-58447440D01*
X115047765Y-58398157D01*
X115257809Y-58257809D01*
X115398157Y-58047765D01*
X115447440Y-57800000D01*
X115447440Y-56200000D01*
X115398157Y-55952235D01*
X115257809Y-55742191D01*
X115047765Y-55601843D01*
X114813813Y-55555307D01*
X114828139Y-55507745D01*
X114000000Y-54679605D01*
X113171861Y-55507745D01*
X113186187Y-55555307D01*
X112952235Y-55601843D01*
X112742191Y-55742191D01*
X112601843Y-55952235D01*
X112552560Y-56200000D01*
X99762000Y-56200000D01*
X99762000Y-54283223D01*
X112553035Y-54283223D01*
X112580222Y-54853454D01*
X112746136Y-55254005D01*
X112992255Y-55328139D01*
X113820395Y-54500000D01*
X114179605Y-54500000D01*
X115007745Y-55328139D01*
X115253864Y-55254005D01*
X115446965Y-54716777D01*
X115419778Y-54146546D01*
X115359122Y-54000108D01*
X122577514Y-54000108D01*
X122698181Y-54230000D01*
X123892000Y-54230000D01*
X123892000Y-53036845D01*
X124146000Y-53036845D01*
X124146000Y-54230000D01*
X126432000Y-54230000D01*
X126432000Y-53036845D01*
X126202110Y-52915524D01*
X125792076Y-53085355D01*
X125363817Y-53475642D01*
X125289000Y-53634954D01*
X125214183Y-53475642D01*
X124785924Y-53085355D01*
X124375890Y-52915524D01*
X124146000Y-53036845D01*
X123892000Y-53036845D01*
X123662110Y-52915524D01*
X123252076Y-53085355D01*
X122823817Y-53475642D01*
X122577514Y-54000108D01*
X115359122Y-54000108D01*
X115253864Y-53745995D01*
X115007745Y-53671861D01*
X114179605Y-54500000D01*
X113820395Y-54500000D01*
X112992255Y-53671861D01*
X112746136Y-53745995D01*
X112553035Y-54283223D01*
X99762000Y-54283223D01*
X99762000Y-53492255D01*
X113171861Y-53492255D01*
X114000000Y-54320395D01*
X114828139Y-53492255D01*
X114754005Y-53246136D01*
X114216777Y-53053035D01*
X113646546Y-53080222D01*
X113245995Y-53246136D01*
X113171861Y-53492255D01*
X99762000Y-53492255D01*
X99762000Y-48165431D01*
X102275000Y-48165431D01*
X102275000Y-49054569D01*
X102615259Y-49876026D01*
X103243974Y-50504741D01*
X104065431Y-50845000D01*
X104954569Y-50845000D01*
X105776026Y-50504741D01*
X106404741Y-49876026D01*
X106745000Y-49054569D01*
X106745000Y-48165431D01*
X106732574Y-48135431D01*
X190955000Y-48135431D01*
X190955000Y-49024569D01*
X191295259Y-49846026D01*
X191923974Y-50474741D01*
X192745431Y-50815000D01*
X193634569Y-50815000D01*
X194456026Y-50474741D01*
X195084741Y-49846026D01*
X195425000Y-49024569D01*
X195425000Y-48135431D01*
X195084741Y-47313974D01*
X194456026Y-46685259D01*
X193634569Y-46345000D01*
X192745431Y-46345000D01*
X191923974Y-46685259D01*
X191295259Y-47313974D01*
X190955000Y-48135431D01*
X106732574Y-48135431D01*
X106404741Y-47343974D01*
X105776026Y-46715259D01*
X104954569Y-46375000D01*
X104065431Y-46375000D01*
X103243974Y-46715259D01*
X102615259Y-47343974D01*
X102275000Y-48165431D01*
X99762000Y-48165431D01*
X99762000Y-44832000D01*
X197933000Y-44832000D01*
X197933000Y-118238000D01*
G36*
X157859560Y-87643000D02*
X157877530Y-87733341D01*
X157872000Y-87746691D01*
X157872000Y-87816750D01*
X157899613Y-87844363D01*
X157908843Y-87890765D01*
X157947087Y-87948000D01*
X145695446Y-87948000D01*
X145620599Y-87933112D01*
X145545752Y-87948000D01*
X145545748Y-87948000D01*
X145324063Y-87992096D01*
X145324061Y-87992097D01*
X145324062Y-87992097D01*
X145136126Y-88117671D01*
X145136124Y-88117673D01*
X145072671Y-88160071D01*
X145030273Y-88223524D01*
X134320228Y-98933571D01*
X134256772Y-98975971D01*
X134214372Y-99039427D01*
X134214371Y-99039428D01*
X134088797Y-99227363D01*
X134029812Y-99523900D01*
X134044701Y-99598751D01*
X134044700Y-100364552D01*
X134029812Y-100439400D01*
X134044700Y-100514247D01*
X134044700Y-100514251D01*
X134088796Y-100735936D01*
X134256771Y-100987329D01*
X134320230Y-101029731D01*
X134847691Y-101557193D01*
X134572458Y-101969109D01*
X134468846Y-102490000D01*
X134522294Y-102758700D01*
X133608202Y-102758700D01*
X131585031Y-100735530D01*
X131542629Y-100672071D01*
X131291237Y-100504096D01*
X131069552Y-100460000D01*
X131069547Y-100460000D01*
X130994700Y-100445112D01*
X130919853Y-100460000D01*
X129443745Y-100460000D01*
X129545000Y-100215548D01*
X129545000Y-99689801D01*
X141666802Y-87568000D01*
X157859560Y-87568000D01*
X157859560Y-87643000D01*
X157859560Y-87643000D01*
G37*
X157859560Y-87643000D02*
X157877530Y-87733341D01*
X157872000Y-87746691D01*
X157872000Y-87816750D01*
X157899613Y-87844363D01*
X157908843Y-87890765D01*
X157947087Y-87948000D01*
X145695446Y-87948000D01*
X145620599Y-87933112D01*
X145545752Y-87948000D01*
X145545748Y-87948000D01*
X145324063Y-87992096D01*
X145324061Y-87992097D01*
X145324062Y-87992097D01*
X145136126Y-88117671D01*
X145136124Y-88117673D01*
X145072671Y-88160071D01*
X145030273Y-88223524D01*
X134320228Y-98933571D01*
X134256772Y-98975971D01*
X134214372Y-99039427D01*
X134214371Y-99039428D01*
X134088797Y-99227363D01*
X134029812Y-99523900D01*
X134044701Y-99598751D01*
X134044700Y-100364552D01*
X134029812Y-100439400D01*
X134044700Y-100514247D01*
X134044700Y-100514251D01*
X134088796Y-100735936D01*
X134256771Y-100987329D01*
X134320230Y-101029731D01*
X134847691Y-101557193D01*
X134572458Y-101969109D01*
X134468846Y-102490000D01*
X134522294Y-102758700D01*
X133608202Y-102758700D01*
X131585031Y-100735530D01*
X131542629Y-100672071D01*
X131291237Y-100504096D01*
X131069552Y-100460000D01*
X131069547Y-100460000D01*
X130994700Y-100445112D01*
X130919853Y-100460000D01*
X129443745Y-100460000D01*
X129545000Y-100215548D01*
X129545000Y-99689801D01*
X141666802Y-87568000D01*
X157859560Y-87568000D01*
X157859560Y-87643000D01*
G36*
X147534400Y-89772126D02*
X147534400Y-90183874D01*
X147691969Y-90564280D01*
X147983120Y-90855431D01*
X148363526Y-91013000D01*
X148775274Y-91013000D01*
X149155680Y-90855431D01*
X149273111Y-90738000D01*
X157872000Y-90738000D01*
X157872000Y-90745002D01*
X157942408Y-90745002D01*
X157908843Y-90795235D01*
X157897130Y-90854120D01*
X157872000Y-90879250D01*
X157872000Y-90949309D01*
X157876186Y-90959415D01*
X157859560Y-91043000D01*
X157859560Y-91453000D01*
X157877530Y-91543341D01*
X157872000Y-91556691D01*
X157872000Y-91626750D01*
X157899613Y-91654363D01*
X157908843Y-91700765D01*
X158030609Y-91883000D01*
X157908843Y-92065235D01*
X157897130Y-92124120D01*
X157872000Y-92149250D01*
X157872000Y-92219309D01*
X157876186Y-92229415D01*
X157859560Y-92313000D01*
X157859560Y-92391059D01*
X157811631Y-92343130D01*
X157769229Y-92279671D01*
X157517837Y-92111696D01*
X157296152Y-92067600D01*
X157296147Y-92067600D01*
X157221300Y-92052712D01*
X157146453Y-92067600D01*
X144052548Y-92067600D01*
X143977700Y-92052712D01*
X143902852Y-92067600D01*
X143902848Y-92067600D01*
X143737751Y-92100440D01*
X143681162Y-92111696D01*
X143574654Y-92182863D01*
X143429771Y-92279671D01*
X143387371Y-92343127D01*
X136762807Y-98967692D01*
X136566727Y-98836675D01*
X145935403Y-89468000D01*
X147660373Y-89468000D01*
X147534400Y-89772126D01*
X147534400Y-89772126D01*
G37*
X147534400Y-89772126D02*
X147534400Y-90183874D01*
X147691969Y-90564280D01*
X147983120Y-90855431D01*
X148363526Y-91013000D01*
X148775274Y-91013000D01*
X149155680Y-90855431D01*
X149273111Y-90738000D01*
X157872000Y-90738000D01*
X157872000Y-90745002D01*
X157942408Y-90745002D01*
X157908843Y-90795235D01*
X157897130Y-90854120D01*
X157872000Y-90879250D01*
X157872000Y-90949309D01*
X157876186Y-90959415D01*
X157859560Y-91043000D01*
X157859560Y-91453000D01*
X157877530Y-91543341D01*
X157872000Y-91556691D01*
X157872000Y-91626750D01*
X157899613Y-91654363D01*
X157908843Y-91700765D01*
X158030609Y-91883000D01*
X157908843Y-92065235D01*
X157897130Y-92124120D01*
X157872000Y-92149250D01*
X157872000Y-92219309D01*
X157876186Y-92229415D01*
X157859560Y-92313000D01*
X157859560Y-92391059D01*
X157811631Y-92343130D01*
X157769229Y-92279671D01*
X157517837Y-92111696D01*
X157296152Y-92067600D01*
X157296147Y-92067600D01*
X157221300Y-92052712D01*
X157146453Y-92067600D01*
X144052548Y-92067600D01*
X143977700Y-92052712D01*
X143902852Y-92067600D01*
X143902848Y-92067600D01*
X143737751Y-92100440D01*
X143681162Y-92111696D01*
X143574654Y-92182863D01*
X143429771Y-92279671D01*
X143387371Y-92343127D01*
X136762807Y-98967692D01*
X136566727Y-98836675D01*
X145935403Y-89468000D01*
X147660373Y-89468000D01*
X147534400Y-89772126D01*
G36*
X157872000Y-83125002D02*
X157942408Y-83125002D01*
X157908843Y-83175235D01*
X157897130Y-83234120D01*
X157872000Y-83259250D01*
X157872000Y-83329309D01*
X157876186Y-83339415D01*
X157859560Y-83423000D01*
X157859560Y-83833000D01*
X157877530Y-83923341D01*
X157872000Y-83936691D01*
X157872000Y-84006750D01*
X157899613Y-84034363D01*
X157908843Y-84080765D01*
X158033960Y-84268015D01*
X157968673Y-84333302D01*
X157898475Y-84502775D01*
X157872000Y-84529250D01*
X157872000Y-84636750D01*
X157898475Y-84663225D01*
X157968673Y-84832698D01*
X158038975Y-84903000D01*
X157968673Y-84973302D01*
X157905546Y-85125704D01*
X157872000Y-85159250D01*
X157872000Y-85276750D01*
X157905546Y-85310296D01*
X157947258Y-85410998D01*
X157872000Y-85410998D01*
X157872000Y-85460891D01*
X157633771Y-85620071D01*
X157465796Y-85871463D01*
X157430681Y-86048000D01*
X141426848Y-86048000D01*
X141352000Y-86033112D01*
X141277152Y-86048000D01*
X141277148Y-86048000D01*
X141055463Y-86092096D01*
X140804071Y-86260071D01*
X140761671Y-86323527D01*
X128470199Y-98615000D01*
X127944452Y-98615000D01*
X127917300Y-98626247D01*
X127917300Y-91572801D01*
X131214473Y-88275629D01*
X131277929Y-88233229D01*
X131326812Y-88160071D01*
X131445904Y-87981838D01*
X131471022Y-87855560D01*
X131483571Y-87792474D01*
X131800625Y-87580625D01*
X132128839Y-87089418D01*
X132244092Y-86510000D01*
X132161464Y-86094600D01*
X133005553Y-86094600D01*
X133080400Y-86109488D01*
X133155247Y-86094600D01*
X133155252Y-86094600D01*
X133376937Y-86050504D01*
X133628329Y-85882529D01*
X133670731Y-85819070D01*
X136371802Y-83118000D01*
X157872000Y-83118000D01*
X157872000Y-83125002D01*
X157872000Y-83125002D01*
G37*
X157872000Y-83125002D02*
X157942408Y-83125002D01*
X157908843Y-83175235D01*
X157897130Y-83234120D01*
X157872000Y-83259250D01*
X157872000Y-83329309D01*
X157876186Y-83339415D01*
X157859560Y-83423000D01*
X157859560Y-83833000D01*
X157877530Y-83923341D01*
X157872000Y-83936691D01*
X157872000Y-84006750D01*
X157899613Y-84034363D01*
X157908843Y-84080765D01*
X158033960Y-84268015D01*
X157968673Y-84333302D01*
X157898475Y-84502775D01*
X157872000Y-84529250D01*
X157872000Y-84636750D01*
X157898475Y-84663225D01*
X157968673Y-84832698D01*
X158038975Y-84903000D01*
X157968673Y-84973302D01*
X157905546Y-85125704D01*
X157872000Y-85159250D01*
X157872000Y-85276750D01*
X157905546Y-85310296D01*
X157947258Y-85410998D01*
X157872000Y-85410998D01*
X157872000Y-85460891D01*
X157633771Y-85620071D01*
X157465796Y-85871463D01*
X157430681Y-86048000D01*
X141426848Y-86048000D01*
X141352000Y-86033112D01*
X141277152Y-86048000D01*
X141277148Y-86048000D01*
X141055463Y-86092096D01*
X140804071Y-86260071D01*
X140761671Y-86323527D01*
X128470199Y-98615000D01*
X127944452Y-98615000D01*
X127917300Y-98626247D01*
X127917300Y-91572801D01*
X131214473Y-88275629D01*
X131277929Y-88233229D01*
X131326812Y-88160071D01*
X131445904Y-87981838D01*
X131471022Y-87855560D01*
X131483571Y-87792474D01*
X131800625Y-87580625D01*
X132128839Y-87089418D01*
X132244092Y-86510000D01*
X132161464Y-86094600D01*
X133005553Y-86094600D01*
X133080400Y-86109488D01*
X133155247Y-86094600D01*
X133155252Y-86094600D01*
X133376937Y-86050504D01*
X133628329Y-85882529D01*
X133670731Y-85819070D01*
X136371802Y-83118000D01*
X157872000Y-83118000D01*
X157872000Y-83125002D01*
G36*
X115089670Y-85819172D02*
X115132071Y-85882629D01*
X115383463Y-86050604D01*
X115605148Y-86094700D01*
X115605152Y-86094700D01*
X115679999Y-86109588D01*
X115754846Y-86094700D01*
X119429495Y-86094700D01*
X119346887Y-86510000D01*
X119458260Y-87069909D01*
X119775423Y-87544577D01*
X120250091Y-87861740D01*
X120668667Y-87945000D01*
X120951333Y-87945000D01*
X121369909Y-87861740D01*
X121844577Y-87544577D01*
X122161740Y-87069909D01*
X122273113Y-86510000D01*
X122190505Y-86094700D01*
X125524599Y-86094700D01*
X126424371Y-86994473D01*
X126466771Y-87057929D01*
X126718163Y-87225904D01*
X126907526Y-87263571D01*
X127119375Y-87580625D01*
X127519691Y-87848107D01*
X123087899Y-92279900D01*
X122515457Y-92279900D01*
X122625000Y-92015439D01*
X122625000Y-91444561D01*
X122406534Y-90917138D01*
X122002862Y-90513466D01*
X121475439Y-90295000D01*
X120904561Y-90295000D01*
X120377138Y-90513466D01*
X119973466Y-90917138D01*
X119755000Y-91444561D01*
X119755000Y-92015439D01*
X119864543Y-92279900D01*
X118620248Y-92279900D01*
X118545400Y-92265012D01*
X118470552Y-92279900D01*
X118470548Y-92279900D01*
X118297005Y-92314420D01*
X118248862Y-92323996D01*
X118113155Y-92414673D01*
X117997471Y-92491971D01*
X117955071Y-92555427D01*
X114244804Y-96265695D01*
X114224577Y-96235423D01*
X114103894Y-96154785D01*
X114237765Y-96128157D01*
X114447809Y-95987809D01*
X114588157Y-95777765D01*
X114637440Y-95530000D01*
X114637440Y-93930000D01*
X114588157Y-93682235D01*
X114447809Y-93472191D01*
X114237765Y-93331843D01*
X113990000Y-93282560D01*
X113888797Y-93282560D01*
X113737929Y-93056771D01*
X113674473Y-93014371D01*
X113397847Y-92737745D01*
X115361861Y-92737745D01*
X115435995Y-92983864D01*
X115973223Y-93176965D01*
X116543454Y-93149778D01*
X116944005Y-92983864D01*
X117018139Y-92737745D01*
X116190000Y-91909605D01*
X115361861Y-92737745D01*
X113397847Y-92737745D01*
X112824700Y-92164599D01*
X112824700Y-91513223D01*
X114743035Y-91513223D01*
X114770222Y-92083454D01*
X114936136Y-92484005D01*
X115182255Y-92558139D01*
X116010395Y-91730000D01*
X116369605Y-91730000D01*
X117197745Y-92558139D01*
X117443864Y-92484005D01*
X117636965Y-91946777D01*
X117609778Y-91376546D01*
X117443864Y-90975995D01*
X117197745Y-90901861D01*
X116369605Y-91730000D01*
X116010395Y-91730000D01*
X115182255Y-90901861D01*
X114936136Y-90975995D01*
X114743035Y-91513223D01*
X112824700Y-91513223D01*
X112824700Y-90722255D01*
X115361861Y-90722255D01*
X116190000Y-91550395D01*
X117018139Y-90722255D01*
X116944005Y-90476136D01*
X116406777Y-90283035D01*
X115836546Y-90310222D01*
X115435995Y-90476136D01*
X115361861Y-90722255D01*
X112824700Y-90722255D01*
X112824700Y-87894219D01*
X112840959Y-87901914D01*
X113063000Y-87780629D01*
X113063000Y-86637000D01*
X113317000Y-86637000D01*
X113317000Y-87780629D01*
X113539041Y-87901914D01*
X114045134Y-87662389D01*
X114421041Y-87247423D01*
X114581904Y-86859039D01*
X114459915Y-86637000D01*
X113317000Y-86637000D01*
X113063000Y-86637000D01*
X113043000Y-86637000D01*
X113043000Y-86383000D01*
X113063000Y-86383000D01*
X113063000Y-86363000D01*
X113317000Y-86363000D01*
X113317000Y-86383000D01*
X114459915Y-86383000D01*
X114581904Y-86160961D01*
X114421041Y-85772577D01*
X114045134Y-85357611D01*
X113840892Y-85260947D01*
X114224577Y-85004577D01*
X114244804Y-84974305D01*
X115089670Y-85819172D01*
X115089670Y-85819172D01*
G37*
X115089670Y-85819172D02*
X115132071Y-85882629D01*
X115383463Y-86050604D01*
X115605148Y-86094700D01*
X115605152Y-86094700D01*
X115679999Y-86109588D01*
X115754846Y-86094700D01*
X119429495Y-86094700D01*
X119346887Y-86510000D01*
X119458260Y-87069909D01*
X119775423Y-87544577D01*
X120250091Y-87861740D01*
X120668667Y-87945000D01*
X120951333Y-87945000D01*
X121369909Y-87861740D01*
X121844577Y-87544577D01*
X122161740Y-87069909D01*
X122273113Y-86510000D01*
X122190505Y-86094700D01*
X125524599Y-86094700D01*
X126424371Y-86994473D01*
X126466771Y-87057929D01*
X126718163Y-87225904D01*
X126907526Y-87263571D01*
X127119375Y-87580625D01*
X127519691Y-87848107D01*
X123087899Y-92279900D01*
X122515457Y-92279900D01*
X122625000Y-92015439D01*
X122625000Y-91444561D01*
X122406534Y-90917138D01*
X122002862Y-90513466D01*
X121475439Y-90295000D01*
X120904561Y-90295000D01*
X120377138Y-90513466D01*
X119973466Y-90917138D01*
X119755000Y-91444561D01*
X119755000Y-92015439D01*
X119864543Y-92279900D01*
X118620248Y-92279900D01*
X118545400Y-92265012D01*
X118470552Y-92279900D01*
X118470548Y-92279900D01*
X118297005Y-92314420D01*
X118248862Y-92323996D01*
X118113155Y-92414673D01*
X117997471Y-92491971D01*
X117955071Y-92555427D01*
X114244804Y-96265695D01*
X114224577Y-96235423D01*
X114103894Y-96154785D01*
X114237765Y-96128157D01*
X114447809Y-95987809D01*
X114588157Y-95777765D01*
X114637440Y-95530000D01*
X114637440Y-93930000D01*
X114588157Y-93682235D01*
X114447809Y-93472191D01*
X114237765Y-93331843D01*
X113990000Y-93282560D01*
X113888797Y-93282560D01*
X113737929Y-93056771D01*
X113674473Y-93014371D01*
X113397847Y-92737745D01*
X115361861Y-92737745D01*
X115435995Y-92983864D01*
X115973223Y-93176965D01*
X116543454Y-93149778D01*
X116944005Y-92983864D01*
X117018139Y-92737745D01*
X116190000Y-91909605D01*
X115361861Y-92737745D01*
X113397847Y-92737745D01*
X112824700Y-92164599D01*
X112824700Y-91513223D01*
X114743035Y-91513223D01*
X114770222Y-92083454D01*
X114936136Y-92484005D01*
X115182255Y-92558139D01*
X116010395Y-91730000D01*
X116369605Y-91730000D01*
X117197745Y-92558139D01*
X117443864Y-92484005D01*
X117636965Y-91946777D01*
X117609778Y-91376546D01*
X117443864Y-90975995D01*
X117197745Y-90901861D01*
X116369605Y-91730000D01*
X116010395Y-91730000D01*
X115182255Y-90901861D01*
X114936136Y-90975995D01*
X114743035Y-91513223D01*
X112824700Y-91513223D01*
X112824700Y-90722255D01*
X115361861Y-90722255D01*
X116190000Y-91550395D01*
X117018139Y-90722255D01*
X116944005Y-90476136D01*
X116406777Y-90283035D01*
X115836546Y-90310222D01*
X115435995Y-90476136D01*
X115361861Y-90722255D01*
X112824700Y-90722255D01*
X112824700Y-87894219D01*
X112840959Y-87901914D01*
X113063000Y-87780629D01*
X113063000Y-86637000D01*
X113317000Y-86637000D01*
X113317000Y-87780629D01*
X113539041Y-87901914D01*
X114045134Y-87662389D01*
X114421041Y-87247423D01*
X114581904Y-86859039D01*
X114459915Y-86637000D01*
X113317000Y-86637000D01*
X113063000Y-86637000D01*
X113043000Y-86637000D01*
X113043000Y-86383000D01*
X113063000Y-86383000D01*
X113063000Y-86363000D01*
X113317000Y-86363000D01*
X113317000Y-86383000D01*
X114459915Y-86383000D01*
X114581904Y-86160961D01*
X114421041Y-85772577D01*
X114045134Y-85357611D01*
X113840892Y-85260947D01*
X114224577Y-85004577D01*
X114244804Y-84974305D01*
X115089670Y-85819172D01*
G36*
X167786800Y-84728698D02*
X162664440Y-89851059D01*
X162664440Y-89773000D01*
X162647814Y-89689415D01*
X162652000Y-89679309D01*
X162652000Y-89609250D01*
X162626870Y-89584120D01*
X162615157Y-89525235D01*
X162493391Y-89343000D01*
X162615157Y-89160765D01*
X162624387Y-89114363D01*
X162652000Y-89086750D01*
X162652000Y-89016691D01*
X162646470Y-89003341D01*
X162664440Y-88913000D01*
X162664440Y-88503000D01*
X162647814Y-88419415D01*
X162652000Y-88409309D01*
X162652000Y-88339250D01*
X162626870Y-88314120D01*
X162615157Y-88255235D01*
X162493391Y-88073000D01*
X162615157Y-87890765D01*
X162624387Y-87844363D01*
X162652000Y-87816750D01*
X162652000Y-87746691D01*
X162646470Y-87733341D01*
X162664440Y-87643000D01*
X162664440Y-87233000D01*
X162642560Y-87123000D01*
X162664440Y-87013000D01*
X162664440Y-86603000D01*
X162641565Y-86488000D01*
X162664440Y-86373000D01*
X162664440Y-85963000D01*
X162647814Y-85879415D01*
X162652000Y-85869309D01*
X162652000Y-85799250D01*
X162626870Y-85774120D01*
X162615157Y-85715235D01*
X162490040Y-85527985D01*
X162555327Y-85462698D01*
X162618454Y-85310296D01*
X162652000Y-85276750D01*
X162652000Y-85159250D01*
X162618454Y-85125704D01*
X162555327Y-84973302D01*
X162485025Y-84903000D01*
X162555327Y-84832698D01*
X162625525Y-84663225D01*
X162652000Y-84636750D01*
X162652000Y-84529250D01*
X162625525Y-84502775D01*
X162555327Y-84333302D01*
X162490040Y-84268015D01*
X162615157Y-84080765D01*
X162624387Y-84034363D01*
X162652000Y-84006750D01*
X162652000Y-83936691D01*
X162646470Y-83923341D01*
X162664440Y-83833000D01*
X162664440Y-83423000D01*
X162647814Y-83339415D01*
X162652000Y-83329309D01*
X162652000Y-83259250D01*
X162626870Y-83234120D01*
X162615157Y-83175235D01*
X162493391Y-82993000D01*
X162615157Y-82810765D01*
X162624387Y-82764363D01*
X162652000Y-82736750D01*
X162652000Y-82666691D01*
X162646470Y-82653341D01*
X162664440Y-82563000D01*
X162664440Y-82153000D01*
X162647814Y-82069415D01*
X162652000Y-82059309D01*
X162652000Y-81989250D01*
X162626870Y-81964120D01*
X162615157Y-81905235D01*
X162493391Y-81723000D01*
X162615157Y-81540765D01*
X162624387Y-81494363D01*
X162652000Y-81466750D01*
X162652000Y-81396691D01*
X162646470Y-81383341D01*
X162664440Y-81293000D01*
X162664440Y-81156797D01*
X162890229Y-81005929D01*
X162932631Y-80942470D01*
X167786800Y-76088302D01*
X167786800Y-84728698D01*
X167786800Y-84728698D01*
G37*
X167786800Y-84728698D02*
X162664440Y-89851059D01*
X162664440Y-89773000D01*
X162647814Y-89689415D01*
X162652000Y-89679309D01*
X162652000Y-89609250D01*
X162626870Y-89584120D01*
X162615157Y-89525235D01*
X162493391Y-89343000D01*
X162615157Y-89160765D01*
X162624387Y-89114363D01*
X162652000Y-89086750D01*
X162652000Y-89016691D01*
X162646470Y-89003341D01*
X162664440Y-88913000D01*
X162664440Y-88503000D01*
X162647814Y-88419415D01*
X162652000Y-88409309D01*
X162652000Y-88339250D01*
X162626870Y-88314120D01*
X162615157Y-88255235D01*
X162493391Y-88073000D01*
X162615157Y-87890765D01*
X162624387Y-87844363D01*
X162652000Y-87816750D01*
X162652000Y-87746691D01*
X162646470Y-87733341D01*
X162664440Y-87643000D01*
X162664440Y-87233000D01*
X162642560Y-87123000D01*
X162664440Y-87013000D01*
X162664440Y-86603000D01*
X162641565Y-86488000D01*
X162664440Y-86373000D01*
X162664440Y-85963000D01*
X162647814Y-85879415D01*
X162652000Y-85869309D01*
X162652000Y-85799250D01*
X162626870Y-85774120D01*
X162615157Y-85715235D01*
X162490040Y-85527985D01*
X162555327Y-85462698D01*
X162618454Y-85310296D01*
X162652000Y-85276750D01*
X162652000Y-85159250D01*
X162618454Y-85125704D01*
X162555327Y-84973302D01*
X162485025Y-84903000D01*
X162555327Y-84832698D01*
X162625525Y-84663225D01*
X162652000Y-84636750D01*
X162652000Y-84529250D01*
X162625525Y-84502775D01*
X162555327Y-84333302D01*
X162490040Y-84268015D01*
X162615157Y-84080765D01*
X162624387Y-84034363D01*
X162652000Y-84006750D01*
X162652000Y-83936691D01*
X162646470Y-83923341D01*
X162664440Y-83833000D01*
X162664440Y-83423000D01*
X162647814Y-83339415D01*
X162652000Y-83329309D01*
X162652000Y-83259250D01*
X162626870Y-83234120D01*
X162615157Y-83175235D01*
X162493391Y-82993000D01*
X162615157Y-82810765D01*
X162624387Y-82764363D01*
X162652000Y-82736750D01*
X162652000Y-82666691D01*
X162646470Y-82653341D01*
X162664440Y-82563000D01*
X162664440Y-82153000D01*
X162647814Y-82069415D01*
X162652000Y-82059309D01*
X162652000Y-81989250D01*
X162626870Y-81964120D01*
X162615157Y-81905235D01*
X162493391Y-81723000D01*
X162615157Y-81540765D01*
X162624387Y-81494363D01*
X162652000Y-81466750D01*
X162652000Y-81396691D01*
X162646470Y-81383341D01*
X162664440Y-81293000D01*
X162664440Y-81156797D01*
X162890229Y-81005929D01*
X162932631Y-80942470D01*
X167786800Y-76088302D01*
X167786800Y-84728698D01*
G36*
X160389000Y-85045000D02*
X160135000Y-85045000D01*
X160135000Y-84751000D01*
X160389000Y-84751000D01*
X160389000Y-85045000D01*
X160389000Y-85045000D01*
G37*
X160389000Y-85045000D02*
X160135000Y-85045000D01*
X160135000Y-84751000D01*
X160389000Y-84751000D01*
X160389000Y-85045000D01*
G36*
X134032744Y-58382000D02*
X134325256Y-58382000D01*
X134545408Y-58338209D01*
X153476271Y-77269073D01*
X153518671Y-77332529D01*
X153770063Y-77500504D01*
X153991748Y-77544600D01*
X153991752Y-77544600D01*
X154066600Y-77559488D01*
X154141448Y-77544600D01*
X156853800Y-77544600D01*
X156853800Y-77872174D01*
X156913854Y-78017158D01*
X156882871Y-78063527D01*
X156762998Y-78183400D01*
X156596926Y-78183400D01*
X156216520Y-78340969D01*
X155925369Y-78632120D01*
X155767800Y-79012526D01*
X155767800Y-79424274D01*
X155925369Y-79804680D01*
X156216520Y-80095831D01*
X156596926Y-80253400D01*
X157008674Y-80253400D01*
X157389080Y-80095831D01*
X157680231Y-79804680D01*
X157837800Y-79424274D01*
X157837800Y-79308000D01*
X157859560Y-79308000D01*
X157859560Y-79393000D01*
X157881440Y-79503000D01*
X157859560Y-79613000D01*
X157859560Y-80023000D01*
X157882435Y-80138000D01*
X157859560Y-80253000D01*
X157859560Y-80663000D01*
X157881440Y-80773000D01*
X157859560Y-80883000D01*
X157859560Y-81293000D01*
X157877530Y-81383341D01*
X157872000Y-81396691D01*
X157872000Y-81466750D01*
X157899613Y-81494363D01*
X157908843Y-81540765D01*
X157947087Y-81598000D01*
X136131846Y-81598000D01*
X136056999Y-81583112D01*
X135982152Y-81598000D01*
X135982148Y-81598000D01*
X135760463Y-81642096D01*
X135509071Y-81810071D01*
X135466671Y-81873527D01*
X132765599Y-84574600D01*
X132112013Y-84574600D01*
X132128839Y-84549418D01*
X132244092Y-83970000D01*
X132128839Y-83390582D01*
X131800625Y-82899375D01*
X131502239Y-82700000D01*
X131800625Y-82500625D01*
X132128839Y-82009418D01*
X132244092Y-81430000D01*
X132128839Y-80850582D01*
X131800625Y-80359375D01*
X131502239Y-80160000D01*
X131800625Y-79960625D01*
X132128839Y-79469418D01*
X132244092Y-78890000D01*
X132128839Y-78310582D01*
X131800625Y-77819375D01*
X131502239Y-77620000D01*
X131800625Y-77420625D01*
X132128839Y-76929418D01*
X132244092Y-76350000D01*
X132128839Y-75770582D01*
X131800625Y-75279375D01*
X131502239Y-75080000D01*
X131800625Y-74880625D01*
X132128839Y-74389418D01*
X132244092Y-73810000D01*
X132128839Y-73230582D01*
X131800625Y-72739375D01*
X131502239Y-72540000D01*
X131800625Y-72340625D01*
X132128839Y-71849418D01*
X132244092Y-71270000D01*
X132128839Y-70690582D01*
X131800625Y-70199375D01*
X131502239Y-70000000D01*
X131800625Y-69800625D01*
X132128839Y-69309418D01*
X132244092Y-68730000D01*
X132128839Y-68150582D01*
X131800625Y-67659375D01*
X131309418Y-67331161D01*
X130876256Y-67245000D01*
X130583744Y-67245000D01*
X130150582Y-67331161D01*
X129659375Y-67659375D01*
X129647184Y-67677619D01*
X129638157Y-67632235D01*
X129497809Y-67422191D01*
X129287765Y-67281843D01*
X129040000Y-67232560D01*
X127340000Y-67232560D01*
X127092235Y-67281843D01*
X126882191Y-67422191D01*
X126741843Y-67632235D01*
X126692560Y-67880000D01*
X126692560Y-68031204D01*
X126530226Y-68139671D01*
X126530224Y-68139673D01*
X126466771Y-68182071D01*
X126424373Y-68245524D01*
X124159899Y-70510000D01*
X122028043Y-70510000D01*
X121897569Y-70314732D01*
X133393473Y-58818829D01*
X133456929Y-58776429D01*
X133624904Y-58525037D01*
X133667795Y-58309407D01*
X134032744Y-58382000D01*
X134032744Y-58382000D01*
G37*
X134032744Y-58382000D02*
X134325256Y-58382000D01*
X134545408Y-58338209D01*
X153476271Y-77269073D01*
X153518671Y-77332529D01*
X153770063Y-77500504D01*
X153991748Y-77544600D01*
X153991752Y-77544600D01*
X154066600Y-77559488D01*
X154141448Y-77544600D01*
X156853800Y-77544600D01*
X156853800Y-77872174D01*
X156913854Y-78017158D01*
X156882871Y-78063527D01*
X156762998Y-78183400D01*
X156596926Y-78183400D01*
X156216520Y-78340969D01*
X155925369Y-78632120D01*
X155767800Y-79012526D01*
X155767800Y-79424274D01*
X155925369Y-79804680D01*
X156216520Y-80095831D01*
X156596926Y-80253400D01*
X157008674Y-80253400D01*
X157389080Y-80095831D01*
X157680231Y-79804680D01*
X157837800Y-79424274D01*
X157837800Y-79308000D01*
X157859560Y-79308000D01*
X157859560Y-79393000D01*
X157881440Y-79503000D01*
X157859560Y-79613000D01*
X157859560Y-80023000D01*
X157882435Y-80138000D01*
X157859560Y-80253000D01*
X157859560Y-80663000D01*
X157881440Y-80773000D01*
X157859560Y-80883000D01*
X157859560Y-81293000D01*
X157877530Y-81383341D01*
X157872000Y-81396691D01*
X157872000Y-81466750D01*
X157899613Y-81494363D01*
X157908843Y-81540765D01*
X157947087Y-81598000D01*
X136131846Y-81598000D01*
X136056999Y-81583112D01*
X135982152Y-81598000D01*
X135982148Y-81598000D01*
X135760463Y-81642096D01*
X135509071Y-81810071D01*
X135466671Y-81873527D01*
X132765599Y-84574600D01*
X132112013Y-84574600D01*
X132128839Y-84549418D01*
X132244092Y-83970000D01*
X132128839Y-83390582D01*
X131800625Y-82899375D01*
X131502239Y-82700000D01*
X131800625Y-82500625D01*
X132128839Y-82009418D01*
X132244092Y-81430000D01*
X132128839Y-80850582D01*
X131800625Y-80359375D01*
X131502239Y-80160000D01*
X131800625Y-79960625D01*
X132128839Y-79469418D01*
X132244092Y-78890000D01*
X132128839Y-78310582D01*
X131800625Y-77819375D01*
X131502239Y-77620000D01*
X131800625Y-77420625D01*
X132128839Y-76929418D01*
X132244092Y-76350000D01*
X132128839Y-75770582D01*
X131800625Y-75279375D01*
X131502239Y-75080000D01*
X131800625Y-74880625D01*
X132128839Y-74389418D01*
X132244092Y-73810000D01*
X132128839Y-73230582D01*
X131800625Y-72739375D01*
X131502239Y-72540000D01*
X131800625Y-72340625D01*
X132128839Y-71849418D01*
X132244092Y-71270000D01*
X132128839Y-70690582D01*
X131800625Y-70199375D01*
X131502239Y-70000000D01*
X131800625Y-69800625D01*
X132128839Y-69309418D01*
X132244092Y-68730000D01*
X132128839Y-68150582D01*
X131800625Y-67659375D01*
X131309418Y-67331161D01*
X130876256Y-67245000D01*
X130583744Y-67245000D01*
X130150582Y-67331161D01*
X129659375Y-67659375D01*
X129647184Y-67677619D01*
X129638157Y-67632235D01*
X129497809Y-67422191D01*
X129287765Y-67281843D01*
X129040000Y-67232560D01*
X127340000Y-67232560D01*
X127092235Y-67281843D01*
X126882191Y-67422191D01*
X126741843Y-67632235D01*
X126692560Y-67880000D01*
X126692560Y-68031204D01*
X126530226Y-68139671D01*
X126530224Y-68139673D01*
X126466771Y-68182071D01*
X126424373Y-68245524D01*
X124159899Y-70510000D01*
X122028043Y-70510000D01*
X121897569Y-70314732D01*
X133393473Y-58818829D01*
X133456929Y-58776429D01*
X133624904Y-58525037D01*
X133667795Y-58309407D01*
X134032744Y-58382000D01*
G36*
X165956670Y-68653000D02*
X166567330Y-68653000D01*
X166763401Y-68571785D01*
X166763400Y-74962098D01*
X163556900Y-78168599D01*
X163556900Y-70462648D01*
X163571788Y-70387800D01*
X163556900Y-70312952D01*
X163556900Y-70312948D01*
X163512804Y-70091263D01*
X163344829Y-69839871D01*
X163281373Y-69797471D01*
X163231902Y-69748000D01*
X163785140Y-69748000D01*
X164751775Y-69347607D01*
X165491607Y-68607775D01*
X165543724Y-68481952D01*
X165956670Y-68653000D01*
X165956670Y-68653000D01*
G37*
X165956670Y-68653000D02*
X166567330Y-68653000D01*
X166763401Y-68571785D01*
X166763400Y-74962098D01*
X163556900Y-78168599D01*
X163556900Y-70462648D01*
X163571788Y-70387800D01*
X163556900Y-70312952D01*
X163556900Y-70312948D01*
X163512804Y-70091263D01*
X163344829Y-69839871D01*
X163281373Y-69797471D01*
X163231902Y-69748000D01*
X163785140Y-69748000D01*
X164751775Y-69347607D01*
X165491607Y-68607775D01*
X165543724Y-68481952D01*
X165956670Y-68653000D01*
G36*
X153428375Y-57967625D02*
X153739000Y-58175178D01*
X153739001Y-62654848D01*
X153724112Y-62729700D01*
X153739001Y-62804552D01*
X153783097Y-63026237D01*
X153951072Y-63277629D01*
X154014528Y-63320029D01*
X160782498Y-70088000D01*
X160547750Y-70088000D01*
X160389000Y-70246750D01*
X160389000Y-70715560D01*
X160135000Y-70715560D01*
X160135000Y-70246750D01*
X159976250Y-70088000D01*
X158380690Y-70088000D01*
X158147301Y-70184673D01*
X157968673Y-70363302D01*
X157872000Y-70596691D01*
X157872000Y-70666750D01*
X158030750Y-70825500D01*
X158168456Y-70825500D01*
X158049191Y-70905191D01*
X157908843Y-71115235D01*
X157899613Y-71161637D01*
X157872000Y-71189250D01*
X157872000Y-71259309D01*
X157877530Y-71272659D01*
X157859560Y-71363000D01*
X157859560Y-71773000D01*
X157881440Y-71883000D01*
X157859560Y-71993000D01*
X157859560Y-72403000D01*
X157882435Y-72518000D01*
X157859560Y-72633000D01*
X157859560Y-73043000D01*
X157881440Y-73153000D01*
X157859560Y-73263000D01*
X157859560Y-73348000D01*
X155052802Y-73348000D01*
X139935663Y-58230862D01*
X140329625Y-57967625D01*
X140529000Y-57669239D01*
X140728375Y-57967625D01*
X141219582Y-58295839D01*
X141652744Y-58382000D01*
X141945256Y-58382000D01*
X142378418Y-58295839D01*
X142690267Y-58087468D01*
X143176171Y-58573373D01*
X143218571Y-58636829D01*
X143469963Y-58804804D01*
X143691648Y-58848900D01*
X143691653Y-58848900D01*
X143766500Y-58863788D01*
X143841347Y-58848900D01*
X147344253Y-58848900D01*
X147419100Y-58863788D01*
X147493947Y-58848900D01*
X147493952Y-58848900D01*
X147715637Y-58804804D01*
X147967029Y-58636829D01*
X148009431Y-58573370D01*
X148508311Y-58074491D01*
X148839582Y-58295839D01*
X149272744Y-58382000D01*
X149565256Y-58382000D01*
X149998418Y-58295839D01*
X150489625Y-57967625D01*
X150689000Y-57669239D01*
X150888375Y-57967625D01*
X151379582Y-58295839D01*
X151812744Y-58382000D01*
X152105256Y-58382000D01*
X152538418Y-58295839D01*
X153029625Y-57967625D01*
X153229000Y-57669239D01*
X153428375Y-57967625D01*
X153428375Y-57967625D01*
G37*
X153428375Y-57967625D02*
X153739000Y-58175178D01*
X153739001Y-62654848D01*
X153724112Y-62729700D01*
X153739001Y-62804552D01*
X153783097Y-63026237D01*
X153951072Y-63277629D01*
X154014528Y-63320029D01*
X160782498Y-70088000D01*
X160547750Y-70088000D01*
X160389000Y-70246750D01*
X160389000Y-70715560D01*
X160135000Y-70715560D01*
X160135000Y-70246750D01*
X159976250Y-70088000D01*
X158380690Y-70088000D01*
X158147301Y-70184673D01*
X157968673Y-70363302D01*
X157872000Y-70596691D01*
X157872000Y-70666750D01*
X158030750Y-70825500D01*
X158168456Y-70825500D01*
X158049191Y-70905191D01*
X157908843Y-71115235D01*
X157899613Y-71161637D01*
X157872000Y-71189250D01*
X157872000Y-71259309D01*
X157877530Y-71272659D01*
X157859560Y-71363000D01*
X157859560Y-71773000D01*
X157881440Y-71883000D01*
X157859560Y-71993000D01*
X157859560Y-72403000D01*
X157882435Y-72518000D01*
X157859560Y-72633000D01*
X157859560Y-73043000D01*
X157881440Y-73153000D01*
X157859560Y-73263000D01*
X157859560Y-73348000D01*
X155052802Y-73348000D01*
X139935663Y-58230862D01*
X140329625Y-57967625D01*
X140529000Y-57669239D01*
X140728375Y-57967625D01*
X141219582Y-58295839D01*
X141652744Y-58382000D01*
X141945256Y-58382000D01*
X142378418Y-58295839D01*
X142690267Y-58087468D01*
X143176171Y-58573373D01*
X143218571Y-58636829D01*
X143469963Y-58804804D01*
X143691648Y-58848900D01*
X143691653Y-58848900D01*
X143766500Y-58863788D01*
X143841347Y-58848900D01*
X147344253Y-58848900D01*
X147419100Y-58863788D01*
X147493947Y-58848900D01*
X147493952Y-58848900D01*
X147715637Y-58804804D01*
X147967029Y-58636829D01*
X148009431Y-58573370D01*
X148508311Y-58074491D01*
X148839582Y-58295839D01*
X149272744Y-58382000D01*
X149565256Y-58382000D01*
X149998418Y-58295839D01*
X150489625Y-57967625D01*
X150689000Y-57669239D01*
X150888375Y-57967625D01*
X151379582Y-58295839D01*
X151812744Y-58382000D01*
X152105256Y-58382000D01*
X152538418Y-58295839D01*
X153029625Y-57967625D01*
X153229000Y-57669239D01*
X153428375Y-57967625D01*
G36*
X116383748Y-65715858D02*
X116369605Y-65730000D01*
X116383748Y-65744142D01*
X116204143Y-65923748D01*
X116190000Y-65909605D01*
X115862483Y-66237123D01*
X115779163Y-66253696D01*
X115527771Y-66421671D01*
X115485371Y-66485127D01*
X114468036Y-67502463D01*
X114447809Y-67472191D01*
X114237765Y-67331843D01*
X113990000Y-67282560D01*
X113647741Y-67282560D01*
X114792665Y-66137636D01*
X114936136Y-66484005D01*
X115182255Y-66558139D01*
X116010395Y-65730000D01*
X115996252Y-65715858D01*
X116175858Y-65536252D01*
X116190000Y-65550395D01*
X116204142Y-65536252D01*
X116383748Y-65715858D01*
X116383748Y-65715858D01*
G37*
X116383748Y-65715858D02*
X116369605Y-65730000D01*
X116383748Y-65744142D01*
X116204143Y-65923748D01*
X116190000Y-65909605D01*
X115862483Y-66237123D01*
X115779163Y-66253696D01*
X115527771Y-66421671D01*
X115485371Y-66485127D01*
X114468036Y-67502463D01*
X114447809Y-67472191D01*
X114237765Y-67331843D01*
X113990000Y-67282560D01*
X113647741Y-67282560D01*
X114792665Y-66137636D01*
X114936136Y-66484005D01*
X115182255Y-66558139D01*
X116010395Y-65730000D01*
X115996252Y-65715858D01*
X116175858Y-65536252D01*
X116190000Y-65550395D01*
X116204142Y-65536252D01*
X116383748Y-65715858D01*
G36*
X156491071Y-58803129D02*
X156554530Y-58845531D01*
X162355706Y-64646708D01*
X161772225Y-64888393D01*
X161032393Y-65628225D01*
X160632000Y-66594860D01*
X160632000Y-67148098D01*
X156434300Y-62950399D01*
X156434300Y-58718165D01*
X156491071Y-58803129D01*
X156491071Y-58803129D01*
G37*
X156491071Y-58803129D02*
X156554530Y-58845531D01*
X162355706Y-64646708D01*
X161772225Y-64888393D01*
X161032393Y-65628225D01*
X160632000Y-66594860D01*
X160632000Y-67148098D01*
X156434300Y-62950399D01*
X156434300Y-58718165D01*
X156491071Y-58803129D01*
G36*
X158692570Y-58799472D02*
X158734971Y-58862929D01*
X158986363Y-59030904D01*
X159208048Y-59075000D01*
X159208052Y-59075000D01*
X159282900Y-59089888D01*
X159357748Y-59075000D01*
X164802299Y-59075000D01*
X166982858Y-61255560D01*
X163647000Y-61255560D01*
X163399235Y-61304843D01*
X163189191Y-61445191D01*
X163048843Y-61655235D01*
X162999560Y-61903000D01*
X162999560Y-63140958D01*
X157939740Y-58081139D01*
X157960420Y-58067321D01*
X158692570Y-58799472D01*
X158692570Y-58799472D01*
G37*
X158692570Y-58799472D02*
X158734971Y-58862929D01*
X158986363Y-59030904D01*
X159208048Y-59075000D01*
X159208052Y-59075000D01*
X159282900Y-59089888D01*
X159357748Y-59075000D01*
X164802299Y-59075000D01*
X166982858Y-61255560D01*
X163647000Y-61255560D01*
X163399235Y-61304843D01*
X163189191Y-61445191D01*
X163048843Y-61655235D01*
X162999560Y-61903000D01*
X162999560Y-63140958D01*
X157939740Y-58081139D01*
X157960420Y-58067321D01*
X158692570Y-58799472D01*
G36*
X135648375Y-55427625D02*
X135946761Y-55627000D01*
X135766529Y-55747427D01*
X135328573Y-55309471D01*
X135449000Y-55129239D01*
X135648375Y-55427625D01*
X135648375Y-55427625D01*
G37*
X135648375Y-55427625D02*
X135946761Y-55627000D01*
X135766529Y-55747427D01*
X135328573Y-55309471D01*
X135449000Y-55129239D01*
X135648375Y-55427625D01*
G04 #@! TD*
M02*
