G04 #@! TF.GenerationSoftware,KiCad,Pcbnew,(5.0.0-3-g5ebb6b6)*
G04 #@! TF.CreationDate,2018-12-13T20:58:23+09:00*
G04 #@! TF.ProjectId,SBC80-CF,53424338302D43462E6B696361645F70,rev?*
G04 #@! TF.SameCoordinates,Original*
G04 #@! TF.FileFunction,Copper,L1,Top,Signal*
G04 #@! TF.FilePolarity,Positive*
%FSLAX46Y46*%
G04 Gerber Fmt 4.6, Leading zero omitted, Abs format (unit mm)*
G04 Created by KiCad (PCBNEW (5.0.0-3-g5ebb6b6)) date *
%MOMM*%
%LPD*%
G01*
G04 APERTURE LIST*
G04 #@! TA.AperFunction,SMDPad,CuDef*
%ADD10R,3.510000X0.410000*%
G04 #@! TD*
G04 #@! TA.AperFunction,ComponentPad*
%ADD11C,3.990000*%
G04 #@! TD*
G04 #@! TA.AperFunction,SMDPad,CuDef*
%ADD12R,4.570000X2.000000*%
G04 #@! TD*
G04 #@! TA.AperFunction,ComponentPad*
%ADD13R,1.700000X1.700000*%
G04 #@! TD*
G04 #@! TA.AperFunction,ComponentPad*
%ADD14O,1.700000X1.700000*%
G04 #@! TD*
G04 #@! TA.AperFunction,ComponentPad*
%ADD15R,1.800000X1.800000*%
G04 #@! TD*
G04 #@! TA.AperFunction,ComponentPad*
%ADD16C,1.800000*%
G04 #@! TD*
G04 #@! TA.AperFunction,ComponentPad*
%ADD17C,1.600000*%
G04 #@! TD*
G04 #@! TA.AperFunction,ComponentPad*
%ADD18R,1.600000X1.600000*%
G04 #@! TD*
G04 #@! TA.AperFunction,ComponentPad*
%ADD19C,1.400000*%
G04 #@! TD*
G04 #@! TA.AperFunction,ComponentPad*
%ADD20O,1.400000X1.400000*%
G04 #@! TD*
G04 #@! TA.AperFunction,ComponentPad*
%ADD21O,1.600000X1.600000*%
G04 #@! TD*
G04 #@! TA.AperFunction,ViaPad*
%ADD22C,0.800000*%
G04 #@! TD*
G04 #@! TA.AperFunction,Conductor*
%ADD23C,0.250000*%
G04 #@! TD*
G04 #@! TA.AperFunction,Conductor*
%ADD24C,0.600000*%
G04 #@! TD*
G04 #@! TA.AperFunction,Conductor*
%ADD25C,0.254000*%
G04 #@! TD*
G04 APERTURE END LIST*
D10*
G04 #@! TO.P,J3,1*
G04 #@! TO.N,GND*
X154320000Y-71690000D03*
G04 #@! TO.P,J3,26*
G04 #@! TO.N,/~CD1*
X154320000Y-72330000D03*
G04 #@! TO.P,J3,2*
G04 #@! TO.N,/D3*
X154320000Y-72960000D03*
G04 #@! TO.P,J3,27*
G04 #@! TO.N,/D11*
X154320000Y-73600000D03*
G04 #@! TO.P,J3,3*
G04 #@! TO.N,/D4*
X154320000Y-74230000D03*
G04 #@! TO.P,J3,28*
G04 #@! TO.N,/D12*
X154320000Y-74870000D03*
G04 #@! TO.P,J3,4*
G04 #@! TO.N,/D5*
X154320000Y-75500000D03*
G04 #@! TO.P,J3,29*
G04 #@! TO.N,/D13*
X154320000Y-76140000D03*
G04 #@! TO.P,J3,5*
G04 #@! TO.N,/D6*
X154320000Y-76770000D03*
G04 #@! TO.P,J3,30*
G04 #@! TO.N,/D14*
X154320000Y-77410000D03*
G04 #@! TO.P,J3,6*
G04 #@! TO.N,/D7*
X154320000Y-78040000D03*
G04 #@! TO.P,J3,31*
G04 #@! TO.N,/D15*
X154320000Y-78680000D03*
G04 #@! TO.P,J3,7*
G04 #@! TO.N,/~CS0*
X154320000Y-79310000D03*
G04 #@! TO.P,J3,32*
G04 #@! TO.N,/~CS1*
X154320000Y-79950000D03*
G04 #@! TO.P,J3,8*
G04 #@! TO.N,GND*
X154320000Y-80580000D03*
G04 #@! TO.P,J3,33*
G04 #@! TO.N,/VS1*
X154320000Y-81220000D03*
G04 #@! TO.P,J3,9*
G04 #@! TO.N,GND*
X154320000Y-81850000D03*
G04 #@! TO.P,J3,34*
G04 #@! TO.N,~IORD*
X154320000Y-82490000D03*
G04 #@! TO.P,J3,10*
G04 #@! TO.N,GND*
X154320000Y-83120000D03*
G04 #@! TO.P,J3,35*
G04 #@! TO.N,~IOWR*
X154320000Y-83760000D03*
G04 #@! TO.P,J3,11*
G04 #@! TO.N,GND*
X154320000Y-84390000D03*
G04 #@! TO.P,J3,36*
G04 #@! TO.N,/~WE*
X154320000Y-85030000D03*
G04 #@! TO.P,J3,12*
G04 #@! TO.N,GND*
X154320000Y-85660000D03*
G04 #@! TO.P,J3,37*
G04 #@! TO.N,/INTRQ*
X154320000Y-86300000D03*
G04 #@! TO.P,J3,13*
G04 #@! TO.N,VCC*
X154320000Y-86930000D03*
G04 #@! TO.P,J3,38*
X154320000Y-87570000D03*
G04 #@! TO.P,J3,14*
G04 #@! TO.N,GND*
X154320000Y-88200000D03*
G04 #@! TO.P,J3,39*
X154320000Y-88840000D03*
G04 #@! TO.P,J3,15*
X154320000Y-89470000D03*
G04 #@! TO.P,J3,40*
G04 #@! TO.N,/VS2*
X154320000Y-90110000D03*
G04 #@! TO.P,J3,16*
G04 #@! TO.N,GND*
X154320000Y-90740000D03*
G04 #@! TO.P,J3,41*
G04 #@! TO.N,~RESET*
X154320000Y-91380000D03*
G04 #@! TO.P,J3,17*
G04 #@! TO.N,GND*
X154320000Y-92010000D03*
G04 #@! TO.P,J3,42*
G04 #@! TO.N,/IORDY*
X154320000Y-92650000D03*
G04 #@! TO.P,J3,18*
G04 #@! TO.N,/A2*
X154320000Y-93280000D03*
G04 #@! TO.P,J3,43*
G04 #@! TO.N,/DMREQ*
X154320000Y-93920000D03*
G04 #@! TO.P,J3,19*
G04 #@! TO.N,/A1*
X154320000Y-94550000D03*
G04 #@! TO.P,J3,44*
G04 #@! TO.N,/~DMACK*
X154320000Y-95190000D03*
G04 #@! TO.P,J3,20*
G04 #@! TO.N,/A0*
X154320000Y-95820000D03*
G04 #@! TO.P,J3,45*
G04 #@! TO.N,/~DASP*
X154320000Y-96460000D03*
G04 #@! TO.P,J3,21*
G04 #@! TO.N,/D0*
X154320000Y-97090000D03*
G04 #@! TO.P,J3,46*
G04 #@! TO.N,/~PDIAG*
X154320000Y-97730000D03*
G04 #@! TO.P,J3,22*
G04 #@! TO.N,/D1*
X154320000Y-98360000D03*
G04 #@! TO.P,J3,47*
G04 #@! TO.N,/D8*
X154320000Y-99000000D03*
G04 #@! TO.P,J3,23*
G04 #@! TO.N,/D2*
X154320000Y-99630000D03*
G04 #@! TO.P,J3,48*
G04 #@! TO.N,/D9*
X154320000Y-100270000D03*
G04 #@! TO.P,J3,24*
G04 #@! TO.N,/~IOCS16*
X154320000Y-100900000D03*
G04 #@! TO.P,J3,49*
G04 #@! TO.N,/D10*
X154320000Y-101540000D03*
G04 #@! TO.P,J3,25*
G04 #@! TO.N,/~CD2*
X154320000Y-102170000D03*
G04 #@! TO.P,J3,50*
G04 #@! TO.N,GND*
X154320000Y-102810000D03*
D11*
G04 #@! TO.P,J3,*
G04 #@! TO.N,*
X157330000Y-107260000D03*
X157340000Y-67260000D03*
D12*
X159990000Y-63610000D03*
X159980000Y-110890000D03*
G04 #@! TD*
D13*
G04 #@! TO.P,J2,1*
G04 #@! TO.N,Net-(J2-Pad1)*
X128190000Y-68730000D03*
D14*
G04 #@! TO.P,J2,2*
G04 #@! TO.N,/~CS0*
X130730000Y-68730000D03*
G04 #@! TO.P,J2,3*
G04 #@! TO.N,Net-(J2-Pad3)*
X128190000Y-71270000D03*
G04 #@! TO.P,J2,4*
G04 #@! TO.N,/~CS0*
X130730000Y-71270000D03*
G04 #@! TO.P,J2,5*
G04 #@! TO.N,Net-(J2-Pad5)*
X128190000Y-73810000D03*
G04 #@! TO.P,J2,6*
G04 #@! TO.N,/~CS0*
X130730000Y-73810000D03*
G04 #@! TO.P,J2,7*
G04 #@! TO.N,Net-(J2-Pad7)*
X128190000Y-76350000D03*
G04 #@! TO.P,J2,8*
G04 #@! TO.N,/~CS0*
X130730000Y-76350000D03*
G04 #@! TO.P,J2,9*
G04 #@! TO.N,Net-(J2-Pad9)*
X128190000Y-78890000D03*
G04 #@! TO.P,J2,10*
G04 #@! TO.N,/~CS0*
X130730000Y-78890000D03*
G04 #@! TO.P,J2,11*
G04 #@! TO.N,Net-(J2-Pad11)*
X128190000Y-81430000D03*
G04 #@! TO.P,J2,12*
G04 #@! TO.N,/~CS0*
X130730000Y-81430000D03*
G04 #@! TO.P,J2,13*
G04 #@! TO.N,Net-(J2-Pad13)*
X128190000Y-83970000D03*
G04 #@! TO.P,J2,14*
G04 #@! TO.N,/~CS0*
X130730000Y-83970000D03*
G04 #@! TO.P,J2,15*
G04 #@! TO.N,Net-(J2-Pad15)*
X128190000Y-86510000D03*
G04 #@! TO.P,J2,16*
G04 #@! TO.N,/~CS0*
X130730000Y-86510000D03*
G04 #@! TD*
D15*
G04 #@! TO.P,D1,1*
G04 #@! TO.N,/~DASP*
X145990000Y-110110000D03*
D16*
G04 #@! TO.P,D1,2*
G04 #@! TO.N,Net-(D1-Pad2)*
X143450000Y-110110000D03*
G04 #@! TD*
D17*
G04 #@! TO.P,C1,1*
G04 #@! TO.N,VCC*
X121190000Y-65730000D03*
G04 #@! TO.P,C1,2*
G04 #@! TO.N,GND*
X116190000Y-65730000D03*
G04 #@! TD*
G04 #@! TO.P,C2,2*
G04 #@! TO.N,GND*
X116190000Y-91730000D03*
G04 #@! TO.P,C2,1*
G04 #@! TO.N,VCC*
X121190000Y-91730000D03*
G04 #@! TD*
D18*
G04 #@! TO.P,C3,1*
G04 #@! TO.N,VCC*
X114000000Y-57000000D03*
D17*
G04 #@! TO.P,C3,2*
G04 #@! TO.N,GND*
X114000000Y-54500000D03*
G04 #@! TD*
D19*
G04 #@! TO.P,R1,1*
G04 #@! TO.N,VCC*
X128210000Y-99950000D03*
D20*
G04 #@! TO.P,R1,2*
G04 #@! TO.N,/~CS1*
X135830000Y-99950000D03*
G04 #@! TD*
G04 #@! TO.P,R2,2*
G04 #@! TO.N,/~WE*
X135830000Y-102490000D03*
D19*
G04 #@! TO.P,R2,1*
G04 #@! TO.N,VCC*
X128210000Y-102490000D03*
G04 #@! TD*
G04 #@! TO.P,R3,1*
G04 #@! TO.N,VCC*
X128210000Y-105030000D03*
D20*
G04 #@! TO.P,R3,2*
G04 #@! TO.N,/~DMACK*
X135830000Y-105030000D03*
G04 #@! TD*
G04 #@! TO.P,R4,2*
G04 #@! TO.N,/~PDIAG*
X135830000Y-107570000D03*
D19*
G04 #@! TO.P,R4,1*
G04 #@! TO.N,VCC*
X128210000Y-107570000D03*
G04 #@! TD*
G04 #@! TO.P,R5,1*
G04 #@! TO.N,VCC*
X128210000Y-110110000D03*
D20*
G04 #@! TO.P,R5,2*
G04 #@! TO.N,Net-(D1-Pad2)*
X135830000Y-110110000D03*
G04 #@! TD*
D18*
G04 #@! TO.P,U1,1*
G04 #@! TO.N,/A5*
X113190000Y-68730000D03*
D21*
G04 #@! TO.P,U1,9*
G04 #@! TO.N,Net-(J2-Pad13)*
X120810000Y-86510000D03*
G04 #@! TO.P,U1,2*
G04 #@! TO.N,/A6*
X113190000Y-71270000D03*
G04 #@! TO.P,U1,10*
G04 #@! TO.N,Net-(J2-Pad11)*
X120810000Y-83970000D03*
G04 #@! TO.P,U1,3*
G04 #@! TO.N,/A7*
X113190000Y-73810000D03*
G04 #@! TO.P,U1,11*
G04 #@! TO.N,Net-(J2-Pad9)*
X120810000Y-81430000D03*
G04 #@! TO.P,U1,4*
G04 #@! TO.N,GND*
X113190000Y-76350000D03*
G04 #@! TO.P,U1,12*
G04 #@! TO.N,Net-(J2-Pad7)*
X120810000Y-78890000D03*
G04 #@! TO.P,U1,5*
G04 #@! TO.N,GND*
X113190000Y-78890000D03*
G04 #@! TO.P,U1,13*
G04 #@! TO.N,Net-(J2-Pad5)*
X120810000Y-76350000D03*
G04 #@! TO.P,U1,6*
G04 #@! TO.N,VCC*
X113190000Y-81430000D03*
G04 #@! TO.P,U1,14*
G04 #@! TO.N,Net-(J2-Pad3)*
X120810000Y-73810000D03*
G04 #@! TO.P,U1,7*
G04 #@! TO.N,Net-(J2-Pad15)*
X113190000Y-83970000D03*
G04 #@! TO.P,U1,15*
G04 #@! TO.N,Net-(J2-Pad1)*
X120810000Y-71270000D03*
G04 #@! TO.P,U1,8*
G04 #@! TO.N,GND*
X113190000Y-86510000D03*
G04 #@! TO.P,U1,16*
G04 #@! TO.N,VCC*
X120810000Y-68730000D03*
G04 #@! TD*
D18*
G04 #@! TO.P,U2,1*
G04 #@! TO.N,/RES*
X113190000Y-94730000D03*
D21*
G04 #@! TO.P,U2,8*
G04 #@! TO.N,Net-(U2-Pad8)*
X120810000Y-109970000D03*
G04 #@! TO.P,U2,2*
G04 #@! TO.N,~RESET*
X113190000Y-97270000D03*
G04 #@! TO.P,U2,9*
G04 #@! TO.N,GND*
X120810000Y-107430000D03*
G04 #@! TO.P,U2,3*
X113190000Y-99810000D03*
G04 #@! TO.P,U2,10*
G04 #@! TO.N,Net-(U2-Pad10)*
X120810000Y-104890000D03*
G04 #@! TO.P,U2,4*
G04 #@! TO.N,Net-(U2-Pad4)*
X113190000Y-102350000D03*
G04 #@! TO.P,U2,11*
G04 #@! TO.N,GND*
X120810000Y-102350000D03*
G04 #@! TO.P,U2,5*
X113190000Y-104890000D03*
G04 #@! TO.P,U2,12*
G04 #@! TO.N,Net-(U2-Pad12)*
X120810000Y-99810000D03*
G04 #@! TO.P,U2,6*
G04 #@! TO.N,Net-(U2-Pad6)*
X113190000Y-107430000D03*
G04 #@! TO.P,U2,13*
G04 #@! TO.N,GND*
X120810000Y-97270000D03*
G04 #@! TO.P,U2,7*
X113190000Y-109970000D03*
G04 #@! TO.P,U2,14*
G04 #@! TO.N,VCC*
X120810000Y-94730000D03*
G04 #@! TD*
D13*
G04 #@! TO.P,J1,1*
G04 #@! TO.N,VCC*
X124019000Y-56897000D03*
D14*
G04 #@! TO.P,J1,2*
G04 #@! TO.N,GND*
X124019000Y-54357000D03*
G04 #@! TO.P,J1,3*
G04 #@! TO.N,VCC*
X126559000Y-56897000D03*
G04 #@! TO.P,J1,4*
G04 #@! TO.N,GND*
X126559000Y-54357000D03*
G04 #@! TO.P,J1,5*
G04 #@! TO.N,Net-(J1-Pad5)*
X129099000Y-56897000D03*
G04 #@! TO.P,J1,6*
G04 #@! TO.N,Net-(J1-Pad6)*
X129099000Y-54357000D03*
G04 #@! TO.P,J1,7*
G04 #@! TO.N,Net-(J1-Pad7)*
X131639000Y-56897000D03*
G04 #@! TO.P,J1,8*
G04 #@! TO.N,Net-(J1-Pad8)*
X131639000Y-54357000D03*
G04 #@! TO.P,J1,9*
G04 #@! TO.N,/D0*
X134179000Y-56897000D03*
G04 #@! TO.P,J1,10*
G04 #@! TO.N,/D1*
X134179000Y-54357000D03*
G04 #@! TO.P,J1,11*
G04 #@! TO.N,/D2*
X136719000Y-56897000D03*
G04 #@! TO.P,J1,12*
G04 #@! TO.N,/D3*
X136719000Y-54357000D03*
G04 #@! TO.P,J1,13*
G04 #@! TO.N,/D4*
X139259000Y-56897000D03*
G04 #@! TO.P,J1,14*
G04 #@! TO.N,/D5*
X139259000Y-54357000D03*
G04 #@! TO.P,J1,15*
G04 #@! TO.N,/D6*
X141799000Y-56897000D03*
G04 #@! TO.P,J1,16*
G04 #@! TO.N,/D7*
X141799000Y-54357000D03*
G04 #@! TO.P,J1,17*
G04 #@! TO.N,~IORD*
X144339000Y-56897000D03*
G04 #@! TO.P,J1,18*
G04 #@! TO.N,Net-(J1-Pad18)*
X144339000Y-54357000D03*
G04 #@! TO.P,J1,19*
G04 #@! TO.N,~IOWR*
X146879000Y-56897000D03*
G04 #@! TO.P,J1,20*
G04 #@! TO.N,Net-(J1-Pad20)*
X146879000Y-54357000D03*
G04 #@! TO.P,J1,21*
G04 #@! TO.N,/RES*
X149419000Y-56897000D03*
G04 #@! TO.P,J1,22*
G04 #@! TO.N,Net-(J1-Pad22)*
X149419000Y-54357000D03*
G04 #@! TO.P,J1,23*
G04 #@! TO.N,Net-(J1-Pad23)*
X151959000Y-56897000D03*
G04 #@! TO.P,J1,24*
G04 #@! TO.N,Net-(J1-Pad24)*
X151959000Y-54357000D03*
G04 #@! TO.P,J1,25*
G04 #@! TO.N,/A0*
X154499000Y-56897000D03*
G04 #@! TO.P,J1,26*
G04 #@! TO.N,/A1*
X154499000Y-54357000D03*
G04 #@! TO.P,J1,27*
G04 #@! TO.N,/A2*
X157039000Y-56897000D03*
G04 #@! TO.P,J1,28*
G04 #@! TO.N,Net-(J1-Pad28)*
X157039000Y-54357000D03*
G04 #@! TO.P,J1,29*
G04 #@! TO.N,Net-(J1-Pad29)*
X159579000Y-56897000D03*
G04 #@! TO.P,J1,30*
G04 #@! TO.N,/A5*
X159579000Y-54357000D03*
G04 #@! TO.P,J1,31*
G04 #@! TO.N,/A6*
X162119000Y-56897000D03*
G04 #@! TO.P,J1,32*
G04 #@! TO.N,/A7*
X162119000Y-54357000D03*
G04 #@! TO.P,J1,33*
G04 #@! TO.N,Net-(J1-Pad33)*
X164659000Y-56897000D03*
G04 #@! TO.P,J1,34*
G04 #@! TO.N,Net-(J1-Pad34)*
X164659000Y-54357000D03*
G04 #@! TO.P,J1,35*
G04 #@! TO.N,Net-(J1-Pad35)*
X167199000Y-56897000D03*
G04 #@! TO.P,J1,36*
G04 #@! TO.N,Net-(J1-Pad36)*
X167199000Y-54357000D03*
G04 #@! TO.P,J1,37*
G04 #@! TO.N,Net-(J1-Pad37)*
X169739000Y-56897000D03*
G04 #@! TO.P,J1,38*
G04 #@! TO.N,Net-(J1-Pad38)*
X169739000Y-54357000D03*
G04 #@! TO.P,J1,39*
G04 #@! TO.N,Net-(J1-Pad39)*
X172279000Y-56897000D03*
G04 #@! TO.P,J1,40*
G04 #@! TO.N,Net-(J1-Pad40)*
X172279000Y-54357000D03*
G04 #@! TD*
D22*
G04 #@! TO.N,VCC*
X118410000Y-83770000D03*
G04 #@! TO.N,GND*
X137735000Y-84075000D03*
X135830000Y-76455000D03*
X125670000Y-61215000D03*
X141460000Y-71040000D03*
G04 #@! TO.N,/A2*
X156860000Y-93070000D03*
G04 #@! TO.N,/D0*
X149647600Y-95596300D03*
G04 #@! TO.N,/D1*
X150419500Y-97939200D03*
G04 #@! TO.N,/D2*
X151368300Y-98784500D03*
G04 #@! TO.N,/D3*
X149773600Y-72942400D03*
G04 #@! TO.N,/D4*
X151104000Y-74230000D03*
G04 #@! TO.N,/D5*
X148135600Y-69433200D03*
G04 #@! TO.N,/D6*
X151701200Y-76515000D03*
G04 #@! TO.N,/D7*
X151590000Y-77980000D03*
G04 #@! TO.N,~IORD*
X151270000Y-81890000D03*
G04 #@! TO.N,~IOWR*
X151466135Y-83133564D03*
G04 #@! TO.N,/A0*
X157010000Y-95450000D03*
G04 #@! TO.N,/~CS1*
X146833200Y-85512800D03*
G04 #@! TO.N,/~WE*
X149243300Y-88026400D03*
G04 #@! TD*
D23*
G04 #@! TO.N,VCC*
X121190000Y-91730000D02*
X122533600Y-90386400D01*
X122533600Y-90386400D02*
X149423300Y-90386400D01*
X149423300Y-90386400D02*
X152239700Y-87570000D01*
X152352300Y-87570000D02*
X152239700Y-87570000D01*
X154320000Y-87570000D02*
X152352300Y-87570000D01*
X154320000Y-86930000D02*
X152239700Y-86930000D01*
X152239700Y-87570000D02*
X152239700Y-86930000D01*
D24*
X121190000Y-57000000D02*
X121190000Y-65730000D01*
X124019000Y-56897000D02*
X121293000Y-56897000D01*
D23*
X121293000Y-56897000D02*
X121190000Y-57000000D01*
D24*
X121190000Y-57000000D02*
X115125300Y-57000000D01*
D23*
X114000000Y-57000000D02*
X115125300Y-57000000D01*
D24*
X126559000Y-56897000D02*
X124019000Y-56897000D01*
X115530000Y-83770000D02*
X118410000Y-83770000D01*
X113190000Y-81430000D02*
X115530000Y-83770000D01*
D23*
G04 #@! TO.N,GND*
X156287700Y-80580000D02*
X156400200Y-80580000D01*
X156400300Y-81850000D02*
X156400300Y-80580100D01*
X156400300Y-80580100D02*
X156400200Y-80580000D01*
X156287700Y-81850000D02*
X156400300Y-81850000D01*
X154320000Y-81850000D02*
X156287700Y-81850000D01*
X156400300Y-83120000D02*
X156400300Y-81850000D01*
X156400300Y-84390000D02*
X156400300Y-83120000D01*
X156400300Y-83120000D02*
X156287700Y-83120000D01*
X154320000Y-80580000D02*
X156287700Y-80580000D01*
X113190000Y-86510000D02*
X113190000Y-87635300D01*
X113190000Y-87635300D02*
X116190000Y-90635300D01*
X116190000Y-90635300D02*
X116190000Y-91730000D01*
X156287700Y-84390000D02*
X156400300Y-84390000D01*
X156400300Y-85660000D02*
X156400300Y-84390000D01*
X156231400Y-88200000D02*
X156400300Y-88031100D01*
X156400300Y-88031100D02*
X156400300Y-85660000D01*
X156158100Y-88840000D02*
X156231400Y-88766700D01*
X156231400Y-88766700D02*
X156231400Y-88200000D01*
X154320000Y-85660000D02*
X156400300Y-85660000D01*
X154320000Y-88200000D02*
X156231400Y-88200000D01*
X154320000Y-92010000D02*
X156400300Y-92010000D01*
X156400300Y-92010000D02*
X156400300Y-90852600D01*
X156400300Y-90852600D02*
X156287700Y-90740000D01*
X133291400Y-104894900D02*
X133291400Y-103543700D01*
X133291400Y-103543700D02*
X135859700Y-100975400D01*
X135859700Y-100975400D02*
X136262100Y-100975400D01*
X136262100Y-100975400D02*
X145227500Y-92010000D01*
X145227500Y-92010000D02*
X154320000Y-92010000D01*
X133291400Y-104894900D02*
X134525000Y-106128500D01*
X134525000Y-106128500D02*
X148921200Y-106128500D01*
X148921200Y-106128500D02*
X152239700Y-102810000D01*
X121935300Y-107430000D02*
X123060600Y-106304700D01*
X123060600Y-106304700D02*
X131881600Y-106304700D01*
X131881600Y-106304700D02*
X133291400Y-104894900D01*
X120810000Y-102350000D02*
X120810000Y-101224700D01*
X120810000Y-97270000D02*
X120810000Y-98395300D01*
X120810000Y-98395300D02*
X121091300Y-98395300D01*
X121091300Y-98395300D02*
X121935300Y-99239300D01*
X121935300Y-99239300D02*
X121935300Y-100380800D01*
X121935300Y-100380800D02*
X121091400Y-101224700D01*
X121091400Y-101224700D02*
X120810000Y-101224700D01*
X156287700Y-90740000D02*
X156400300Y-90627400D01*
X156400300Y-90627400D02*
X156400300Y-89702200D01*
X156400300Y-89702200D02*
X156168100Y-89470000D01*
X156168100Y-89470000D02*
X156400300Y-89237800D01*
X156400300Y-89237800D02*
X156400300Y-88840000D01*
X154320000Y-90740000D02*
X156287700Y-90740000D01*
X154320000Y-102810000D02*
X152239700Y-102810000D01*
X120810000Y-107430000D02*
X121935300Y-107430000D01*
X154320000Y-83120000D02*
X156287700Y-83120000D01*
X154320000Y-84390000D02*
X156287700Y-84390000D01*
X156158100Y-88840000D02*
X156400300Y-88840000D01*
X155360200Y-88840000D02*
X156158100Y-88840000D01*
X154320000Y-88840000D02*
X154960000Y-88840000D01*
X155360200Y-88840000D02*
X154960000Y-88840000D01*
X155360200Y-89470000D02*
X156168100Y-89470000D01*
X154320000Y-89470000D02*
X154950000Y-89470000D01*
X155360200Y-89470000D02*
X154950000Y-89470000D01*
D24*
X126559000Y-54357000D02*
X124019000Y-54357000D01*
D23*
X156400300Y-71690000D02*
X154320000Y-71690000D01*
X157360000Y-72649700D02*
X156400300Y-71690000D01*
X157360000Y-79620200D02*
X157360000Y-72649700D01*
X156400200Y-80580000D02*
X157360000Y-79620200D01*
G04 #@! TO.N,/~DASP*
X154320000Y-96460000D02*
X156400300Y-96460000D01*
X156400300Y-96460000D02*
X156868400Y-96928100D01*
X156868400Y-96928100D02*
X156868400Y-103437200D01*
X156868400Y-103437200D02*
X150195600Y-110110000D01*
X150195600Y-110110000D02*
X145990000Y-110110000D01*
G04 #@! TO.N,Net-(D1-Pad2)*
X135830000Y-110110000D02*
X143450000Y-110110000D01*
G04 #@! TO.N,/A1*
X154499000Y-54357000D02*
X155674300Y-54357000D01*
X155674300Y-54357000D02*
X155674300Y-53989700D01*
X155674300Y-53989700D02*
X156493800Y-53170200D01*
X156493800Y-53170200D02*
X162606800Y-53170200D01*
X162606800Y-53170200D02*
X163294900Y-53858300D01*
X163294900Y-53858300D02*
X163294900Y-54657100D01*
X163294900Y-54657100D02*
X164359400Y-55721600D01*
X164359400Y-55721600D02*
X165184600Y-55721600D01*
X165184600Y-55721600D02*
X165852800Y-56389800D01*
X165852800Y-56389800D02*
X165852800Y-85258800D01*
X165852800Y-85258800D02*
X156561600Y-94550000D01*
X156561600Y-94550000D02*
X154320000Y-94550000D01*
G04 #@! TO.N,/A2*
X156400300Y-93280000D02*
X154320000Y-93280000D01*
X156493900Y-93373600D02*
X156400300Y-93280000D01*
X156860000Y-93070000D02*
X156493900Y-93373600D01*
G04 #@! TO.N,/D0*
X149647600Y-95596300D02*
X151141300Y-97090000D01*
X151141300Y-97090000D02*
X154320000Y-97090000D01*
G04 #@! TO.N,/D1*
X152239700Y-98360000D02*
X151818900Y-97939200D01*
X151818900Y-97939200D02*
X150419500Y-97939200D01*
X154320000Y-98360000D02*
X152239700Y-98360000D01*
G04 #@! TO.N,/D2*
X151368300Y-98784500D02*
X152213800Y-99630000D01*
X152213800Y-99630000D02*
X154320000Y-99630000D01*
G04 #@! TO.N,/D3*
X154320000Y-72960000D02*
X152239700Y-72960000D01*
X149773600Y-72942400D02*
X152222100Y-72942400D01*
X152222100Y-72942400D02*
X152239700Y-72960000D01*
G04 #@! TO.N,/D4*
X152239700Y-74230000D02*
X151104000Y-74230000D01*
X154320000Y-74230000D02*
X152239700Y-74230000D01*
G04 #@! TO.N,/D5*
X154320000Y-75500000D02*
X151219700Y-75500000D01*
X151219700Y-75500000D02*
X148135600Y-72415900D01*
X148135600Y-72415900D02*
X148135600Y-69433200D01*
G04 #@! TO.N,/D6*
X151701200Y-76515000D02*
X151956200Y-76770000D01*
X151956200Y-76770000D02*
X154320000Y-76770000D01*
G04 #@! TO.N,/D7*
X152198700Y-78040000D02*
X152239700Y-78040000D01*
X152239700Y-78040000D02*
X154320000Y-78040000D01*
X151590000Y-77980000D02*
X152198700Y-78040000D01*
G04 #@! TO.N,~IORD*
X151150000Y-81840000D02*
X151800000Y-82490000D01*
X151480000Y-81840000D02*
X151150000Y-81840000D01*
X151800000Y-82490000D02*
X154320000Y-82490000D01*
G04 #@! TO.N,~IOWR*
X152092571Y-83760000D02*
X151866134Y-83533563D01*
X154320000Y-83760000D02*
X152092571Y-83760000D01*
X151866134Y-83533563D02*
X151466135Y-83133564D01*
G04 #@! TO.N,/A0*
X156400300Y-95820000D02*
X154320000Y-95820000D01*
X156400300Y-95678700D02*
X156400300Y-95820000D01*
X157010000Y-95450000D02*
X156400300Y-95678700D01*
G04 #@! TO.N,Net-(J2-Pad1)*
X121935300Y-71270000D02*
X124475300Y-68730000D01*
X124475300Y-68730000D02*
X128190000Y-68730000D01*
X120810000Y-71270000D02*
X121935300Y-71270000D01*
G04 #@! TO.N,/~CS0*
X154320000Y-79310000D02*
X132325300Y-79310000D01*
X132325300Y-79310000D02*
X131905300Y-78890000D01*
X130730000Y-78890000D02*
X131905300Y-78890000D01*
X130730000Y-76350000D02*
X130730000Y-73810000D01*
G04 #@! TO.N,Net-(J2-Pad5)*
X120810000Y-76350000D02*
X121935300Y-76350000D01*
X121935300Y-76350000D02*
X124475300Y-73810000D01*
X124475300Y-73810000D02*
X128190000Y-73810000D01*
G04 #@! TO.N,Net-(J2-Pad7)*
X121935300Y-78890000D02*
X124475300Y-76350000D01*
X124475300Y-76350000D02*
X128190000Y-76350000D01*
X120810000Y-78890000D02*
X121935300Y-78890000D01*
G04 #@! TO.N,Net-(J2-Pad9)*
X120810000Y-81430000D02*
X121935300Y-81430000D01*
X121935300Y-81430000D02*
X124475300Y-78890000D01*
X124475300Y-78890000D02*
X128190000Y-78890000D01*
G04 #@! TO.N,Net-(J2-Pad11)*
X120810000Y-83970000D02*
X121935300Y-83970000D01*
X121935300Y-83970000D02*
X124475300Y-81430000D01*
X124475300Y-81430000D02*
X128190000Y-81430000D01*
G04 #@! TO.N,Net-(J2-Pad15)*
X128190000Y-86510000D02*
X127014700Y-86510000D01*
X113190000Y-83970000D02*
X114315300Y-83970000D01*
X114315300Y-83970000D02*
X115680000Y-85334700D01*
X115680000Y-85334700D02*
X125839400Y-85334700D01*
X125839400Y-85334700D02*
X127014700Y-86510000D01*
G04 #@! TO.N,/~CS1*
X150740000Y-79950000D02*
X146833200Y-83856800D01*
X146833200Y-83856800D02*
X146833200Y-85512800D01*
X154320000Y-79950000D02*
X150740000Y-79950000D01*
G04 #@! TO.N,/~WE*
X149243300Y-88026400D02*
X152239700Y-85030000D01*
X154320000Y-85030000D02*
X152239700Y-85030000D01*
G04 #@! TO.N,~RESET*
X154320000Y-91380000D02*
X152239700Y-91380000D01*
X114315300Y-97270000D02*
X115440600Y-96144700D01*
X115440600Y-96144700D02*
X140429900Y-96144700D01*
X140429900Y-96144700D02*
X145194600Y-91380000D01*
X145194600Y-91380000D02*
X152239700Y-91380000D01*
X113190000Y-97270000D02*
X114315300Y-97270000D01*
G04 #@! TO.N,/~DMACK*
X154320000Y-95190000D02*
X150267100Y-95190000D01*
X150267100Y-95190000D02*
X149948100Y-94871000D01*
X149948100Y-94871000D02*
X147014300Y-94871000D01*
X147014300Y-94871000D02*
X136855300Y-105030000D01*
X135830000Y-105030000D02*
X136855300Y-105030000D01*
G04 #@! TO.N,/~PDIAG*
X154320000Y-97730000D02*
X156400300Y-97730000D01*
X135830000Y-107570000D02*
X152017200Y-107570000D01*
X152017200Y-107570000D02*
X156400300Y-103186900D01*
X156400300Y-103186900D02*
X156400300Y-97730000D01*
G04 #@! TO.N,/A5*
X158403700Y-54357000D02*
X158403700Y-54724400D01*
X158403700Y-54724400D02*
X157595800Y-55532300D01*
X157595800Y-55532300D02*
X149082700Y-55532300D01*
X149082700Y-55532300D02*
X148149000Y-56466000D01*
X148149000Y-56466000D02*
X148149000Y-57290000D01*
X148149000Y-57290000D02*
X141408600Y-64030400D01*
X141408600Y-64030400D02*
X126807800Y-64030400D01*
X126807800Y-64030400D02*
X123683800Y-67154400D01*
X123683800Y-67154400D02*
X115890900Y-67154400D01*
X115890900Y-67154400D02*
X114315300Y-68730000D01*
X113190000Y-68730000D02*
X114315300Y-68730000D01*
X159579000Y-54357000D02*
X158403700Y-54357000D01*
G04 #@! TO.N,/A6*
X113190000Y-71270000D02*
X114315300Y-71270000D01*
X162119000Y-56897000D02*
X160943700Y-56897000D01*
X160943700Y-56897000D02*
X160943700Y-57219500D01*
X160943700Y-57219500D02*
X150783700Y-67379500D01*
X150783700Y-67379500D02*
X124695800Y-67379500D01*
X124695800Y-67379500D02*
X121930600Y-70144700D01*
X121930600Y-70144700D02*
X115440600Y-70144700D01*
X115440600Y-70144700D02*
X114315300Y-71270000D01*
G04 #@! TO.N,/A7*
X113190000Y-73810000D02*
X114315300Y-73810000D01*
X162119000Y-54357000D02*
X162119000Y-55532300D01*
X162119000Y-55532300D02*
X162486300Y-55532300D01*
X162486300Y-55532300D02*
X163295100Y-56341100D01*
X163295100Y-56341100D02*
X163295100Y-57394400D01*
X163295100Y-57394400D02*
X160530900Y-60158600D01*
X160530900Y-60158600D02*
X158964100Y-60158600D01*
X158964100Y-60158600D02*
X151117700Y-68005000D01*
X151117700Y-68005000D02*
X135384400Y-68005000D01*
X135384400Y-68005000D02*
X133484000Y-69905400D01*
X133484000Y-69905400D02*
X125935800Y-69905400D01*
X125935800Y-69905400D02*
X123156500Y-72684700D01*
X123156500Y-72684700D02*
X115440600Y-72684700D01*
X115440600Y-72684700D02*
X114315300Y-73810000D01*
G04 #@! TD*
D25*
G04 #@! TO.N,GND*
G36*
X197933000Y-118238000D02*
X99762000Y-118238000D01*
X99762000Y-114075431D01*
X102265000Y-114075431D01*
X102265000Y-114964569D01*
X102605259Y-115786026D01*
X103233974Y-116414741D01*
X104055431Y-116755000D01*
X104944569Y-116755000D01*
X105766026Y-116414741D01*
X106394741Y-115786026D01*
X106735000Y-114964569D01*
X106735000Y-114075431D01*
X191225000Y-114075431D01*
X191225000Y-114964569D01*
X191565259Y-115786026D01*
X192193974Y-116414741D01*
X193015431Y-116755000D01*
X193904569Y-116755000D01*
X194726026Y-116414741D01*
X195354741Y-115786026D01*
X195695000Y-114964569D01*
X195695000Y-114075431D01*
X195354741Y-113253974D01*
X194726026Y-112625259D01*
X193904569Y-112285000D01*
X193015431Y-112285000D01*
X192193974Y-112625259D01*
X191565259Y-113253974D01*
X191225000Y-114075431D01*
X106735000Y-114075431D01*
X106394741Y-113253974D01*
X105766026Y-112625259D01*
X104944569Y-112285000D01*
X104055431Y-112285000D01*
X103233974Y-112625259D01*
X102605259Y-113253974D01*
X102265000Y-114075431D01*
X99762000Y-114075431D01*
X99762000Y-110319039D01*
X111798096Y-110319039D01*
X111958959Y-110707423D01*
X112334866Y-111122389D01*
X112840959Y-111361914D01*
X113063000Y-111240629D01*
X113063000Y-110097000D01*
X113317000Y-110097000D01*
X113317000Y-111240629D01*
X113539041Y-111361914D01*
X114045134Y-111122389D01*
X114421041Y-110707423D01*
X114581904Y-110319039D01*
X114459915Y-110097000D01*
X113317000Y-110097000D01*
X113063000Y-110097000D01*
X111920085Y-110097000D01*
X111798096Y-110319039D01*
X99762000Y-110319039D01*
X99762000Y-109970000D01*
X119346887Y-109970000D01*
X119458260Y-110529909D01*
X119775423Y-111004577D01*
X120250091Y-111321740D01*
X120668667Y-111405000D01*
X120951333Y-111405000D01*
X121369909Y-111321740D01*
X121844577Y-111004577D01*
X122161740Y-110529909D01*
X122273113Y-109970000D01*
X122161740Y-109410091D01*
X121844577Y-108935423D01*
X121460892Y-108679053D01*
X121665134Y-108582389D01*
X122041041Y-108167423D01*
X122201904Y-107779039D01*
X122079915Y-107557000D01*
X120937000Y-107557000D01*
X120937000Y-107577000D01*
X120683000Y-107577000D01*
X120683000Y-107557000D01*
X119540085Y-107557000D01*
X119418096Y-107779039D01*
X119578959Y-108167423D01*
X119954866Y-108582389D01*
X120159108Y-108679053D01*
X119775423Y-108935423D01*
X119458260Y-109410091D01*
X119346887Y-109970000D01*
X99762000Y-109970000D01*
X99762000Y-107430000D01*
X111726887Y-107430000D01*
X111838260Y-107989909D01*
X112155423Y-108464577D01*
X112539108Y-108720947D01*
X112334866Y-108817611D01*
X111958959Y-109232577D01*
X111798096Y-109620961D01*
X111920085Y-109843000D01*
X113063000Y-109843000D01*
X113063000Y-109823000D01*
X113317000Y-109823000D01*
X113317000Y-109843000D01*
X114459915Y-109843000D01*
X114581904Y-109620961D01*
X114421041Y-109232577D01*
X114045134Y-108817611D01*
X113840892Y-108720947D01*
X114224577Y-108464577D01*
X114541740Y-107989909D01*
X114653113Y-107430000D01*
X114541740Y-106870091D01*
X114224577Y-106395423D01*
X113840892Y-106139053D01*
X114045134Y-106042389D01*
X114421041Y-105627423D01*
X114581904Y-105239039D01*
X114459915Y-105017000D01*
X113317000Y-105017000D01*
X113317000Y-105037000D01*
X113063000Y-105037000D01*
X113063000Y-105017000D01*
X111920085Y-105017000D01*
X111798096Y-105239039D01*
X111958959Y-105627423D01*
X112334866Y-106042389D01*
X112539108Y-106139053D01*
X112155423Y-106395423D01*
X111838260Y-106870091D01*
X111726887Y-107430000D01*
X99762000Y-107430000D01*
X99762000Y-104890000D01*
X119346887Y-104890000D01*
X119458260Y-105449909D01*
X119775423Y-105924577D01*
X120159108Y-106180947D01*
X119954866Y-106277611D01*
X119578959Y-106692577D01*
X119418096Y-107080961D01*
X119540085Y-107303000D01*
X120683000Y-107303000D01*
X120683000Y-107283000D01*
X120937000Y-107283000D01*
X120937000Y-107303000D01*
X122079915Y-107303000D01*
X122201904Y-107080961D01*
X122041041Y-106692577D01*
X121665134Y-106277611D01*
X121460892Y-106180947D01*
X121844577Y-105924577D01*
X122161740Y-105449909D01*
X122273113Y-104890000D01*
X122161740Y-104330091D01*
X121844577Y-103855423D01*
X121460892Y-103599053D01*
X121665134Y-103502389D01*
X122041041Y-103087423D01*
X122201904Y-102699039D01*
X122079915Y-102477000D01*
X120937000Y-102477000D01*
X120937000Y-102497000D01*
X120683000Y-102497000D01*
X120683000Y-102477000D01*
X119540085Y-102477000D01*
X119418096Y-102699039D01*
X119578959Y-103087423D01*
X119954866Y-103502389D01*
X120159108Y-103599053D01*
X119775423Y-103855423D01*
X119458260Y-104330091D01*
X119346887Y-104890000D01*
X99762000Y-104890000D01*
X99762000Y-102350000D01*
X111726887Y-102350000D01*
X111838260Y-102909909D01*
X112155423Y-103384577D01*
X112539108Y-103640947D01*
X112334866Y-103737611D01*
X111958959Y-104152577D01*
X111798096Y-104540961D01*
X111920085Y-104763000D01*
X113063000Y-104763000D01*
X113063000Y-104743000D01*
X113317000Y-104743000D01*
X113317000Y-104763000D01*
X114459915Y-104763000D01*
X114581904Y-104540961D01*
X114421041Y-104152577D01*
X114045134Y-103737611D01*
X113840892Y-103640947D01*
X114224577Y-103384577D01*
X114541740Y-102909909D01*
X114653113Y-102350000D01*
X114541740Y-101790091D01*
X114224577Y-101315423D01*
X113840892Y-101059053D01*
X114045134Y-100962389D01*
X114421041Y-100547423D01*
X114581904Y-100159039D01*
X114459915Y-99937000D01*
X113317000Y-99937000D01*
X113317000Y-99957000D01*
X113063000Y-99957000D01*
X113063000Y-99937000D01*
X111920085Y-99937000D01*
X111798096Y-100159039D01*
X111958959Y-100547423D01*
X112334866Y-100962389D01*
X112539108Y-101059053D01*
X112155423Y-101315423D01*
X111838260Y-101790091D01*
X111726887Y-102350000D01*
X99762000Y-102350000D01*
X99762000Y-99810000D01*
X119346887Y-99810000D01*
X119458260Y-100369909D01*
X119775423Y-100844577D01*
X120159108Y-101100947D01*
X119954866Y-101197611D01*
X119578959Y-101612577D01*
X119418096Y-102000961D01*
X119540085Y-102223000D01*
X120683000Y-102223000D01*
X120683000Y-102203000D01*
X120937000Y-102203000D01*
X120937000Y-102223000D01*
X122079915Y-102223000D01*
X122201904Y-102000961D01*
X122041041Y-101612577D01*
X121665134Y-101197611D01*
X121460892Y-101100947D01*
X121844577Y-100844577D01*
X122161740Y-100369909D01*
X122273113Y-99810000D01*
X122248140Y-99684452D01*
X126875000Y-99684452D01*
X126875000Y-100215548D01*
X127078242Y-100706217D01*
X127453783Y-101081758D01*
X127787528Y-101220000D01*
X127453783Y-101358242D01*
X127078242Y-101733783D01*
X126875000Y-102224452D01*
X126875000Y-102755548D01*
X127078242Y-103246217D01*
X127453783Y-103621758D01*
X127787528Y-103760000D01*
X127453783Y-103898242D01*
X127078242Y-104273783D01*
X126875000Y-104764452D01*
X126875000Y-105295548D01*
X127078242Y-105786217D01*
X127453783Y-106161758D01*
X127787528Y-106300000D01*
X127453783Y-106438242D01*
X127078242Y-106813783D01*
X126875000Y-107304452D01*
X126875000Y-107835548D01*
X127078242Y-108326217D01*
X127453783Y-108701758D01*
X127787528Y-108840000D01*
X127453783Y-108978242D01*
X127078242Y-109353783D01*
X126875000Y-109844452D01*
X126875000Y-110375548D01*
X127078242Y-110866217D01*
X127453783Y-111241758D01*
X127944452Y-111445000D01*
X128475548Y-111445000D01*
X128966217Y-111241758D01*
X129341758Y-110866217D01*
X129545000Y-110375548D01*
X129545000Y-109844452D01*
X129341758Y-109353783D01*
X128966217Y-108978242D01*
X128632472Y-108840000D01*
X128966217Y-108701758D01*
X129341758Y-108326217D01*
X129545000Y-107835548D01*
X129545000Y-107304452D01*
X129341758Y-106813783D01*
X128966217Y-106438242D01*
X128632472Y-106300000D01*
X128966217Y-106161758D01*
X129341758Y-105786217D01*
X129545000Y-105295548D01*
X129545000Y-104764452D01*
X129341758Y-104273783D01*
X128966217Y-103898242D01*
X128632472Y-103760000D01*
X128966217Y-103621758D01*
X129341758Y-103246217D01*
X129545000Y-102755548D01*
X129545000Y-102224452D01*
X129341758Y-101733783D01*
X128966217Y-101358242D01*
X128632472Y-101220000D01*
X128966217Y-101081758D01*
X129341758Y-100706217D01*
X129545000Y-100215548D01*
X129545000Y-99684452D01*
X129341758Y-99193783D01*
X128966217Y-98818242D01*
X128475548Y-98615000D01*
X127944452Y-98615000D01*
X127453783Y-98818242D01*
X127078242Y-99193783D01*
X126875000Y-99684452D01*
X122248140Y-99684452D01*
X122161740Y-99250091D01*
X121844577Y-98775423D01*
X121460892Y-98519053D01*
X121665134Y-98422389D01*
X122041041Y-98007423D01*
X122201904Y-97619039D01*
X122079915Y-97397000D01*
X120937000Y-97397000D01*
X120937000Y-97417000D01*
X120683000Y-97417000D01*
X120683000Y-97397000D01*
X119540085Y-97397000D01*
X119418096Y-97619039D01*
X119578959Y-98007423D01*
X119954866Y-98422389D01*
X120159108Y-98519053D01*
X119775423Y-98775423D01*
X119458260Y-99250091D01*
X119346887Y-99810000D01*
X99762000Y-99810000D01*
X99762000Y-92737745D01*
X115361861Y-92737745D01*
X115435995Y-92983864D01*
X115973223Y-93176965D01*
X116543454Y-93149778D01*
X116944005Y-92983864D01*
X117018139Y-92737745D01*
X116190000Y-91909605D01*
X115361861Y-92737745D01*
X99762000Y-92737745D01*
X99762000Y-91513223D01*
X114743035Y-91513223D01*
X114770222Y-92083454D01*
X114936136Y-92484005D01*
X115182255Y-92558139D01*
X116010395Y-91730000D01*
X116369605Y-91730000D01*
X117197745Y-92558139D01*
X117443864Y-92484005D01*
X117636965Y-91946777D01*
X117609778Y-91376546D01*
X117443864Y-90975995D01*
X117197745Y-90901861D01*
X116369605Y-91730000D01*
X116010395Y-91730000D01*
X115182255Y-90901861D01*
X114936136Y-90975995D01*
X114743035Y-91513223D01*
X99762000Y-91513223D01*
X99762000Y-90722255D01*
X115361861Y-90722255D01*
X116190000Y-91550395D01*
X117018139Y-90722255D01*
X116944005Y-90476136D01*
X116406777Y-90283035D01*
X115836546Y-90310222D01*
X115435995Y-90476136D01*
X115361861Y-90722255D01*
X99762000Y-90722255D01*
X99762000Y-86859039D01*
X111798096Y-86859039D01*
X111958959Y-87247423D01*
X112334866Y-87662389D01*
X112840959Y-87901914D01*
X113063000Y-87780629D01*
X113063000Y-86637000D01*
X113317000Y-86637000D01*
X113317000Y-87780629D01*
X113539041Y-87901914D01*
X114045134Y-87662389D01*
X114421041Y-87247423D01*
X114581904Y-86859039D01*
X114459915Y-86637000D01*
X113317000Y-86637000D01*
X113063000Y-86637000D01*
X111920085Y-86637000D01*
X111798096Y-86859039D01*
X99762000Y-86859039D01*
X99762000Y-76699039D01*
X111798096Y-76699039D01*
X111958959Y-77087423D01*
X112334866Y-77502389D01*
X112583367Y-77620000D01*
X112334866Y-77737611D01*
X111958959Y-78152577D01*
X111798096Y-78540961D01*
X111920085Y-78763000D01*
X113063000Y-78763000D01*
X113063000Y-76477000D01*
X113317000Y-76477000D01*
X113317000Y-78763000D01*
X114459915Y-78763000D01*
X114581904Y-78540961D01*
X114421041Y-78152577D01*
X114045134Y-77737611D01*
X113796633Y-77620000D01*
X114045134Y-77502389D01*
X114421041Y-77087423D01*
X114581904Y-76699039D01*
X114459915Y-76477000D01*
X113317000Y-76477000D01*
X113063000Y-76477000D01*
X111920085Y-76477000D01*
X111798096Y-76699039D01*
X99762000Y-76699039D01*
X99762000Y-71270000D01*
X111726887Y-71270000D01*
X111838260Y-71829909D01*
X112155423Y-72304577D01*
X112507758Y-72540000D01*
X112155423Y-72775423D01*
X111838260Y-73250091D01*
X111726887Y-73810000D01*
X111838260Y-74369909D01*
X112155423Y-74844577D01*
X112539108Y-75100947D01*
X112334866Y-75197611D01*
X111958959Y-75612577D01*
X111798096Y-76000961D01*
X111920085Y-76223000D01*
X113063000Y-76223000D01*
X113063000Y-76203000D01*
X113317000Y-76203000D01*
X113317000Y-76223000D01*
X114459915Y-76223000D01*
X114581904Y-76000961D01*
X114421041Y-75612577D01*
X114045134Y-75197611D01*
X113840892Y-75100947D01*
X114224577Y-74844577D01*
X114410786Y-74565896D01*
X114611837Y-74525904D01*
X114863229Y-74357929D01*
X114905631Y-74294470D01*
X115755402Y-73444700D01*
X119419550Y-73444700D01*
X119346887Y-73810000D01*
X119458260Y-74369909D01*
X119775423Y-74844577D01*
X120127758Y-75080000D01*
X119775423Y-75315423D01*
X119458260Y-75790091D01*
X119346887Y-76350000D01*
X119458260Y-76909909D01*
X119775423Y-77384577D01*
X120127758Y-77620000D01*
X119775423Y-77855423D01*
X119458260Y-78330091D01*
X119346887Y-78890000D01*
X119458260Y-79449909D01*
X119775423Y-79924577D01*
X120127758Y-80160000D01*
X119775423Y-80395423D01*
X119458260Y-80870091D01*
X119346887Y-81430000D01*
X119458260Y-81989909D01*
X119775423Y-82464577D01*
X120127758Y-82700000D01*
X119775423Y-82935423D01*
X119458260Y-83410091D01*
X119433259Y-83535780D01*
X119287431Y-83183720D01*
X118996280Y-82892569D01*
X118615874Y-82735000D01*
X118204126Y-82735000D01*
X117962704Y-82835000D01*
X115917290Y-82835000D01*
X114629749Y-81547459D01*
X114653113Y-81430000D01*
X114541740Y-80870091D01*
X114224577Y-80395423D01*
X113840892Y-80139053D01*
X114045134Y-80042389D01*
X114421041Y-79627423D01*
X114581904Y-79239039D01*
X114459915Y-79017000D01*
X113317000Y-79017000D01*
X113317000Y-79037000D01*
X113063000Y-79037000D01*
X113063000Y-79017000D01*
X111920085Y-79017000D01*
X111798096Y-79239039D01*
X111958959Y-79627423D01*
X112334866Y-80042389D01*
X112539108Y-80139053D01*
X112155423Y-80395423D01*
X111838260Y-80870091D01*
X111726887Y-81430000D01*
X111838260Y-81989909D01*
X112155423Y-82464577D01*
X112507758Y-82700000D01*
X112155423Y-82935423D01*
X111838260Y-83410091D01*
X111726887Y-83970000D01*
X111838260Y-84529909D01*
X112155423Y-85004577D01*
X112539108Y-85260947D01*
X112334866Y-85357611D01*
X111958959Y-85772577D01*
X111798096Y-86160961D01*
X111920085Y-86383000D01*
X113063000Y-86383000D01*
X113063000Y-86363000D01*
X113317000Y-86363000D01*
X113317000Y-86383000D01*
X114459915Y-86383000D01*
X114581904Y-86160961D01*
X114421041Y-85772577D01*
X114045134Y-85357611D01*
X113840892Y-85260947D01*
X114224577Y-85004577D01*
X114244804Y-84974305D01*
X115089670Y-85819172D01*
X115132071Y-85882629D01*
X115383463Y-86050604D01*
X115605148Y-86094700D01*
X115605152Y-86094700D01*
X115679999Y-86109588D01*
X115754846Y-86094700D01*
X119429495Y-86094700D01*
X119346887Y-86510000D01*
X119458260Y-87069909D01*
X119775423Y-87544577D01*
X120250091Y-87861740D01*
X120668667Y-87945000D01*
X120951333Y-87945000D01*
X121369909Y-87861740D01*
X121844577Y-87544577D01*
X122161740Y-87069909D01*
X122273113Y-86510000D01*
X122190505Y-86094700D01*
X125524599Y-86094700D01*
X126424371Y-86994473D01*
X126466771Y-87057929D01*
X126718163Y-87225904D01*
X126907526Y-87263571D01*
X127119375Y-87580625D01*
X127610582Y-87908839D01*
X128043744Y-87995000D01*
X128336256Y-87995000D01*
X128769418Y-87908839D01*
X129260625Y-87580625D01*
X129460000Y-87282239D01*
X129659375Y-87580625D01*
X130150582Y-87908839D01*
X130583744Y-87995000D01*
X130876256Y-87995000D01*
X131309418Y-87908839D01*
X131800625Y-87580625D01*
X132128839Y-87089418D01*
X132244092Y-86510000D01*
X132128839Y-85930582D01*
X131800625Y-85439375D01*
X131502239Y-85240000D01*
X131800625Y-85040625D01*
X132128839Y-84549418D01*
X132244092Y-83970000D01*
X132128839Y-83390582D01*
X131800625Y-82899375D01*
X131502239Y-82700000D01*
X131800625Y-82500625D01*
X132128839Y-82009418D01*
X132244092Y-81430000D01*
X132128839Y-80850582D01*
X131800625Y-80359375D01*
X131502239Y-80160000D01*
X131800625Y-79960625D01*
X131840887Y-79900369D01*
X131877117Y-79924577D01*
X132028762Y-80025904D01*
X132076905Y-80035480D01*
X132250448Y-80070000D01*
X132250452Y-80070000D01*
X132325300Y-80084888D01*
X132400148Y-80070000D01*
X149545198Y-80070000D01*
X146348730Y-83266469D01*
X146285271Y-83308871D01*
X146117296Y-83560264D01*
X146073200Y-83781949D01*
X146073200Y-83781953D01*
X146058312Y-83856800D01*
X146073200Y-83931647D01*
X146073201Y-84809088D01*
X145955769Y-84926520D01*
X145798200Y-85306926D01*
X145798200Y-85718674D01*
X145955769Y-86099080D01*
X146246920Y-86390231D01*
X146627326Y-86547800D01*
X147039074Y-86547800D01*
X147419480Y-86390231D01*
X147710631Y-86099080D01*
X147868200Y-85718674D01*
X147868200Y-85306926D01*
X147710631Y-84926520D01*
X147593200Y-84809089D01*
X147593200Y-84171601D01*
X150344123Y-81420678D01*
X150235000Y-81684126D01*
X150235000Y-82095874D01*
X150392569Y-82476280D01*
X150552054Y-82635765D01*
X150431135Y-82927690D01*
X150431135Y-83339438D01*
X150588704Y-83719844D01*
X150879855Y-84010995D01*
X151260261Y-84168564D01*
X151426334Y-84168564D01*
X151502240Y-84244470D01*
X151544642Y-84307929D01*
X151748517Y-84444154D01*
X151691771Y-84482071D01*
X151649371Y-84545527D01*
X149203499Y-86991400D01*
X149037426Y-86991400D01*
X148657020Y-87148969D01*
X148365869Y-87440120D01*
X148208300Y-87820526D01*
X148208300Y-88232274D01*
X148365869Y-88612680D01*
X148657020Y-88903831D01*
X149037426Y-89061400D01*
X149449174Y-89061400D01*
X149829580Y-88903831D01*
X150120731Y-88612680D01*
X150278300Y-88232274D01*
X150278300Y-88066201D01*
X151477303Y-86867199D01*
X151464811Y-86930000D01*
X151479700Y-87004852D01*
X151479700Y-87255198D01*
X149108499Y-89626400D01*
X122608446Y-89626400D01*
X122533599Y-89611512D01*
X122458752Y-89626400D01*
X122458748Y-89626400D01*
X122237063Y-89670496D01*
X122174502Y-89712298D01*
X122049126Y-89796071D01*
X122049124Y-89796073D01*
X121985671Y-89838471D01*
X121943273Y-89901924D01*
X121528301Y-90316896D01*
X121475439Y-90295000D01*
X120904561Y-90295000D01*
X120377138Y-90513466D01*
X119973466Y-90917138D01*
X119755000Y-91444561D01*
X119755000Y-92015439D01*
X119973466Y-92542862D01*
X120377138Y-92946534D01*
X120904561Y-93165000D01*
X121475439Y-93165000D01*
X122002862Y-92946534D01*
X122406534Y-92542862D01*
X122625000Y-92015439D01*
X122625000Y-91444561D01*
X122603104Y-91391699D01*
X122848403Y-91146400D01*
X144353397Y-91146400D01*
X140115099Y-95384700D01*
X122098403Y-95384700D01*
X122161740Y-95289909D01*
X122273113Y-94730000D01*
X122161740Y-94170091D01*
X121844577Y-93695423D01*
X121369909Y-93378260D01*
X120951333Y-93295000D01*
X120668667Y-93295000D01*
X120250091Y-93378260D01*
X119775423Y-93695423D01*
X119458260Y-94170091D01*
X119346887Y-94730000D01*
X119458260Y-95289909D01*
X119521597Y-95384700D01*
X115515448Y-95384700D01*
X115440600Y-95369812D01*
X115365752Y-95384700D01*
X115365748Y-95384700D01*
X115144063Y-95428796D01*
X114892671Y-95596771D01*
X114850271Y-95660227D01*
X114244804Y-96265695D01*
X114224577Y-96235423D01*
X114103894Y-96154785D01*
X114237765Y-96128157D01*
X114447809Y-95987809D01*
X114588157Y-95777765D01*
X114637440Y-95530000D01*
X114637440Y-93930000D01*
X114588157Y-93682235D01*
X114447809Y-93472191D01*
X114237765Y-93331843D01*
X113990000Y-93282560D01*
X112390000Y-93282560D01*
X112142235Y-93331843D01*
X111932191Y-93472191D01*
X111791843Y-93682235D01*
X111742560Y-93930000D01*
X111742560Y-95530000D01*
X111791843Y-95777765D01*
X111932191Y-95987809D01*
X112142235Y-96128157D01*
X112276106Y-96154785D01*
X112155423Y-96235423D01*
X111838260Y-96710091D01*
X111726887Y-97270000D01*
X111838260Y-97829909D01*
X112155423Y-98304577D01*
X112539108Y-98560947D01*
X112334866Y-98657611D01*
X111958959Y-99072577D01*
X111798096Y-99460961D01*
X111920085Y-99683000D01*
X113063000Y-99683000D01*
X113063000Y-99663000D01*
X113317000Y-99663000D01*
X113317000Y-99683000D01*
X114459915Y-99683000D01*
X114581904Y-99460961D01*
X114421041Y-99072577D01*
X114045134Y-98657611D01*
X113840892Y-98560947D01*
X114224577Y-98304577D01*
X114410786Y-98025896D01*
X114611837Y-97985904D01*
X114863229Y-97817929D01*
X114905631Y-97754470D01*
X115755402Y-96904700D01*
X119424831Y-96904700D01*
X119418096Y-96920961D01*
X119540085Y-97143000D01*
X120683000Y-97143000D01*
X120683000Y-97123000D01*
X120937000Y-97123000D01*
X120937000Y-97143000D01*
X122079915Y-97143000D01*
X122201904Y-96920961D01*
X122195169Y-96904700D01*
X140355053Y-96904700D01*
X140429900Y-96919588D01*
X140504747Y-96904700D01*
X140504752Y-96904700D01*
X140726437Y-96860604D01*
X140977829Y-96692629D01*
X141020231Y-96629170D01*
X145509403Y-92140000D01*
X152005087Y-92140000D01*
X151966843Y-92197235D01*
X151957613Y-92243637D01*
X151930000Y-92271250D01*
X151930000Y-92341309D01*
X151935530Y-92354659D01*
X151917560Y-92445000D01*
X151917560Y-92855000D01*
X151939440Y-92965000D01*
X151917560Y-93075000D01*
X151917560Y-93485000D01*
X151940435Y-93600000D01*
X151917560Y-93715000D01*
X151917560Y-94125000D01*
X151939440Y-94235000D01*
X151917560Y-94345000D01*
X151917560Y-94430000D01*
X150581901Y-94430000D01*
X150538431Y-94386530D01*
X150496029Y-94323071D01*
X150244637Y-94155096D01*
X150022952Y-94111000D01*
X150022947Y-94111000D01*
X149948100Y-94096112D01*
X149873253Y-94111000D01*
X147089148Y-94111000D01*
X147014300Y-94096112D01*
X146939452Y-94111000D01*
X146939448Y-94111000D01*
X146717763Y-94155096D01*
X146466371Y-94323071D01*
X146423971Y-94386527D01*
X136762807Y-104047692D01*
X136350891Y-103772458D01*
X136288261Y-103760000D01*
X136350891Y-103747542D01*
X136792481Y-103452481D01*
X137087542Y-103010891D01*
X137191154Y-102490000D01*
X137087542Y-101969109D01*
X136792481Y-101527519D01*
X136350891Y-101232458D01*
X136288261Y-101220000D01*
X136350891Y-101207542D01*
X136792481Y-100912481D01*
X137087542Y-100470891D01*
X137191154Y-99950000D01*
X137087542Y-99429109D01*
X136792481Y-98987519D01*
X136350891Y-98692458D01*
X135961485Y-98615000D01*
X135698515Y-98615000D01*
X135309109Y-98692458D01*
X134867519Y-98987519D01*
X134572458Y-99429109D01*
X134468846Y-99950000D01*
X134572458Y-100470891D01*
X134867519Y-100912481D01*
X135309109Y-101207542D01*
X135371739Y-101220000D01*
X135309109Y-101232458D01*
X134867519Y-101527519D01*
X134572458Y-101969109D01*
X134468846Y-102490000D01*
X134572458Y-103010891D01*
X134867519Y-103452481D01*
X135309109Y-103747542D01*
X135371739Y-103760000D01*
X135309109Y-103772458D01*
X134867519Y-104067519D01*
X134572458Y-104509109D01*
X134468846Y-105030000D01*
X134572458Y-105550891D01*
X134867519Y-105992481D01*
X135309109Y-106287542D01*
X135371739Y-106300000D01*
X135309109Y-106312458D01*
X134867519Y-106607519D01*
X134572458Y-107049109D01*
X134468846Y-107570000D01*
X134572458Y-108090891D01*
X134867519Y-108532481D01*
X135309109Y-108827542D01*
X135371739Y-108840000D01*
X135309109Y-108852458D01*
X134867519Y-109147519D01*
X134572458Y-109589109D01*
X134468846Y-110110000D01*
X134572458Y-110630891D01*
X134867519Y-111072481D01*
X135309109Y-111367542D01*
X135698515Y-111445000D01*
X135961485Y-111445000D01*
X136350891Y-111367542D01*
X136792481Y-111072481D01*
X136927774Y-110870000D01*
X142103331Y-110870000D01*
X142148690Y-110979507D01*
X142580493Y-111411310D01*
X143144670Y-111645000D01*
X143755330Y-111645000D01*
X144319507Y-111411310D01*
X144488725Y-111242092D01*
X144491843Y-111257765D01*
X144632191Y-111467809D01*
X144842235Y-111608157D01*
X145090000Y-111657440D01*
X146890000Y-111657440D01*
X147137765Y-111608157D01*
X147347809Y-111467809D01*
X147488157Y-111257765D01*
X147537440Y-111010000D01*
X147537440Y-110870000D01*
X150120753Y-110870000D01*
X150195600Y-110884888D01*
X150270447Y-110870000D01*
X150270452Y-110870000D01*
X150492137Y-110825904D01*
X150743529Y-110657929D01*
X150785931Y-110594470D01*
X154739922Y-106640480D01*
X154700000Y-106736860D01*
X154700000Y-107783140D01*
X155100393Y-108749775D01*
X155840225Y-109489607D01*
X156806860Y-109890000D01*
X157047560Y-109890000D01*
X157047560Y-111890000D01*
X157096843Y-112137765D01*
X157237191Y-112347809D01*
X157447235Y-112488157D01*
X157695000Y-112537440D01*
X162265000Y-112537440D01*
X162512765Y-112488157D01*
X162722809Y-112347809D01*
X162863157Y-112137765D01*
X162912440Y-111890000D01*
X162912440Y-109890000D01*
X162863157Y-109642235D01*
X162722809Y-109432191D01*
X162512765Y-109291843D01*
X162265000Y-109242560D01*
X159066822Y-109242560D01*
X159559607Y-108749775D01*
X159629394Y-108581294D01*
X160024615Y-108745000D01*
X160615385Y-108745000D01*
X161161185Y-108518922D01*
X161578922Y-108101185D01*
X161805000Y-107555385D01*
X161805000Y-106964615D01*
X161578922Y-106418815D01*
X161161185Y-106001078D01*
X160615385Y-105775000D01*
X160024615Y-105775000D01*
X159629394Y-105938706D01*
X159559607Y-105770225D01*
X158819775Y-105030393D01*
X157853140Y-104630000D01*
X156806860Y-104630000D01*
X156710480Y-104669922D01*
X157352873Y-104027529D01*
X157416329Y-103985129D01*
X157584304Y-103733737D01*
X157628400Y-103512052D01*
X157628400Y-103512048D01*
X157643288Y-103437201D01*
X157628400Y-103362354D01*
X157628400Y-97002946D01*
X157643288Y-96928099D01*
X157628400Y-96853252D01*
X157628400Y-96853248D01*
X157584304Y-96631563D01*
X157427737Y-96397244D01*
X157596280Y-96327431D01*
X157887431Y-96036280D01*
X158045000Y-95655874D01*
X158045000Y-95244126D01*
X157887431Y-94863720D01*
X157605056Y-94581345D01*
X166337273Y-85849129D01*
X166400729Y-85806729D01*
X166568704Y-85555337D01*
X166612800Y-85333652D01*
X166612800Y-85333648D01*
X166627688Y-85258801D01*
X166612800Y-85183954D01*
X166612800Y-58291307D01*
X166619582Y-58295839D01*
X167052744Y-58382000D01*
X167345256Y-58382000D01*
X167778418Y-58295839D01*
X168269625Y-57967625D01*
X168469000Y-57669239D01*
X168668375Y-57967625D01*
X169159582Y-58295839D01*
X169592744Y-58382000D01*
X169885256Y-58382000D01*
X170318418Y-58295839D01*
X170809625Y-57967625D01*
X171009000Y-57669239D01*
X171208375Y-57967625D01*
X171699582Y-58295839D01*
X172132744Y-58382000D01*
X172425256Y-58382000D01*
X172858418Y-58295839D01*
X173349625Y-57967625D01*
X173677839Y-57476418D01*
X173793092Y-56897000D01*
X173677839Y-56317582D01*
X173349625Y-55826375D01*
X173051239Y-55627000D01*
X173349625Y-55427625D01*
X173677839Y-54936418D01*
X173793092Y-54357000D01*
X173677839Y-53777582D01*
X173349625Y-53286375D01*
X172858418Y-52958161D01*
X172425256Y-52872000D01*
X172132744Y-52872000D01*
X171699582Y-52958161D01*
X171208375Y-53286375D01*
X171009000Y-53584761D01*
X170809625Y-53286375D01*
X170318418Y-52958161D01*
X169885256Y-52872000D01*
X169592744Y-52872000D01*
X169159582Y-52958161D01*
X168668375Y-53286375D01*
X168469000Y-53584761D01*
X168269625Y-53286375D01*
X167778418Y-52958161D01*
X167345256Y-52872000D01*
X167052744Y-52872000D01*
X166619582Y-52958161D01*
X166128375Y-53286375D01*
X165929000Y-53584761D01*
X165729625Y-53286375D01*
X165238418Y-52958161D01*
X164805256Y-52872000D01*
X164512744Y-52872000D01*
X164079582Y-52958161D01*
X163713903Y-53202500D01*
X163197130Y-52685729D01*
X163154729Y-52622271D01*
X162903337Y-52454296D01*
X162681652Y-52410200D01*
X162681647Y-52410200D01*
X162606800Y-52395312D01*
X162531953Y-52410200D01*
X156568646Y-52410200D01*
X156493799Y-52395312D01*
X156418952Y-52410200D01*
X156418948Y-52410200D01*
X156197263Y-52454296D01*
X155945871Y-52622271D01*
X155903471Y-52685727D01*
X155409689Y-53179509D01*
X155078418Y-52958161D01*
X154645256Y-52872000D01*
X154352744Y-52872000D01*
X153919582Y-52958161D01*
X153428375Y-53286375D01*
X153229000Y-53584761D01*
X153029625Y-53286375D01*
X152538418Y-52958161D01*
X152105256Y-52872000D01*
X151812744Y-52872000D01*
X151379582Y-52958161D01*
X150888375Y-53286375D01*
X150689000Y-53584761D01*
X150489625Y-53286375D01*
X149998418Y-52958161D01*
X149565256Y-52872000D01*
X149272744Y-52872000D01*
X148839582Y-52958161D01*
X148348375Y-53286375D01*
X148149000Y-53584761D01*
X147949625Y-53286375D01*
X147458418Y-52958161D01*
X147025256Y-52872000D01*
X146732744Y-52872000D01*
X146299582Y-52958161D01*
X145808375Y-53286375D01*
X145609000Y-53584761D01*
X145409625Y-53286375D01*
X144918418Y-52958161D01*
X144485256Y-52872000D01*
X144192744Y-52872000D01*
X143759582Y-52958161D01*
X143268375Y-53286375D01*
X143069000Y-53584761D01*
X142869625Y-53286375D01*
X142378418Y-52958161D01*
X141945256Y-52872000D01*
X141652744Y-52872000D01*
X141219582Y-52958161D01*
X140728375Y-53286375D01*
X140529000Y-53584761D01*
X140329625Y-53286375D01*
X139838418Y-52958161D01*
X139405256Y-52872000D01*
X139112744Y-52872000D01*
X138679582Y-52958161D01*
X138188375Y-53286375D01*
X137989000Y-53584761D01*
X137789625Y-53286375D01*
X137298418Y-52958161D01*
X136865256Y-52872000D01*
X136572744Y-52872000D01*
X136139582Y-52958161D01*
X135648375Y-53286375D01*
X135449000Y-53584761D01*
X135249625Y-53286375D01*
X134758418Y-52958161D01*
X134325256Y-52872000D01*
X134032744Y-52872000D01*
X133599582Y-52958161D01*
X133108375Y-53286375D01*
X132909000Y-53584761D01*
X132709625Y-53286375D01*
X132218418Y-52958161D01*
X131785256Y-52872000D01*
X131492744Y-52872000D01*
X131059582Y-52958161D01*
X130568375Y-53286375D01*
X130369000Y-53584761D01*
X130169625Y-53286375D01*
X129678418Y-52958161D01*
X129245256Y-52872000D01*
X128952744Y-52872000D01*
X128519582Y-52958161D01*
X128028375Y-53286375D01*
X127815157Y-53605478D01*
X127754183Y-53475642D01*
X127325924Y-53085355D01*
X126915890Y-52915524D01*
X126686000Y-53036845D01*
X126686000Y-54230000D01*
X126706000Y-54230000D01*
X126706000Y-54484000D01*
X126686000Y-54484000D01*
X126686000Y-54504000D01*
X126432000Y-54504000D01*
X126432000Y-54484000D01*
X124146000Y-54484000D01*
X124146000Y-54504000D01*
X123892000Y-54504000D01*
X123892000Y-54484000D01*
X122698181Y-54484000D01*
X122577514Y-54713892D01*
X122823817Y-55238358D01*
X123030855Y-55427039D01*
X122921235Y-55448843D01*
X122711191Y-55589191D01*
X122570843Y-55799235D01*
X122538467Y-55962000D01*
X121200914Y-55962000D01*
X120928181Y-56016250D01*
X120855221Y-56065000D01*
X115420587Y-56065000D01*
X115398157Y-55952235D01*
X115257809Y-55742191D01*
X115047765Y-55601843D01*
X114813813Y-55555307D01*
X114828139Y-55507745D01*
X114000000Y-54679605D01*
X113171861Y-55507745D01*
X113186187Y-55555307D01*
X112952235Y-55601843D01*
X112742191Y-55742191D01*
X112601843Y-55952235D01*
X112552560Y-56200000D01*
X112552560Y-57800000D01*
X112601843Y-58047765D01*
X112742191Y-58257809D01*
X112952235Y-58398157D01*
X113200000Y-58447440D01*
X114800000Y-58447440D01*
X115047765Y-58398157D01*
X115257809Y-58257809D01*
X115398157Y-58047765D01*
X115420587Y-57935000D01*
X120255000Y-57935000D01*
X120255001Y-64635603D01*
X119973466Y-64917138D01*
X119755000Y-65444561D01*
X119755000Y-66015439D01*
X119911971Y-66394400D01*
X117476072Y-66394400D01*
X117636965Y-65946777D01*
X117609778Y-65376546D01*
X117443864Y-64975995D01*
X117197745Y-64901861D01*
X116369605Y-65730000D01*
X116383748Y-65744142D01*
X116204142Y-65923748D01*
X116190000Y-65909605D01*
X115677683Y-66421923D01*
X115594363Y-66438496D01*
X115342971Y-66606471D01*
X115300571Y-66669927D01*
X114468036Y-67502463D01*
X114447809Y-67472191D01*
X114237765Y-67331843D01*
X113990000Y-67282560D01*
X112390000Y-67282560D01*
X112142235Y-67331843D01*
X111932191Y-67472191D01*
X111791843Y-67682235D01*
X111742560Y-67930000D01*
X111742560Y-69530000D01*
X111791843Y-69777765D01*
X111932191Y-69987809D01*
X112142235Y-70128157D01*
X112276106Y-70154785D01*
X112155423Y-70235423D01*
X111838260Y-70710091D01*
X111726887Y-71270000D01*
X99762000Y-71270000D01*
X99762000Y-65513223D01*
X114743035Y-65513223D01*
X114770222Y-66083454D01*
X114936136Y-66484005D01*
X115182255Y-66558139D01*
X116010395Y-65730000D01*
X115182255Y-64901861D01*
X114936136Y-64975995D01*
X114743035Y-65513223D01*
X99762000Y-65513223D01*
X99762000Y-64722255D01*
X115361861Y-64722255D01*
X116190000Y-65550395D01*
X117018139Y-64722255D01*
X116944005Y-64476136D01*
X116406777Y-64283035D01*
X115836546Y-64310222D01*
X115435995Y-64476136D01*
X115361861Y-64722255D01*
X99762000Y-64722255D01*
X99762000Y-54283223D01*
X112553035Y-54283223D01*
X112580222Y-54853454D01*
X112746136Y-55254005D01*
X112992255Y-55328139D01*
X113820395Y-54500000D01*
X114179605Y-54500000D01*
X115007745Y-55328139D01*
X115253864Y-55254005D01*
X115446965Y-54716777D01*
X115419778Y-54146546D01*
X115359122Y-54000108D01*
X122577514Y-54000108D01*
X122698181Y-54230000D01*
X123892000Y-54230000D01*
X123892000Y-53036845D01*
X124146000Y-53036845D01*
X124146000Y-54230000D01*
X126432000Y-54230000D01*
X126432000Y-53036845D01*
X126202110Y-52915524D01*
X125792076Y-53085355D01*
X125363817Y-53475642D01*
X125289000Y-53634954D01*
X125214183Y-53475642D01*
X124785924Y-53085355D01*
X124375890Y-52915524D01*
X124146000Y-53036845D01*
X123892000Y-53036845D01*
X123662110Y-52915524D01*
X123252076Y-53085355D01*
X122823817Y-53475642D01*
X122577514Y-54000108D01*
X115359122Y-54000108D01*
X115253864Y-53745995D01*
X115007745Y-53671861D01*
X114179605Y-54500000D01*
X113820395Y-54500000D01*
X112992255Y-53671861D01*
X112746136Y-53745995D01*
X112553035Y-54283223D01*
X99762000Y-54283223D01*
X99762000Y-53492255D01*
X113171861Y-53492255D01*
X114000000Y-54320395D01*
X114828139Y-53492255D01*
X114754005Y-53246136D01*
X114216777Y-53053035D01*
X113646546Y-53080222D01*
X113245995Y-53246136D01*
X113171861Y-53492255D01*
X99762000Y-53492255D01*
X99762000Y-48165431D01*
X102275000Y-48165431D01*
X102275000Y-49054569D01*
X102615259Y-49876026D01*
X103243974Y-50504741D01*
X104065431Y-50845000D01*
X104954569Y-50845000D01*
X105776026Y-50504741D01*
X106404741Y-49876026D01*
X106745000Y-49054569D01*
X106745000Y-48165431D01*
X106732574Y-48135431D01*
X190955000Y-48135431D01*
X190955000Y-49024569D01*
X191295259Y-49846026D01*
X191923974Y-50474741D01*
X192745431Y-50815000D01*
X193634569Y-50815000D01*
X194456026Y-50474741D01*
X195084741Y-49846026D01*
X195425000Y-49024569D01*
X195425000Y-48135431D01*
X195084741Y-47313974D01*
X194456026Y-46685259D01*
X193634569Y-46345000D01*
X192745431Y-46345000D01*
X191923974Y-46685259D01*
X191295259Y-47313974D01*
X190955000Y-48135431D01*
X106732574Y-48135431D01*
X106404741Y-47343974D01*
X105776026Y-46715259D01*
X104954569Y-46375000D01*
X104065431Y-46375000D01*
X103243974Y-46715259D01*
X102615259Y-47343974D01*
X102275000Y-48165431D01*
X99762000Y-48165431D01*
X99762000Y-44832000D01*
X197933000Y-44832000D01*
X197933000Y-118238000D01*
X197933000Y-118238000D01*
G37*
X197933000Y-118238000D02*
X99762000Y-118238000D01*
X99762000Y-114075431D01*
X102265000Y-114075431D01*
X102265000Y-114964569D01*
X102605259Y-115786026D01*
X103233974Y-116414741D01*
X104055431Y-116755000D01*
X104944569Y-116755000D01*
X105766026Y-116414741D01*
X106394741Y-115786026D01*
X106735000Y-114964569D01*
X106735000Y-114075431D01*
X191225000Y-114075431D01*
X191225000Y-114964569D01*
X191565259Y-115786026D01*
X192193974Y-116414741D01*
X193015431Y-116755000D01*
X193904569Y-116755000D01*
X194726026Y-116414741D01*
X195354741Y-115786026D01*
X195695000Y-114964569D01*
X195695000Y-114075431D01*
X195354741Y-113253974D01*
X194726026Y-112625259D01*
X193904569Y-112285000D01*
X193015431Y-112285000D01*
X192193974Y-112625259D01*
X191565259Y-113253974D01*
X191225000Y-114075431D01*
X106735000Y-114075431D01*
X106394741Y-113253974D01*
X105766026Y-112625259D01*
X104944569Y-112285000D01*
X104055431Y-112285000D01*
X103233974Y-112625259D01*
X102605259Y-113253974D01*
X102265000Y-114075431D01*
X99762000Y-114075431D01*
X99762000Y-110319039D01*
X111798096Y-110319039D01*
X111958959Y-110707423D01*
X112334866Y-111122389D01*
X112840959Y-111361914D01*
X113063000Y-111240629D01*
X113063000Y-110097000D01*
X113317000Y-110097000D01*
X113317000Y-111240629D01*
X113539041Y-111361914D01*
X114045134Y-111122389D01*
X114421041Y-110707423D01*
X114581904Y-110319039D01*
X114459915Y-110097000D01*
X113317000Y-110097000D01*
X113063000Y-110097000D01*
X111920085Y-110097000D01*
X111798096Y-110319039D01*
X99762000Y-110319039D01*
X99762000Y-109970000D01*
X119346887Y-109970000D01*
X119458260Y-110529909D01*
X119775423Y-111004577D01*
X120250091Y-111321740D01*
X120668667Y-111405000D01*
X120951333Y-111405000D01*
X121369909Y-111321740D01*
X121844577Y-111004577D01*
X122161740Y-110529909D01*
X122273113Y-109970000D01*
X122161740Y-109410091D01*
X121844577Y-108935423D01*
X121460892Y-108679053D01*
X121665134Y-108582389D01*
X122041041Y-108167423D01*
X122201904Y-107779039D01*
X122079915Y-107557000D01*
X120937000Y-107557000D01*
X120937000Y-107577000D01*
X120683000Y-107577000D01*
X120683000Y-107557000D01*
X119540085Y-107557000D01*
X119418096Y-107779039D01*
X119578959Y-108167423D01*
X119954866Y-108582389D01*
X120159108Y-108679053D01*
X119775423Y-108935423D01*
X119458260Y-109410091D01*
X119346887Y-109970000D01*
X99762000Y-109970000D01*
X99762000Y-107430000D01*
X111726887Y-107430000D01*
X111838260Y-107989909D01*
X112155423Y-108464577D01*
X112539108Y-108720947D01*
X112334866Y-108817611D01*
X111958959Y-109232577D01*
X111798096Y-109620961D01*
X111920085Y-109843000D01*
X113063000Y-109843000D01*
X113063000Y-109823000D01*
X113317000Y-109823000D01*
X113317000Y-109843000D01*
X114459915Y-109843000D01*
X114581904Y-109620961D01*
X114421041Y-109232577D01*
X114045134Y-108817611D01*
X113840892Y-108720947D01*
X114224577Y-108464577D01*
X114541740Y-107989909D01*
X114653113Y-107430000D01*
X114541740Y-106870091D01*
X114224577Y-106395423D01*
X113840892Y-106139053D01*
X114045134Y-106042389D01*
X114421041Y-105627423D01*
X114581904Y-105239039D01*
X114459915Y-105017000D01*
X113317000Y-105017000D01*
X113317000Y-105037000D01*
X113063000Y-105037000D01*
X113063000Y-105017000D01*
X111920085Y-105017000D01*
X111798096Y-105239039D01*
X111958959Y-105627423D01*
X112334866Y-106042389D01*
X112539108Y-106139053D01*
X112155423Y-106395423D01*
X111838260Y-106870091D01*
X111726887Y-107430000D01*
X99762000Y-107430000D01*
X99762000Y-104890000D01*
X119346887Y-104890000D01*
X119458260Y-105449909D01*
X119775423Y-105924577D01*
X120159108Y-106180947D01*
X119954866Y-106277611D01*
X119578959Y-106692577D01*
X119418096Y-107080961D01*
X119540085Y-107303000D01*
X120683000Y-107303000D01*
X120683000Y-107283000D01*
X120937000Y-107283000D01*
X120937000Y-107303000D01*
X122079915Y-107303000D01*
X122201904Y-107080961D01*
X122041041Y-106692577D01*
X121665134Y-106277611D01*
X121460892Y-106180947D01*
X121844577Y-105924577D01*
X122161740Y-105449909D01*
X122273113Y-104890000D01*
X122161740Y-104330091D01*
X121844577Y-103855423D01*
X121460892Y-103599053D01*
X121665134Y-103502389D01*
X122041041Y-103087423D01*
X122201904Y-102699039D01*
X122079915Y-102477000D01*
X120937000Y-102477000D01*
X120937000Y-102497000D01*
X120683000Y-102497000D01*
X120683000Y-102477000D01*
X119540085Y-102477000D01*
X119418096Y-102699039D01*
X119578959Y-103087423D01*
X119954866Y-103502389D01*
X120159108Y-103599053D01*
X119775423Y-103855423D01*
X119458260Y-104330091D01*
X119346887Y-104890000D01*
X99762000Y-104890000D01*
X99762000Y-102350000D01*
X111726887Y-102350000D01*
X111838260Y-102909909D01*
X112155423Y-103384577D01*
X112539108Y-103640947D01*
X112334866Y-103737611D01*
X111958959Y-104152577D01*
X111798096Y-104540961D01*
X111920085Y-104763000D01*
X113063000Y-104763000D01*
X113063000Y-104743000D01*
X113317000Y-104743000D01*
X113317000Y-104763000D01*
X114459915Y-104763000D01*
X114581904Y-104540961D01*
X114421041Y-104152577D01*
X114045134Y-103737611D01*
X113840892Y-103640947D01*
X114224577Y-103384577D01*
X114541740Y-102909909D01*
X114653113Y-102350000D01*
X114541740Y-101790091D01*
X114224577Y-101315423D01*
X113840892Y-101059053D01*
X114045134Y-100962389D01*
X114421041Y-100547423D01*
X114581904Y-100159039D01*
X114459915Y-99937000D01*
X113317000Y-99937000D01*
X113317000Y-99957000D01*
X113063000Y-99957000D01*
X113063000Y-99937000D01*
X111920085Y-99937000D01*
X111798096Y-100159039D01*
X111958959Y-100547423D01*
X112334866Y-100962389D01*
X112539108Y-101059053D01*
X112155423Y-101315423D01*
X111838260Y-101790091D01*
X111726887Y-102350000D01*
X99762000Y-102350000D01*
X99762000Y-99810000D01*
X119346887Y-99810000D01*
X119458260Y-100369909D01*
X119775423Y-100844577D01*
X120159108Y-101100947D01*
X119954866Y-101197611D01*
X119578959Y-101612577D01*
X119418096Y-102000961D01*
X119540085Y-102223000D01*
X120683000Y-102223000D01*
X120683000Y-102203000D01*
X120937000Y-102203000D01*
X120937000Y-102223000D01*
X122079915Y-102223000D01*
X122201904Y-102000961D01*
X122041041Y-101612577D01*
X121665134Y-101197611D01*
X121460892Y-101100947D01*
X121844577Y-100844577D01*
X122161740Y-100369909D01*
X122273113Y-99810000D01*
X122248140Y-99684452D01*
X126875000Y-99684452D01*
X126875000Y-100215548D01*
X127078242Y-100706217D01*
X127453783Y-101081758D01*
X127787528Y-101220000D01*
X127453783Y-101358242D01*
X127078242Y-101733783D01*
X126875000Y-102224452D01*
X126875000Y-102755548D01*
X127078242Y-103246217D01*
X127453783Y-103621758D01*
X127787528Y-103760000D01*
X127453783Y-103898242D01*
X127078242Y-104273783D01*
X126875000Y-104764452D01*
X126875000Y-105295548D01*
X127078242Y-105786217D01*
X127453783Y-106161758D01*
X127787528Y-106300000D01*
X127453783Y-106438242D01*
X127078242Y-106813783D01*
X126875000Y-107304452D01*
X126875000Y-107835548D01*
X127078242Y-108326217D01*
X127453783Y-108701758D01*
X127787528Y-108840000D01*
X127453783Y-108978242D01*
X127078242Y-109353783D01*
X126875000Y-109844452D01*
X126875000Y-110375548D01*
X127078242Y-110866217D01*
X127453783Y-111241758D01*
X127944452Y-111445000D01*
X128475548Y-111445000D01*
X128966217Y-111241758D01*
X129341758Y-110866217D01*
X129545000Y-110375548D01*
X129545000Y-109844452D01*
X129341758Y-109353783D01*
X128966217Y-108978242D01*
X128632472Y-108840000D01*
X128966217Y-108701758D01*
X129341758Y-108326217D01*
X129545000Y-107835548D01*
X129545000Y-107304452D01*
X129341758Y-106813783D01*
X128966217Y-106438242D01*
X128632472Y-106300000D01*
X128966217Y-106161758D01*
X129341758Y-105786217D01*
X129545000Y-105295548D01*
X129545000Y-104764452D01*
X129341758Y-104273783D01*
X128966217Y-103898242D01*
X128632472Y-103760000D01*
X128966217Y-103621758D01*
X129341758Y-103246217D01*
X129545000Y-102755548D01*
X129545000Y-102224452D01*
X129341758Y-101733783D01*
X128966217Y-101358242D01*
X128632472Y-101220000D01*
X128966217Y-101081758D01*
X129341758Y-100706217D01*
X129545000Y-100215548D01*
X129545000Y-99684452D01*
X129341758Y-99193783D01*
X128966217Y-98818242D01*
X128475548Y-98615000D01*
X127944452Y-98615000D01*
X127453783Y-98818242D01*
X127078242Y-99193783D01*
X126875000Y-99684452D01*
X122248140Y-99684452D01*
X122161740Y-99250091D01*
X121844577Y-98775423D01*
X121460892Y-98519053D01*
X121665134Y-98422389D01*
X122041041Y-98007423D01*
X122201904Y-97619039D01*
X122079915Y-97397000D01*
X120937000Y-97397000D01*
X120937000Y-97417000D01*
X120683000Y-97417000D01*
X120683000Y-97397000D01*
X119540085Y-97397000D01*
X119418096Y-97619039D01*
X119578959Y-98007423D01*
X119954866Y-98422389D01*
X120159108Y-98519053D01*
X119775423Y-98775423D01*
X119458260Y-99250091D01*
X119346887Y-99810000D01*
X99762000Y-99810000D01*
X99762000Y-92737745D01*
X115361861Y-92737745D01*
X115435995Y-92983864D01*
X115973223Y-93176965D01*
X116543454Y-93149778D01*
X116944005Y-92983864D01*
X117018139Y-92737745D01*
X116190000Y-91909605D01*
X115361861Y-92737745D01*
X99762000Y-92737745D01*
X99762000Y-91513223D01*
X114743035Y-91513223D01*
X114770222Y-92083454D01*
X114936136Y-92484005D01*
X115182255Y-92558139D01*
X116010395Y-91730000D01*
X116369605Y-91730000D01*
X117197745Y-92558139D01*
X117443864Y-92484005D01*
X117636965Y-91946777D01*
X117609778Y-91376546D01*
X117443864Y-90975995D01*
X117197745Y-90901861D01*
X116369605Y-91730000D01*
X116010395Y-91730000D01*
X115182255Y-90901861D01*
X114936136Y-90975995D01*
X114743035Y-91513223D01*
X99762000Y-91513223D01*
X99762000Y-90722255D01*
X115361861Y-90722255D01*
X116190000Y-91550395D01*
X117018139Y-90722255D01*
X116944005Y-90476136D01*
X116406777Y-90283035D01*
X115836546Y-90310222D01*
X115435995Y-90476136D01*
X115361861Y-90722255D01*
X99762000Y-90722255D01*
X99762000Y-86859039D01*
X111798096Y-86859039D01*
X111958959Y-87247423D01*
X112334866Y-87662389D01*
X112840959Y-87901914D01*
X113063000Y-87780629D01*
X113063000Y-86637000D01*
X113317000Y-86637000D01*
X113317000Y-87780629D01*
X113539041Y-87901914D01*
X114045134Y-87662389D01*
X114421041Y-87247423D01*
X114581904Y-86859039D01*
X114459915Y-86637000D01*
X113317000Y-86637000D01*
X113063000Y-86637000D01*
X111920085Y-86637000D01*
X111798096Y-86859039D01*
X99762000Y-86859039D01*
X99762000Y-76699039D01*
X111798096Y-76699039D01*
X111958959Y-77087423D01*
X112334866Y-77502389D01*
X112583367Y-77620000D01*
X112334866Y-77737611D01*
X111958959Y-78152577D01*
X111798096Y-78540961D01*
X111920085Y-78763000D01*
X113063000Y-78763000D01*
X113063000Y-76477000D01*
X113317000Y-76477000D01*
X113317000Y-78763000D01*
X114459915Y-78763000D01*
X114581904Y-78540961D01*
X114421041Y-78152577D01*
X114045134Y-77737611D01*
X113796633Y-77620000D01*
X114045134Y-77502389D01*
X114421041Y-77087423D01*
X114581904Y-76699039D01*
X114459915Y-76477000D01*
X113317000Y-76477000D01*
X113063000Y-76477000D01*
X111920085Y-76477000D01*
X111798096Y-76699039D01*
X99762000Y-76699039D01*
X99762000Y-71270000D01*
X111726887Y-71270000D01*
X111838260Y-71829909D01*
X112155423Y-72304577D01*
X112507758Y-72540000D01*
X112155423Y-72775423D01*
X111838260Y-73250091D01*
X111726887Y-73810000D01*
X111838260Y-74369909D01*
X112155423Y-74844577D01*
X112539108Y-75100947D01*
X112334866Y-75197611D01*
X111958959Y-75612577D01*
X111798096Y-76000961D01*
X111920085Y-76223000D01*
X113063000Y-76223000D01*
X113063000Y-76203000D01*
X113317000Y-76203000D01*
X113317000Y-76223000D01*
X114459915Y-76223000D01*
X114581904Y-76000961D01*
X114421041Y-75612577D01*
X114045134Y-75197611D01*
X113840892Y-75100947D01*
X114224577Y-74844577D01*
X114410786Y-74565896D01*
X114611837Y-74525904D01*
X114863229Y-74357929D01*
X114905631Y-74294470D01*
X115755402Y-73444700D01*
X119419550Y-73444700D01*
X119346887Y-73810000D01*
X119458260Y-74369909D01*
X119775423Y-74844577D01*
X120127758Y-75080000D01*
X119775423Y-75315423D01*
X119458260Y-75790091D01*
X119346887Y-76350000D01*
X119458260Y-76909909D01*
X119775423Y-77384577D01*
X120127758Y-77620000D01*
X119775423Y-77855423D01*
X119458260Y-78330091D01*
X119346887Y-78890000D01*
X119458260Y-79449909D01*
X119775423Y-79924577D01*
X120127758Y-80160000D01*
X119775423Y-80395423D01*
X119458260Y-80870091D01*
X119346887Y-81430000D01*
X119458260Y-81989909D01*
X119775423Y-82464577D01*
X120127758Y-82700000D01*
X119775423Y-82935423D01*
X119458260Y-83410091D01*
X119433259Y-83535780D01*
X119287431Y-83183720D01*
X118996280Y-82892569D01*
X118615874Y-82735000D01*
X118204126Y-82735000D01*
X117962704Y-82835000D01*
X115917290Y-82835000D01*
X114629749Y-81547459D01*
X114653113Y-81430000D01*
X114541740Y-80870091D01*
X114224577Y-80395423D01*
X113840892Y-80139053D01*
X114045134Y-80042389D01*
X114421041Y-79627423D01*
X114581904Y-79239039D01*
X114459915Y-79017000D01*
X113317000Y-79017000D01*
X113317000Y-79037000D01*
X113063000Y-79037000D01*
X113063000Y-79017000D01*
X111920085Y-79017000D01*
X111798096Y-79239039D01*
X111958959Y-79627423D01*
X112334866Y-80042389D01*
X112539108Y-80139053D01*
X112155423Y-80395423D01*
X111838260Y-80870091D01*
X111726887Y-81430000D01*
X111838260Y-81989909D01*
X112155423Y-82464577D01*
X112507758Y-82700000D01*
X112155423Y-82935423D01*
X111838260Y-83410091D01*
X111726887Y-83970000D01*
X111838260Y-84529909D01*
X112155423Y-85004577D01*
X112539108Y-85260947D01*
X112334866Y-85357611D01*
X111958959Y-85772577D01*
X111798096Y-86160961D01*
X111920085Y-86383000D01*
X113063000Y-86383000D01*
X113063000Y-86363000D01*
X113317000Y-86363000D01*
X113317000Y-86383000D01*
X114459915Y-86383000D01*
X114581904Y-86160961D01*
X114421041Y-85772577D01*
X114045134Y-85357611D01*
X113840892Y-85260947D01*
X114224577Y-85004577D01*
X114244804Y-84974305D01*
X115089670Y-85819172D01*
X115132071Y-85882629D01*
X115383463Y-86050604D01*
X115605148Y-86094700D01*
X115605152Y-86094700D01*
X115679999Y-86109588D01*
X115754846Y-86094700D01*
X119429495Y-86094700D01*
X119346887Y-86510000D01*
X119458260Y-87069909D01*
X119775423Y-87544577D01*
X120250091Y-87861740D01*
X120668667Y-87945000D01*
X120951333Y-87945000D01*
X121369909Y-87861740D01*
X121844577Y-87544577D01*
X122161740Y-87069909D01*
X122273113Y-86510000D01*
X122190505Y-86094700D01*
X125524599Y-86094700D01*
X126424371Y-86994473D01*
X126466771Y-87057929D01*
X126718163Y-87225904D01*
X126907526Y-87263571D01*
X127119375Y-87580625D01*
X127610582Y-87908839D01*
X128043744Y-87995000D01*
X128336256Y-87995000D01*
X128769418Y-87908839D01*
X129260625Y-87580625D01*
X129460000Y-87282239D01*
X129659375Y-87580625D01*
X130150582Y-87908839D01*
X130583744Y-87995000D01*
X130876256Y-87995000D01*
X131309418Y-87908839D01*
X131800625Y-87580625D01*
X132128839Y-87089418D01*
X132244092Y-86510000D01*
X132128839Y-85930582D01*
X131800625Y-85439375D01*
X131502239Y-85240000D01*
X131800625Y-85040625D01*
X132128839Y-84549418D01*
X132244092Y-83970000D01*
X132128839Y-83390582D01*
X131800625Y-82899375D01*
X131502239Y-82700000D01*
X131800625Y-82500625D01*
X132128839Y-82009418D01*
X132244092Y-81430000D01*
X132128839Y-80850582D01*
X131800625Y-80359375D01*
X131502239Y-80160000D01*
X131800625Y-79960625D01*
X131840887Y-79900369D01*
X131877117Y-79924577D01*
X132028762Y-80025904D01*
X132076905Y-80035480D01*
X132250448Y-80070000D01*
X132250452Y-80070000D01*
X132325300Y-80084888D01*
X132400148Y-80070000D01*
X149545198Y-80070000D01*
X146348730Y-83266469D01*
X146285271Y-83308871D01*
X146117296Y-83560264D01*
X146073200Y-83781949D01*
X146073200Y-83781953D01*
X146058312Y-83856800D01*
X146073200Y-83931647D01*
X146073201Y-84809088D01*
X145955769Y-84926520D01*
X145798200Y-85306926D01*
X145798200Y-85718674D01*
X145955769Y-86099080D01*
X146246920Y-86390231D01*
X146627326Y-86547800D01*
X147039074Y-86547800D01*
X147419480Y-86390231D01*
X147710631Y-86099080D01*
X147868200Y-85718674D01*
X147868200Y-85306926D01*
X147710631Y-84926520D01*
X147593200Y-84809089D01*
X147593200Y-84171601D01*
X150344123Y-81420678D01*
X150235000Y-81684126D01*
X150235000Y-82095874D01*
X150392569Y-82476280D01*
X150552054Y-82635765D01*
X150431135Y-82927690D01*
X150431135Y-83339438D01*
X150588704Y-83719844D01*
X150879855Y-84010995D01*
X151260261Y-84168564D01*
X151426334Y-84168564D01*
X151502240Y-84244470D01*
X151544642Y-84307929D01*
X151748517Y-84444154D01*
X151691771Y-84482071D01*
X151649371Y-84545527D01*
X149203499Y-86991400D01*
X149037426Y-86991400D01*
X148657020Y-87148969D01*
X148365869Y-87440120D01*
X148208300Y-87820526D01*
X148208300Y-88232274D01*
X148365869Y-88612680D01*
X148657020Y-88903831D01*
X149037426Y-89061400D01*
X149449174Y-89061400D01*
X149829580Y-88903831D01*
X150120731Y-88612680D01*
X150278300Y-88232274D01*
X150278300Y-88066201D01*
X151477303Y-86867199D01*
X151464811Y-86930000D01*
X151479700Y-87004852D01*
X151479700Y-87255198D01*
X149108499Y-89626400D01*
X122608446Y-89626400D01*
X122533599Y-89611512D01*
X122458752Y-89626400D01*
X122458748Y-89626400D01*
X122237063Y-89670496D01*
X122174502Y-89712298D01*
X122049126Y-89796071D01*
X122049124Y-89796073D01*
X121985671Y-89838471D01*
X121943273Y-89901924D01*
X121528301Y-90316896D01*
X121475439Y-90295000D01*
X120904561Y-90295000D01*
X120377138Y-90513466D01*
X119973466Y-90917138D01*
X119755000Y-91444561D01*
X119755000Y-92015439D01*
X119973466Y-92542862D01*
X120377138Y-92946534D01*
X120904561Y-93165000D01*
X121475439Y-93165000D01*
X122002862Y-92946534D01*
X122406534Y-92542862D01*
X122625000Y-92015439D01*
X122625000Y-91444561D01*
X122603104Y-91391699D01*
X122848403Y-91146400D01*
X144353397Y-91146400D01*
X140115099Y-95384700D01*
X122098403Y-95384700D01*
X122161740Y-95289909D01*
X122273113Y-94730000D01*
X122161740Y-94170091D01*
X121844577Y-93695423D01*
X121369909Y-93378260D01*
X120951333Y-93295000D01*
X120668667Y-93295000D01*
X120250091Y-93378260D01*
X119775423Y-93695423D01*
X119458260Y-94170091D01*
X119346887Y-94730000D01*
X119458260Y-95289909D01*
X119521597Y-95384700D01*
X115515448Y-95384700D01*
X115440600Y-95369812D01*
X115365752Y-95384700D01*
X115365748Y-95384700D01*
X115144063Y-95428796D01*
X114892671Y-95596771D01*
X114850271Y-95660227D01*
X114244804Y-96265695D01*
X114224577Y-96235423D01*
X114103894Y-96154785D01*
X114237765Y-96128157D01*
X114447809Y-95987809D01*
X114588157Y-95777765D01*
X114637440Y-95530000D01*
X114637440Y-93930000D01*
X114588157Y-93682235D01*
X114447809Y-93472191D01*
X114237765Y-93331843D01*
X113990000Y-93282560D01*
X112390000Y-93282560D01*
X112142235Y-93331843D01*
X111932191Y-93472191D01*
X111791843Y-93682235D01*
X111742560Y-93930000D01*
X111742560Y-95530000D01*
X111791843Y-95777765D01*
X111932191Y-95987809D01*
X112142235Y-96128157D01*
X112276106Y-96154785D01*
X112155423Y-96235423D01*
X111838260Y-96710091D01*
X111726887Y-97270000D01*
X111838260Y-97829909D01*
X112155423Y-98304577D01*
X112539108Y-98560947D01*
X112334866Y-98657611D01*
X111958959Y-99072577D01*
X111798096Y-99460961D01*
X111920085Y-99683000D01*
X113063000Y-99683000D01*
X113063000Y-99663000D01*
X113317000Y-99663000D01*
X113317000Y-99683000D01*
X114459915Y-99683000D01*
X114581904Y-99460961D01*
X114421041Y-99072577D01*
X114045134Y-98657611D01*
X113840892Y-98560947D01*
X114224577Y-98304577D01*
X114410786Y-98025896D01*
X114611837Y-97985904D01*
X114863229Y-97817929D01*
X114905631Y-97754470D01*
X115755402Y-96904700D01*
X119424831Y-96904700D01*
X119418096Y-96920961D01*
X119540085Y-97143000D01*
X120683000Y-97143000D01*
X120683000Y-97123000D01*
X120937000Y-97123000D01*
X120937000Y-97143000D01*
X122079915Y-97143000D01*
X122201904Y-96920961D01*
X122195169Y-96904700D01*
X140355053Y-96904700D01*
X140429900Y-96919588D01*
X140504747Y-96904700D01*
X140504752Y-96904700D01*
X140726437Y-96860604D01*
X140977829Y-96692629D01*
X141020231Y-96629170D01*
X145509403Y-92140000D01*
X152005087Y-92140000D01*
X151966843Y-92197235D01*
X151957613Y-92243637D01*
X151930000Y-92271250D01*
X151930000Y-92341309D01*
X151935530Y-92354659D01*
X151917560Y-92445000D01*
X151917560Y-92855000D01*
X151939440Y-92965000D01*
X151917560Y-93075000D01*
X151917560Y-93485000D01*
X151940435Y-93600000D01*
X151917560Y-93715000D01*
X151917560Y-94125000D01*
X151939440Y-94235000D01*
X151917560Y-94345000D01*
X151917560Y-94430000D01*
X150581901Y-94430000D01*
X150538431Y-94386530D01*
X150496029Y-94323071D01*
X150244637Y-94155096D01*
X150022952Y-94111000D01*
X150022947Y-94111000D01*
X149948100Y-94096112D01*
X149873253Y-94111000D01*
X147089148Y-94111000D01*
X147014300Y-94096112D01*
X146939452Y-94111000D01*
X146939448Y-94111000D01*
X146717763Y-94155096D01*
X146466371Y-94323071D01*
X146423971Y-94386527D01*
X136762807Y-104047692D01*
X136350891Y-103772458D01*
X136288261Y-103760000D01*
X136350891Y-103747542D01*
X136792481Y-103452481D01*
X137087542Y-103010891D01*
X137191154Y-102490000D01*
X137087542Y-101969109D01*
X136792481Y-101527519D01*
X136350891Y-101232458D01*
X136288261Y-101220000D01*
X136350891Y-101207542D01*
X136792481Y-100912481D01*
X137087542Y-100470891D01*
X137191154Y-99950000D01*
X137087542Y-99429109D01*
X136792481Y-98987519D01*
X136350891Y-98692458D01*
X135961485Y-98615000D01*
X135698515Y-98615000D01*
X135309109Y-98692458D01*
X134867519Y-98987519D01*
X134572458Y-99429109D01*
X134468846Y-99950000D01*
X134572458Y-100470891D01*
X134867519Y-100912481D01*
X135309109Y-101207542D01*
X135371739Y-101220000D01*
X135309109Y-101232458D01*
X134867519Y-101527519D01*
X134572458Y-101969109D01*
X134468846Y-102490000D01*
X134572458Y-103010891D01*
X134867519Y-103452481D01*
X135309109Y-103747542D01*
X135371739Y-103760000D01*
X135309109Y-103772458D01*
X134867519Y-104067519D01*
X134572458Y-104509109D01*
X134468846Y-105030000D01*
X134572458Y-105550891D01*
X134867519Y-105992481D01*
X135309109Y-106287542D01*
X135371739Y-106300000D01*
X135309109Y-106312458D01*
X134867519Y-106607519D01*
X134572458Y-107049109D01*
X134468846Y-107570000D01*
X134572458Y-108090891D01*
X134867519Y-108532481D01*
X135309109Y-108827542D01*
X135371739Y-108840000D01*
X135309109Y-108852458D01*
X134867519Y-109147519D01*
X134572458Y-109589109D01*
X134468846Y-110110000D01*
X134572458Y-110630891D01*
X134867519Y-111072481D01*
X135309109Y-111367542D01*
X135698515Y-111445000D01*
X135961485Y-111445000D01*
X136350891Y-111367542D01*
X136792481Y-111072481D01*
X136927774Y-110870000D01*
X142103331Y-110870000D01*
X142148690Y-110979507D01*
X142580493Y-111411310D01*
X143144670Y-111645000D01*
X143755330Y-111645000D01*
X144319507Y-111411310D01*
X144488725Y-111242092D01*
X144491843Y-111257765D01*
X144632191Y-111467809D01*
X144842235Y-111608157D01*
X145090000Y-111657440D01*
X146890000Y-111657440D01*
X147137765Y-111608157D01*
X147347809Y-111467809D01*
X147488157Y-111257765D01*
X147537440Y-111010000D01*
X147537440Y-110870000D01*
X150120753Y-110870000D01*
X150195600Y-110884888D01*
X150270447Y-110870000D01*
X150270452Y-110870000D01*
X150492137Y-110825904D01*
X150743529Y-110657929D01*
X150785931Y-110594470D01*
X154739922Y-106640480D01*
X154700000Y-106736860D01*
X154700000Y-107783140D01*
X155100393Y-108749775D01*
X155840225Y-109489607D01*
X156806860Y-109890000D01*
X157047560Y-109890000D01*
X157047560Y-111890000D01*
X157096843Y-112137765D01*
X157237191Y-112347809D01*
X157447235Y-112488157D01*
X157695000Y-112537440D01*
X162265000Y-112537440D01*
X162512765Y-112488157D01*
X162722809Y-112347809D01*
X162863157Y-112137765D01*
X162912440Y-111890000D01*
X162912440Y-109890000D01*
X162863157Y-109642235D01*
X162722809Y-109432191D01*
X162512765Y-109291843D01*
X162265000Y-109242560D01*
X159066822Y-109242560D01*
X159559607Y-108749775D01*
X159629394Y-108581294D01*
X160024615Y-108745000D01*
X160615385Y-108745000D01*
X161161185Y-108518922D01*
X161578922Y-108101185D01*
X161805000Y-107555385D01*
X161805000Y-106964615D01*
X161578922Y-106418815D01*
X161161185Y-106001078D01*
X160615385Y-105775000D01*
X160024615Y-105775000D01*
X159629394Y-105938706D01*
X159559607Y-105770225D01*
X158819775Y-105030393D01*
X157853140Y-104630000D01*
X156806860Y-104630000D01*
X156710480Y-104669922D01*
X157352873Y-104027529D01*
X157416329Y-103985129D01*
X157584304Y-103733737D01*
X157628400Y-103512052D01*
X157628400Y-103512048D01*
X157643288Y-103437201D01*
X157628400Y-103362354D01*
X157628400Y-97002946D01*
X157643288Y-96928099D01*
X157628400Y-96853252D01*
X157628400Y-96853248D01*
X157584304Y-96631563D01*
X157427737Y-96397244D01*
X157596280Y-96327431D01*
X157887431Y-96036280D01*
X158045000Y-95655874D01*
X158045000Y-95244126D01*
X157887431Y-94863720D01*
X157605056Y-94581345D01*
X166337273Y-85849129D01*
X166400729Y-85806729D01*
X166568704Y-85555337D01*
X166612800Y-85333652D01*
X166612800Y-85333648D01*
X166627688Y-85258801D01*
X166612800Y-85183954D01*
X166612800Y-58291307D01*
X166619582Y-58295839D01*
X167052744Y-58382000D01*
X167345256Y-58382000D01*
X167778418Y-58295839D01*
X168269625Y-57967625D01*
X168469000Y-57669239D01*
X168668375Y-57967625D01*
X169159582Y-58295839D01*
X169592744Y-58382000D01*
X169885256Y-58382000D01*
X170318418Y-58295839D01*
X170809625Y-57967625D01*
X171009000Y-57669239D01*
X171208375Y-57967625D01*
X171699582Y-58295839D01*
X172132744Y-58382000D01*
X172425256Y-58382000D01*
X172858418Y-58295839D01*
X173349625Y-57967625D01*
X173677839Y-57476418D01*
X173793092Y-56897000D01*
X173677839Y-56317582D01*
X173349625Y-55826375D01*
X173051239Y-55627000D01*
X173349625Y-55427625D01*
X173677839Y-54936418D01*
X173793092Y-54357000D01*
X173677839Y-53777582D01*
X173349625Y-53286375D01*
X172858418Y-52958161D01*
X172425256Y-52872000D01*
X172132744Y-52872000D01*
X171699582Y-52958161D01*
X171208375Y-53286375D01*
X171009000Y-53584761D01*
X170809625Y-53286375D01*
X170318418Y-52958161D01*
X169885256Y-52872000D01*
X169592744Y-52872000D01*
X169159582Y-52958161D01*
X168668375Y-53286375D01*
X168469000Y-53584761D01*
X168269625Y-53286375D01*
X167778418Y-52958161D01*
X167345256Y-52872000D01*
X167052744Y-52872000D01*
X166619582Y-52958161D01*
X166128375Y-53286375D01*
X165929000Y-53584761D01*
X165729625Y-53286375D01*
X165238418Y-52958161D01*
X164805256Y-52872000D01*
X164512744Y-52872000D01*
X164079582Y-52958161D01*
X163713903Y-53202500D01*
X163197130Y-52685729D01*
X163154729Y-52622271D01*
X162903337Y-52454296D01*
X162681652Y-52410200D01*
X162681647Y-52410200D01*
X162606800Y-52395312D01*
X162531953Y-52410200D01*
X156568646Y-52410200D01*
X156493799Y-52395312D01*
X156418952Y-52410200D01*
X156418948Y-52410200D01*
X156197263Y-52454296D01*
X155945871Y-52622271D01*
X155903471Y-52685727D01*
X155409689Y-53179509D01*
X155078418Y-52958161D01*
X154645256Y-52872000D01*
X154352744Y-52872000D01*
X153919582Y-52958161D01*
X153428375Y-53286375D01*
X153229000Y-53584761D01*
X153029625Y-53286375D01*
X152538418Y-52958161D01*
X152105256Y-52872000D01*
X151812744Y-52872000D01*
X151379582Y-52958161D01*
X150888375Y-53286375D01*
X150689000Y-53584761D01*
X150489625Y-53286375D01*
X149998418Y-52958161D01*
X149565256Y-52872000D01*
X149272744Y-52872000D01*
X148839582Y-52958161D01*
X148348375Y-53286375D01*
X148149000Y-53584761D01*
X147949625Y-53286375D01*
X147458418Y-52958161D01*
X147025256Y-52872000D01*
X146732744Y-52872000D01*
X146299582Y-52958161D01*
X145808375Y-53286375D01*
X145609000Y-53584761D01*
X145409625Y-53286375D01*
X144918418Y-52958161D01*
X144485256Y-52872000D01*
X144192744Y-52872000D01*
X143759582Y-52958161D01*
X143268375Y-53286375D01*
X143069000Y-53584761D01*
X142869625Y-53286375D01*
X142378418Y-52958161D01*
X141945256Y-52872000D01*
X141652744Y-52872000D01*
X141219582Y-52958161D01*
X140728375Y-53286375D01*
X140529000Y-53584761D01*
X140329625Y-53286375D01*
X139838418Y-52958161D01*
X139405256Y-52872000D01*
X139112744Y-52872000D01*
X138679582Y-52958161D01*
X138188375Y-53286375D01*
X137989000Y-53584761D01*
X137789625Y-53286375D01*
X137298418Y-52958161D01*
X136865256Y-52872000D01*
X136572744Y-52872000D01*
X136139582Y-52958161D01*
X135648375Y-53286375D01*
X135449000Y-53584761D01*
X135249625Y-53286375D01*
X134758418Y-52958161D01*
X134325256Y-52872000D01*
X134032744Y-52872000D01*
X133599582Y-52958161D01*
X133108375Y-53286375D01*
X132909000Y-53584761D01*
X132709625Y-53286375D01*
X132218418Y-52958161D01*
X131785256Y-52872000D01*
X131492744Y-52872000D01*
X131059582Y-52958161D01*
X130568375Y-53286375D01*
X130369000Y-53584761D01*
X130169625Y-53286375D01*
X129678418Y-52958161D01*
X129245256Y-52872000D01*
X128952744Y-52872000D01*
X128519582Y-52958161D01*
X128028375Y-53286375D01*
X127815157Y-53605478D01*
X127754183Y-53475642D01*
X127325924Y-53085355D01*
X126915890Y-52915524D01*
X126686000Y-53036845D01*
X126686000Y-54230000D01*
X126706000Y-54230000D01*
X126706000Y-54484000D01*
X126686000Y-54484000D01*
X126686000Y-54504000D01*
X126432000Y-54504000D01*
X126432000Y-54484000D01*
X124146000Y-54484000D01*
X124146000Y-54504000D01*
X123892000Y-54504000D01*
X123892000Y-54484000D01*
X122698181Y-54484000D01*
X122577514Y-54713892D01*
X122823817Y-55238358D01*
X123030855Y-55427039D01*
X122921235Y-55448843D01*
X122711191Y-55589191D01*
X122570843Y-55799235D01*
X122538467Y-55962000D01*
X121200914Y-55962000D01*
X120928181Y-56016250D01*
X120855221Y-56065000D01*
X115420587Y-56065000D01*
X115398157Y-55952235D01*
X115257809Y-55742191D01*
X115047765Y-55601843D01*
X114813813Y-55555307D01*
X114828139Y-55507745D01*
X114000000Y-54679605D01*
X113171861Y-55507745D01*
X113186187Y-55555307D01*
X112952235Y-55601843D01*
X112742191Y-55742191D01*
X112601843Y-55952235D01*
X112552560Y-56200000D01*
X112552560Y-57800000D01*
X112601843Y-58047765D01*
X112742191Y-58257809D01*
X112952235Y-58398157D01*
X113200000Y-58447440D01*
X114800000Y-58447440D01*
X115047765Y-58398157D01*
X115257809Y-58257809D01*
X115398157Y-58047765D01*
X115420587Y-57935000D01*
X120255000Y-57935000D01*
X120255001Y-64635603D01*
X119973466Y-64917138D01*
X119755000Y-65444561D01*
X119755000Y-66015439D01*
X119911971Y-66394400D01*
X117476072Y-66394400D01*
X117636965Y-65946777D01*
X117609778Y-65376546D01*
X117443864Y-64975995D01*
X117197745Y-64901861D01*
X116369605Y-65730000D01*
X116383748Y-65744142D01*
X116204142Y-65923748D01*
X116190000Y-65909605D01*
X115677683Y-66421923D01*
X115594363Y-66438496D01*
X115342971Y-66606471D01*
X115300571Y-66669927D01*
X114468036Y-67502463D01*
X114447809Y-67472191D01*
X114237765Y-67331843D01*
X113990000Y-67282560D01*
X112390000Y-67282560D01*
X112142235Y-67331843D01*
X111932191Y-67472191D01*
X111791843Y-67682235D01*
X111742560Y-67930000D01*
X111742560Y-69530000D01*
X111791843Y-69777765D01*
X111932191Y-69987809D01*
X112142235Y-70128157D01*
X112276106Y-70154785D01*
X112155423Y-70235423D01*
X111838260Y-70710091D01*
X111726887Y-71270000D01*
X99762000Y-71270000D01*
X99762000Y-65513223D01*
X114743035Y-65513223D01*
X114770222Y-66083454D01*
X114936136Y-66484005D01*
X115182255Y-66558139D01*
X116010395Y-65730000D01*
X115182255Y-64901861D01*
X114936136Y-64975995D01*
X114743035Y-65513223D01*
X99762000Y-65513223D01*
X99762000Y-64722255D01*
X115361861Y-64722255D01*
X116190000Y-65550395D01*
X117018139Y-64722255D01*
X116944005Y-64476136D01*
X116406777Y-64283035D01*
X115836546Y-64310222D01*
X115435995Y-64476136D01*
X115361861Y-64722255D01*
X99762000Y-64722255D01*
X99762000Y-54283223D01*
X112553035Y-54283223D01*
X112580222Y-54853454D01*
X112746136Y-55254005D01*
X112992255Y-55328139D01*
X113820395Y-54500000D01*
X114179605Y-54500000D01*
X115007745Y-55328139D01*
X115253864Y-55254005D01*
X115446965Y-54716777D01*
X115419778Y-54146546D01*
X115359122Y-54000108D01*
X122577514Y-54000108D01*
X122698181Y-54230000D01*
X123892000Y-54230000D01*
X123892000Y-53036845D01*
X124146000Y-53036845D01*
X124146000Y-54230000D01*
X126432000Y-54230000D01*
X126432000Y-53036845D01*
X126202110Y-52915524D01*
X125792076Y-53085355D01*
X125363817Y-53475642D01*
X125289000Y-53634954D01*
X125214183Y-53475642D01*
X124785924Y-53085355D01*
X124375890Y-52915524D01*
X124146000Y-53036845D01*
X123892000Y-53036845D01*
X123662110Y-52915524D01*
X123252076Y-53085355D01*
X122823817Y-53475642D01*
X122577514Y-54000108D01*
X115359122Y-54000108D01*
X115253864Y-53745995D01*
X115007745Y-53671861D01*
X114179605Y-54500000D01*
X113820395Y-54500000D01*
X112992255Y-53671861D01*
X112746136Y-53745995D01*
X112553035Y-54283223D01*
X99762000Y-54283223D01*
X99762000Y-53492255D01*
X113171861Y-53492255D01*
X114000000Y-54320395D01*
X114828139Y-53492255D01*
X114754005Y-53246136D01*
X114216777Y-53053035D01*
X113646546Y-53080222D01*
X113245995Y-53246136D01*
X113171861Y-53492255D01*
X99762000Y-53492255D01*
X99762000Y-48165431D01*
X102275000Y-48165431D01*
X102275000Y-49054569D01*
X102615259Y-49876026D01*
X103243974Y-50504741D01*
X104065431Y-50845000D01*
X104954569Y-50845000D01*
X105776026Y-50504741D01*
X106404741Y-49876026D01*
X106745000Y-49054569D01*
X106745000Y-48165431D01*
X106732574Y-48135431D01*
X190955000Y-48135431D01*
X190955000Y-49024569D01*
X191295259Y-49846026D01*
X191923974Y-50474741D01*
X192745431Y-50815000D01*
X193634569Y-50815000D01*
X194456026Y-50474741D01*
X195084741Y-49846026D01*
X195425000Y-49024569D01*
X195425000Y-48135431D01*
X195084741Y-47313974D01*
X194456026Y-46685259D01*
X193634569Y-46345000D01*
X192745431Y-46345000D01*
X191923974Y-46685259D01*
X191295259Y-47313974D01*
X190955000Y-48135431D01*
X106732574Y-48135431D01*
X106404741Y-47343974D01*
X105776026Y-46715259D01*
X104954569Y-46375000D01*
X104065431Y-46375000D01*
X103243974Y-46715259D01*
X102615259Y-47343974D01*
X102275000Y-48165431D01*
X99762000Y-48165431D01*
X99762000Y-44832000D01*
X197933000Y-44832000D01*
X197933000Y-118238000D01*
G36*
X148612600Y-95802174D02*
X148770169Y-96182580D01*
X149061320Y-96473731D01*
X149441726Y-96631300D01*
X149607799Y-96631300D01*
X149978211Y-97001712D01*
X149833220Y-97061769D01*
X149542069Y-97352920D01*
X149384500Y-97733326D01*
X149384500Y-98145074D01*
X149542069Y-98525480D01*
X149833220Y-98816631D01*
X150213626Y-98974200D01*
X150333300Y-98974200D01*
X150333300Y-98990374D01*
X150490869Y-99370780D01*
X150782020Y-99661931D01*
X151162426Y-99819500D01*
X151328498Y-99819500D01*
X151623471Y-100114473D01*
X151665871Y-100177929D01*
X151917263Y-100345904D01*
X151917560Y-100345963D01*
X151917560Y-100475000D01*
X151939440Y-100585000D01*
X151917560Y-100695000D01*
X151917560Y-101105000D01*
X151940435Y-101220000D01*
X151917560Y-101335000D01*
X151917560Y-101745000D01*
X151939440Y-101855000D01*
X151917560Y-101965000D01*
X151917560Y-102375000D01*
X151935530Y-102465341D01*
X151930000Y-102478691D01*
X151930000Y-102548750D01*
X151957613Y-102576363D01*
X151966843Y-102622765D01*
X152107191Y-102832809D01*
X152226456Y-102912500D01*
X152088750Y-102912500D01*
X151930000Y-103071250D01*
X151930000Y-103141309D01*
X152026673Y-103374698D01*
X152205301Y-103553327D01*
X152438690Y-103650000D01*
X154034250Y-103650000D01*
X154193000Y-103491250D01*
X154193000Y-103022440D01*
X154447000Y-103022440D01*
X154447000Y-103491250D01*
X154605750Y-103650000D01*
X154862397Y-103650000D01*
X151702399Y-106810000D01*
X136927774Y-106810000D01*
X136792481Y-106607519D01*
X136350891Y-106312458D01*
X136288261Y-106300000D01*
X136350891Y-106287542D01*
X136792481Y-105992481D01*
X136927411Y-105790544D01*
X136930147Y-105790000D01*
X136930152Y-105790000D01*
X137151837Y-105745904D01*
X137403229Y-105577929D01*
X137445631Y-105514470D01*
X147329102Y-95631000D01*
X148612600Y-95631000D01*
X148612600Y-95802174D01*
X148612600Y-95802174D01*
G37*
X148612600Y-95802174D02*
X148770169Y-96182580D01*
X149061320Y-96473731D01*
X149441726Y-96631300D01*
X149607799Y-96631300D01*
X149978211Y-97001712D01*
X149833220Y-97061769D01*
X149542069Y-97352920D01*
X149384500Y-97733326D01*
X149384500Y-98145074D01*
X149542069Y-98525480D01*
X149833220Y-98816631D01*
X150213626Y-98974200D01*
X150333300Y-98974200D01*
X150333300Y-98990374D01*
X150490869Y-99370780D01*
X150782020Y-99661931D01*
X151162426Y-99819500D01*
X151328498Y-99819500D01*
X151623471Y-100114473D01*
X151665871Y-100177929D01*
X151917263Y-100345904D01*
X151917560Y-100345963D01*
X151917560Y-100475000D01*
X151939440Y-100585000D01*
X151917560Y-100695000D01*
X151917560Y-101105000D01*
X151940435Y-101220000D01*
X151917560Y-101335000D01*
X151917560Y-101745000D01*
X151939440Y-101855000D01*
X151917560Y-101965000D01*
X151917560Y-102375000D01*
X151935530Y-102465341D01*
X151930000Y-102478691D01*
X151930000Y-102548750D01*
X151957613Y-102576363D01*
X151966843Y-102622765D01*
X152107191Y-102832809D01*
X152226456Y-102912500D01*
X152088750Y-102912500D01*
X151930000Y-103071250D01*
X151930000Y-103141309D01*
X152026673Y-103374698D01*
X152205301Y-103553327D01*
X152438690Y-103650000D01*
X154034250Y-103650000D01*
X154193000Y-103491250D01*
X154193000Y-103022440D01*
X154447000Y-103022440D01*
X154447000Y-103491250D01*
X154605750Y-103650000D01*
X154862397Y-103650000D01*
X151702399Y-106810000D01*
X136927774Y-106810000D01*
X136792481Y-106607519D01*
X136350891Y-106312458D01*
X136288261Y-106300000D01*
X136350891Y-106287542D01*
X136792481Y-105992481D01*
X136927411Y-105790544D01*
X136930147Y-105790000D01*
X136930152Y-105790000D01*
X137151837Y-105745904D01*
X137403229Y-105577929D01*
X137445631Y-105514470D01*
X147329102Y-95631000D01*
X148612600Y-95631000D01*
X148612600Y-95802174D01*
G36*
X164079582Y-58295839D02*
X164512744Y-58382000D01*
X164805256Y-58382000D01*
X165092800Y-58324804D01*
X165092801Y-84943997D01*
X157645255Y-92391544D01*
X157446280Y-92192569D01*
X157065874Y-92035000D01*
X156654126Y-92035000D01*
X156584128Y-92063994D01*
X156551391Y-92015000D01*
X156673157Y-91832765D01*
X156684870Y-91773880D01*
X156710000Y-91748750D01*
X156710000Y-91678691D01*
X156705814Y-91668585D01*
X156722440Y-91585000D01*
X156722440Y-91175000D01*
X156704470Y-91084659D01*
X156710000Y-91071309D01*
X156710000Y-91001250D01*
X156682387Y-90973637D01*
X156673157Y-90927235D01*
X156551391Y-90745000D01*
X156673157Y-90562765D01*
X156684870Y-90503880D01*
X156710000Y-90478750D01*
X156710000Y-90408691D01*
X156705814Y-90398585D01*
X156722440Y-90315000D01*
X156722440Y-89905000D01*
X156704470Y-89814659D01*
X156710000Y-89801309D01*
X156710000Y-89731250D01*
X156682387Y-89703637D01*
X156673157Y-89657235D01*
X156548040Y-89469985D01*
X156613327Y-89404698D01*
X156683525Y-89235225D01*
X156710000Y-89208750D01*
X156710000Y-89101250D01*
X156683525Y-89074775D01*
X156613327Y-88905302D01*
X156543025Y-88835000D01*
X156613327Y-88764698D01*
X156676454Y-88612296D01*
X156710000Y-88578750D01*
X156710000Y-88461250D01*
X156676454Y-88427704D01*
X156613327Y-88275302D01*
X156548040Y-88210015D01*
X156673157Y-88022765D01*
X156684870Y-87963880D01*
X156710000Y-87938750D01*
X156710000Y-87868691D01*
X156705814Y-87858585D01*
X156722440Y-87775000D01*
X156722440Y-87365000D01*
X156699565Y-87250000D01*
X156722440Y-87135000D01*
X156722440Y-86725000D01*
X156700560Y-86615000D01*
X156722440Y-86505000D01*
X156722440Y-86095000D01*
X156704470Y-86004659D01*
X156710000Y-85991309D01*
X156710000Y-85921250D01*
X156682387Y-85893637D01*
X156673157Y-85847235D01*
X156551391Y-85665000D01*
X156673157Y-85482765D01*
X156684870Y-85423880D01*
X156710000Y-85398750D01*
X156710000Y-85328691D01*
X156705814Y-85318585D01*
X156722440Y-85235000D01*
X156722440Y-84825000D01*
X156704470Y-84734659D01*
X156710000Y-84721309D01*
X156710000Y-84651250D01*
X156682387Y-84623637D01*
X156673157Y-84577235D01*
X156551391Y-84395000D01*
X156673157Y-84212765D01*
X156684870Y-84153880D01*
X156710000Y-84128750D01*
X156710000Y-84058691D01*
X156705814Y-84048585D01*
X156722440Y-83965000D01*
X156722440Y-83555000D01*
X156704470Y-83464659D01*
X156710000Y-83451309D01*
X156710000Y-83381250D01*
X156682387Y-83353637D01*
X156673157Y-83307235D01*
X156551391Y-83125000D01*
X156673157Y-82942765D01*
X156684870Y-82883880D01*
X156710000Y-82858750D01*
X156710000Y-82788691D01*
X156705814Y-82778585D01*
X156722440Y-82695000D01*
X156722440Y-82285000D01*
X156704470Y-82194659D01*
X156710000Y-82181309D01*
X156710000Y-82111250D01*
X156682387Y-82083637D01*
X156673157Y-82037235D01*
X156551391Y-81855000D01*
X156673157Y-81672765D01*
X156684870Y-81613880D01*
X156710000Y-81588750D01*
X156710000Y-81518691D01*
X156705814Y-81508585D01*
X156722440Y-81425000D01*
X156722440Y-81015000D01*
X156704470Y-80924659D01*
X156710000Y-80911309D01*
X156710000Y-80841250D01*
X156682387Y-80813637D01*
X156673157Y-80767235D01*
X156551391Y-80585000D01*
X156673157Y-80402765D01*
X156684870Y-80343880D01*
X156710000Y-80318750D01*
X156710000Y-80248691D01*
X156705814Y-80238585D01*
X156722440Y-80155000D01*
X156722440Y-79745000D01*
X156699565Y-79630000D01*
X156722440Y-79515000D01*
X156722440Y-79105000D01*
X156700560Y-78995000D01*
X156722440Y-78885000D01*
X156722440Y-78475000D01*
X156699565Y-78360000D01*
X156722440Y-78245000D01*
X156722440Y-77835000D01*
X156700560Y-77725000D01*
X156722440Y-77615000D01*
X156722440Y-77205000D01*
X156699565Y-77090000D01*
X156722440Y-76975000D01*
X156722440Y-76565000D01*
X156700560Y-76455000D01*
X156722440Y-76345000D01*
X156722440Y-75935000D01*
X156699565Y-75820000D01*
X156722440Y-75705000D01*
X156722440Y-75295000D01*
X156700560Y-75185000D01*
X156722440Y-75075000D01*
X156722440Y-74665000D01*
X156699565Y-74550000D01*
X156722440Y-74435000D01*
X156722440Y-74025000D01*
X156700560Y-73915000D01*
X156722440Y-73805000D01*
X156722440Y-73395000D01*
X156699565Y-73280000D01*
X156722440Y-73165000D01*
X156722440Y-72755000D01*
X156700560Y-72645000D01*
X156722440Y-72535000D01*
X156722440Y-72125000D01*
X156704470Y-72034659D01*
X156710000Y-72021309D01*
X156710000Y-71951250D01*
X156682387Y-71923637D01*
X156673157Y-71877235D01*
X156532809Y-71667191D01*
X156413544Y-71587500D01*
X156551250Y-71587500D01*
X156710000Y-71428750D01*
X156710000Y-71358691D01*
X156613327Y-71125302D01*
X156434699Y-70946673D01*
X156201310Y-70850000D01*
X154605750Y-70850000D01*
X154447000Y-71008750D01*
X154447000Y-71477560D01*
X154193000Y-71477560D01*
X154193000Y-71008750D01*
X154034250Y-70850000D01*
X152438690Y-70850000D01*
X152205301Y-70946673D01*
X152026673Y-71125302D01*
X151930000Y-71358691D01*
X151930000Y-71428750D01*
X152088750Y-71587500D01*
X152226456Y-71587500D01*
X152107191Y-71667191D01*
X151966843Y-71877235D01*
X151957613Y-71923637D01*
X151930000Y-71951250D01*
X151930000Y-72021309D01*
X151935530Y-72034659D01*
X151917560Y-72125000D01*
X151917560Y-72182400D01*
X150477311Y-72182400D01*
X150359880Y-72064969D01*
X149979474Y-71907400D01*
X149567726Y-71907400D01*
X149187320Y-72064969D01*
X149023395Y-72228894D01*
X148895600Y-72101099D01*
X148895600Y-70136911D01*
X149013031Y-70019480D01*
X149170600Y-69639074D01*
X149170600Y-69227326D01*
X149013031Y-68846920D01*
X148931111Y-68765000D01*
X151042853Y-68765000D01*
X151117700Y-68779888D01*
X151192547Y-68765000D01*
X151192552Y-68765000D01*
X151414237Y-68720904D01*
X151665629Y-68552929D01*
X151708031Y-68489470D01*
X157057560Y-63139942D01*
X157057560Y-64610000D01*
X157061538Y-64630000D01*
X156816860Y-64630000D01*
X155850225Y-65030393D01*
X155110393Y-65770225D01*
X154710000Y-66736860D01*
X154710000Y-67783140D01*
X155110393Y-68749775D01*
X155850225Y-69489607D01*
X156816860Y-69890000D01*
X157863140Y-69890000D01*
X158829775Y-69489607D01*
X159569607Y-68749775D01*
X159639394Y-68581294D01*
X160034615Y-68745000D01*
X160625385Y-68745000D01*
X161171185Y-68518922D01*
X161588922Y-68101185D01*
X161815000Y-67555385D01*
X161815000Y-66964615D01*
X161588922Y-66418815D01*
X161171185Y-66001078D01*
X160625385Y-65775000D01*
X160034615Y-65775000D01*
X159639394Y-65938706D01*
X159569607Y-65770225D01*
X159056822Y-65257440D01*
X162275000Y-65257440D01*
X162522765Y-65208157D01*
X162732809Y-65067809D01*
X162873157Y-64857765D01*
X162922440Y-64610000D01*
X162922440Y-62610000D01*
X162873157Y-62362235D01*
X162732809Y-62152191D01*
X162522765Y-62011843D01*
X162275000Y-61962560D01*
X158234943Y-61962560D01*
X159278903Y-60918600D01*
X160456053Y-60918600D01*
X160530900Y-60933488D01*
X160605747Y-60918600D01*
X160605752Y-60918600D01*
X160827437Y-60874504D01*
X161078829Y-60706529D01*
X161121231Y-60643070D01*
X163713243Y-58051059D01*
X164079582Y-58295839D01*
X164079582Y-58295839D01*
G37*
X164079582Y-58295839D02*
X164512744Y-58382000D01*
X164805256Y-58382000D01*
X165092800Y-58324804D01*
X165092801Y-84943997D01*
X157645255Y-92391544D01*
X157446280Y-92192569D01*
X157065874Y-92035000D01*
X156654126Y-92035000D01*
X156584128Y-92063994D01*
X156551391Y-92015000D01*
X156673157Y-91832765D01*
X156684870Y-91773880D01*
X156710000Y-91748750D01*
X156710000Y-91678691D01*
X156705814Y-91668585D01*
X156722440Y-91585000D01*
X156722440Y-91175000D01*
X156704470Y-91084659D01*
X156710000Y-91071309D01*
X156710000Y-91001250D01*
X156682387Y-90973637D01*
X156673157Y-90927235D01*
X156551391Y-90745000D01*
X156673157Y-90562765D01*
X156684870Y-90503880D01*
X156710000Y-90478750D01*
X156710000Y-90408691D01*
X156705814Y-90398585D01*
X156722440Y-90315000D01*
X156722440Y-89905000D01*
X156704470Y-89814659D01*
X156710000Y-89801309D01*
X156710000Y-89731250D01*
X156682387Y-89703637D01*
X156673157Y-89657235D01*
X156548040Y-89469985D01*
X156613327Y-89404698D01*
X156683525Y-89235225D01*
X156710000Y-89208750D01*
X156710000Y-89101250D01*
X156683525Y-89074775D01*
X156613327Y-88905302D01*
X156543025Y-88835000D01*
X156613327Y-88764698D01*
X156676454Y-88612296D01*
X156710000Y-88578750D01*
X156710000Y-88461250D01*
X156676454Y-88427704D01*
X156613327Y-88275302D01*
X156548040Y-88210015D01*
X156673157Y-88022765D01*
X156684870Y-87963880D01*
X156710000Y-87938750D01*
X156710000Y-87868691D01*
X156705814Y-87858585D01*
X156722440Y-87775000D01*
X156722440Y-87365000D01*
X156699565Y-87250000D01*
X156722440Y-87135000D01*
X156722440Y-86725000D01*
X156700560Y-86615000D01*
X156722440Y-86505000D01*
X156722440Y-86095000D01*
X156704470Y-86004659D01*
X156710000Y-85991309D01*
X156710000Y-85921250D01*
X156682387Y-85893637D01*
X156673157Y-85847235D01*
X156551391Y-85665000D01*
X156673157Y-85482765D01*
X156684870Y-85423880D01*
X156710000Y-85398750D01*
X156710000Y-85328691D01*
X156705814Y-85318585D01*
X156722440Y-85235000D01*
X156722440Y-84825000D01*
X156704470Y-84734659D01*
X156710000Y-84721309D01*
X156710000Y-84651250D01*
X156682387Y-84623637D01*
X156673157Y-84577235D01*
X156551391Y-84395000D01*
X156673157Y-84212765D01*
X156684870Y-84153880D01*
X156710000Y-84128750D01*
X156710000Y-84058691D01*
X156705814Y-84048585D01*
X156722440Y-83965000D01*
X156722440Y-83555000D01*
X156704470Y-83464659D01*
X156710000Y-83451309D01*
X156710000Y-83381250D01*
X156682387Y-83353637D01*
X156673157Y-83307235D01*
X156551391Y-83125000D01*
X156673157Y-82942765D01*
X156684870Y-82883880D01*
X156710000Y-82858750D01*
X156710000Y-82788691D01*
X156705814Y-82778585D01*
X156722440Y-82695000D01*
X156722440Y-82285000D01*
X156704470Y-82194659D01*
X156710000Y-82181309D01*
X156710000Y-82111250D01*
X156682387Y-82083637D01*
X156673157Y-82037235D01*
X156551391Y-81855000D01*
X156673157Y-81672765D01*
X156684870Y-81613880D01*
X156710000Y-81588750D01*
X156710000Y-81518691D01*
X156705814Y-81508585D01*
X156722440Y-81425000D01*
X156722440Y-81015000D01*
X156704470Y-80924659D01*
X156710000Y-80911309D01*
X156710000Y-80841250D01*
X156682387Y-80813637D01*
X156673157Y-80767235D01*
X156551391Y-80585000D01*
X156673157Y-80402765D01*
X156684870Y-80343880D01*
X156710000Y-80318750D01*
X156710000Y-80248691D01*
X156705814Y-80238585D01*
X156722440Y-80155000D01*
X156722440Y-79745000D01*
X156699565Y-79630000D01*
X156722440Y-79515000D01*
X156722440Y-79105000D01*
X156700560Y-78995000D01*
X156722440Y-78885000D01*
X156722440Y-78475000D01*
X156699565Y-78360000D01*
X156722440Y-78245000D01*
X156722440Y-77835000D01*
X156700560Y-77725000D01*
X156722440Y-77615000D01*
X156722440Y-77205000D01*
X156699565Y-77090000D01*
X156722440Y-76975000D01*
X156722440Y-76565000D01*
X156700560Y-76455000D01*
X156722440Y-76345000D01*
X156722440Y-75935000D01*
X156699565Y-75820000D01*
X156722440Y-75705000D01*
X156722440Y-75295000D01*
X156700560Y-75185000D01*
X156722440Y-75075000D01*
X156722440Y-74665000D01*
X156699565Y-74550000D01*
X156722440Y-74435000D01*
X156722440Y-74025000D01*
X156700560Y-73915000D01*
X156722440Y-73805000D01*
X156722440Y-73395000D01*
X156699565Y-73280000D01*
X156722440Y-73165000D01*
X156722440Y-72755000D01*
X156700560Y-72645000D01*
X156722440Y-72535000D01*
X156722440Y-72125000D01*
X156704470Y-72034659D01*
X156710000Y-72021309D01*
X156710000Y-71951250D01*
X156682387Y-71923637D01*
X156673157Y-71877235D01*
X156532809Y-71667191D01*
X156413544Y-71587500D01*
X156551250Y-71587500D01*
X156710000Y-71428750D01*
X156710000Y-71358691D01*
X156613327Y-71125302D01*
X156434699Y-70946673D01*
X156201310Y-70850000D01*
X154605750Y-70850000D01*
X154447000Y-71008750D01*
X154447000Y-71477560D01*
X154193000Y-71477560D01*
X154193000Y-71008750D01*
X154034250Y-70850000D01*
X152438690Y-70850000D01*
X152205301Y-70946673D01*
X152026673Y-71125302D01*
X151930000Y-71358691D01*
X151930000Y-71428750D01*
X152088750Y-71587500D01*
X152226456Y-71587500D01*
X152107191Y-71667191D01*
X151966843Y-71877235D01*
X151957613Y-71923637D01*
X151930000Y-71951250D01*
X151930000Y-72021309D01*
X151935530Y-72034659D01*
X151917560Y-72125000D01*
X151917560Y-72182400D01*
X150477311Y-72182400D01*
X150359880Y-72064969D01*
X149979474Y-71907400D01*
X149567726Y-71907400D01*
X149187320Y-72064969D01*
X149023395Y-72228894D01*
X148895600Y-72101099D01*
X148895600Y-70136911D01*
X149013031Y-70019480D01*
X149170600Y-69639074D01*
X149170600Y-69227326D01*
X149013031Y-68846920D01*
X148931111Y-68765000D01*
X151042853Y-68765000D01*
X151117700Y-68779888D01*
X151192547Y-68765000D01*
X151192552Y-68765000D01*
X151414237Y-68720904D01*
X151665629Y-68552929D01*
X151708031Y-68489470D01*
X157057560Y-63139942D01*
X157057560Y-64610000D01*
X157061538Y-64630000D01*
X156816860Y-64630000D01*
X155850225Y-65030393D01*
X155110393Y-65770225D01*
X154710000Y-66736860D01*
X154710000Y-67783140D01*
X155110393Y-68749775D01*
X155850225Y-69489607D01*
X156816860Y-69890000D01*
X157863140Y-69890000D01*
X158829775Y-69489607D01*
X159569607Y-68749775D01*
X159639394Y-68581294D01*
X160034615Y-68745000D01*
X160625385Y-68745000D01*
X161171185Y-68518922D01*
X161588922Y-68101185D01*
X161815000Y-67555385D01*
X161815000Y-66964615D01*
X161588922Y-66418815D01*
X161171185Y-66001078D01*
X160625385Y-65775000D01*
X160034615Y-65775000D01*
X159639394Y-65938706D01*
X159569607Y-65770225D01*
X159056822Y-65257440D01*
X162275000Y-65257440D01*
X162522765Y-65208157D01*
X162732809Y-65067809D01*
X162873157Y-64857765D01*
X162922440Y-64610000D01*
X162922440Y-62610000D01*
X162873157Y-62362235D01*
X162732809Y-62152191D01*
X162522765Y-62011843D01*
X162275000Y-61962560D01*
X158234943Y-61962560D01*
X159278903Y-60918600D01*
X160456053Y-60918600D01*
X160530900Y-60933488D01*
X160605747Y-60918600D01*
X160605752Y-60918600D01*
X160827437Y-60874504D01*
X161078829Y-60706529D01*
X161121231Y-60643070D01*
X163713243Y-58051059D01*
X164079582Y-58295839D01*
G36*
X154447000Y-88987000D02*
X154193000Y-88987000D01*
X154193000Y-88693000D01*
X154447000Y-88693000D01*
X154447000Y-88987000D01*
X154447000Y-88987000D01*
G37*
X154447000Y-88987000D02*
X154193000Y-88987000D01*
X154193000Y-88693000D01*
X154447000Y-88693000D01*
X154447000Y-88987000D01*
G36*
X147258169Y-68846920D02*
X147100600Y-69227326D01*
X147100600Y-69639074D01*
X147258169Y-70019480D01*
X147375601Y-70136912D01*
X147375600Y-72341053D01*
X147360712Y-72415900D01*
X147375600Y-72490747D01*
X147375600Y-72490751D01*
X147419696Y-72712436D01*
X147587671Y-72963829D01*
X147651130Y-73006231D01*
X150629371Y-75984473D01*
X150671771Y-76047929D01*
X150752146Y-76101634D01*
X150666200Y-76309126D01*
X150666200Y-76720874D01*
X150823769Y-77101280D01*
X150914389Y-77191900D01*
X150712569Y-77393720D01*
X150555000Y-77774126D01*
X150555000Y-78185874D01*
X150705826Y-78550000D01*
X132640101Y-78550000D01*
X132495631Y-78405530D01*
X132453229Y-78342071D01*
X132201837Y-78174096D01*
X132012474Y-78136429D01*
X131800625Y-77819375D01*
X131502239Y-77620000D01*
X131800625Y-77420625D01*
X132128839Y-76929418D01*
X132244092Y-76350000D01*
X132128839Y-75770582D01*
X131800625Y-75279375D01*
X131502239Y-75080000D01*
X131800625Y-74880625D01*
X132128839Y-74389418D01*
X132244092Y-73810000D01*
X132128839Y-73230582D01*
X131800625Y-72739375D01*
X131502239Y-72540000D01*
X131800625Y-72340625D01*
X132128839Y-71849418D01*
X132244092Y-71270000D01*
X132128839Y-70690582D01*
X132112013Y-70665400D01*
X133409153Y-70665400D01*
X133484000Y-70680288D01*
X133558847Y-70665400D01*
X133558852Y-70665400D01*
X133780537Y-70621304D01*
X134031929Y-70453329D01*
X134074331Y-70389870D01*
X135699203Y-68765000D01*
X147340089Y-68765000D01*
X147258169Y-68846920D01*
X147258169Y-68846920D01*
G37*
X147258169Y-68846920D02*
X147100600Y-69227326D01*
X147100600Y-69639074D01*
X147258169Y-70019480D01*
X147375601Y-70136912D01*
X147375600Y-72341053D01*
X147360712Y-72415900D01*
X147375600Y-72490747D01*
X147375600Y-72490751D01*
X147419696Y-72712436D01*
X147587671Y-72963829D01*
X147651130Y-73006231D01*
X150629371Y-75984473D01*
X150671771Y-76047929D01*
X150752146Y-76101634D01*
X150666200Y-76309126D01*
X150666200Y-76720874D01*
X150823769Y-77101280D01*
X150914389Y-77191900D01*
X150712569Y-77393720D01*
X150555000Y-77774126D01*
X150555000Y-78185874D01*
X150705826Y-78550000D01*
X132640101Y-78550000D01*
X132495631Y-78405530D01*
X132453229Y-78342071D01*
X132201837Y-78174096D01*
X132012474Y-78136429D01*
X131800625Y-77819375D01*
X131502239Y-77620000D01*
X131800625Y-77420625D01*
X132128839Y-76929418D01*
X132244092Y-76350000D01*
X132128839Y-75770582D01*
X131800625Y-75279375D01*
X131502239Y-75080000D01*
X131800625Y-74880625D01*
X132128839Y-74389418D01*
X132244092Y-73810000D01*
X132128839Y-73230582D01*
X131800625Y-72739375D01*
X131502239Y-72540000D01*
X131800625Y-72340625D01*
X132128839Y-71849418D01*
X132244092Y-71270000D01*
X132128839Y-70690582D01*
X132112013Y-70665400D01*
X133409153Y-70665400D01*
X133484000Y-70680288D01*
X133558847Y-70665400D01*
X133558852Y-70665400D01*
X133780537Y-70621304D01*
X134031929Y-70453329D01*
X134074331Y-70389870D01*
X135699203Y-68765000D01*
X147340089Y-68765000D01*
X147258169Y-68846920D01*
G36*
X145808375Y-57967625D02*
X146160974Y-58203224D01*
X141093799Y-63270400D01*
X126882646Y-63270400D01*
X126807799Y-63255512D01*
X126732952Y-63270400D01*
X126732948Y-63270400D01*
X126511263Y-63314496D01*
X126259871Y-63482471D01*
X126217471Y-63545927D01*
X123368999Y-66394400D01*
X122468029Y-66394400D01*
X122625000Y-66015439D01*
X122625000Y-65444561D01*
X122406534Y-64917138D01*
X122125000Y-64635604D01*
X122125000Y-57832000D01*
X122538467Y-57832000D01*
X122570843Y-57994765D01*
X122711191Y-58204809D01*
X122921235Y-58345157D01*
X123169000Y-58394440D01*
X124869000Y-58394440D01*
X125116765Y-58345157D01*
X125326809Y-58204809D01*
X125467157Y-57994765D01*
X125476184Y-57949381D01*
X125488375Y-57967625D01*
X125979582Y-58295839D01*
X126412744Y-58382000D01*
X126705256Y-58382000D01*
X127138418Y-58295839D01*
X127629625Y-57967625D01*
X127829000Y-57669239D01*
X128028375Y-57967625D01*
X128519582Y-58295839D01*
X128952744Y-58382000D01*
X129245256Y-58382000D01*
X129678418Y-58295839D01*
X130169625Y-57967625D01*
X130369000Y-57669239D01*
X130568375Y-57967625D01*
X131059582Y-58295839D01*
X131492744Y-58382000D01*
X131785256Y-58382000D01*
X132218418Y-58295839D01*
X132709625Y-57967625D01*
X132909000Y-57669239D01*
X133108375Y-57967625D01*
X133599582Y-58295839D01*
X134032744Y-58382000D01*
X134325256Y-58382000D01*
X134758418Y-58295839D01*
X135249625Y-57967625D01*
X135449000Y-57669239D01*
X135648375Y-57967625D01*
X136139582Y-58295839D01*
X136572744Y-58382000D01*
X136865256Y-58382000D01*
X137298418Y-58295839D01*
X137789625Y-57967625D01*
X137989000Y-57669239D01*
X138188375Y-57967625D01*
X138679582Y-58295839D01*
X139112744Y-58382000D01*
X139405256Y-58382000D01*
X139838418Y-58295839D01*
X140329625Y-57967625D01*
X140529000Y-57669239D01*
X140728375Y-57967625D01*
X141219582Y-58295839D01*
X141652744Y-58382000D01*
X141945256Y-58382000D01*
X142378418Y-58295839D01*
X142869625Y-57967625D01*
X143069000Y-57669239D01*
X143268375Y-57967625D01*
X143759582Y-58295839D01*
X144192744Y-58382000D01*
X144485256Y-58382000D01*
X144918418Y-58295839D01*
X145409625Y-57967625D01*
X145609000Y-57669239D01*
X145808375Y-57967625D01*
X145808375Y-57967625D01*
G37*
X145808375Y-57967625D02*
X146160974Y-58203224D01*
X141093799Y-63270400D01*
X126882646Y-63270400D01*
X126807799Y-63255512D01*
X126732952Y-63270400D01*
X126732948Y-63270400D01*
X126511263Y-63314496D01*
X126259871Y-63482471D01*
X126217471Y-63545927D01*
X123368999Y-66394400D01*
X122468029Y-66394400D01*
X122625000Y-66015439D01*
X122625000Y-65444561D01*
X122406534Y-64917138D01*
X122125000Y-64635604D01*
X122125000Y-57832000D01*
X122538467Y-57832000D01*
X122570843Y-57994765D01*
X122711191Y-58204809D01*
X122921235Y-58345157D01*
X123169000Y-58394440D01*
X124869000Y-58394440D01*
X125116765Y-58345157D01*
X125326809Y-58204809D01*
X125467157Y-57994765D01*
X125476184Y-57949381D01*
X125488375Y-57967625D01*
X125979582Y-58295839D01*
X126412744Y-58382000D01*
X126705256Y-58382000D01*
X127138418Y-58295839D01*
X127629625Y-57967625D01*
X127829000Y-57669239D01*
X128028375Y-57967625D01*
X128519582Y-58295839D01*
X128952744Y-58382000D01*
X129245256Y-58382000D01*
X129678418Y-58295839D01*
X130169625Y-57967625D01*
X130369000Y-57669239D01*
X130568375Y-57967625D01*
X131059582Y-58295839D01*
X131492744Y-58382000D01*
X131785256Y-58382000D01*
X132218418Y-58295839D01*
X132709625Y-57967625D01*
X132909000Y-57669239D01*
X133108375Y-57967625D01*
X133599582Y-58295839D01*
X134032744Y-58382000D01*
X134325256Y-58382000D01*
X134758418Y-58295839D01*
X135249625Y-57967625D01*
X135449000Y-57669239D01*
X135648375Y-57967625D01*
X136139582Y-58295839D01*
X136572744Y-58382000D01*
X136865256Y-58382000D01*
X137298418Y-58295839D01*
X137789625Y-57967625D01*
X137989000Y-57669239D01*
X138188375Y-57967625D01*
X138679582Y-58295839D01*
X139112744Y-58382000D01*
X139405256Y-58382000D01*
X139838418Y-58295839D01*
X140329625Y-57967625D01*
X140529000Y-57669239D01*
X140728375Y-57967625D01*
X141219582Y-58295839D01*
X141652744Y-58382000D01*
X141945256Y-58382000D01*
X142378418Y-58295839D01*
X142869625Y-57967625D01*
X143069000Y-57669239D01*
X143268375Y-57967625D01*
X143759582Y-58295839D01*
X144192744Y-58382000D01*
X144485256Y-58382000D01*
X144918418Y-58295839D01*
X145409625Y-57967625D01*
X145609000Y-57669239D01*
X145808375Y-57967625D01*
G04 #@! TD*
M02*
