G04 #@! TF.GenerationSoftware,KiCad,Pcbnew,(5.0.0-3-g5ebb6b6)*
G04 #@! TF.CreationDate,2018-12-13T20:58:23+09:00*
G04 #@! TF.ProjectId,SBC80-CF,53424338302D43462E6B696361645F70,rev?*
G04 #@! TF.SameCoordinates,Original*
G04 #@! TF.FileFunction,Soldermask,Top*
G04 #@! TF.FilePolarity,Negative*
%FSLAX46Y46*%
G04 Gerber Fmt 4.6, Leading zero omitted, Abs format (unit mm)*
G04 Created by KiCad (PCBNEW (5.0.0-3-g5ebb6b6)) date *
%MOMM*%
%LPD*%
G01*
G04 APERTURE LIST*
%ADD10R,3.910000X0.810000*%
%ADD11C,4.390000*%
%ADD12C,2.100000*%
%ADD13R,4.970000X2.400000*%
%ADD14R,2.100000X2.100000*%
%ADD15O,2.100000X2.100000*%
%ADD16R,2.200000X2.200000*%
%ADD17C,2.200000*%
%ADD18C,3.600000*%
%ADD19C,2.000000*%
%ADD20R,2.000000X2.000000*%
%ADD21C,1.800000*%
%ADD22O,1.800000X1.800000*%
%ADD23O,2.000000X2.000000*%
G04 APERTURE END LIST*
D10*
G04 #@! TO.C,J3*
X154320000Y-71690000D03*
X154320000Y-72330000D03*
X154320000Y-72960000D03*
X154320000Y-73600000D03*
X154320000Y-74230000D03*
X154320000Y-74870000D03*
X154320000Y-75500000D03*
X154320000Y-76140000D03*
X154320000Y-76770000D03*
X154320000Y-77410000D03*
X154320000Y-78040000D03*
X154320000Y-78680000D03*
X154320000Y-79310000D03*
X154320000Y-79950000D03*
X154320000Y-80580000D03*
X154320000Y-81220000D03*
X154320000Y-81850000D03*
X154320000Y-82490000D03*
X154320000Y-83120000D03*
X154320000Y-83760000D03*
X154320000Y-84390000D03*
X154320000Y-85030000D03*
X154320000Y-85660000D03*
X154320000Y-86300000D03*
X154320000Y-86930000D03*
X154320000Y-87570000D03*
X154320000Y-88200000D03*
X154320000Y-88840000D03*
X154320000Y-89470000D03*
X154320000Y-90110000D03*
X154320000Y-90740000D03*
X154320000Y-91380000D03*
X154320000Y-92010000D03*
X154320000Y-92650000D03*
X154320000Y-93280000D03*
X154320000Y-93920000D03*
X154320000Y-94550000D03*
X154320000Y-95190000D03*
X154320000Y-95820000D03*
X154320000Y-96460000D03*
X154320000Y-97090000D03*
X154320000Y-97730000D03*
X154320000Y-98360000D03*
X154320000Y-99000000D03*
X154320000Y-99630000D03*
X154320000Y-100270000D03*
X154320000Y-100900000D03*
X154320000Y-101540000D03*
X154320000Y-102170000D03*
X154320000Y-102810000D03*
D11*
X157330000Y-107260000D03*
X157340000Y-67260000D03*
D12*
X160320000Y-107260000D03*
X160330000Y-67260000D03*
D13*
X159990000Y-63610000D03*
X159980000Y-110890000D03*
G04 #@! TD*
D14*
G04 #@! TO.C,J2*
X128190000Y-68730000D03*
D15*
X130730000Y-68730000D03*
X128190000Y-71270000D03*
X130730000Y-71270000D03*
X128190000Y-73810000D03*
X130730000Y-73810000D03*
X128190000Y-76350000D03*
X130730000Y-76350000D03*
X128190000Y-78890000D03*
X130730000Y-78890000D03*
X128190000Y-81430000D03*
X130730000Y-81430000D03*
X128190000Y-83970000D03*
X130730000Y-83970000D03*
X128190000Y-86510000D03*
X130730000Y-86510000D03*
G04 #@! TD*
D16*
G04 #@! TO.C,D1*
X145990000Y-110110000D03*
D17*
X143450000Y-110110000D03*
G04 #@! TD*
D18*
G04 #@! TO.C,MH4*
X193460000Y-114520000D03*
G04 #@! TD*
G04 #@! TO.C,MH3*
X104500000Y-114520000D03*
G04 #@! TD*
G04 #@! TO.C,MH2*
X193190000Y-48580000D03*
G04 #@! TD*
G04 #@! TO.C,MH1*
X104510000Y-48610000D03*
G04 #@! TD*
D19*
G04 #@! TO.C,C1*
X121190000Y-65730000D03*
X116190000Y-65730000D03*
G04 #@! TD*
G04 #@! TO.C,C2*
X116190000Y-91730000D03*
X121190000Y-91730000D03*
G04 #@! TD*
D20*
G04 #@! TO.C,C3*
X114000000Y-57000000D03*
D19*
X114000000Y-54500000D03*
G04 #@! TD*
D21*
G04 #@! TO.C,R1*
X128210000Y-99950000D03*
D22*
X135830000Y-99950000D03*
G04 #@! TD*
G04 #@! TO.C,R2*
X135830000Y-102490000D03*
D21*
X128210000Y-102490000D03*
G04 #@! TD*
G04 #@! TO.C,R3*
X128210000Y-105030000D03*
D22*
X135830000Y-105030000D03*
G04 #@! TD*
G04 #@! TO.C,R4*
X135830000Y-107570000D03*
D21*
X128210000Y-107570000D03*
G04 #@! TD*
G04 #@! TO.C,R5*
X128210000Y-110110000D03*
D22*
X135830000Y-110110000D03*
G04 #@! TD*
D20*
G04 #@! TO.C,U1*
X113190000Y-68730000D03*
D23*
X120810000Y-86510000D03*
X113190000Y-71270000D03*
X120810000Y-83970000D03*
X113190000Y-73810000D03*
X120810000Y-81430000D03*
X113190000Y-76350000D03*
X120810000Y-78890000D03*
X113190000Y-78890000D03*
X120810000Y-76350000D03*
X113190000Y-81430000D03*
X120810000Y-73810000D03*
X113190000Y-83970000D03*
X120810000Y-71270000D03*
X113190000Y-86510000D03*
X120810000Y-68730000D03*
G04 #@! TD*
D20*
G04 #@! TO.C,U2*
X113190000Y-94730000D03*
D23*
X120810000Y-109970000D03*
X113190000Y-97270000D03*
X120810000Y-107430000D03*
X113190000Y-99810000D03*
X120810000Y-104890000D03*
X113190000Y-102350000D03*
X120810000Y-102350000D03*
X113190000Y-104890000D03*
X120810000Y-99810000D03*
X113190000Y-107430000D03*
X120810000Y-97270000D03*
X113190000Y-109970000D03*
X120810000Y-94730000D03*
G04 #@! TD*
D14*
G04 #@! TO.C,J1*
X124019000Y-56897000D03*
D15*
X124019000Y-54357000D03*
X126559000Y-56897000D03*
X126559000Y-54357000D03*
X129099000Y-56897000D03*
X129099000Y-54357000D03*
X131639000Y-56897000D03*
X131639000Y-54357000D03*
X134179000Y-56897000D03*
X134179000Y-54357000D03*
X136719000Y-56897000D03*
X136719000Y-54357000D03*
X139259000Y-56897000D03*
X139259000Y-54357000D03*
X141799000Y-56897000D03*
X141799000Y-54357000D03*
X144339000Y-56897000D03*
X144339000Y-54357000D03*
X146879000Y-56897000D03*
X146879000Y-54357000D03*
X149419000Y-56897000D03*
X149419000Y-54357000D03*
X151959000Y-56897000D03*
X151959000Y-54357000D03*
X154499000Y-56897000D03*
X154499000Y-54357000D03*
X157039000Y-56897000D03*
X157039000Y-54357000D03*
X159579000Y-56897000D03*
X159579000Y-54357000D03*
X162119000Y-56897000D03*
X162119000Y-54357000D03*
X164659000Y-56897000D03*
X164659000Y-54357000D03*
X167199000Y-56897000D03*
X167199000Y-54357000D03*
X169739000Y-56897000D03*
X169739000Y-54357000D03*
X172279000Y-56897000D03*
X172279000Y-54357000D03*
G04 #@! TD*
M02*
