G04 #@! TF.GenerationSoftware,KiCad,Pcbnew,(5.0.0-3-g5ebb6b6)*
G04 #@! TF.CreationDate,2019-01-10T21:14:54+09:00*
G04 #@! TF.ProjectId,SBC80-CF,53424338302D43462E6B696361645F70,rev?*
G04 #@! TF.SameCoordinates,Original*
G04 #@! TF.FileFunction,Soldermask,Top*
G04 #@! TF.FilePolarity,Negative*
%FSLAX46Y46*%
G04 Gerber Fmt 4.6, Leading zero omitted, Abs format (unit mm)*
G04 Created by KiCad (PCBNEW (5.0.0-3-g5ebb6b6)) date *
%MOMM*%
%LPD*%
G01*
G04 APERTURE LIST*
%ADD10R,2.100000X2.100000*%
%ADD11O,2.100000X2.100000*%
%ADD12R,2.200000X2.200000*%
%ADD13C,2.200000*%
%ADD14C,3.600000*%
%ADD15C,2.000000*%
%ADD16R,2.000000X2.000000*%
%ADD17C,1.800000*%
%ADD18O,1.800000X1.800000*%
%ADD19O,2.000000X2.000000*%
%ADD20C,1.100000*%
%ADD21R,4.400000X3.400000*%
%ADD22R,3.910000X0.810000*%
%ADD23C,4.390000*%
%ADD24C,2.100000*%
%ADD25R,4.970000X2.890000*%
G04 APERTURE END LIST*
D10*
G04 #@! TO.C,J2*
X128190000Y-68730000D03*
D11*
X130730000Y-68730000D03*
X128190000Y-71270000D03*
X130730000Y-71270000D03*
X128190000Y-73810000D03*
X130730000Y-73810000D03*
X128190000Y-76350000D03*
X130730000Y-76350000D03*
X128190000Y-78890000D03*
X130730000Y-78890000D03*
X128190000Y-81430000D03*
X130730000Y-81430000D03*
X128190000Y-83970000D03*
X130730000Y-83970000D03*
X128190000Y-86510000D03*
X130730000Y-86510000D03*
G04 #@! TD*
D12*
G04 #@! TO.C,D1*
X145990000Y-110110000D03*
D13*
X143450000Y-110110000D03*
G04 #@! TD*
D14*
G04 #@! TO.C,MH4*
X193460000Y-114520000D03*
G04 #@! TD*
G04 #@! TO.C,MH3*
X104500000Y-114520000D03*
G04 #@! TD*
G04 #@! TO.C,MH2*
X193190000Y-48580000D03*
G04 #@! TD*
G04 #@! TO.C,MH1*
X104510000Y-48610000D03*
G04 #@! TD*
D15*
G04 #@! TO.C,C1*
X121190000Y-65730000D03*
X116190000Y-65730000D03*
G04 #@! TD*
G04 #@! TO.C,C2*
X116190000Y-91730000D03*
X121190000Y-91730000D03*
G04 #@! TD*
D16*
G04 #@! TO.C,C3*
X114000000Y-57000000D03*
D15*
X114000000Y-54500000D03*
G04 #@! TD*
D17*
G04 #@! TO.C,R1*
X128210000Y-99950000D03*
D18*
X135830000Y-99950000D03*
G04 #@! TD*
G04 #@! TO.C,R2*
X135830000Y-102490000D03*
D17*
X128210000Y-102490000D03*
G04 #@! TD*
G04 #@! TO.C,R3*
X128210000Y-105030000D03*
D18*
X135830000Y-105030000D03*
G04 #@! TD*
G04 #@! TO.C,R4*
X135830000Y-107570000D03*
D17*
X128210000Y-107570000D03*
G04 #@! TD*
G04 #@! TO.C,R5*
X128210000Y-110110000D03*
D18*
X135830000Y-110110000D03*
G04 #@! TD*
D16*
G04 #@! TO.C,U1*
X113190000Y-68730000D03*
D19*
X120810000Y-86510000D03*
X113190000Y-71270000D03*
X120810000Y-83970000D03*
X113190000Y-73810000D03*
X120810000Y-81430000D03*
X113190000Y-76350000D03*
X120810000Y-78890000D03*
X113190000Y-78890000D03*
X120810000Y-76350000D03*
X113190000Y-81430000D03*
X120810000Y-73810000D03*
X113190000Y-83970000D03*
X120810000Y-71270000D03*
X113190000Y-86510000D03*
X120810000Y-68730000D03*
G04 #@! TD*
D16*
G04 #@! TO.C,U2*
X113190000Y-94730000D03*
D19*
X120810000Y-109970000D03*
X113190000Y-97270000D03*
X120810000Y-107430000D03*
X113190000Y-99810000D03*
X120810000Y-104890000D03*
X113190000Y-102350000D03*
X120810000Y-102350000D03*
X113190000Y-104890000D03*
X120810000Y-99810000D03*
X113190000Y-107430000D03*
X120810000Y-97270000D03*
X113190000Y-109970000D03*
X120810000Y-94730000D03*
G04 #@! TD*
D10*
G04 #@! TO.C,J1*
X124019000Y-56897000D03*
D11*
X124019000Y-54357000D03*
X126559000Y-56897000D03*
X126559000Y-54357000D03*
X129099000Y-56897000D03*
X129099000Y-54357000D03*
X131639000Y-56897000D03*
X131639000Y-54357000D03*
X134179000Y-56897000D03*
X134179000Y-54357000D03*
X136719000Y-56897000D03*
X136719000Y-54357000D03*
X139259000Y-56897000D03*
X139259000Y-54357000D03*
X141799000Y-56897000D03*
X141799000Y-54357000D03*
X144339000Y-56897000D03*
X144339000Y-54357000D03*
X146879000Y-56897000D03*
X146879000Y-54357000D03*
X149419000Y-56897000D03*
X149419000Y-54357000D03*
X151959000Y-56897000D03*
X151959000Y-54357000D03*
X154499000Y-56897000D03*
X154499000Y-54357000D03*
X157039000Y-56897000D03*
X157039000Y-54357000D03*
X159579000Y-56897000D03*
X159579000Y-54357000D03*
X162119000Y-56897000D03*
X162119000Y-54357000D03*
X164659000Y-56897000D03*
X164659000Y-54357000D03*
X167199000Y-56897000D03*
X167199000Y-54357000D03*
X169739000Y-56897000D03*
X169739000Y-54357000D03*
X172279000Y-56897000D03*
X172279000Y-54357000D03*
G04 #@! TD*
D20*
G04 #@! TO.C,J3*
X184762000Y-109488000D03*
X184762000Y-63488000D03*
D21*
X181262000Y-109488000D03*
X181262000Y-63088000D03*
D22*
X160262000Y-70928000D03*
X160262000Y-71568000D03*
X160262000Y-72198000D03*
X160262000Y-72838000D03*
X160262000Y-73468000D03*
X160262000Y-74108000D03*
X160262000Y-74738000D03*
X160262000Y-75378000D03*
X160262000Y-76008000D03*
X160262000Y-76648000D03*
X160262000Y-77278000D03*
X160262000Y-77918000D03*
X160262000Y-78548000D03*
X160262000Y-79188000D03*
X160262000Y-79818000D03*
X160262000Y-80458000D03*
X160262000Y-81088000D03*
X160262000Y-81728000D03*
X160262000Y-82358000D03*
X160262000Y-82998000D03*
X160262000Y-83628000D03*
X160262000Y-84268000D03*
X160262000Y-84898000D03*
X160262000Y-85538000D03*
X160262000Y-86168000D03*
X160262000Y-86808000D03*
X160262000Y-87438000D03*
X160262000Y-88078000D03*
X160262000Y-88708000D03*
X160262000Y-89348000D03*
X160262000Y-89978000D03*
X160262000Y-90618000D03*
X160262000Y-91248000D03*
X160262000Y-91888000D03*
X160262000Y-92518000D03*
X160262000Y-93158000D03*
X160262000Y-93788000D03*
X160262000Y-94428000D03*
X160262000Y-95058000D03*
X160262000Y-95698000D03*
X160262000Y-96328000D03*
X160262000Y-96968000D03*
X160262000Y-97598000D03*
X160262000Y-98238000D03*
X160262000Y-98868000D03*
X160262000Y-99508000D03*
X160262000Y-100138000D03*
X160262000Y-100778000D03*
X160262000Y-101408000D03*
X160262000Y-102048000D03*
D23*
X163262000Y-105858000D03*
X163262000Y-67118000D03*
D24*
X166262000Y-105858000D03*
D13*
X166262000Y-67118000D03*
D25*
X165932000Y-63148000D03*
X165932000Y-109828000D03*
G04 #@! TD*
M02*
