M48
;DRILL file {KiCad (5.0.0-3-g5ebb6b6)} date 
;FORMAT={-:-/ absolute / metric / decimal}
FMAT,2
METRIC,TZ
T1C0.400
T2C0.700
T3C0.800
T4C0.900
T5C1.000
T6C1.700
T7C1.800
T8C2.210
T9C3.200
%
G90
G05
M71
T1
X135.195Y-75.185
X135.195Y-87.885
X135.664Y-55.686
X136.465Y-95.505
X142.914Y-97.937
X143.689Y-97.139
X144.465Y-96.34
X145.735Y-95.12
X146.796Y-94.046
X148.569Y-89.978
X156.803Y-79.218
X157.531Y-76.059
X157.889Y-77.666
X159.325Y-63.12
X163.135Y-59.945
X165.04Y-73.28
T2
X128.21Y-99.95
X135.83Y-99.95
X128.21Y-107.57
X135.83Y-107.57
X128.21Y-105.03
X135.83Y-105.03
X128.21Y-102.49
X135.83Y-102.49
X184.762Y-63.488
X184.762Y-109.488
X128.21Y-110.11
X135.83Y-110.11
T3
X114.Y-54.5
X114.Y-57.
X113.19Y-68.73
X113.19Y-71.27
X113.19Y-73.81
X113.19Y-76.35
X113.19Y-78.89
X113.19Y-81.43
X113.19Y-83.97
X113.19Y-86.51
X120.81Y-68.73
X120.81Y-71.27
X120.81Y-73.81
X120.81Y-76.35
X120.81Y-78.89
X120.81Y-81.43
X120.81Y-83.97
X120.81Y-86.51
X116.19Y-91.73
X121.19Y-91.73
X113.19Y-94.73
X113.19Y-97.27
X113.19Y-99.81
X113.19Y-102.35
X113.19Y-104.89
X113.19Y-107.43
X113.19Y-109.97
X120.81Y-94.73
X120.81Y-97.27
X120.81Y-99.81
X120.81Y-102.35
X120.81Y-104.89
X120.81Y-107.43
X120.81Y-109.97
X116.19Y-65.73
X121.19Y-65.73
T4
X143.45Y-110.11
X145.99Y-110.11
T5
X128.19Y-68.73
X128.19Y-71.27
X128.19Y-73.81
X128.19Y-76.35
X128.19Y-78.89
X128.19Y-81.43
X128.19Y-83.97
X128.19Y-86.51
X130.73Y-68.73
X130.73Y-71.27
X130.73Y-73.81
X130.73Y-76.35
X130.73Y-78.89
X130.73Y-81.43
X130.73Y-83.97
X130.73Y-86.51
X124.019Y-54.357
X124.019Y-56.897
X126.559Y-54.357
X126.559Y-56.897
X129.099Y-54.357
X129.099Y-56.897
X131.639Y-54.357
X131.639Y-56.897
X134.179Y-54.357
X134.179Y-56.897
X136.719Y-54.357
X136.719Y-56.897
X139.259Y-54.357
X139.259Y-56.897
X141.799Y-54.357
X141.799Y-56.897
X144.339Y-54.357
X144.339Y-56.897
X146.879Y-54.357
X146.879Y-56.897
X149.419Y-54.357
X149.419Y-56.897
X151.959Y-54.357
X151.959Y-56.897
X154.499Y-54.357
X154.499Y-56.897
X157.039Y-54.357
X157.039Y-56.897
X159.579Y-54.357
X159.579Y-56.897
X162.119Y-54.357
X162.119Y-56.897
X164.659Y-54.357
X164.659Y-56.897
X167.199Y-54.357
X167.199Y-56.897
X169.739Y-54.357
X169.739Y-56.897
X172.279Y-54.357
X172.279Y-56.897
T6
X166.262Y-105.858
T7
X166.262Y-67.118
T8
X163.262Y-67.118
X163.262Y-105.858
T9
X193.46Y-114.52
X104.51Y-48.61
X193.19Y-48.58
X104.5Y-114.52
T0
M30
